%TF.GenerationSoftware,KiCad,Pcbnew,9.0.6-9.0.6~ubuntu24.04.1*%
%TF.CreationDate,2025-12-29T21:52:55+01:00*%
%TF.ProjectId,ModuCard-vesc-to-mms-converter,4d6f6475-4361-4726-942d-766573632d74,rev?*%
%TF.SameCoordinates,Original*%
%TF.FileFunction,Legend,Top*%
%TF.FilePolarity,Positive*%
%FSLAX46Y46*%
G04 Gerber Fmt 4.6, Leading zero omitted, Abs format (unit mm)*
G04 Created by KiCad (PCBNEW 9.0.6-9.0.6~ubuntu24.04.1) date 2025-12-29 21:52:55*
%MOMM*%
%LPD*%
G01*
G04 APERTURE LIST*
G04 Aperture macros list*
%AMRoundRect*
0 Rectangle with rounded corners*
0 $1 Rounding radius*
0 $2 $3 $4 $5 $6 $7 $8 $9 X,Y pos of 4 corners*
0 Add a 4 corners polygon primitive as box body*
4,1,4,$2,$3,$4,$5,$6,$7,$8,$9,$2,$3,0*
0 Add four circle primitives for the rounded corners*
1,1,$1+$1,$2,$3*
1,1,$1+$1,$4,$5*
1,1,$1+$1,$6,$7*
1,1,$1+$1,$8,$9*
0 Add four rect primitives between the rounded corners*
20,1,$1+$1,$2,$3,$4,$5,0*
20,1,$1+$1,$4,$5,$6,$7,0*
20,1,$1+$1,$6,$7,$8,$9,0*
20,1,$1+$1,$8,$9,$2,$3,0*%
G04 Aperture macros list end*
%ADD10C,0.100000*%
%ADD11C,0.200000*%
%ADD12C,0.150000*%
%ADD13C,0.120000*%
%ADD14C,0.000000*%
%ADD15C,0.250000*%
%ADD16RoundRect,0.100000X-0.100000X0.712500X-0.100000X-0.712500X0.100000X-0.712500X0.100000X0.712500X0*%
%ADD17RoundRect,0.135000X-0.135000X-0.185000X0.135000X-0.185000X0.135000X0.185000X-0.135000X0.185000X0*%
%ADD18RoundRect,0.250000X-0.600000X-0.725000X0.600000X-0.725000X0.600000X0.725000X-0.600000X0.725000X0*%
%ADD19O,1.700000X1.950000*%
%ADD20RoundRect,0.225000X0.225000X0.250000X-0.225000X0.250000X-0.225000X-0.250000X0.225000X-0.250000X0*%
%ADD21R,1.600000X1.600000*%
%ADD22O,1.600000X1.600000*%
%ADD23RoundRect,0.135000X0.185000X-0.135000X0.185000X0.135000X-0.185000X0.135000X-0.185000X-0.135000X0*%
%ADD24RoundRect,0.219000X-0.219000X-0.294000X0.219000X-0.294000X0.219000X0.294000X-0.219000X0.294000X0*%
%ADD25RoundRect,0.135000X-0.185000X0.135000X-0.185000X-0.135000X0.185000X-0.135000X0.185000X0.135000X0*%
%ADD26C,0.900000*%
%ADD27C,8.000000*%
%ADD28RoundRect,0.495000X-1.155000X4.255000X-1.155000X-4.255000X1.155000X-4.255000X1.155000X4.255000X0*%
%ADD29C,7.000000*%
%ADD30RoundRect,0.505697X-1.179959X4.794303X-1.179959X-4.794303X1.179959X-4.794303X1.179959X4.794303X0*%
%ADD31RoundRect,0.219000X0.219000X0.294000X-0.219000X0.294000X-0.219000X-0.294000X0.219000X-0.294000X0*%
%ADD32RoundRect,0.219000X-0.294000X0.219000X-0.294000X-0.219000X0.294000X-0.219000X0.294000X0.219000X0*%
%ADD33R,1.400000X1.200000*%
%ADD34RoundRect,0.140000X0.140000X0.170000X-0.140000X0.170000X-0.140000X-0.170000X0.140000X-0.170000X0*%
%ADD35RoundRect,0.219000X0.294000X-0.219000X0.294000X0.219000X-0.294000X0.219000X-0.294000X-0.219000X0*%
%ADD36C,3.200000*%
%ADD37C,1.500000*%
%ADD38C,1.700000*%
%ADD39C,2.400000*%
G04 APERTURE END LIST*
D10*
X186830000Y-93570001D02*
X189440000Y-93570001D01*
X189440000Y-96100001D01*
X186830000Y-96100001D01*
X186830000Y-93570001D01*
X186780000Y-90870001D02*
X189430000Y-90870001D01*
X189430000Y-93420001D01*
X186780000Y-93420001D01*
X186780000Y-90870001D01*
D11*
G36*
X186303293Y-125741976D02*
G01*
X186318440Y-125757122D01*
X186338721Y-125797684D01*
X186338721Y-125864754D01*
X186318440Y-125905316D01*
X186303293Y-125920462D01*
X186262733Y-125940743D01*
X186081578Y-125940743D01*
X186081578Y-125721696D01*
X186262733Y-125721696D01*
X186303293Y-125741976D01*
G37*
G36*
X187709502Y-126093124D02*
G01*
X187606035Y-126093124D01*
X187657768Y-125937923D01*
X187709502Y-126093124D01*
G37*
G36*
X184131864Y-125741976D02*
G01*
X184147011Y-125757122D01*
X184167292Y-125797684D01*
X184167292Y-125864754D01*
X184147011Y-125905316D01*
X184131864Y-125920462D01*
X184091304Y-125940743D01*
X183910149Y-125940743D01*
X183910149Y-125721696D01*
X184091304Y-125721696D01*
X184131864Y-125741976D01*
G37*
G36*
X190874722Y-125741976D02*
G01*
X190889869Y-125757122D01*
X190910150Y-125797684D01*
X190910150Y-125864754D01*
X190889869Y-125905316D01*
X190874722Y-125920462D01*
X190834162Y-125940743D01*
X190653007Y-125940743D01*
X190653007Y-125721696D01*
X190834162Y-125721696D01*
X190874722Y-125741976D01*
G37*
G36*
X191210150Y-126621696D02*
G01*
X182772054Y-126621696D01*
X182772054Y-125621696D01*
X182872054Y-125621696D01*
X182872054Y-126269315D01*
X182873975Y-126288824D01*
X182875350Y-126292144D01*
X182875605Y-126295728D01*
X182882611Y-126314036D01*
X182920706Y-126390226D01*
X182925990Y-126398622D01*
X182927001Y-126401061D01*
X182929254Y-126403806D01*
X182931149Y-126406817D01*
X182933145Y-126408548D01*
X182939437Y-126416215D01*
X182977532Y-126454311D01*
X182985203Y-126460607D01*
X182986933Y-126462601D01*
X182989938Y-126464492D01*
X182992685Y-126466747D01*
X182995125Y-126467757D01*
X183003523Y-126473044D01*
X183079714Y-126511139D01*
X183098023Y-126518145D01*
X183101605Y-126518399D01*
X183104926Y-126519775D01*
X183124435Y-126521696D01*
X183276816Y-126521696D01*
X183296325Y-126519775D01*
X183299645Y-126518399D01*
X183303229Y-126518145D01*
X183321537Y-126511139D01*
X183397727Y-126473044D01*
X183406123Y-126467758D01*
X183408564Y-126466748D01*
X183411309Y-126464494D01*
X183414318Y-126462601D01*
X183416049Y-126460604D01*
X183423718Y-126454311D01*
X183461812Y-126416215D01*
X183468104Y-126408547D01*
X183470100Y-126406817D01*
X183471992Y-126403810D01*
X183474249Y-126401061D01*
X183475260Y-126398618D01*
X183480543Y-126390227D01*
X183518639Y-126314038D01*
X183525646Y-126295729D01*
X183525900Y-126292143D01*
X183527276Y-126288824D01*
X183529197Y-126269315D01*
X183529197Y-125621696D01*
X183710149Y-125621696D01*
X183710149Y-126421696D01*
X183712070Y-126441205D01*
X183727002Y-126477253D01*
X183754592Y-126504843D01*
X183790640Y-126519775D01*
X183829658Y-126519775D01*
X183865706Y-126504843D01*
X183893296Y-126477253D01*
X183908228Y-126441205D01*
X183910149Y-126421696D01*
X183910149Y-126140743D01*
X184114911Y-126140743D01*
X184134420Y-126138822D01*
X184137740Y-126137446D01*
X184141324Y-126137192D01*
X184159632Y-126130186D01*
X184235822Y-126092091D01*
X184244220Y-126086804D01*
X184246658Y-126085795D01*
X184249401Y-126083543D01*
X184252413Y-126081648D01*
X184254145Y-126079650D01*
X184261812Y-126073359D01*
X184299906Y-126035264D01*
X184306198Y-126027597D01*
X184308196Y-126025865D01*
X184310089Y-126022856D01*
X184312343Y-126020111D01*
X184313353Y-126017670D01*
X184318638Y-126009275D01*
X184356734Y-125933084D01*
X184363741Y-125914776D01*
X184363995Y-125911190D01*
X184365371Y-125907871D01*
X184367292Y-125888362D01*
X184367292Y-125774077D01*
X184472053Y-125774077D01*
X184472053Y-125850267D01*
X184473974Y-125869776D01*
X184475349Y-125873096D01*
X184475604Y-125876680D01*
X184482611Y-125894989D01*
X184520706Y-125971180D01*
X184525992Y-125979578D01*
X184527002Y-125982015D01*
X184529253Y-125984758D01*
X184531149Y-125987770D01*
X184533146Y-125989502D01*
X184539438Y-125997169D01*
X184577533Y-126035263D01*
X184585199Y-126041555D01*
X184586932Y-126043553D01*
X184589940Y-126045446D01*
X184592686Y-126047700D01*
X184595126Y-126048710D01*
X184603523Y-126053996D01*
X184679713Y-126092091D01*
X184681139Y-126092636D01*
X184681720Y-126093067D01*
X184689896Y-126095988D01*
X184698021Y-126099097D01*
X184698743Y-126099148D01*
X184700181Y-126099662D01*
X184841911Y-126135094D01*
X184893768Y-126161023D01*
X184908915Y-126176169D01*
X184929196Y-126216731D01*
X184929196Y-126245708D01*
X184908915Y-126286268D01*
X184893768Y-126301416D01*
X184853208Y-126321696D01*
X184702566Y-126321696D01*
X184603676Y-126288733D01*
X184584560Y-126284386D01*
X184545640Y-126287152D01*
X184510741Y-126304602D01*
X184485176Y-126334078D01*
X184472838Y-126371094D01*
X184475604Y-126410014D01*
X184493054Y-126444913D01*
X184522530Y-126470478D01*
X184540430Y-126478469D01*
X184654717Y-126516564D01*
X184664387Y-126518763D01*
X184666830Y-126519775D01*
X184670369Y-126520123D01*
X184673832Y-126520911D01*
X184676465Y-126520723D01*
X184686339Y-126521696D01*
X184876815Y-126521696D01*
X184896324Y-126519775D01*
X184899644Y-126518399D01*
X184903227Y-126518145D01*
X184921536Y-126511139D01*
X184997727Y-126473044D01*
X185006122Y-126467759D01*
X185008564Y-126466748D01*
X185011312Y-126464492D01*
X185014317Y-126462601D01*
X185016046Y-126460607D01*
X185023718Y-126454311D01*
X185061812Y-126416215D01*
X185068102Y-126408550D01*
X185070101Y-126406817D01*
X185071996Y-126403805D01*
X185074249Y-126401061D01*
X185075259Y-126398622D01*
X185080544Y-126390226D01*
X185118639Y-126314036D01*
X185125645Y-126295728D01*
X185125899Y-126292144D01*
X185127275Y-126288824D01*
X185129196Y-126269315D01*
X185129196Y-126193124D01*
X185127275Y-126173615D01*
X185125899Y-126170294D01*
X185125645Y-126166711D01*
X185118639Y-126148403D01*
X185080544Y-126072213D01*
X185075258Y-126063816D01*
X185074248Y-126061376D01*
X185071994Y-126058630D01*
X185070101Y-126055622D01*
X185068103Y-126053889D01*
X185061811Y-126046223D01*
X185023717Y-126008128D01*
X185016050Y-126001836D01*
X185014318Y-125999839D01*
X185011306Y-125997943D01*
X185008563Y-125995692D01*
X185006126Y-125994682D01*
X184997728Y-125989396D01*
X184921537Y-125951301D01*
X184920111Y-125950755D01*
X184919529Y-125950324D01*
X184911335Y-125947396D01*
X184903228Y-125944294D01*
X184902507Y-125944242D01*
X184901069Y-125943729D01*
X184759338Y-125908296D01*
X184707479Y-125882367D01*
X184692333Y-125867220D01*
X184672053Y-125826660D01*
X184672053Y-125797683D01*
X184692333Y-125757123D01*
X184707479Y-125741976D01*
X184748041Y-125721696D01*
X184898684Y-125721696D01*
X184997573Y-125754659D01*
X185016689Y-125759006D01*
X185055609Y-125756240D01*
X185090508Y-125738790D01*
X185116073Y-125709314D01*
X185128411Y-125672298D01*
X185125645Y-125633378D01*
X185110049Y-125602187D01*
X185159689Y-125602187D01*
X185159689Y-125641205D01*
X185174621Y-125677253D01*
X185202211Y-125704843D01*
X185238259Y-125719775D01*
X185257768Y-125721696D01*
X185386339Y-125721696D01*
X185386339Y-126421696D01*
X185388260Y-126441205D01*
X185403192Y-126477253D01*
X185430782Y-126504843D01*
X185466830Y-126519775D01*
X185505848Y-126519775D01*
X185541896Y-126504843D01*
X185569486Y-126477253D01*
X185584418Y-126441205D01*
X185586339Y-126421696D01*
X185586339Y-125721696D01*
X185714911Y-125721696D01*
X185734420Y-125719775D01*
X185770468Y-125704843D01*
X185798058Y-125677253D01*
X185812990Y-125641205D01*
X185812990Y-125621696D01*
X185881578Y-125621696D01*
X185881578Y-126421696D01*
X185883499Y-126441205D01*
X185898431Y-126477253D01*
X185926021Y-126504843D01*
X185962069Y-126519775D01*
X186001087Y-126519775D01*
X186037135Y-126504843D01*
X186064725Y-126477253D01*
X186079657Y-126441205D01*
X186081578Y-126421696D01*
X186081578Y-126140743D01*
X186119989Y-126140743D01*
X186356798Y-126479042D01*
X186369559Y-126493923D01*
X186402464Y-126514891D01*
X186440888Y-126521672D01*
X186478983Y-126513233D01*
X186510948Y-126490858D01*
X186531917Y-126457953D01*
X186538697Y-126419528D01*
X186530258Y-126381434D01*
X186520644Y-126364350D01*
X186350074Y-126120679D01*
X186407251Y-126092091D01*
X186415649Y-126086804D01*
X186418087Y-126085795D01*
X186420830Y-126083543D01*
X186423842Y-126081648D01*
X186425574Y-126079650D01*
X186433241Y-126073359D01*
X186471335Y-126035264D01*
X186477627Y-126027597D01*
X186479625Y-126025865D01*
X186481518Y-126022856D01*
X186483772Y-126020111D01*
X186484782Y-126017670D01*
X186490067Y-126009275D01*
X186528163Y-125933084D01*
X186535170Y-125914776D01*
X186535424Y-125911190D01*
X186536800Y-125907871D01*
X186538721Y-125888362D01*
X186538721Y-125774077D01*
X186536800Y-125754568D01*
X186535424Y-125751248D01*
X186535170Y-125747663D01*
X186528163Y-125729355D01*
X186490067Y-125653164D01*
X186484782Y-125644768D01*
X186483772Y-125642328D01*
X186481518Y-125639582D01*
X186479625Y-125636574D01*
X186477627Y-125634841D01*
X186471335Y-125627175D01*
X186465856Y-125621696D01*
X186681578Y-125621696D01*
X186681578Y-126421696D01*
X186683499Y-126441205D01*
X186698431Y-126477253D01*
X186726021Y-126504843D01*
X186762069Y-126519775D01*
X186781578Y-126521696D01*
X187162530Y-126521696D01*
X187182039Y-126519775D01*
X187218087Y-126504843D01*
X187245677Y-126477253D01*
X187260609Y-126441205D01*
X187260609Y-126409189D01*
X187291887Y-126409189D01*
X187294653Y-126448109D01*
X187312103Y-126483007D01*
X187341579Y-126508573D01*
X187378595Y-126520911D01*
X187417515Y-126518145D01*
X187452413Y-126500695D01*
X187477979Y-126471219D01*
X187485970Y-126453319D01*
X187539368Y-126293124D01*
X187776169Y-126293124D01*
X187829567Y-126453319D01*
X187837558Y-126471219D01*
X187863123Y-126500696D01*
X187898022Y-126518145D01*
X187936942Y-126520911D01*
X187973958Y-126508573D01*
X188003434Y-126483008D01*
X188020884Y-126448109D01*
X188023650Y-126409189D01*
X188019303Y-126390073D01*
X187763178Y-125621696D01*
X188091102Y-125621696D01*
X188091102Y-126421696D01*
X188093023Y-126441205D01*
X188107955Y-126477253D01*
X188135545Y-126504843D01*
X188171593Y-126519775D01*
X188210611Y-126519775D01*
X188246659Y-126504843D01*
X188274249Y-126477253D01*
X188289181Y-126441205D01*
X188291102Y-126421696D01*
X188291102Y-126072452D01*
X188367150Y-126235413D01*
X188371380Y-126242554D01*
X188372261Y-126244976D01*
X188373829Y-126246688D01*
X188377141Y-126252279D01*
X188388348Y-126262543D01*
X188398613Y-126273751D01*
X188402638Y-126275629D01*
X188405916Y-126278631D01*
X188420195Y-126283823D01*
X188433970Y-126290252D01*
X188438410Y-126290447D01*
X188442585Y-126291965D01*
X188457768Y-126291297D01*
X188472951Y-126291965D01*
X188477125Y-126290447D01*
X188481566Y-126290252D01*
X188495344Y-126283822D01*
X188509620Y-126278631D01*
X188512895Y-126275631D01*
X188516923Y-126273752D01*
X188527192Y-126262537D01*
X188538395Y-126252279D01*
X188541704Y-126246691D01*
X188543275Y-126244977D01*
X188544156Y-126242552D01*
X188548386Y-126235413D01*
X188624435Y-126072451D01*
X188624435Y-126421696D01*
X188626356Y-126441205D01*
X188641288Y-126477253D01*
X188668878Y-126504843D01*
X188704926Y-126519775D01*
X188743944Y-126519775D01*
X188779992Y-126504843D01*
X188807582Y-126477253D01*
X188822514Y-126441205D01*
X188824435Y-126421696D01*
X188824435Y-125621696D01*
X189614912Y-125621696D01*
X189614912Y-126269315D01*
X189616833Y-126288824D01*
X189618208Y-126292144D01*
X189618463Y-126295728D01*
X189625469Y-126314036D01*
X189663564Y-126390226D01*
X189668848Y-126398622D01*
X189669859Y-126401061D01*
X189672112Y-126403806D01*
X189674007Y-126406817D01*
X189676003Y-126408548D01*
X189682295Y-126416215D01*
X189720390Y-126454311D01*
X189728061Y-126460607D01*
X189729791Y-126462601D01*
X189732796Y-126464492D01*
X189735543Y-126466747D01*
X189737983Y-126467757D01*
X189746381Y-126473044D01*
X189822572Y-126511139D01*
X189840881Y-126518145D01*
X189844463Y-126518399D01*
X189847784Y-126519775D01*
X189867293Y-126521696D01*
X190019674Y-126521696D01*
X190039183Y-126519775D01*
X190042503Y-126518399D01*
X190046087Y-126518145D01*
X190064395Y-126511139D01*
X190140585Y-126473044D01*
X190148981Y-126467758D01*
X190151422Y-126466748D01*
X190154167Y-126464494D01*
X190157176Y-126462601D01*
X190158907Y-126460604D01*
X190166576Y-126454311D01*
X190204670Y-126416215D01*
X190210962Y-126408547D01*
X190212958Y-126406817D01*
X190214850Y-126403810D01*
X190217107Y-126401061D01*
X190218118Y-126398618D01*
X190223401Y-126390227D01*
X190261497Y-126314038D01*
X190268504Y-126295729D01*
X190268758Y-126292143D01*
X190270134Y-126288824D01*
X190272055Y-126269315D01*
X190272055Y-125621696D01*
X190453007Y-125621696D01*
X190453007Y-126421696D01*
X190454928Y-126441205D01*
X190469860Y-126477253D01*
X190497450Y-126504843D01*
X190533498Y-126519775D01*
X190572516Y-126519775D01*
X190608564Y-126504843D01*
X190636154Y-126477253D01*
X190651086Y-126441205D01*
X190653007Y-126421696D01*
X190653007Y-126140743D01*
X190857769Y-126140743D01*
X190877278Y-126138822D01*
X190880598Y-126137446D01*
X190884182Y-126137192D01*
X190902490Y-126130186D01*
X190978680Y-126092091D01*
X190987078Y-126086804D01*
X190989516Y-126085795D01*
X190992259Y-126083543D01*
X190995271Y-126081648D01*
X190997003Y-126079650D01*
X191004670Y-126073359D01*
X191042764Y-126035264D01*
X191049056Y-126027597D01*
X191051054Y-126025865D01*
X191052947Y-126022856D01*
X191055201Y-126020111D01*
X191056211Y-126017670D01*
X191061496Y-126009275D01*
X191099592Y-125933084D01*
X191106599Y-125914776D01*
X191106853Y-125911190D01*
X191108229Y-125907871D01*
X191110150Y-125888362D01*
X191110150Y-125774077D01*
X191108229Y-125754568D01*
X191106853Y-125751248D01*
X191106599Y-125747663D01*
X191099592Y-125729355D01*
X191061496Y-125653164D01*
X191056211Y-125644768D01*
X191055201Y-125642328D01*
X191052947Y-125639582D01*
X191051054Y-125636574D01*
X191049056Y-125634841D01*
X191042764Y-125627175D01*
X191004670Y-125589080D01*
X190997003Y-125582788D01*
X190995271Y-125580791D01*
X190992259Y-125578895D01*
X190989516Y-125576644D01*
X190987078Y-125575634D01*
X190978680Y-125570348D01*
X190902490Y-125532253D01*
X190884182Y-125525247D01*
X190880598Y-125524992D01*
X190877278Y-125523617D01*
X190857769Y-125521696D01*
X190553007Y-125521696D01*
X190533498Y-125523617D01*
X190497450Y-125538549D01*
X190469860Y-125566139D01*
X190454928Y-125602187D01*
X190453007Y-125621696D01*
X190272055Y-125621696D01*
X190270134Y-125602187D01*
X190255202Y-125566139D01*
X190227612Y-125538549D01*
X190191564Y-125523617D01*
X190152546Y-125523617D01*
X190116498Y-125538549D01*
X190088908Y-125566139D01*
X190073976Y-125602187D01*
X190072055Y-125621696D01*
X190072055Y-126245708D01*
X190051775Y-126286267D01*
X190036626Y-126301416D01*
X189996067Y-126321696D01*
X189890900Y-126321696D01*
X189850338Y-126301415D01*
X189835192Y-126286269D01*
X189814912Y-126245708D01*
X189814912Y-125621696D01*
X189812991Y-125602187D01*
X189798059Y-125566139D01*
X189770469Y-125538549D01*
X189734421Y-125523617D01*
X189695403Y-125523617D01*
X189659355Y-125538549D01*
X189631765Y-125566139D01*
X189616833Y-125602187D01*
X189614912Y-125621696D01*
X188824435Y-125621696D01*
X188823172Y-125608872D01*
X188823276Y-125606513D01*
X188822815Y-125605245D01*
X188822514Y-125602187D01*
X188815873Y-125586156D01*
X188809942Y-125569844D01*
X188808435Y-125568198D01*
X188807582Y-125566139D01*
X188795314Y-125553871D01*
X188783590Y-125541069D01*
X188781568Y-125540125D01*
X188779992Y-125538549D01*
X188763967Y-125531911D01*
X188748233Y-125524568D01*
X188746003Y-125524470D01*
X188743944Y-125523617D01*
X188726592Y-125523617D01*
X188709252Y-125522855D01*
X188707156Y-125523617D01*
X188704926Y-125523617D01*
X188688895Y-125530257D01*
X188672583Y-125536189D01*
X188670937Y-125537695D01*
X188668878Y-125538549D01*
X188656610Y-125550816D01*
X188643808Y-125562541D01*
X188642241Y-125565185D01*
X188641288Y-125566139D01*
X188640384Y-125568320D01*
X188633817Y-125579407D01*
X188457768Y-125956653D01*
X188281720Y-125579408D01*
X188275153Y-125568321D01*
X188274249Y-125566139D01*
X188273295Y-125565185D01*
X188271729Y-125562541D01*
X188258932Y-125550822D01*
X188246659Y-125538549D01*
X188244597Y-125537695D01*
X188242954Y-125536190D01*
X188226652Y-125530261D01*
X188210611Y-125523617D01*
X188208380Y-125523617D01*
X188206285Y-125522855D01*
X188188945Y-125523617D01*
X188171593Y-125523617D01*
X188169533Y-125524470D01*
X188167305Y-125524568D01*
X188151574Y-125531909D01*
X188135545Y-125538549D01*
X188133968Y-125540125D01*
X188131947Y-125541069D01*
X188120228Y-125553865D01*
X188107955Y-125566139D01*
X188107101Y-125568200D01*
X188105596Y-125569844D01*
X188099667Y-125586145D01*
X188093023Y-125602187D01*
X188092721Y-125605245D01*
X188092261Y-125606513D01*
X188092364Y-125608872D01*
X188091102Y-125621696D01*
X187763178Y-125621696D01*
X187752637Y-125590073D01*
X187744646Y-125572173D01*
X187739961Y-125566771D01*
X187736768Y-125560385D01*
X187727299Y-125552172D01*
X187719081Y-125542697D01*
X187712689Y-125539500D01*
X187707292Y-125534820D01*
X187695398Y-125530855D01*
X187684182Y-125525247D01*
X187677054Y-125524740D01*
X187670276Y-125522481D01*
X187657769Y-125523369D01*
X187645262Y-125522481D01*
X187638483Y-125524740D01*
X187631356Y-125525247D01*
X187620143Y-125530853D01*
X187608246Y-125534819D01*
X187602846Y-125539502D01*
X187596457Y-125542697D01*
X187588241Y-125552168D01*
X187578770Y-125560384D01*
X187575575Y-125566773D01*
X187570892Y-125572173D01*
X187562901Y-125590073D01*
X187296234Y-126390073D01*
X187291887Y-126409189D01*
X187260609Y-126409189D01*
X187260609Y-126402187D01*
X187245677Y-126366139D01*
X187218087Y-126338549D01*
X187182039Y-126323617D01*
X187162530Y-126321696D01*
X186881578Y-126321696D01*
X186881578Y-126102648D01*
X187048244Y-126102648D01*
X187067753Y-126100727D01*
X187103801Y-126085795D01*
X187131391Y-126058205D01*
X187146323Y-126022157D01*
X187146323Y-125983139D01*
X187131391Y-125947091D01*
X187103801Y-125919501D01*
X187067753Y-125904569D01*
X187048244Y-125902648D01*
X186881578Y-125902648D01*
X186881578Y-125721696D01*
X187162530Y-125721696D01*
X187182039Y-125719775D01*
X187218087Y-125704843D01*
X187245677Y-125677253D01*
X187260609Y-125641205D01*
X187260609Y-125602187D01*
X187245677Y-125566139D01*
X187218087Y-125538549D01*
X187182039Y-125523617D01*
X187162530Y-125521696D01*
X186781578Y-125521696D01*
X186762069Y-125523617D01*
X186726021Y-125538549D01*
X186698431Y-125566139D01*
X186683499Y-125602187D01*
X186681578Y-125621696D01*
X186465856Y-125621696D01*
X186433241Y-125589080D01*
X186425574Y-125582788D01*
X186423842Y-125580791D01*
X186420830Y-125578895D01*
X186418087Y-125576644D01*
X186415649Y-125575634D01*
X186407251Y-125570348D01*
X186331061Y-125532253D01*
X186312753Y-125525247D01*
X186309169Y-125524992D01*
X186305849Y-125523617D01*
X186286340Y-125521696D01*
X185981578Y-125521696D01*
X185962069Y-125523617D01*
X185926021Y-125538549D01*
X185898431Y-125566139D01*
X185883499Y-125602187D01*
X185881578Y-125621696D01*
X185812990Y-125621696D01*
X185812990Y-125602187D01*
X185798058Y-125566139D01*
X185770468Y-125538549D01*
X185734420Y-125523617D01*
X185714911Y-125521696D01*
X185257768Y-125521696D01*
X185238259Y-125523617D01*
X185202211Y-125538549D01*
X185174621Y-125566139D01*
X185159689Y-125602187D01*
X185110049Y-125602187D01*
X185108195Y-125598480D01*
X185078719Y-125572914D01*
X185060819Y-125564923D01*
X184946534Y-125526828D01*
X184936862Y-125524628D01*
X184934420Y-125523617D01*
X184930881Y-125523268D01*
X184927418Y-125522481D01*
X184924784Y-125522668D01*
X184914911Y-125521696D01*
X184724434Y-125521696D01*
X184704925Y-125523617D01*
X184701604Y-125524992D01*
X184698021Y-125525247D01*
X184679713Y-125532253D01*
X184603523Y-125570348D01*
X184595126Y-125575633D01*
X184592686Y-125576644D01*
X184589940Y-125578897D01*
X184586932Y-125580791D01*
X184585199Y-125582788D01*
X184577533Y-125589081D01*
X184539438Y-125627175D01*
X184533146Y-125634841D01*
X184531149Y-125636574D01*
X184529253Y-125639585D01*
X184527002Y-125642329D01*
X184525992Y-125644765D01*
X184520706Y-125653164D01*
X184482611Y-125729355D01*
X184475604Y-125747664D01*
X184475349Y-125751247D01*
X184473974Y-125754568D01*
X184472053Y-125774077D01*
X184367292Y-125774077D01*
X184365371Y-125754568D01*
X184363995Y-125751248D01*
X184363741Y-125747663D01*
X184356734Y-125729355D01*
X184318638Y-125653164D01*
X184313353Y-125644768D01*
X184312343Y-125642328D01*
X184310089Y-125639582D01*
X184308196Y-125636574D01*
X184306198Y-125634841D01*
X184299906Y-125627175D01*
X184261812Y-125589080D01*
X184254145Y-125582788D01*
X184252413Y-125580791D01*
X184249401Y-125578895D01*
X184246658Y-125576644D01*
X184244220Y-125575634D01*
X184235822Y-125570348D01*
X184159632Y-125532253D01*
X184141324Y-125525247D01*
X184137740Y-125524992D01*
X184134420Y-125523617D01*
X184114911Y-125521696D01*
X183810149Y-125521696D01*
X183790640Y-125523617D01*
X183754592Y-125538549D01*
X183727002Y-125566139D01*
X183712070Y-125602187D01*
X183710149Y-125621696D01*
X183529197Y-125621696D01*
X183527276Y-125602187D01*
X183512344Y-125566139D01*
X183484754Y-125538549D01*
X183448706Y-125523617D01*
X183409688Y-125523617D01*
X183373640Y-125538549D01*
X183346050Y-125566139D01*
X183331118Y-125602187D01*
X183329197Y-125621696D01*
X183329197Y-126245708D01*
X183308917Y-126286267D01*
X183293768Y-126301416D01*
X183253209Y-126321696D01*
X183148042Y-126321696D01*
X183107480Y-126301415D01*
X183092334Y-126286269D01*
X183072054Y-126245708D01*
X183072054Y-125621696D01*
X183070133Y-125602187D01*
X183055201Y-125566139D01*
X183027611Y-125538549D01*
X182991563Y-125523617D01*
X182952545Y-125523617D01*
X182916497Y-125538549D01*
X182888907Y-125566139D01*
X182873975Y-125602187D01*
X182872054Y-125621696D01*
X182772054Y-125621696D01*
X182772054Y-125421696D01*
X191210150Y-125421696D01*
X191210150Y-126621696D01*
G37*
G36*
X183322796Y-131447193D02*
G01*
X183370820Y-131495217D01*
X183396749Y-131547075D01*
X183429197Y-131676863D01*
X183429197Y-131766528D01*
X183396749Y-131896315D01*
X183370819Y-131948175D01*
X183322797Y-131996198D01*
X183246303Y-132021696D01*
X183172054Y-132021696D01*
X183172054Y-131421696D01*
X183246303Y-131421696D01*
X183322796Y-131447193D01*
G37*
G36*
X184193771Y-131441977D02*
G01*
X184238900Y-131487106D01*
X184267292Y-131600671D01*
X184267292Y-131842719D01*
X184238900Y-131956284D01*
X184193769Y-132001415D01*
X184153209Y-132021696D01*
X184048042Y-132021696D01*
X184007479Y-132001414D01*
X183962350Y-131956285D01*
X183933958Y-131842718D01*
X183933958Y-131600672D01*
X183962349Y-131487107D01*
X184007480Y-131441976D01*
X184048042Y-131421696D01*
X184153209Y-131421696D01*
X184193771Y-131441977D01*
G37*
G36*
X188155674Y-131441976D02*
G01*
X188170821Y-131457122D01*
X188191102Y-131497684D01*
X188191102Y-131564754D01*
X188170821Y-131605316D01*
X188155674Y-131620462D01*
X188115114Y-131640743D01*
X187933959Y-131640743D01*
X187933959Y-131421696D01*
X188115114Y-131421696D01*
X188155674Y-131441976D01*
G37*
G36*
X189561883Y-131793124D02*
G01*
X189458416Y-131793124D01*
X189510149Y-131637923D01*
X189561883Y-131793124D01*
G37*
G36*
X190776816Y-132321696D02*
G01*
X182872054Y-132321696D01*
X182872054Y-131321696D01*
X182972054Y-131321696D01*
X182972054Y-132121696D01*
X182973975Y-132141205D01*
X182988907Y-132177253D01*
X183016497Y-132204843D01*
X183052545Y-132219775D01*
X183072054Y-132221696D01*
X183262530Y-132221696D01*
X183272403Y-132220723D01*
X183275037Y-132220911D01*
X183278500Y-132220123D01*
X183282039Y-132219775D01*
X183284481Y-132218763D01*
X183294153Y-132216564D01*
X183408439Y-132178469D01*
X183426339Y-132170478D01*
X183429054Y-132168123D01*
X183432374Y-132166748D01*
X183447527Y-132154311D01*
X183523717Y-132078120D01*
X183530009Y-132070453D01*
X183532006Y-132068722D01*
X183533899Y-132065714D01*
X183536154Y-132062967D01*
X183537165Y-132060525D01*
X183542449Y-132052131D01*
X183580544Y-131975941D01*
X183581089Y-131974516D01*
X183581520Y-131973935D01*
X183584446Y-131965743D01*
X183587550Y-131957633D01*
X183587601Y-131956912D01*
X183588115Y-131955474D01*
X183626211Y-131803093D01*
X183626711Y-131799711D01*
X183627276Y-131798348D01*
X183627999Y-131790999D01*
X183629079Y-131783701D01*
X183628861Y-131782242D01*
X183629197Y-131778839D01*
X183629197Y-131664553D01*
X183628861Y-131661149D01*
X183629079Y-131659691D01*
X183627999Y-131652392D01*
X183627276Y-131645044D01*
X183626711Y-131643680D01*
X183626211Y-131640299D01*
X183613226Y-131588362D01*
X183733958Y-131588362D01*
X183733958Y-131855029D01*
X183734293Y-131858432D01*
X183734076Y-131859891D01*
X183735155Y-131867189D01*
X183735879Y-131874538D01*
X183736443Y-131875901D01*
X183736944Y-131879283D01*
X183775040Y-132031664D01*
X183781635Y-132050125D01*
X183786061Y-132056098D01*
X183788906Y-132062967D01*
X183801343Y-132078120D01*
X183877533Y-132154311D01*
X183885202Y-132160605D01*
X183886933Y-132162601D01*
X183889938Y-132164492D01*
X183892686Y-132166748D01*
X183895127Y-132167759D01*
X183903523Y-132173044D01*
X183979714Y-132211139D01*
X183998023Y-132218145D01*
X184001605Y-132218399D01*
X184004926Y-132219775D01*
X184024435Y-132221696D01*
X184176816Y-132221696D01*
X184196325Y-132219775D01*
X184199645Y-132218399D01*
X184203229Y-132218145D01*
X184221537Y-132211139D01*
X184297727Y-132173044D01*
X184306125Y-132167757D01*
X184308563Y-132166748D01*
X184311306Y-132164496D01*
X184314318Y-132162601D01*
X184316050Y-132160603D01*
X184323717Y-132154312D01*
X184399907Y-132078121D01*
X184412344Y-132062968D01*
X184415189Y-132056098D01*
X184419616Y-132050124D01*
X184426211Y-132031663D01*
X184464306Y-131879282D01*
X184464805Y-131875902D01*
X184465371Y-131874538D01*
X184466094Y-131867186D01*
X184467174Y-131859890D01*
X184466956Y-131858431D01*
X184467292Y-131855029D01*
X184467292Y-131588362D01*
X184466956Y-131584959D01*
X184467174Y-131583501D01*
X184466094Y-131576204D01*
X184465371Y-131568853D01*
X184464805Y-131567488D01*
X184464306Y-131564109D01*
X184426211Y-131411728D01*
X184419616Y-131393267D01*
X184415189Y-131387293D01*
X184412344Y-131380423D01*
X184399907Y-131365270D01*
X184360071Y-131325435D01*
X184534027Y-131325435D01*
X184536677Y-131344858D01*
X184727153Y-132144858D01*
X184729461Y-132151554D01*
X184729780Y-132153953D01*
X184731035Y-132156121D01*
X184733541Y-132163391D01*
X184742054Y-132175155D01*
X184749329Y-132187721D01*
X184753406Y-132190841D01*
X184756416Y-132195001D01*
X184768778Y-132202608D01*
X184780312Y-132211437D01*
X184785275Y-132212760D01*
X184789646Y-132215450D01*
X184803977Y-132217747D01*
X184818013Y-132221490D01*
X184823104Y-132220813D01*
X184828173Y-132221626D01*
X184842301Y-132218262D01*
X184856691Y-132216350D01*
X184861132Y-132213778D01*
X184866130Y-132212589D01*
X184877896Y-132204073D01*
X184890459Y-132196801D01*
X184893579Y-132192723D01*
X184897739Y-132189714D01*
X184905346Y-132177351D01*
X184914175Y-132165818D01*
X184916873Y-132158619D01*
X184918188Y-132156484D01*
X184918571Y-132154090D01*
X184921057Y-132147462D01*
X184976815Y-131938370D01*
X185032573Y-132147463D01*
X185035058Y-132154092D01*
X185035442Y-132156484D01*
X185036755Y-132158618D01*
X185039455Y-132165818D01*
X185048282Y-132177349D01*
X185055891Y-132189714D01*
X185060052Y-132192725D01*
X185063172Y-132196801D01*
X185075733Y-132204073D01*
X185087500Y-132212589D01*
X185092495Y-132213778D01*
X185096939Y-132216351D01*
X185111332Y-132218263D01*
X185125457Y-132221627D01*
X185130525Y-132220814D01*
X185135617Y-132221491D01*
X185149655Y-132217747D01*
X185163984Y-132215450D01*
X185168354Y-132212760D01*
X185173318Y-132211437D01*
X185184851Y-132202608D01*
X185197214Y-132195001D01*
X185200223Y-132190841D01*
X185204301Y-132187721D01*
X185211576Y-132175154D01*
X185220089Y-132163392D01*
X185222593Y-132156126D01*
X185223851Y-132153954D01*
X185224170Y-132151550D01*
X185226477Y-132144858D01*
X185416954Y-131344858D01*
X185419603Y-131325435D01*
X185419004Y-131321696D01*
X185524435Y-131321696D01*
X185524435Y-132121696D01*
X185526356Y-132141205D01*
X185541288Y-132177253D01*
X185568878Y-132204843D01*
X185604926Y-132219775D01*
X185643944Y-132219775D01*
X185679992Y-132204843D01*
X185707582Y-132177253D01*
X185722514Y-132141205D01*
X185724435Y-132121696D01*
X185724435Y-131698251D01*
X185994754Y-132171310D01*
X185997672Y-132175420D01*
X185998431Y-132177253D01*
X186000297Y-132179119D01*
X186006101Y-132187295D01*
X186016615Y-132195437D01*
X186026021Y-132204843D01*
X186031911Y-132207282D01*
X186036950Y-132211185D01*
X186049777Y-132214683D01*
X186062069Y-132219775D01*
X186068445Y-132219775D01*
X186074594Y-132221452D01*
X186087787Y-132219775D01*
X186101087Y-132219775D01*
X186106975Y-132217335D01*
X186113300Y-132216532D01*
X186124849Y-132209931D01*
X186137135Y-132204843D01*
X186141642Y-132200335D01*
X186147177Y-132197173D01*
X186155319Y-132186658D01*
X186164725Y-132177253D01*
X186167164Y-132171362D01*
X186171067Y-132166324D01*
X186174565Y-132153495D01*
X186179657Y-132141205D01*
X186180639Y-132131227D01*
X186181334Y-132128681D01*
X186181083Y-132126713D01*
X186181578Y-132121696D01*
X186181578Y-131474077D01*
X186324434Y-131474077D01*
X186324434Y-131550267D01*
X186326355Y-131569776D01*
X186327730Y-131573096D01*
X186327985Y-131576680D01*
X186334992Y-131594989D01*
X186373087Y-131671180D01*
X186378373Y-131679578D01*
X186379383Y-131682015D01*
X186381634Y-131684758D01*
X186383530Y-131687770D01*
X186385527Y-131689502D01*
X186391819Y-131697169D01*
X186429914Y-131735263D01*
X186437580Y-131741555D01*
X186439313Y-131743553D01*
X186442321Y-131745446D01*
X186445067Y-131747700D01*
X186447507Y-131748710D01*
X186455904Y-131753996D01*
X186532094Y-131792091D01*
X186533520Y-131792636D01*
X186534101Y-131793067D01*
X186542277Y-131795988D01*
X186550402Y-131799097D01*
X186551124Y-131799148D01*
X186552562Y-131799662D01*
X186694292Y-131835094D01*
X186746149Y-131861023D01*
X186761296Y-131876169D01*
X186781577Y-131916731D01*
X186781577Y-131945708D01*
X186761296Y-131986268D01*
X186746149Y-132001416D01*
X186705589Y-132021696D01*
X186554947Y-132021696D01*
X186456057Y-131988733D01*
X186436941Y-131984386D01*
X186398021Y-131987152D01*
X186363122Y-132004602D01*
X186337557Y-132034078D01*
X186325219Y-132071094D01*
X186327985Y-132110014D01*
X186345435Y-132144913D01*
X186374911Y-132170478D01*
X186392811Y-132178469D01*
X186507098Y-132216564D01*
X186516768Y-132218763D01*
X186519211Y-132219775D01*
X186522750Y-132220123D01*
X186526213Y-132220911D01*
X186528846Y-132220723D01*
X186538720Y-132221696D01*
X186729196Y-132221696D01*
X186748705Y-132219775D01*
X186752025Y-132218399D01*
X186755608Y-132218145D01*
X186773917Y-132211139D01*
X186850108Y-132173044D01*
X186858503Y-132167759D01*
X186860945Y-132166748D01*
X186863693Y-132164492D01*
X186866698Y-132162601D01*
X186868427Y-132160607D01*
X186876099Y-132154311D01*
X186914193Y-132116215D01*
X186920483Y-132108550D01*
X186922482Y-132106817D01*
X186924377Y-132103805D01*
X186926630Y-132101061D01*
X186927640Y-132098622D01*
X186932925Y-132090226D01*
X186971020Y-132014036D01*
X186978026Y-131995728D01*
X186978280Y-131992144D01*
X186979656Y-131988824D01*
X186981577Y-131969315D01*
X186981577Y-131893124D01*
X186979656Y-131873615D01*
X186978280Y-131870294D01*
X186978026Y-131866711D01*
X186971020Y-131848403D01*
X186932925Y-131772213D01*
X186927639Y-131763816D01*
X186926629Y-131761376D01*
X186924375Y-131758630D01*
X186922482Y-131755622D01*
X186920484Y-131753889D01*
X186914192Y-131746223D01*
X186876098Y-131708128D01*
X186868431Y-131701836D01*
X186866699Y-131699839D01*
X186863687Y-131697943D01*
X186860944Y-131695692D01*
X186858507Y-131694682D01*
X186850109Y-131689396D01*
X186773918Y-131651301D01*
X186772492Y-131650755D01*
X186771910Y-131650324D01*
X186763716Y-131647396D01*
X186755609Y-131644294D01*
X186754888Y-131644242D01*
X186753450Y-131643729D01*
X186611719Y-131608296D01*
X186559860Y-131582367D01*
X186544714Y-131567220D01*
X186524434Y-131526660D01*
X186524434Y-131497683D01*
X186544714Y-131457123D01*
X186559860Y-131441976D01*
X186600422Y-131421696D01*
X186751065Y-131421696D01*
X186849954Y-131454659D01*
X186869070Y-131459006D01*
X186907990Y-131456240D01*
X186942889Y-131438790D01*
X186968454Y-131409314D01*
X186980792Y-131372298D01*
X186978026Y-131333378D01*
X186962430Y-131302187D01*
X187012070Y-131302187D01*
X187012070Y-131341205D01*
X187027002Y-131377253D01*
X187054592Y-131404843D01*
X187090640Y-131419775D01*
X187110149Y-131421696D01*
X187238720Y-131421696D01*
X187238720Y-132121696D01*
X187240641Y-132141205D01*
X187255573Y-132177253D01*
X187283163Y-132204843D01*
X187319211Y-132219775D01*
X187358229Y-132219775D01*
X187394277Y-132204843D01*
X187421867Y-132177253D01*
X187436799Y-132141205D01*
X187438720Y-132121696D01*
X187438720Y-131421696D01*
X187567292Y-131421696D01*
X187586801Y-131419775D01*
X187622849Y-131404843D01*
X187650439Y-131377253D01*
X187665371Y-131341205D01*
X187665371Y-131321696D01*
X187733959Y-131321696D01*
X187733959Y-132121696D01*
X187735880Y-132141205D01*
X187750812Y-132177253D01*
X187778402Y-132204843D01*
X187814450Y-132219775D01*
X187853468Y-132219775D01*
X187889516Y-132204843D01*
X187917106Y-132177253D01*
X187932038Y-132141205D01*
X187933959Y-132121696D01*
X187933959Y-131840743D01*
X187972370Y-131840743D01*
X188209179Y-132179042D01*
X188221940Y-132193923D01*
X188254845Y-132214891D01*
X188293269Y-132221672D01*
X188331364Y-132213233D01*
X188363329Y-132190858D01*
X188384298Y-132157953D01*
X188391078Y-132119528D01*
X188382639Y-132081434D01*
X188373025Y-132064350D01*
X188202455Y-131820679D01*
X188259632Y-131792091D01*
X188268030Y-131786804D01*
X188270468Y-131785795D01*
X188273211Y-131783543D01*
X188276223Y-131781648D01*
X188277955Y-131779650D01*
X188285622Y-131773359D01*
X188323716Y-131735264D01*
X188330008Y-131727597D01*
X188332006Y-131725865D01*
X188333899Y-131722856D01*
X188336153Y-131720111D01*
X188337163Y-131717670D01*
X188342448Y-131709275D01*
X188380544Y-131633084D01*
X188387551Y-131614776D01*
X188387805Y-131611190D01*
X188389181Y-131607871D01*
X188391102Y-131588362D01*
X188391102Y-131474077D01*
X188389181Y-131454568D01*
X188387805Y-131451248D01*
X188387551Y-131447663D01*
X188380544Y-131429355D01*
X188342448Y-131353164D01*
X188337163Y-131344768D01*
X188336153Y-131342328D01*
X188333899Y-131339582D01*
X188332006Y-131336574D01*
X188330008Y-131334841D01*
X188323716Y-131327175D01*
X188318237Y-131321696D01*
X188533959Y-131321696D01*
X188533959Y-132121696D01*
X188535880Y-132141205D01*
X188550812Y-132177253D01*
X188578402Y-132204843D01*
X188614450Y-132219775D01*
X188633959Y-132221696D01*
X189014911Y-132221696D01*
X189034420Y-132219775D01*
X189070468Y-132204843D01*
X189098058Y-132177253D01*
X189112990Y-132141205D01*
X189112990Y-132109189D01*
X189144268Y-132109189D01*
X189147034Y-132148109D01*
X189164484Y-132183007D01*
X189193960Y-132208573D01*
X189230976Y-132220911D01*
X189269896Y-132218145D01*
X189304794Y-132200695D01*
X189330360Y-132171219D01*
X189338351Y-132153319D01*
X189391749Y-131993124D01*
X189628550Y-131993124D01*
X189681948Y-132153319D01*
X189689939Y-132171219D01*
X189715504Y-132200696D01*
X189750403Y-132218145D01*
X189789323Y-132220911D01*
X189826339Y-132208573D01*
X189855815Y-132183008D01*
X189873265Y-132148109D01*
X189876031Y-132109189D01*
X189871684Y-132090073D01*
X189615559Y-131321696D01*
X189943483Y-131321696D01*
X189943483Y-132121696D01*
X189945404Y-132141205D01*
X189960336Y-132177253D01*
X189987926Y-132204843D01*
X190023974Y-132219775D01*
X190062992Y-132219775D01*
X190099040Y-132204843D01*
X190126630Y-132177253D01*
X190141562Y-132141205D01*
X190143483Y-132121696D01*
X190143483Y-131772452D01*
X190219531Y-131935413D01*
X190223761Y-131942554D01*
X190224642Y-131944976D01*
X190226210Y-131946688D01*
X190229522Y-131952279D01*
X190240729Y-131962543D01*
X190250994Y-131973751D01*
X190255019Y-131975629D01*
X190258297Y-131978631D01*
X190272576Y-131983823D01*
X190286351Y-131990252D01*
X190290791Y-131990447D01*
X190294966Y-131991965D01*
X190310149Y-131991297D01*
X190325332Y-131991965D01*
X190329506Y-131990447D01*
X190333947Y-131990252D01*
X190347725Y-131983822D01*
X190362001Y-131978631D01*
X190365276Y-131975631D01*
X190369304Y-131973752D01*
X190379573Y-131962537D01*
X190390776Y-131952279D01*
X190394085Y-131946691D01*
X190395656Y-131944977D01*
X190396537Y-131942552D01*
X190400767Y-131935413D01*
X190476816Y-131772451D01*
X190476816Y-132121696D01*
X190478737Y-132141205D01*
X190493669Y-132177253D01*
X190521259Y-132204843D01*
X190557307Y-132219775D01*
X190596325Y-132219775D01*
X190632373Y-132204843D01*
X190659963Y-132177253D01*
X190674895Y-132141205D01*
X190676816Y-132121696D01*
X190676816Y-131321696D01*
X190675553Y-131308872D01*
X190675657Y-131306513D01*
X190675196Y-131305245D01*
X190674895Y-131302187D01*
X190668254Y-131286156D01*
X190662323Y-131269844D01*
X190660816Y-131268198D01*
X190659963Y-131266139D01*
X190647695Y-131253871D01*
X190635971Y-131241069D01*
X190633949Y-131240125D01*
X190632373Y-131238549D01*
X190616348Y-131231911D01*
X190600614Y-131224568D01*
X190598384Y-131224470D01*
X190596325Y-131223617D01*
X190578973Y-131223617D01*
X190561633Y-131222855D01*
X190559537Y-131223617D01*
X190557307Y-131223617D01*
X190541276Y-131230257D01*
X190524964Y-131236189D01*
X190523318Y-131237695D01*
X190521259Y-131238549D01*
X190508991Y-131250816D01*
X190496189Y-131262541D01*
X190494622Y-131265185D01*
X190493669Y-131266139D01*
X190492765Y-131268320D01*
X190486198Y-131279407D01*
X190310149Y-131656653D01*
X190134101Y-131279408D01*
X190127534Y-131268321D01*
X190126630Y-131266139D01*
X190125676Y-131265185D01*
X190124110Y-131262541D01*
X190111313Y-131250822D01*
X190099040Y-131238549D01*
X190096978Y-131237695D01*
X190095335Y-131236190D01*
X190079033Y-131230261D01*
X190062992Y-131223617D01*
X190060761Y-131223617D01*
X190058666Y-131222855D01*
X190041326Y-131223617D01*
X190023974Y-131223617D01*
X190021914Y-131224470D01*
X190019686Y-131224568D01*
X190003955Y-131231909D01*
X189987926Y-131238549D01*
X189986349Y-131240125D01*
X189984328Y-131241069D01*
X189972609Y-131253865D01*
X189960336Y-131266139D01*
X189959482Y-131268200D01*
X189957977Y-131269844D01*
X189952048Y-131286145D01*
X189945404Y-131302187D01*
X189945102Y-131305245D01*
X189944642Y-131306513D01*
X189944745Y-131308872D01*
X189943483Y-131321696D01*
X189615559Y-131321696D01*
X189605018Y-131290073D01*
X189597027Y-131272173D01*
X189592342Y-131266771D01*
X189589149Y-131260385D01*
X189579680Y-131252172D01*
X189571462Y-131242697D01*
X189565070Y-131239500D01*
X189559673Y-131234820D01*
X189547779Y-131230855D01*
X189536563Y-131225247D01*
X189529435Y-131224740D01*
X189522657Y-131222481D01*
X189510150Y-131223369D01*
X189497643Y-131222481D01*
X189490864Y-131224740D01*
X189483737Y-131225247D01*
X189472524Y-131230853D01*
X189460627Y-131234819D01*
X189455227Y-131239502D01*
X189448838Y-131242697D01*
X189440622Y-131252168D01*
X189431151Y-131260384D01*
X189427956Y-131266773D01*
X189423273Y-131272173D01*
X189415282Y-131290073D01*
X189148615Y-132090073D01*
X189144268Y-132109189D01*
X189112990Y-132109189D01*
X189112990Y-132102187D01*
X189098058Y-132066139D01*
X189070468Y-132038549D01*
X189034420Y-132023617D01*
X189014911Y-132021696D01*
X188733959Y-132021696D01*
X188733959Y-131802648D01*
X188900625Y-131802648D01*
X188920134Y-131800727D01*
X188956182Y-131785795D01*
X188983772Y-131758205D01*
X188998704Y-131722157D01*
X188998704Y-131683139D01*
X188983772Y-131647091D01*
X188956182Y-131619501D01*
X188920134Y-131604569D01*
X188900625Y-131602648D01*
X188733959Y-131602648D01*
X188733959Y-131421696D01*
X189014911Y-131421696D01*
X189034420Y-131419775D01*
X189070468Y-131404843D01*
X189098058Y-131377253D01*
X189112990Y-131341205D01*
X189112990Y-131302187D01*
X189098058Y-131266139D01*
X189070468Y-131238549D01*
X189034420Y-131223617D01*
X189014911Y-131221696D01*
X188633959Y-131221696D01*
X188614450Y-131223617D01*
X188578402Y-131238549D01*
X188550812Y-131266139D01*
X188535880Y-131302187D01*
X188533959Y-131321696D01*
X188318237Y-131321696D01*
X188285622Y-131289080D01*
X188277955Y-131282788D01*
X188276223Y-131280791D01*
X188273211Y-131278895D01*
X188270468Y-131276644D01*
X188268030Y-131275634D01*
X188259632Y-131270348D01*
X188183442Y-131232253D01*
X188165134Y-131225247D01*
X188161550Y-131224992D01*
X188158230Y-131223617D01*
X188138721Y-131221696D01*
X187833959Y-131221696D01*
X187814450Y-131223617D01*
X187778402Y-131238549D01*
X187750812Y-131266139D01*
X187735880Y-131302187D01*
X187733959Y-131321696D01*
X187665371Y-131321696D01*
X187665371Y-131302187D01*
X187650439Y-131266139D01*
X187622849Y-131238549D01*
X187586801Y-131223617D01*
X187567292Y-131221696D01*
X187110149Y-131221696D01*
X187090640Y-131223617D01*
X187054592Y-131238549D01*
X187027002Y-131266139D01*
X187012070Y-131302187D01*
X186962430Y-131302187D01*
X186960576Y-131298480D01*
X186931100Y-131272914D01*
X186913200Y-131264923D01*
X186798915Y-131226828D01*
X186789243Y-131224628D01*
X186786801Y-131223617D01*
X186783262Y-131223268D01*
X186779799Y-131222481D01*
X186777165Y-131222668D01*
X186767292Y-131221696D01*
X186576815Y-131221696D01*
X186557306Y-131223617D01*
X186553985Y-131224992D01*
X186550402Y-131225247D01*
X186532094Y-131232253D01*
X186455904Y-131270348D01*
X186447507Y-131275633D01*
X186445067Y-131276644D01*
X186442321Y-131278897D01*
X186439313Y-131280791D01*
X186437580Y-131282788D01*
X186429914Y-131289081D01*
X186391819Y-131327175D01*
X186385527Y-131334841D01*
X186383530Y-131336574D01*
X186381634Y-131339585D01*
X186379383Y-131342329D01*
X186378373Y-131344765D01*
X186373087Y-131353164D01*
X186334992Y-131429355D01*
X186327985Y-131447664D01*
X186327730Y-131451247D01*
X186326355Y-131454568D01*
X186324434Y-131474077D01*
X186181578Y-131474077D01*
X186181578Y-131321696D01*
X186179657Y-131302187D01*
X186164725Y-131266139D01*
X186137135Y-131238549D01*
X186101087Y-131223617D01*
X186062069Y-131223617D01*
X186026021Y-131238549D01*
X185998431Y-131266139D01*
X185983499Y-131302187D01*
X185981578Y-131321696D01*
X185981578Y-131745140D01*
X185711259Y-131272082D01*
X185708340Y-131267971D01*
X185707582Y-131266139D01*
X185705715Y-131264272D01*
X185699912Y-131256097D01*
X185689397Y-131247954D01*
X185679992Y-131238549D01*
X185674101Y-131236109D01*
X185669063Y-131232207D01*
X185656234Y-131228708D01*
X185643944Y-131223617D01*
X185637569Y-131223617D01*
X185631420Y-131221940D01*
X185618227Y-131223617D01*
X185604926Y-131223617D01*
X185599037Y-131226056D01*
X185592713Y-131226860D01*
X185581163Y-131233460D01*
X185568878Y-131238549D01*
X185564370Y-131243056D01*
X185558836Y-131246219D01*
X185550693Y-131256733D01*
X185541288Y-131266139D01*
X185538848Y-131272029D01*
X185534946Y-131277068D01*
X185531447Y-131289896D01*
X185526356Y-131302187D01*
X185525373Y-131312164D01*
X185524679Y-131314711D01*
X185524929Y-131316678D01*
X185524435Y-131321696D01*
X185419004Y-131321696D01*
X185413427Y-131286909D01*
X185392978Y-131253679D01*
X185361369Y-131230803D01*
X185323412Y-131221766D01*
X185284885Y-131227942D01*
X185251655Y-131248392D01*
X185228780Y-131280001D01*
X185222392Y-131298534D01*
X185123707Y-131713008D01*
X185073438Y-131524501D01*
X185071725Y-131519934D01*
X185071470Y-131518009D01*
X185070147Y-131515725D01*
X185066556Y-131506145D01*
X185058531Y-131495662D01*
X185051920Y-131484242D01*
X185046776Y-131480305D01*
X185042840Y-131475162D01*
X185031422Y-131468552D01*
X185020937Y-131460526D01*
X185014672Y-131458855D01*
X185009072Y-131455613D01*
X184995999Y-131453875D01*
X184983236Y-131450472D01*
X184976811Y-131451325D01*
X184970394Y-131450473D01*
X184957642Y-131453873D01*
X184944558Y-131455612D01*
X184938954Y-131458856D01*
X184932693Y-131460526D01*
X184922207Y-131468552D01*
X184910791Y-131475162D01*
X184906855Y-131480303D01*
X184901710Y-131484242D01*
X184895099Y-131495661D01*
X184887074Y-131506145D01*
X184883478Y-131515733D01*
X184882161Y-131518010D01*
X184881906Y-131519928D01*
X184880192Y-131524500D01*
X184829923Y-131713008D01*
X184731239Y-131298534D01*
X184724851Y-131280000D01*
X184701976Y-131248391D01*
X184668746Y-131227942D01*
X184630219Y-131221765D01*
X184592262Y-131230803D01*
X184560653Y-131253678D01*
X184540204Y-131286908D01*
X184534027Y-131325435D01*
X184360071Y-131325435D01*
X184323716Y-131289080D01*
X184316049Y-131282787D01*
X184314318Y-131280791D01*
X184311310Y-131278897D01*
X184308563Y-131276643D01*
X184306121Y-131275631D01*
X184297727Y-131270348D01*
X184221537Y-131232253D01*
X184203229Y-131225247D01*
X184199645Y-131224992D01*
X184196325Y-131223617D01*
X184176816Y-131221696D01*
X184024435Y-131221696D01*
X184004926Y-131223617D01*
X184001605Y-131224992D01*
X183998023Y-131225247D01*
X183979714Y-131232253D01*
X183903523Y-131270348D01*
X183895126Y-131275633D01*
X183892687Y-131276644D01*
X183889940Y-131278897D01*
X183886933Y-131280791D01*
X183885202Y-131282785D01*
X183877533Y-131289080D01*
X183801343Y-131365270D01*
X183788907Y-131380424D01*
X183786062Y-131387290D01*
X183781635Y-131393266D01*
X183775040Y-131411727D01*
X183736944Y-131564108D01*
X183736443Y-131567489D01*
X183735879Y-131568853D01*
X183735155Y-131576201D01*
X183734076Y-131583500D01*
X183734293Y-131584958D01*
X183733958Y-131588362D01*
X183613226Y-131588362D01*
X183588115Y-131487918D01*
X183587601Y-131486479D01*
X183587550Y-131485760D01*
X183584449Y-131477657D01*
X183581520Y-131469457D01*
X183581089Y-131468875D01*
X183580544Y-131467451D01*
X183542449Y-131391260D01*
X183537163Y-131382863D01*
X183536153Y-131380424D01*
X183533899Y-131377677D01*
X183532006Y-131374670D01*
X183530011Y-131372939D01*
X183523717Y-131365270D01*
X183447527Y-131289080D01*
X183432373Y-131276644D01*
X183429054Y-131275269D01*
X183426339Y-131272914D01*
X183408439Y-131264923D01*
X183294153Y-131226828D01*
X183284481Y-131224628D01*
X183282039Y-131223617D01*
X183278500Y-131223268D01*
X183275037Y-131222481D01*
X183272403Y-131222668D01*
X183262530Y-131221696D01*
X183072054Y-131221696D01*
X183052545Y-131223617D01*
X183016497Y-131238549D01*
X182988907Y-131266139D01*
X182973975Y-131302187D01*
X182972054Y-131321696D01*
X182872054Y-131321696D01*
X182872054Y-131121696D01*
X190776816Y-131121696D01*
X190776816Y-132321696D01*
G37*
D10*
G36*
X191103084Y-95636705D02*
G01*
X190765636Y-95636705D01*
X190934360Y-95130533D01*
X191103084Y-95636705D01*
G37*
G36*
X193329760Y-96133531D02*
G01*
X189535154Y-96133531D01*
X189535154Y-95400991D01*
X189646265Y-95400991D01*
X189646265Y-95543848D01*
X189647460Y-95549857D01*
X189647758Y-95555975D01*
X189695377Y-95746451D01*
X189697716Y-95751403D01*
X189699163Y-95756685D01*
X189746781Y-95851922D01*
X189751692Y-95858250D01*
X189756147Y-95864917D01*
X189851386Y-95960156D01*
X189853467Y-95961546D01*
X189853981Y-95962574D01*
X189860946Y-95966544D01*
X189867607Y-95970995D01*
X189868755Y-95970995D01*
X189870930Y-95972235D01*
X190013786Y-96019854D01*
X190021736Y-96020856D01*
X190029598Y-96022420D01*
X190124836Y-96022420D01*
X190132698Y-96020856D01*
X190140647Y-96019854D01*
X190272317Y-95975964D01*
X190551153Y-95975964D01*
X190568267Y-96010193D01*
X190604571Y-96022294D01*
X190638800Y-96005180D01*
X190648461Y-95988231D01*
X190732303Y-95736705D01*
X191136417Y-95736705D01*
X191220259Y-95988231D01*
X191229920Y-96005179D01*
X191264149Y-96022294D01*
X191300453Y-96010192D01*
X191317567Y-95975964D01*
X191315127Y-95956608D01*
X190987064Y-94972420D01*
X191551027Y-94972420D01*
X191551027Y-95972420D01*
X191554833Y-95991554D01*
X191581893Y-96018614D01*
X191620161Y-96018614D01*
X191647221Y-95991554D01*
X191651027Y-95972420D01*
X191651027Y-95160698D01*
X192129043Y-95997227D01*
X192141841Y-96011952D01*
X192148465Y-96013758D01*
X192153321Y-96018614D01*
X192166269Y-96018614D01*
X192178761Y-96022021D01*
X192184723Y-96018614D01*
X192191589Y-96018614D01*
X192200742Y-96009460D01*
X192211987Y-96003035D01*
X192213794Y-95996408D01*
X192218649Y-95991554D01*
X192222455Y-95972420D01*
X192222455Y-95261679D01*
X192551153Y-95261679D01*
X192568267Y-95295907D01*
X192604572Y-95308008D01*
X192623388Y-95302855D01*
X192718625Y-95255237D01*
X192724958Y-95250321D01*
X192731620Y-95245870D01*
X192826858Y-95150632D01*
X192829606Y-95146518D01*
X192833106Y-95143012D01*
X192836741Y-95137559D01*
X192836741Y-95922420D01*
X192601027Y-95922420D01*
X192581893Y-95926226D01*
X192554833Y-95953286D01*
X192554833Y-95991554D01*
X192581893Y-96018614D01*
X192601027Y-96022420D01*
X193172455Y-96022420D01*
X193191589Y-96018614D01*
X193218649Y-95991554D01*
X193218649Y-95953286D01*
X193191589Y-95926226D01*
X193172455Y-95922420D01*
X192936741Y-95922420D01*
X192936741Y-94972420D01*
X192932935Y-94953286D01*
X192929294Y-94949645D01*
X192928285Y-94944598D01*
X192916169Y-94936520D01*
X192905875Y-94926226D01*
X192900729Y-94926226D01*
X192896445Y-94923370D01*
X192882167Y-94926226D01*
X192867607Y-94926226D01*
X192863966Y-94929866D01*
X192858919Y-94930876D01*
X192845139Y-94944685D01*
X192752644Y-95083425D01*
X192666648Y-95169422D01*
X192578666Y-95213413D01*
X192563254Y-95225374D01*
X192551153Y-95261679D01*
X192222455Y-95261679D01*
X192222455Y-94972420D01*
X192218649Y-94953286D01*
X192191589Y-94926226D01*
X192153321Y-94926226D01*
X192126261Y-94953286D01*
X192122455Y-94972420D01*
X192122455Y-95784141D01*
X191644439Y-94947613D01*
X191631642Y-94932888D01*
X191625015Y-94931080D01*
X191620161Y-94926226D01*
X191607214Y-94926226D01*
X191594721Y-94922819D01*
X191588759Y-94926226D01*
X191581893Y-94926226D01*
X191572739Y-94935379D01*
X191561495Y-94941805D01*
X191559687Y-94948431D01*
X191554833Y-94953286D01*
X191551027Y-94972420D01*
X190987064Y-94972420D01*
X190981794Y-94956609D01*
X190972133Y-94939660D01*
X190968790Y-94937988D01*
X190967120Y-94934648D01*
X190952083Y-94929635D01*
X190937904Y-94922546D01*
X190934359Y-94923727D01*
X190930816Y-94922546D01*
X190916642Y-94929633D01*
X190901600Y-94934647D01*
X190899928Y-94937990D01*
X190896587Y-94939661D01*
X190886926Y-94956609D01*
X190553593Y-95956609D01*
X190551153Y-95975964D01*
X190272317Y-95975964D01*
X190283504Y-95972235D01*
X190285679Y-95970995D01*
X190286828Y-95970995D01*
X190293498Y-95966537D01*
X190300452Y-95962574D01*
X190300964Y-95961548D01*
X190303049Y-95960156D01*
X190350668Y-95912536D01*
X190361506Y-95896315D01*
X190361506Y-95858046D01*
X190334446Y-95830987D01*
X190296177Y-95830987D01*
X190279956Y-95841826D01*
X190240683Y-95881099D01*
X190116723Y-95922420D01*
X190037711Y-95922420D01*
X189913751Y-95881100D01*
X189832595Y-95799943D01*
X189791060Y-95716873D01*
X189746265Y-95537693D01*
X189746265Y-95407146D01*
X189791060Y-95227966D01*
X189832596Y-95144894D01*
X189913749Y-95063740D01*
X190037711Y-95022420D01*
X190116723Y-95022420D01*
X190240684Y-95063740D01*
X190279956Y-95103013D01*
X190296177Y-95113852D01*
X190334446Y-95113852D01*
X190361506Y-95086792D01*
X190361506Y-95048523D01*
X190350667Y-95032302D01*
X190303048Y-94984684D01*
X190300965Y-94983292D01*
X190300452Y-94982266D01*
X190293491Y-94978298D01*
X190286827Y-94973845D01*
X190285679Y-94973845D01*
X190283504Y-94972605D01*
X190140647Y-94924986D01*
X190132698Y-94923983D01*
X190124836Y-94922420D01*
X190029598Y-94922420D01*
X190021736Y-94923983D01*
X190013786Y-94924986D01*
X189870930Y-94972605D01*
X189868755Y-94973845D01*
X189867607Y-94973845D01*
X189860946Y-94978295D01*
X189853981Y-94982266D01*
X189853467Y-94983293D01*
X189851386Y-94984684D01*
X189756148Y-95079922D01*
X189751696Y-95086583D01*
X189746781Y-95092917D01*
X189699163Y-95188154D01*
X189697716Y-95193435D01*
X189695377Y-95198388D01*
X189647758Y-95388864D01*
X189647460Y-95394981D01*
X189646265Y-95400991D01*
X189535154Y-95400991D01*
X189535154Y-94811309D01*
X193329760Y-94811309D01*
X193329760Y-96133531D01*
G37*
G36*
X191093084Y-91681705D02*
G01*
X190755636Y-91681705D01*
X190924360Y-91175533D01*
X191093084Y-91681705D01*
G37*
G36*
X193323566Y-92178531D02*
G01*
X189525154Y-92178531D01*
X189525154Y-91445991D01*
X189636265Y-91445991D01*
X189636265Y-91588848D01*
X189637460Y-91594857D01*
X189637758Y-91600975D01*
X189685377Y-91791451D01*
X189687716Y-91796403D01*
X189689163Y-91801685D01*
X189736781Y-91896922D01*
X189741692Y-91903250D01*
X189746147Y-91909917D01*
X189841386Y-92005156D01*
X189843467Y-92006546D01*
X189843981Y-92007574D01*
X189850946Y-92011544D01*
X189857607Y-92015995D01*
X189858755Y-92015995D01*
X189860930Y-92017235D01*
X190003786Y-92064854D01*
X190011736Y-92065856D01*
X190019598Y-92067420D01*
X190114836Y-92067420D01*
X190122698Y-92065856D01*
X190130647Y-92064854D01*
X190262317Y-92020964D01*
X190541153Y-92020964D01*
X190558267Y-92055193D01*
X190594571Y-92067294D01*
X190628800Y-92050180D01*
X190638461Y-92033231D01*
X190722303Y-91781705D01*
X191126417Y-91781705D01*
X191210259Y-92033231D01*
X191219920Y-92050179D01*
X191254149Y-92067294D01*
X191290453Y-92055192D01*
X191307567Y-92020964D01*
X191305127Y-92001608D01*
X190977064Y-91017420D01*
X191541027Y-91017420D01*
X191541027Y-92017420D01*
X191544833Y-92036554D01*
X191571893Y-92063614D01*
X191610161Y-92063614D01*
X191637221Y-92036554D01*
X191641027Y-92017420D01*
X191641027Y-91205698D01*
X192119043Y-92042227D01*
X192131841Y-92056952D01*
X192138465Y-92058758D01*
X192143321Y-92063614D01*
X192156269Y-92063614D01*
X192168761Y-92067021D01*
X192174723Y-92063614D01*
X192181589Y-92063614D01*
X192190742Y-92054460D01*
X192201987Y-92048035D01*
X192203794Y-92041408D01*
X192208649Y-92036554D01*
X192212455Y-92017420D01*
X192212455Y-91998286D01*
X192497214Y-91998286D01*
X192497214Y-92036554D01*
X192524274Y-92063614D01*
X192543408Y-92067420D01*
X193162455Y-92067420D01*
X193181589Y-92063614D01*
X193208649Y-92036554D01*
X193208649Y-91998286D01*
X193181589Y-91971226D01*
X193162455Y-91967420D01*
X192664118Y-91967420D01*
X193150191Y-91481346D01*
X193151581Y-91479264D01*
X193152609Y-91478751D01*
X193156579Y-91471785D01*
X193161030Y-91465125D01*
X193161030Y-91463977D01*
X193162270Y-91461802D01*
X193209889Y-91318946D01*
X193210891Y-91310995D01*
X193212455Y-91303134D01*
X193212455Y-91207896D01*
X193211966Y-91205439D01*
X193212329Y-91204351D01*
X193210212Y-91196623D01*
X193208649Y-91188762D01*
X193207837Y-91187950D01*
X193207176Y-91185535D01*
X193159557Y-91090297D01*
X193154645Y-91083968D01*
X193150191Y-91077302D01*
X193102572Y-91029684D01*
X193095910Y-91025232D01*
X193089577Y-91020317D01*
X192994340Y-90972699D01*
X192991924Y-90972037D01*
X192991113Y-90971226D01*
X192983251Y-90969662D01*
X192975524Y-90967546D01*
X192974435Y-90967908D01*
X192971979Y-90967420D01*
X192733884Y-90967420D01*
X192731427Y-90967908D01*
X192730339Y-90967546D01*
X192722611Y-90969662D01*
X192714750Y-90971226D01*
X192713938Y-90972037D01*
X192711523Y-90972699D01*
X192616285Y-91020318D01*
X192609956Y-91025229D01*
X192603290Y-91029684D01*
X192555672Y-91077303D01*
X192544833Y-91093524D01*
X192544833Y-91131792D01*
X192571893Y-91158852D01*
X192610161Y-91158852D01*
X192626382Y-91148013D01*
X192668264Y-91106131D01*
X192745688Y-91067420D01*
X192960176Y-91067420D01*
X193037599Y-91106131D01*
X193073743Y-91142276D01*
X193112455Y-91219699D01*
X193112455Y-91295021D01*
X193071134Y-91418982D01*
X192508053Y-91982065D01*
X192497214Y-91998286D01*
X192212455Y-91998286D01*
X192212455Y-91017420D01*
X192208649Y-90998286D01*
X192181589Y-90971226D01*
X192143321Y-90971226D01*
X192116261Y-90998286D01*
X192112455Y-91017420D01*
X192112455Y-91829141D01*
X191634439Y-90992613D01*
X191621642Y-90977888D01*
X191615015Y-90976080D01*
X191610161Y-90971226D01*
X191597214Y-90971226D01*
X191584721Y-90967819D01*
X191578759Y-90971226D01*
X191571893Y-90971226D01*
X191562739Y-90980379D01*
X191551495Y-90986805D01*
X191549687Y-90993431D01*
X191544833Y-90998286D01*
X191541027Y-91017420D01*
X190977064Y-91017420D01*
X190971794Y-91001609D01*
X190962133Y-90984660D01*
X190958790Y-90982988D01*
X190957120Y-90979648D01*
X190942083Y-90974635D01*
X190927904Y-90967546D01*
X190924359Y-90968727D01*
X190920816Y-90967546D01*
X190906642Y-90974633D01*
X190891600Y-90979647D01*
X190889928Y-90982990D01*
X190886587Y-90984661D01*
X190876926Y-91001609D01*
X190543593Y-92001609D01*
X190541153Y-92020964D01*
X190262317Y-92020964D01*
X190273504Y-92017235D01*
X190275679Y-92015995D01*
X190276828Y-92015995D01*
X190283498Y-92011537D01*
X190290452Y-92007574D01*
X190290964Y-92006548D01*
X190293049Y-92005156D01*
X190340668Y-91957536D01*
X190351506Y-91941315D01*
X190351506Y-91903046D01*
X190324446Y-91875987D01*
X190286177Y-91875987D01*
X190269956Y-91886826D01*
X190230683Y-91926099D01*
X190106723Y-91967420D01*
X190027711Y-91967420D01*
X189903751Y-91926100D01*
X189822595Y-91844943D01*
X189781060Y-91761873D01*
X189736265Y-91582693D01*
X189736265Y-91452146D01*
X189781060Y-91272966D01*
X189822596Y-91189894D01*
X189903749Y-91108740D01*
X190027711Y-91067420D01*
X190106723Y-91067420D01*
X190230684Y-91108740D01*
X190269956Y-91148013D01*
X190286177Y-91158852D01*
X190324446Y-91158852D01*
X190351506Y-91131792D01*
X190351506Y-91093523D01*
X190340667Y-91077302D01*
X190293048Y-91029684D01*
X190290965Y-91028292D01*
X190290452Y-91027266D01*
X190283491Y-91023298D01*
X190276827Y-91018845D01*
X190275679Y-91018845D01*
X190273504Y-91017605D01*
X190130647Y-90969986D01*
X190122698Y-90968983D01*
X190114836Y-90967420D01*
X190019598Y-90967420D01*
X190011736Y-90968983D01*
X190003786Y-90969986D01*
X189860930Y-91017605D01*
X189858755Y-91018845D01*
X189857607Y-91018845D01*
X189850946Y-91023295D01*
X189843981Y-91027266D01*
X189843467Y-91028293D01*
X189841386Y-91029684D01*
X189746148Y-91124922D01*
X189741696Y-91131583D01*
X189736781Y-91137917D01*
X189689163Y-91233154D01*
X189687716Y-91238435D01*
X189685377Y-91243388D01*
X189637758Y-91433864D01*
X189637460Y-91439981D01*
X189636265Y-91445991D01*
X189525154Y-91445991D01*
X189525154Y-90856309D01*
X193323566Y-90856309D01*
X193323566Y-92178531D01*
G37*
D12*
X183474818Y-118231905D02*
X184284341Y-118231905D01*
X184284341Y-118231905D02*
X184379579Y-118184286D01*
X184379579Y-118184286D02*
X184427199Y-118136667D01*
X184427199Y-118136667D02*
X184474818Y-118041429D01*
X184474818Y-118041429D02*
X184474818Y-117850953D01*
X184474818Y-117850953D02*
X184427199Y-117755715D01*
X184427199Y-117755715D02*
X184379579Y-117708096D01*
X184379579Y-117708096D02*
X184284341Y-117660477D01*
X184284341Y-117660477D02*
X183474818Y-117660477D01*
X184474818Y-116660477D02*
X184474818Y-117231905D01*
X184474818Y-116946191D02*
X183474818Y-116946191D01*
X183474818Y-116946191D02*
X183617675Y-117041429D01*
X183617675Y-117041429D02*
X183712913Y-117136667D01*
X183712913Y-117136667D02*
X183760532Y-117231905D01*
X193833333Y-119479367D02*
X193800000Y-119512701D01*
X193800000Y-119512701D02*
X193700000Y-119546034D01*
X193700000Y-119546034D02*
X193633333Y-119546034D01*
X193633333Y-119546034D02*
X193533333Y-119512701D01*
X193533333Y-119512701D02*
X193466667Y-119446034D01*
X193466667Y-119446034D02*
X193433333Y-119379367D01*
X193433333Y-119379367D02*
X193400000Y-119246034D01*
X193400000Y-119246034D02*
X193400000Y-119146034D01*
X193400000Y-119146034D02*
X193433333Y-119012701D01*
X193433333Y-119012701D02*
X193466667Y-118946034D01*
X193466667Y-118946034D02*
X193533333Y-118879367D01*
X193533333Y-118879367D02*
X193633333Y-118846034D01*
X193633333Y-118846034D02*
X193700000Y-118846034D01*
X193700000Y-118846034D02*
X193800000Y-118879367D01*
X193800000Y-118879367D02*
X193833333Y-118912701D01*
X194466667Y-118846034D02*
X194133333Y-118846034D01*
X194133333Y-118846034D02*
X194100000Y-119179367D01*
X194100000Y-119179367D02*
X194133333Y-119146034D01*
X194133333Y-119146034D02*
X194200000Y-119112701D01*
X194200000Y-119112701D02*
X194366667Y-119112701D01*
X194366667Y-119112701D02*
X194433333Y-119146034D01*
X194433333Y-119146034D02*
X194466667Y-119179367D01*
X194466667Y-119179367D02*
X194500000Y-119246034D01*
X194500000Y-119246034D02*
X194500000Y-119412701D01*
X194500000Y-119412701D02*
X194466667Y-119479367D01*
X194466667Y-119479367D02*
X194433333Y-119512701D01*
X194433333Y-119512701D02*
X194366667Y-119546034D01*
X194366667Y-119546034D02*
X194200000Y-119546034D01*
X194200000Y-119546034D02*
X194133333Y-119512701D01*
X194133333Y-119512701D02*
X194100000Y-119479367D01*
D10*
X153042580Y-114831666D02*
X152328295Y-114831666D01*
X152328295Y-114831666D02*
X152185438Y-114784047D01*
X152185438Y-114784047D02*
X152090200Y-114688809D01*
X152090200Y-114688809D02*
X152042580Y-114545952D01*
X152042580Y-114545952D02*
X152042580Y-114450714D01*
X153042580Y-115784047D02*
X153042580Y-115307857D01*
X153042580Y-115307857D02*
X152566390Y-115260238D01*
X152566390Y-115260238D02*
X152614009Y-115307857D01*
X152614009Y-115307857D02*
X152661628Y-115403095D01*
X152661628Y-115403095D02*
X152661628Y-115641190D01*
X152661628Y-115641190D02*
X152614009Y-115736428D01*
X152614009Y-115736428D02*
X152566390Y-115784047D01*
X152566390Y-115784047D02*
X152471152Y-115831666D01*
X152471152Y-115831666D02*
X152233057Y-115831666D01*
X152233057Y-115831666D02*
X152137819Y-115784047D01*
X152137819Y-115784047D02*
X152090200Y-115736428D01*
X152090200Y-115736428D02*
X152042580Y-115641190D01*
X152042580Y-115641190D02*
X152042580Y-115403095D01*
X152042580Y-115403095D02*
X152090200Y-115307857D01*
X152090200Y-115307857D02*
X152137819Y-115260238D01*
D12*
X184648629Y-124143691D02*
X185124820Y-124143691D01*
X184124820Y-124477024D02*
X184648629Y-124143691D01*
X184648629Y-124143691D02*
X184124820Y-123810358D01*
X185124820Y-122953215D02*
X185124820Y-123524643D01*
X185124820Y-123238929D02*
X184124820Y-123238929D01*
X184124820Y-123238929D02*
X184267677Y-123334167D01*
X184267677Y-123334167D02*
X184362915Y-123429405D01*
X184362915Y-123429405D02*
X184410534Y-123524643D01*
X193733333Y-120979367D02*
X193700000Y-121012701D01*
X193700000Y-121012701D02*
X193600000Y-121046034D01*
X193600000Y-121046034D02*
X193533333Y-121046034D01*
X193533333Y-121046034D02*
X193433333Y-121012701D01*
X193433333Y-121012701D02*
X193366667Y-120946034D01*
X193366667Y-120946034D02*
X193333333Y-120879367D01*
X193333333Y-120879367D02*
X193300000Y-120746034D01*
X193300000Y-120746034D02*
X193300000Y-120646034D01*
X193300000Y-120646034D02*
X193333333Y-120512701D01*
X193333333Y-120512701D02*
X193366667Y-120446034D01*
X193366667Y-120446034D02*
X193433333Y-120379367D01*
X193433333Y-120379367D02*
X193533333Y-120346034D01*
X193533333Y-120346034D02*
X193600000Y-120346034D01*
X193600000Y-120346034D02*
X193700000Y-120379367D01*
X193700000Y-120379367D02*
X193733333Y-120412701D01*
X194333333Y-120346034D02*
X194200000Y-120346034D01*
X194200000Y-120346034D02*
X194133333Y-120379367D01*
X194133333Y-120379367D02*
X194100000Y-120412701D01*
X194100000Y-120412701D02*
X194033333Y-120512701D01*
X194033333Y-120512701D02*
X194000000Y-120646034D01*
X194000000Y-120646034D02*
X194000000Y-120912701D01*
X194000000Y-120912701D02*
X194033333Y-120979367D01*
X194033333Y-120979367D02*
X194066667Y-121012701D01*
X194066667Y-121012701D02*
X194133333Y-121046034D01*
X194133333Y-121046034D02*
X194266667Y-121046034D01*
X194266667Y-121046034D02*
X194333333Y-121012701D01*
X194333333Y-121012701D02*
X194366667Y-120979367D01*
X194366667Y-120979367D02*
X194400000Y-120912701D01*
X194400000Y-120912701D02*
X194400000Y-120746034D01*
X194400000Y-120746034D02*
X194366667Y-120679367D01*
X194366667Y-120679367D02*
X194333333Y-120646034D01*
X194333333Y-120646034D02*
X194266667Y-120612701D01*
X194266667Y-120612701D02*
X194133333Y-120612701D01*
X194133333Y-120612701D02*
X194066667Y-120646034D01*
X194066667Y-120646034D02*
X194033333Y-120679367D01*
X194033333Y-120679367D02*
X194000000Y-120746034D01*
X191223333Y-113639367D02*
X191190000Y-113672701D01*
X191190000Y-113672701D02*
X191090000Y-113706034D01*
X191090000Y-113706034D02*
X191023333Y-113706034D01*
X191023333Y-113706034D02*
X190923333Y-113672701D01*
X190923333Y-113672701D02*
X190856667Y-113606034D01*
X190856667Y-113606034D02*
X190823333Y-113539367D01*
X190823333Y-113539367D02*
X190790000Y-113406034D01*
X190790000Y-113406034D02*
X190790000Y-113306034D01*
X190790000Y-113306034D02*
X190823333Y-113172701D01*
X190823333Y-113172701D02*
X190856667Y-113106034D01*
X190856667Y-113106034D02*
X190923333Y-113039367D01*
X190923333Y-113039367D02*
X191023333Y-113006034D01*
X191023333Y-113006034D02*
X191090000Y-113006034D01*
X191090000Y-113006034D02*
X191190000Y-113039367D01*
X191190000Y-113039367D02*
X191223333Y-113072701D01*
X191456667Y-113006034D02*
X191890000Y-113006034D01*
X191890000Y-113006034D02*
X191656667Y-113272701D01*
X191656667Y-113272701D02*
X191756667Y-113272701D01*
X191756667Y-113272701D02*
X191823333Y-113306034D01*
X191823333Y-113306034D02*
X191856667Y-113339367D01*
X191856667Y-113339367D02*
X191890000Y-113406034D01*
X191890000Y-113406034D02*
X191890000Y-113572701D01*
X191890000Y-113572701D02*
X191856667Y-113639367D01*
X191856667Y-113639367D02*
X191823333Y-113672701D01*
X191823333Y-113672701D02*
X191756667Y-113706034D01*
X191756667Y-113706034D02*
X191556667Y-113706034D01*
X191556667Y-113706034D02*
X191490000Y-113672701D01*
X191490000Y-113672701D02*
X191456667Y-113639367D01*
X191233333Y-116979367D02*
X191200000Y-117012701D01*
X191200000Y-117012701D02*
X191100000Y-117046034D01*
X191100000Y-117046034D02*
X191033333Y-117046034D01*
X191033333Y-117046034D02*
X190933333Y-117012701D01*
X190933333Y-117012701D02*
X190866667Y-116946034D01*
X190866667Y-116946034D02*
X190833333Y-116879367D01*
X190833333Y-116879367D02*
X190800000Y-116746034D01*
X190800000Y-116746034D02*
X190800000Y-116646034D01*
X190800000Y-116646034D02*
X190833333Y-116512701D01*
X190833333Y-116512701D02*
X190866667Y-116446034D01*
X190866667Y-116446034D02*
X190933333Y-116379367D01*
X190933333Y-116379367D02*
X191033333Y-116346034D01*
X191033333Y-116346034D02*
X191100000Y-116346034D01*
X191100000Y-116346034D02*
X191200000Y-116379367D01*
X191200000Y-116379367D02*
X191233333Y-116412701D01*
X191833333Y-116579367D02*
X191833333Y-117046034D01*
X191666667Y-116312701D02*
X191500000Y-116812701D01*
X191500000Y-116812701D02*
X191933333Y-116812701D01*
X192633333Y-118279367D02*
X192600000Y-118312701D01*
X192600000Y-118312701D02*
X192500000Y-118346034D01*
X192500000Y-118346034D02*
X192433333Y-118346034D01*
X192433333Y-118346034D02*
X192333333Y-118312701D01*
X192333333Y-118312701D02*
X192266667Y-118246034D01*
X192266667Y-118246034D02*
X192233333Y-118179367D01*
X192233333Y-118179367D02*
X192200000Y-118046034D01*
X192200000Y-118046034D02*
X192200000Y-117946034D01*
X192200000Y-117946034D02*
X192233333Y-117812701D01*
X192233333Y-117812701D02*
X192266667Y-117746034D01*
X192266667Y-117746034D02*
X192333333Y-117679367D01*
X192333333Y-117679367D02*
X192433333Y-117646034D01*
X192433333Y-117646034D02*
X192500000Y-117646034D01*
X192500000Y-117646034D02*
X192600000Y-117679367D01*
X192600000Y-117679367D02*
X192633333Y-117712701D01*
X192866667Y-117646034D02*
X193333333Y-117646034D01*
X193333333Y-117646034D02*
X193033333Y-118346034D01*
X172286555Y-99314819D02*
X172286555Y-100124342D01*
X172286555Y-100124342D02*
X172334174Y-100219580D01*
X172334174Y-100219580D02*
X172381793Y-100267200D01*
X172381793Y-100267200D02*
X172477031Y-100314819D01*
X172477031Y-100314819D02*
X172667507Y-100314819D01*
X172667507Y-100314819D02*
X172762745Y-100267200D01*
X172762745Y-100267200D02*
X172810364Y-100219580D01*
X172810364Y-100219580D02*
X172857983Y-100124342D01*
X172857983Y-100124342D02*
X172857983Y-99314819D01*
X173286555Y-99410057D02*
X173334174Y-99362438D01*
X173334174Y-99362438D02*
X173429412Y-99314819D01*
X173429412Y-99314819D02*
X173667507Y-99314819D01*
X173667507Y-99314819D02*
X173762745Y-99362438D01*
X173762745Y-99362438D02*
X173810364Y-99410057D01*
X173810364Y-99410057D02*
X173857983Y-99505295D01*
X173857983Y-99505295D02*
X173857983Y-99600533D01*
X173857983Y-99600533D02*
X173810364Y-99743390D01*
X173810364Y-99743390D02*
X173238936Y-100314819D01*
X173238936Y-100314819D02*
X173857983Y-100314819D01*
D13*
%TO.C,U1*%
X184795000Y-117180001D02*
X184795000Y-115230001D01*
X184795000Y-117180001D02*
X184795000Y-119130001D01*
X190160000Y-117180001D02*
X190160000Y-115230001D01*
X190160000Y-117180001D02*
X190160000Y-119130001D01*
X189700000Y-113470001D02*
X189460000Y-113140001D01*
X189940000Y-113140001D01*
X189700000Y-113470001D01*
G36*
X189700000Y-113470001D02*
G01*
X189460000Y-113140001D01*
X189940000Y-113140001D01*
X189700000Y-113470001D01*
G37*
%TO.C,R16*%
X183996359Y-129250001D02*
X184303641Y-129250001D01*
X183996359Y-130010001D02*
X184303641Y-130010001D01*
%TO.C,J3*%
X182940000Y-96930001D02*
X182940000Y-98180001D01*
X183230000Y-97220001D02*
X183230000Y-103190001D01*
X183230000Y-103190001D02*
X195850000Y-103190001D01*
X183240000Y-97230001D02*
X183240000Y-97980001D01*
X183240000Y-97980001D02*
X185040000Y-97980001D01*
X183240000Y-99480001D02*
X183990000Y-99480001D01*
X183990000Y-99480001D02*
X183990000Y-102430001D01*
X183990000Y-102430001D02*
X189540000Y-102430001D01*
X184190000Y-96930001D02*
X182940000Y-96930001D01*
X185040000Y-97230001D02*
X183240000Y-97230001D01*
X185040000Y-97980001D02*
X185040000Y-97230001D01*
X186540000Y-97230001D02*
X186540000Y-97980001D01*
X186540000Y-97980001D02*
X192540000Y-97980001D01*
X192540000Y-97230001D02*
X186540000Y-97230001D01*
X192540000Y-97980001D02*
X192540000Y-97230001D01*
X194040000Y-97230001D02*
X194040000Y-97980001D01*
X194040000Y-97980001D02*
X195840000Y-97980001D01*
X195090000Y-99480001D02*
X195090000Y-102430001D01*
X195090000Y-102430001D02*
X189540000Y-102430001D01*
X195840000Y-97230001D02*
X194040000Y-97230001D01*
X195840000Y-97980001D02*
X195840000Y-97230001D01*
X195840000Y-99480001D02*
X195090000Y-99480001D01*
X195850000Y-97220001D02*
X183230000Y-97220001D01*
X195850000Y-103190001D02*
X195850000Y-97220001D01*
%TO.C,C5*%
X191840581Y-118710001D02*
X191559419Y-118710001D01*
X191840581Y-119730001D02*
X191559419Y-119730001D01*
D14*
%TO.C,kibuzzard-675D9C73*%
G36*
X175263699Y-91050549D02*
G01*
X175076027Y-91050549D01*
X175169178Y-90580686D01*
X175170548Y-90580686D01*
X175263699Y-91050549D01*
G37*
G36*
X176868161Y-90305170D02*
G01*
X176929109Y-90314211D01*
X176988877Y-90329182D01*
X177046890Y-90349940D01*
X177102589Y-90376283D01*
X177155438Y-90407960D01*
X177204927Y-90444663D01*
X177250581Y-90486041D01*
X177291959Y-90531695D01*
X177328662Y-90581184D01*
X177360339Y-90634033D01*
X177386682Y-90689732D01*
X177407440Y-90747745D01*
X177422411Y-90807513D01*
X177431452Y-90868461D01*
X177434475Y-90930001D01*
X177431452Y-90991541D01*
X177422411Y-91052489D01*
X177407440Y-91112257D01*
X177386682Y-91170270D01*
X177360339Y-91225969D01*
X177328662Y-91278818D01*
X177291959Y-91328307D01*
X177250581Y-91373961D01*
X177204927Y-91415339D01*
X177155438Y-91452042D01*
X177102589Y-91483719D01*
X177046890Y-91510062D01*
X176988877Y-91530820D01*
X176929109Y-91545791D01*
X176868161Y-91554832D01*
X176806621Y-91557855D01*
X176692466Y-91557855D01*
X176539041Y-91557855D01*
X175597945Y-91557855D01*
X174847260Y-91557855D01*
X174554110Y-91557855D01*
X174207534Y-91557855D01*
X174093379Y-91557855D01*
X174031839Y-91554832D01*
X173970891Y-91545791D01*
X173911123Y-91530820D01*
X173853110Y-91510062D01*
X173797411Y-91483719D01*
X173744562Y-91452042D01*
X173695073Y-91415339D01*
X173649419Y-91373961D01*
X173608041Y-91328307D01*
X173571338Y-91278818D01*
X173539661Y-91225969D01*
X173513318Y-91170270D01*
X173492560Y-91112257D01*
X173477589Y-91052489D01*
X173468548Y-90991541D01*
X173465525Y-90930001D01*
X173466198Y-90916302D01*
X174207534Y-90916302D01*
X174212949Y-91039911D01*
X174229195Y-91147039D01*
X174256271Y-91237685D01*
X174294178Y-91311850D01*
X174342915Y-91369534D01*
X174402483Y-91410737D01*
X174472881Y-91435459D01*
X174554110Y-91443700D01*
X174645548Y-91435138D01*
X174662055Y-91430001D01*
X174847260Y-91430001D01*
X175000685Y-91430001D01*
X175052740Y-91166987D01*
X175286986Y-91166987D01*
X175339041Y-91430001D01*
X175497945Y-91430001D01*
X175597945Y-91430001D01*
X175748630Y-91430001D01*
X175748630Y-90703974D01*
X175751370Y-90703974D01*
X175965069Y-91430001D01*
X176118493Y-91430001D01*
X176118493Y-90569727D01*
X176300685Y-90569727D01*
X176300685Y-90703974D01*
X176536301Y-90572467D01*
X176539041Y-90573837D01*
X176539041Y-91430001D01*
X176692466Y-91430001D01*
X176692466Y-90430001D01*
X176540411Y-90430001D01*
X176300685Y-90569727D01*
X176118493Y-90569727D01*
X176118493Y-90430001D01*
X175974658Y-90430001D01*
X175974658Y-91156028D01*
X175970548Y-91156028D01*
X175756849Y-90430001D01*
X175597945Y-90430001D01*
X175597945Y-91430001D01*
X175497945Y-91430001D01*
X175260959Y-90430001D01*
X175082877Y-90430001D01*
X174847260Y-91430001D01*
X174662055Y-91430001D01*
X174728082Y-91409453D01*
X174728082Y-91283426D01*
X174650000Y-91315275D01*
X174577397Y-91325891D01*
X174510426Y-91314514D01*
X174455632Y-91280382D01*
X174413014Y-91223494D01*
X174382572Y-91143852D01*
X174364307Y-91041455D01*
X174358219Y-90916302D01*
X174363737Y-90800359D01*
X174380289Y-90705496D01*
X174407877Y-90631713D01*
X174446499Y-90579012D01*
X174496157Y-90547391D01*
X174556849Y-90536850D01*
X174588356Y-90542330D01*
X174588356Y-90756028D01*
X174734932Y-90756028D01*
X174734932Y-90446439D01*
X174647603Y-90423837D01*
X174550000Y-90416302D01*
X174469735Y-90424115D01*
X174400171Y-90447552D01*
X174341310Y-90486615D01*
X174293151Y-90541302D01*
X174255694Y-90611615D01*
X174228938Y-90697552D01*
X174212885Y-90799115D01*
X174207534Y-90916302D01*
X173466198Y-90916302D01*
X173468548Y-90868461D01*
X173477589Y-90807513D01*
X173492560Y-90747745D01*
X173513318Y-90689732D01*
X173539661Y-90634033D01*
X173571338Y-90581184D01*
X173608041Y-90531695D01*
X173649419Y-90486041D01*
X173695073Y-90444663D01*
X173744562Y-90407960D01*
X173797411Y-90376283D01*
X173853110Y-90349940D01*
X173911123Y-90329182D01*
X173970891Y-90314211D01*
X174031839Y-90305170D01*
X174093379Y-90302147D01*
X174207534Y-90302147D01*
X176692466Y-90302147D01*
X176806621Y-90302147D01*
X176868161Y-90305170D01*
G37*
D13*
%TO.C,SW1*%
X174658460Y-93070000D02*
X174658460Y-99891001D01*
X175778460Y-93070000D02*
X174658460Y-93070000D01*
X175778460Y-99891000D02*
X174658460Y-99891001D01*
X176133460Y-94670001D02*
X176133460Y-98290000D01*
X176133460Y-98290000D02*
X177403460Y-98290001D01*
X176203460Y-94670000D02*
X176203459Y-95876667D01*
X176323460Y-94670000D02*
X176323460Y-95876667D01*
X176443461Y-94670000D02*
X176443460Y-95876667D01*
X176563459Y-94670000D02*
X176563460Y-95876667D01*
X176683460Y-94670000D02*
X176683460Y-95876667D01*
X176803460Y-94670000D02*
X176803460Y-95876666D01*
X176923460Y-94670000D02*
X176923460Y-95876667D01*
X177043461Y-94670000D02*
X177043460Y-95876667D01*
X177163460Y-94670001D02*
X177163460Y-95876667D01*
X177283460Y-94670000D02*
X177283460Y-95876667D01*
X177403460Y-94670000D02*
X176133460Y-94670001D01*
X177403460Y-98290001D02*
X177403460Y-94670000D01*
X177403461Y-95876667D02*
X176133460Y-95876667D01*
X178268460Y-93070000D02*
X177757460Y-93070000D01*
X178318460Y-99891000D02*
X177757459Y-99891000D01*
X178673460Y-94670000D02*
X178673460Y-98290000D01*
X178673460Y-98290000D02*
X179943460Y-98290000D01*
X178743460Y-94670000D02*
X178743460Y-95876667D01*
X178863460Y-94670000D02*
X178863460Y-95876666D01*
X178983460Y-94670000D02*
X178983460Y-95876667D01*
X179103461Y-94670000D02*
X179103460Y-95876667D01*
X179223459Y-94670000D02*
X179223460Y-95876667D01*
X179343460Y-94670000D02*
X179343460Y-95876667D01*
X179463460Y-94670000D02*
X179463461Y-95876667D01*
X179583460Y-94670000D02*
X179583459Y-95876667D01*
X179703460Y-94670000D02*
X179703460Y-95876667D01*
X179823460Y-94670001D02*
X179823460Y-95876667D01*
X179943460Y-94670000D02*
X178673460Y-94670000D01*
X179943460Y-95876667D02*
X178673460Y-95876667D01*
X179943460Y-98290000D02*
X179943460Y-94670000D01*
X181418460Y-93070000D02*
X180348460Y-93070000D01*
X181418460Y-93070000D02*
X181418460Y-99891000D01*
X181418460Y-99891000D02*
X180298460Y-99891000D01*
X181658460Y-92830000D02*
X180348460Y-92830000D01*
X181658460Y-92830000D02*
X181658460Y-94213000D01*
%TO.C,R11*%
X185480000Y-112283642D02*
X185480000Y-111976360D01*
X186240000Y-112283642D02*
X186240000Y-111976360D01*
%TO.C,R12*%
X184480000Y-111976360D02*
X184480000Y-112283642D01*
X185240000Y-111976360D02*
X185240000Y-112283642D01*
%TO.C,R19*%
X181918460Y-103386359D02*
X181918460Y-103693641D01*
X182678460Y-103386359D02*
X182678460Y-103693641D01*
%TO.C,J1*%
X182940000Y-103700001D02*
X182940000Y-104950001D01*
X183230000Y-103990001D02*
X183230000Y-109960001D01*
X183230000Y-109960001D02*
X195850000Y-109960001D01*
X183240000Y-104000001D02*
X183240000Y-104750001D01*
X183240000Y-104750001D02*
X185040000Y-104750001D01*
X183240000Y-106250001D02*
X183990000Y-106250001D01*
X183990000Y-106250001D02*
X183990000Y-109200001D01*
X183990000Y-109200001D02*
X189540000Y-109200001D01*
X184190000Y-103700001D02*
X182940000Y-103700001D01*
X185040000Y-104000001D02*
X183240000Y-104000001D01*
X185040000Y-104750001D02*
X185040000Y-104000001D01*
X186540000Y-104000001D02*
X186540000Y-104750001D01*
X186540000Y-104750001D02*
X192540000Y-104750001D01*
X192540000Y-104000001D02*
X186540000Y-104000001D01*
X192540000Y-104750001D02*
X192540000Y-104000001D01*
X194040000Y-104000001D02*
X194040000Y-104750001D01*
X194040000Y-104750001D02*
X195840000Y-104750001D01*
X195090000Y-106250001D02*
X195090000Y-109200001D01*
X195090000Y-109200001D02*
X189540000Y-109200001D01*
X195840000Y-104000001D02*
X194040000Y-104000001D01*
X195840000Y-104750001D02*
X195840000Y-104000001D01*
X195840000Y-106250001D02*
X195090000Y-106250001D01*
X195850000Y-103990001D02*
X183230000Y-103990001D01*
X195850000Y-109960001D02*
X195850000Y-103990001D01*
D10*
%TO.C,J5*%
X151100000Y-102940000D02*
X151100000Y-104040000D01*
X151100000Y-103490000D02*
X151700000Y-104090000D01*
X151650000Y-102940000D02*
X152250000Y-103540000D01*
X152200000Y-102940000D02*
X151100000Y-102940000D01*
X152250000Y-103540000D02*
X151700000Y-104090000D01*
D11*
X152400000Y-118440000D02*
X152400000Y-123540000D01*
X152400000Y-123540000D02*
X151500000Y-122640000D01*
X152900000Y-118440000D02*
X152900000Y-123540000D01*
X152900000Y-123540000D02*
X153800000Y-122640000D01*
X156200000Y-104240000D02*
X157600000Y-104240000D01*
X156900000Y-104940000D02*
X156900000Y-103540000D01*
D10*
X162050000Y-102940000D02*
X161625000Y-103365000D01*
X162175000Y-103915000D02*
X161625000Y-103365000D01*
X162600000Y-102940000D02*
X161500000Y-102940000D01*
X162600000Y-103540000D02*
X162200000Y-103940000D01*
X162600000Y-104040000D02*
X162600000Y-102940000D01*
X153900000Y-112940000D02*
X151100000Y-112940000D01*
X151100000Y-117390000D01*
X153900000Y-117390000D01*
X153900000Y-112940000D01*
D11*
X157889949Y-104240000D02*
G75*
G02*
X155910051Y-104240000I-989949J0D01*
G01*
X155910051Y-104240000D02*
G75*
G02*
X157889949Y-104240000I989949J0D01*
G01*
D13*
%TO.C,Y1*%
X185620000Y-121960001D02*
X185620000Y-125260001D01*
X185620000Y-125260001D02*
X189620000Y-125260001D01*
D14*
%TO.C,kibuzzard-674E4620*%
G36*
X194164589Y-111955617D02*
G01*
X194262877Y-112021371D01*
X194319384Y-112133700D01*
X194338219Y-112295343D01*
X194338219Y-112374796D01*
X193760137Y-112374796D01*
X193738219Y-112237809D01*
X193769574Y-112068859D01*
X193863638Y-111967490D01*
X194020411Y-111933700D01*
X194164589Y-111955617D01*
G37*
G36*
X195117329Y-111905275D02*
G01*
X195232740Y-111967946D01*
X195299521Y-112073083D01*
X195321781Y-112221371D01*
X195299863Y-112374796D01*
X194571096Y-112374796D01*
X194571096Y-112259727D01*
X194593699Y-112091234D01*
X194661507Y-111974796D01*
X194778630Y-111906987D01*
X194949178Y-111884385D01*
X195117329Y-111905275D01*
G37*
G36*
X195785708Y-113577535D02*
G01*
X195785708Y-114906302D01*
X195785708Y-115454248D01*
X195785708Y-115682558D01*
X195779661Y-115805639D01*
X195761580Y-115927535D01*
X195731637Y-116047071D01*
X195690123Y-116163097D01*
X195637435Y-116274495D01*
X195574083Y-116380192D01*
X195500675Y-116479171D01*
X195417919Y-116570478D01*
X195326613Y-116653233D01*
X195227634Y-116726641D01*
X195121937Y-116789993D01*
X195010539Y-116842681D01*
X194894513Y-116884195D01*
X194774976Y-116914138D01*
X194653081Y-116932219D01*
X194530000Y-116938266D01*
X194406919Y-116932219D01*
X194285024Y-116914138D01*
X194165487Y-116884195D01*
X194049461Y-116842681D01*
X193938063Y-116789993D01*
X193832366Y-116726641D01*
X193733387Y-116653233D01*
X193642081Y-116570478D01*
X193559325Y-116479171D01*
X193485917Y-116380192D01*
X193422565Y-116274495D01*
X193369877Y-116163097D01*
X193328363Y-116047071D01*
X193298420Y-115927535D01*
X193280339Y-115805639D01*
X193274292Y-115682558D01*
X193274292Y-115454248D01*
X193274292Y-114358357D01*
X193530000Y-114358357D01*
X193530000Y-114656987D01*
X194954658Y-114656987D01*
X195133767Y-114670686D01*
X195243699Y-114711782D01*
X195319041Y-114900823D01*
X195299863Y-115015206D01*
X195242329Y-115089864D01*
X195132055Y-115130960D01*
X194954658Y-115144659D01*
X193530000Y-115144659D01*
X193530000Y-115454248D01*
X195009452Y-115454248D01*
X195187839Y-115440092D01*
X195328478Y-115397627D01*
X195431370Y-115326850D01*
X195501385Y-115223502D01*
X195543394Y-115083319D01*
X195557397Y-114906302D01*
X195543394Y-114729286D01*
X195501385Y-114589103D01*
X195431370Y-114485754D01*
X195328478Y-114414978D01*
X195187839Y-114372512D01*
X195009452Y-114358357D01*
X193530000Y-114358357D01*
X193274292Y-114358357D01*
X193274292Y-113503563D01*
X193502603Y-113503563D01*
X193517823Y-113667185D01*
X193563486Y-113803715D01*
X193639589Y-113913152D01*
X193803973Y-114021028D01*
X194023151Y-114056987D01*
X194217671Y-114028563D01*
X194379315Y-113943289D01*
X194474292Y-113849073D01*
X194565616Y-113718022D01*
X194653288Y-113550138D01*
X194723836Y-113432672D01*
X194803973Y-113354248D01*
X194901233Y-113310070D01*
X195023151Y-113295343D01*
X195150890Y-113314522D01*
X195243699Y-113372056D01*
X195300205Y-113463837D01*
X195319041Y-113585754D01*
X195299254Y-113746181D01*
X195239893Y-113898692D01*
X195140959Y-114043289D01*
X195425890Y-114043289D01*
X195498950Y-113902649D01*
X195542785Y-113747398D01*
X195557397Y-113577535D01*
X195535479Y-113365480D01*
X195469726Y-113200549D01*
X195360137Y-113082741D01*
X195206712Y-113012056D01*
X195009452Y-112988494D01*
X194797808Y-113017946D01*
X194628630Y-113106302D01*
X194530913Y-113206455D01*
X194435023Y-113349834D01*
X194340959Y-113536439D01*
X194259072Y-113658205D01*
X194148569Y-113731264D01*
X194009452Y-113755617D01*
X193897123Y-113736439D01*
X193812192Y-113678905D01*
X193758767Y-113587809D01*
X193740959Y-113467946D01*
X193770411Y-113254933D01*
X193858767Y-113043289D01*
X193584795Y-113043289D01*
X193539132Y-113190625D01*
X193511735Y-113344050D01*
X193502603Y-113503563D01*
X193274292Y-113503563D01*
X193274292Y-112237809D01*
X193502603Y-112237809D01*
X193516301Y-112463837D01*
X193557397Y-112681645D01*
X195502603Y-112681645D01*
X195533044Y-112530656D01*
X195551309Y-112377231D01*
X195557397Y-112221371D01*
X195540654Y-112027155D01*
X195490426Y-111868251D01*
X195406712Y-111744659D01*
X195289513Y-111656378D01*
X195138828Y-111603410D01*
X194954658Y-111585754D01*
X194771096Y-111612124D01*
X194614932Y-111691234D01*
X194500548Y-111810070D01*
X194442329Y-111955617D01*
X194439589Y-111955617D01*
X194383425Y-111827193D01*
X194286164Y-111726850D01*
X194156027Y-111662124D01*
X194001233Y-111640549D01*
X193821726Y-111664439D01*
X193682110Y-111736111D01*
X193582384Y-111855563D01*
X193522548Y-112022796D01*
X193502603Y-112237809D01*
X193274292Y-112237809D01*
X193274292Y-111585754D01*
X193274292Y-111357444D01*
X193280339Y-111234363D01*
X193298420Y-111112468D01*
X193328363Y-110992931D01*
X193369877Y-110876905D01*
X193422565Y-110765507D01*
X193485917Y-110659810D01*
X193559325Y-110560831D01*
X193642081Y-110469524D01*
X193733387Y-110386769D01*
X193832366Y-110313361D01*
X193938063Y-110250009D01*
X194049461Y-110197321D01*
X194165487Y-110155807D01*
X194285024Y-110125864D01*
X194406919Y-110107783D01*
X194530000Y-110101736D01*
X194653081Y-110107783D01*
X194774976Y-110125864D01*
X194894513Y-110155807D01*
X195010539Y-110197321D01*
X195121937Y-110250009D01*
X195227634Y-110313361D01*
X195326613Y-110386769D01*
X195417919Y-110469524D01*
X195500675Y-110560831D01*
X195574083Y-110659810D01*
X195637435Y-110765507D01*
X195690123Y-110876905D01*
X195731637Y-110992931D01*
X195761580Y-111112468D01*
X195779661Y-111234363D01*
X195785708Y-111357444D01*
X195785708Y-111585754D01*
X195785708Y-112221371D01*
X195785708Y-113577535D01*
G37*
D13*
%TO.C,R20*%
X167276359Y-100890001D02*
X167583641Y-100890001D01*
X167276359Y-101650001D02*
X167583641Y-101650001D01*
%TO.C,R9*%
X187470000Y-111976360D02*
X187470000Y-112283642D01*
X188230000Y-111976360D02*
X188230000Y-112283642D01*
%TO.C,C6*%
X191840581Y-120210001D02*
X191559419Y-120210001D01*
X191840581Y-121230001D02*
X191559419Y-121230001D01*
%TO.C,R15*%
X184004819Y-128260000D02*
X184312101Y-128260000D01*
X184004819Y-129020000D02*
X184312101Y-129020000D01*
%TO.C,C3*%
X191940581Y-114110001D02*
X191659419Y-114110001D01*
X191940581Y-115130001D02*
X191659419Y-115130001D01*
%TO.C,C4*%
X191307836Y-115460001D02*
X191092164Y-115460001D01*
X191307836Y-116180001D02*
X191092164Y-116180001D01*
D14*
%TO.C,kibuzzard-675D9C7D*%
G36*
X179515069Y-91050549D02*
G01*
X179327397Y-91050549D01*
X179420548Y-90580686D01*
X179421918Y-90580686D01*
X179515069Y-91050549D01*
G37*
G36*
X181216792Y-90305170D02*
G01*
X181277739Y-90314211D01*
X181337508Y-90329182D01*
X181395520Y-90349940D01*
X181451219Y-90376283D01*
X181504068Y-90407960D01*
X181553557Y-90444663D01*
X181599211Y-90486041D01*
X181640589Y-90531695D01*
X181677293Y-90581184D01*
X181708969Y-90634033D01*
X181735312Y-90689732D01*
X181756070Y-90747745D01*
X181771041Y-90807513D01*
X181780082Y-90868461D01*
X181783105Y-90930001D01*
X181780082Y-90991541D01*
X181771041Y-91052489D01*
X181756070Y-91112257D01*
X181735312Y-91170270D01*
X181708969Y-91225969D01*
X181677293Y-91278818D01*
X181640589Y-91328307D01*
X181599211Y-91373961D01*
X181553557Y-91415339D01*
X181504068Y-91452042D01*
X181451219Y-91483719D01*
X181395520Y-91510062D01*
X181337508Y-91530820D01*
X181277739Y-91545791D01*
X181216792Y-91554832D01*
X181155251Y-91557855D01*
X181041096Y-91557855D01*
X179849315Y-91557855D01*
X179098630Y-91557855D01*
X178805479Y-91557855D01*
X178458904Y-91557855D01*
X178344749Y-91557855D01*
X178283208Y-91554832D01*
X178222261Y-91545791D01*
X178162493Y-91530820D01*
X178104480Y-91510062D01*
X178048781Y-91483719D01*
X177995932Y-91452042D01*
X177946443Y-91415339D01*
X177900789Y-91373961D01*
X177859411Y-91328307D01*
X177822707Y-91278818D01*
X177791031Y-91225969D01*
X177764688Y-91170270D01*
X177743930Y-91112257D01*
X177728959Y-91052489D01*
X177719918Y-90991541D01*
X177716895Y-90930001D01*
X177717568Y-90916302D01*
X178458904Y-90916302D01*
X178464319Y-91039911D01*
X178480565Y-91147039D01*
X178507641Y-91237685D01*
X178545548Y-91311850D01*
X178594285Y-91369534D01*
X178653853Y-91410737D01*
X178724251Y-91435459D01*
X178805479Y-91443700D01*
X178896918Y-91435138D01*
X178913425Y-91430001D01*
X179098630Y-91430001D01*
X179252055Y-91430001D01*
X179304110Y-91166987D01*
X179538356Y-91166987D01*
X179590411Y-91430001D01*
X179749315Y-91430001D01*
X179849315Y-91430001D01*
X180000000Y-91430001D01*
X180000000Y-90703974D01*
X180002740Y-90703974D01*
X180216438Y-91430001D01*
X180369863Y-91430001D01*
X180369863Y-90487535D01*
X180547945Y-90487535D01*
X180547945Y-90616302D01*
X180625114Y-90571401D01*
X180695890Y-90544461D01*
X180760274Y-90535480D01*
X180850000Y-90572467D01*
X180872089Y-90620412D01*
X180879452Y-90690275D01*
X180872687Y-90765338D01*
X180852390Y-90844930D01*
X180818563Y-90929050D01*
X180771205Y-91017700D01*
X180710316Y-91110879D01*
X180635896Y-91208586D01*
X180547945Y-91310823D01*
X180547945Y-91430001D01*
X181041096Y-91430001D01*
X181041096Y-91310823D01*
X180706849Y-91310823D01*
X180706849Y-91308083D01*
X180787200Y-91212364D01*
X180855651Y-91122467D01*
X180912200Y-91038391D01*
X180956849Y-90960138D01*
X180999848Y-90862421D01*
X181025647Y-90770184D01*
X181034247Y-90683426D01*
X181018664Y-90567843D01*
X180971918Y-90484111D01*
X180895719Y-90433254D01*
X180791781Y-90416302D01*
X180705023Y-90424217D01*
X180623744Y-90447961D01*
X180547945Y-90487535D01*
X180369863Y-90487535D01*
X180369863Y-90430001D01*
X180226027Y-90430001D01*
X180226027Y-91156028D01*
X180221918Y-91156028D01*
X180008219Y-90430001D01*
X179849315Y-90430001D01*
X179849315Y-91430001D01*
X179749315Y-91430001D01*
X179512329Y-90430001D01*
X179334247Y-90430001D01*
X179098630Y-91430001D01*
X178913425Y-91430001D01*
X178979452Y-91409453D01*
X178979452Y-91283426D01*
X178901370Y-91315275D01*
X178828767Y-91325891D01*
X178761796Y-91314514D01*
X178707002Y-91280382D01*
X178664384Y-91223494D01*
X178633942Y-91143852D01*
X178615677Y-91041455D01*
X178609589Y-90916302D01*
X178615107Y-90800359D01*
X178631659Y-90705496D01*
X178659247Y-90631713D01*
X178697869Y-90579012D01*
X178747527Y-90547391D01*
X178808219Y-90536850D01*
X178839726Y-90542330D01*
X178839726Y-90756028D01*
X178986301Y-90756028D01*
X178986301Y-90446439D01*
X178898973Y-90423837D01*
X178801370Y-90416302D01*
X178721104Y-90424115D01*
X178651541Y-90447552D01*
X178592680Y-90486615D01*
X178544521Y-90541302D01*
X178507063Y-90611615D01*
X178480308Y-90697552D01*
X178464255Y-90799115D01*
X178458904Y-90916302D01*
X177717568Y-90916302D01*
X177719918Y-90868461D01*
X177728959Y-90807513D01*
X177743930Y-90747745D01*
X177764688Y-90689732D01*
X177791031Y-90634033D01*
X177822707Y-90581184D01*
X177859411Y-90531695D01*
X177900789Y-90486041D01*
X177946443Y-90444663D01*
X177995932Y-90407960D01*
X178048781Y-90376283D01*
X178104480Y-90349940D01*
X178162493Y-90329182D01*
X178222261Y-90314211D01*
X178283208Y-90305170D01*
X178344749Y-90302147D01*
X178458904Y-90302147D01*
X181041096Y-90302147D01*
X181155251Y-90302147D01*
X181216792Y-90305170D01*
G37*
D13*
%TO.C,C7*%
X191307836Y-117660001D02*
X191092164Y-117660001D01*
X191307836Y-118380001D02*
X191092164Y-118380001D01*
D14*
%TO.C,kibuzzard-68DB0050*%
G36*
X194841096Y-93063974D02*
G01*
X193901370Y-92877672D01*
X193901370Y-92874932D01*
X194841096Y-92688631D01*
X194841096Y-93063974D01*
G37*
G36*
X195855708Y-93521508D02*
G01*
X195855708Y-94107809D01*
X195855708Y-94800960D01*
X195855708Y-95029270D01*
X195849661Y-95152351D01*
X195831580Y-95274247D01*
X195801637Y-95393783D01*
X195760123Y-95509809D01*
X195707435Y-95621207D01*
X195644083Y-95726904D01*
X195570675Y-95825883D01*
X195487919Y-95917190D01*
X195396613Y-95999946D01*
X195297634Y-96073353D01*
X195191937Y-96136706D01*
X195080539Y-96189393D01*
X194964513Y-96230908D01*
X194844976Y-96260850D01*
X194723081Y-96278932D01*
X194600000Y-96284978D01*
X194476919Y-96278932D01*
X194355024Y-96260850D01*
X194235487Y-96230908D01*
X194119461Y-96189393D01*
X194008063Y-96136706D01*
X193902366Y-96073353D01*
X193803387Y-95999946D01*
X193712081Y-95917190D01*
X193629325Y-95825883D01*
X193555917Y-95726904D01*
X193492565Y-95621207D01*
X193439877Y-95509809D01*
X193398363Y-95393783D01*
X193368420Y-95274247D01*
X193350339Y-95152351D01*
X193344292Y-95029270D01*
X193344292Y-94800960D01*
X193344292Y-94116028D01*
X193572603Y-94116028D01*
X193588228Y-94276559D01*
X193635103Y-94415686D01*
X193713228Y-94533409D01*
X193822603Y-94629727D01*
X193963228Y-94704641D01*
X194135103Y-94758152D01*
X194338228Y-94790258D01*
X194572603Y-94800960D01*
X194819820Y-94790129D01*
X195034075Y-94757638D01*
X195215368Y-94703486D01*
X195363699Y-94627672D01*
X195479067Y-94530198D01*
X195561473Y-94411063D01*
X195610916Y-94270266D01*
X195627397Y-94107809D01*
X195610274Y-93924932D01*
X195558904Y-93759864D01*
X195306849Y-93759864D01*
X195370548Y-93916028D01*
X195391781Y-94061234D01*
X195369026Y-94195176D01*
X195300761Y-94304765D01*
X195186986Y-94390001D01*
X195027702Y-94450884D01*
X194822907Y-94487413D01*
X194572603Y-94499590D01*
X194340715Y-94488555D01*
X194150989Y-94455450D01*
X194003425Y-94400275D01*
X193898021Y-94323030D01*
X193834779Y-94223715D01*
X193813699Y-94102330D01*
X193824658Y-94039316D01*
X194252055Y-94039316D01*
X194252055Y-93746165D01*
X193632877Y-93746165D01*
X193587671Y-93920823D01*
X193572603Y-94116028D01*
X193344292Y-94116028D01*
X193344292Y-92694111D01*
X193600000Y-92694111D01*
X193600000Y-93050275D01*
X195600000Y-93521508D01*
X195600000Y-93214659D01*
X195073973Y-93110549D01*
X195073973Y-92642056D01*
X195600000Y-92537946D01*
X195600000Y-92220138D01*
X193600000Y-92694111D01*
X193344292Y-92694111D01*
X193344292Y-90979042D01*
X193600000Y-90979042D01*
X193600000Y-91266713D01*
X195052055Y-91266713D01*
X195052055Y-91274932D01*
X193600000Y-91702330D01*
X193600000Y-92020138D01*
X195600000Y-92020138D01*
X195600000Y-91718768D01*
X194147945Y-91718768D01*
X194147945Y-91713289D01*
X195600000Y-91285891D01*
X195600000Y-90979042D01*
X193600000Y-90979042D01*
X193344292Y-90979042D01*
X193344292Y-90750732D01*
X193350339Y-90627651D01*
X193368420Y-90505755D01*
X193398363Y-90386219D01*
X193439877Y-90270193D01*
X193492565Y-90158795D01*
X193555917Y-90053098D01*
X193629325Y-89954119D01*
X193712081Y-89862812D01*
X193803387Y-89780056D01*
X193902366Y-89706649D01*
X194008063Y-89643296D01*
X194119461Y-89590609D01*
X194235487Y-89549094D01*
X194355024Y-89519152D01*
X194476919Y-89501070D01*
X194600000Y-89495024D01*
X194723081Y-89501070D01*
X194844976Y-89519152D01*
X194964513Y-89549094D01*
X195080539Y-89590609D01*
X195191937Y-89643296D01*
X195297634Y-89706649D01*
X195396613Y-89780056D01*
X195487919Y-89862812D01*
X195570675Y-89954119D01*
X195644083Y-90053098D01*
X195707435Y-90158795D01*
X195760123Y-90270193D01*
X195801637Y-90386219D01*
X195831580Y-90505755D01*
X195849661Y-90627651D01*
X195855708Y-90750732D01*
X195855708Y-90979042D01*
X195855708Y-92020138D01*
X195855708Y-93521508D01*
G37*
%TO.C,kibuzzard-68DAF865*%
G36*
X164212676Y-90340000D02*
G01*
X163375538Y-91595708D01*
X163147227Y-91595708D01*
X162785583Y-91595708D01*
X161415720Y-91595708D01*
X160089693Y-91595708D01*
X159289693Y-91595708D01*
X159061382Y-91595708D01*
X158224244Y-90340000D01*
X158890910Y-89340000D01*
X159289693Y-89340000D01*
X159733528Y-91340000D01*
X160089693Y-91340000D01*
X160319098Y-90312603D01*
X160722570Y-90312603D01*
X160733400Y-90559820D01*
X160765892Y-90774075D01*
X160820044Y-90955368D01*
X160895857Y-91103699D01*
X160993332Y-91219067D01*
X161112467Y-91301473D01*
X161253263Y-91350916D01*
X161415720Y-91367397D01*
X161598597Y-91350274D01*
X161763665Y-91298904D01*
X161763665Y-91046849D01*
X161607501Y-91110548D01*
X161462296Y-91131781D01*
X161328353Y-91109026D01*
X161218764Y-91040761D01*
X161133528Y-90926986D01*
X161072646Y-90767702D01*
X161036116Y-90562907D01*
X161023939Y-90312603D01*
X162092433Y-90312603D01*
X162103263Y-90559820D01*
X162135755Y-90774075D01*
X162189907Y-90955368D01*
X162265720Y-91103699D01*
X162363195Y-91219067D01*
X162482330Y-91301473D01*
X162623126Y-91350916D01*
X162785583Y-91367397D01*
X162968460Y-91350274D01*
X163133528Y-91298904D01*
X163133528Y-91046849D01*
X162977364Y-91110548D01*
X162832159Y-91131781D01*
X162698216Y-91109026D01*
X162588627Y-91040761D01*
X162503392Y-90926986D01*
X162442509Y-90767702D01*
X162405979Y-90562907D01*
X162393802Y-90312603D01*
X162404837Y-90080715D01*
X162437942Y-89890989D01*
X162493118Y-89743425D01*
X162570363Y-89638021D01*
X162669678Y-89574779D01*
X162791063Y-89553699D01*
X162854076Y-89564658D01*
X162854076Y-89992055D01*
X163147227Y-89992055D01*
X163147227Y-89372877D01*
X162972570Y-89327671D01*
X162777364Y-89312603D01*
X162616833Y-89328228D01*
X162477707Y-89375103D01*
X162359984Y-89453228D01*
X162263665Y-89562603D01*
X162188751Y-89703228D01*
X162135241Y-89875103D01*
X162103135Y-90078228D01*
X162092433Y-90312603D01*
X161023939Y-90312603D01*
X161034974Y-90080715D01*
X161068079Y-89890989D01*
X161123255Y-89743425D01*
X161200500Y-89638021D01*
X161299815Y-89574779D01*
X161421200Y-89553699D01*
X161484213Y-89564658D01*
X161484213Y-89992055D01*
X161777364Y-89992055D01*
X161777364Y-89372877D01*
X161602707Y-89327671D01*
X161407501Y-89312603D01*
X161246970Y-89328228D01*
X161107844Y-89375103D01*
X160990121Y-89453228D01*
X160893802Y-89562603D01*
X160818888Y-89703228D01*
X160765378Y-89875103D01*
X160733272Y-90078228D01*
X160722570Y-90312603D01*
X160319098Y-90312603D01*
X160536268Y-89340000D01*
X160232159Y-89340000D01*
X159919830Y-91066027D01*
X159917090Y-91066027D01*
X159604761Y-89340000D01*
X159289693Y-89340000D01*
X158890910Y-89340000D01*
X159061382Y-89084292D01*
X159289693Y-89084292D01*
X163147227Y-89084292D01*
X163375538Y-89084292D01*
X164212676Y-90340000D01*
G37*
D15*
%TO.C,U2*%
X164488460Y-101940000D02*
X181618460Y-101940000D01*
X164488460Y-107340000D02*
X164488460Y-101940000D01*
X164488460Y-107340000D02*
X164488460Y-106880000D01*
X164488460Y-111660000D02*
X164488460Y-109470000D01*
X164488460Y-126010000D02*
X164488460Y-113790000D01*
X164488460Y-132470000D02*
X164488460Y-127450000D01*
X181618460Y-101940000D02*
X181618460Y-107340000D01*
X181618460Y-109470000D02*
X181618460Y-111660000D01*
X181618460Y-113790000D02*
X181618460Y-126010000D01*
X181618460Y-128140000D02*
X181618460Y-132470000D01*
X163988460Y-132600000D02*
G75*
G02*
X164481065Y-129880333I1459999J1140000D01*
G01*
X181634723Y-129870398D02*
G75*
G02*
X182138460Y-132600000I-966263J-1589602D01*
G01*
D13*
%TO.C,R10*%
X186470000Y-111976360D02*
X186470000Y-112283642D01*
X187230000Y-111976360D02*
X187230000Y-112283642D01*
D14*
%TO.C,kibuzzard-68DAF86F*%
G36*
X170856131Y-89593425D02*
G01*
X170986953Y-89720822D01*
X171043270Y-89862070D01*
X171077060Y-90059330D01*
X171088323Y-90312603D01*
X171077212Y-90592359D01*
X171043879Y-90806971D01*
X170988323Y-90956438D01*
X170857844Y-91087945D01*
X170666405Y-91131781D01*
X170543118Y-91107123D01*
X170543118Y-89575616D01*
X170666405Y-89550959D01*
X170856131Y-89593425D01*
G37*
G36*
X172452402Y-90340000D02*
G01*
X171615264Y-91595708D01*
X171386953Y-91595708D01*
X170666405Y-91595708D01*
X168888323Y-91595708D01*
X168134898Y-91595708D01*
X167449967Y-91595708D01*
X167221656Y-91595708D01*
X166384518Y-90340000D01*
X166393651Y-90326301D01*
X167449967Y-90326301D01*
X167460669Y-90570308D01*
X167492775Y-90781781D01*
X167546285Y-90960719D01*
X167621200Y-91107123D01*
X167717518Y-91220993D01*
X167835241Y-91302329D01*
X167974368Y-91351130D01*
X168134898Y-91367397D01*
X168298673Y-91356743D01*
X168379995Y-91340000D01*
X168888323Y-91340000D01*
X169189693Y-91340000D01*
X169189693Y-89887945D01*
X169195172Y-89887945D01*
X169622570Y-91340000D01*
X169929419Y-91340000D01*
X169929419Y-89367397D01*
X170236268Y-89367397D01*
X170236268Y-91312603D01*
X170442433Y-91353699D01*
X170666405Y-91367397D01*
X170893802Y-91343767D01*
X171071885Y-91272877D01*
X171207159Y-91143767D01*
X171306131Y-90945479D01*
X171351032Y-90771659D01*
X171377973Y-90560700D01*
X171386953Y-90312603D01*
X171376422Y-90056524D01*
X171344830Y-89841712D01*
X171292176Y-89668168D01*
X171218460Y-89535890D01*
X171082235Y-89411842D01*
X170898216Y-89337412D01*
X170666405Y-89312603D01*
X170450652Y-89326301D01*
X170236268Y-89367397D01*
X169929419Y-89367397D01*
X169929419Y-89340000D01*
X169641748Y-89340000D01*
X169641748Y-90792055D01*
X169633528Y-90792055D01*
X169206131Y-89340000D01*
X168888323Y-89340000D01*
X168888323Y-91340000D01*
X168379995Y-91340000D01*
X168453924Y-91324779D01*
X168600652Y-91271507D01*
X168600652Y-90148219D01*
X167962296Y-90148219D01*
X167962296Y-90381096D01*
X168307501Y-90381096D01*
X168307501Y-91098904D01*
X168143118Y-91131781D01*
X167975994Y-91085205D01*
X167852707Y-90945479D01*
X167796390Y-90793881D01*
X167762600Y-90587489D01*
X167751337Y-90326301D01*
X167763209Y-90071050D01*
X167798825Y-89871507D01*
X167858186Y-89727671D01*
X167994487Y-89597192D01*
X168189693Y-89553699D01*
X168357501Y-89570137D01*
X168532159Y-89619452D01*
X168532159Y-89372877D01*
X168364350Y-89327671D01*
X168189693Y-89312603D01*
X167963665Y-89339696D01*
X167778734Y-89420974D01*
X167634898Y-89556438D01*
X167553991Y-89695993D01*
X167496200Y-89870822D01*
X167461525Y-90080925D01*
X167449967Y-90326301D01*
X166393651Y-90326301D01*
X167221656Y-89084292D01*
X167449967Y-89084292D01*
X171386953Y-89084292D01*
X171615264Y-89084292D01*
X172452402Y-90340000D01*
G37*
%TD*%
%LPC*%
D16*
%TO.C,U1*%
X189700000Y-114542501D03*
X189065000Y-114542501D03*
X188430000Y-114542501D03*
X187795000Y-114542501D03*
X187160000Y-114542501D03*
X186525000Y-114542501D03*
X185890000Y-114542501D03*
X185255000Y-114542501D03*
X185255000Y-119817501D03*
X185890000Y-119817501D03*
X186525000Y-119817501D03*
X187160000Y-119817501D03*
X187795000Y-119817501D03*
X188430000Y-119817501D03*
X189065000Y-119817501D03*
X189700000Y-119817501D03*
%TD*%
D17*
%TO.C,R16*%
X183640000Y-129630001D03*
X184660000Y-129630001D03*
%TD*%
D18*
%TO.C,J3*%
X185790000Y-99680001D03*
D19*
X188290000Y-99680001D03*
X190790000Y-99680001D03*
X193290000Y-99680001D03*
%TD*%
D20*
%TO.C,C5*%
X192475000Y-119220001D03*
X190925000Y-119220001D03*
%TD*%
D21*
%TO.C,SW1*%
X179308460Y-92670000D03*
D22*
X176768460Y-92670000D03*
X176768460Y-100290000D03*
X179308460Y-100290000D03*
%TD*%
D23*
%TO.C,R11*%
X185860000Y-112640000D03*
X185860000Y-111620002D03*
%TD*%
D24*
%TO.C,R3*%
X187320000Y-95510001D03*
X188960000Y-95510001D03*
%TD*%
D25*
%TO.C,R12*%
X184860000Y-111620001D03*
X184860000Y-112640001D03*
%TD*%
D26*
%TO.C,H9*%
X153838460Y-96140000D03*
X154717140Y-94018680D03*
X154717140Y-98261320D03*
X156838460Y-93140000D03*
D27*
X156838460Y-96140000D03*
D26*
X156838460Y-99140000D03*
X158959780Y-94018680D03*
X158959780Y-98261320D03*
X159838460Y-96140000D03*
%TD*%
D25*
%TO.C,R19*%
X182298460Y-103030000D03*
X182298460Y-104050000D03*
%TD*%
D18*
%TO.C,J1*%
X185790000Y-106450001D03*
D19*
X188290000Y-106450001D03*
X190790000Y-106450001D03*
X193290000Y-106450001D03*
%TD*%
D28*
%TO.C,J5*%
X160250000Y-108490000D03*
D29*
X154800000Y-108540000D03*
D30*
X160214344Y-119240000D03*
%TD*%
D31*
%TO.C,R4*%
X188920000Y-91480001D03*
X187280000Y-91480001D03*
%TD*%
D32*
%TO.C,R2*%
X183730000Y-92450001D03*
X183730000Y-94090001D03*
%TD*%
D33*
%TO.C,Y1*%
X186520000Y-124460001D03*
X188720000Y-124460001D03*
X188720000Y-122760001D03*
X186520000Y-122760001D03*
%TD*%
D17*
%TO.C,R20*%
X166920000Y-101270001D03*
X167940000Y-101270001D03*
%TD*%
D25*
%TO.C,R9*%
X187850000Y-111620001D03*
X187850000Y-112640001D03*
%TD*%
D20*
%TO.C,C6*%
X192475000Y-120720001D03*
X190925000Y-120720001D03*
%TD*%
D17*
%TO.C,R15*%
X183648460Y-128640000D03*
X184668460Y-128640000D03*
%TD*%
D20*
%TO.C,C3*%
X192575000Y-114620001D03*
X191025000Y-114620001D03*
%TD*%
D34*
%TO.C,C4*%
X191680000Y-115820001D03*
X190720000Y-115820001D03*
%TD*%
D35*
%TO.C,R6*%
X182420000Y-93330001D03*
X182420000Y-91690001D03*
%TD*%
D31*
%TO.C,R5*%
X188930000Y-92740001D03*
X187290000Y-92740001D03*
%TD*%
D34*
%TO.C,C7*%
X191680000Y-118020001D03*
X190720000Y-118020001D03*
%TD*%
D36*
%TO.C,U2*%
X173048460Y-122370000D03*
D37*
X168598460Y-109430000D03*
X169878460Y-106890000D03*
X171148460Y-109430000D03*
X172418460Y-106890000D03*
X173678460Y-109430000D03*
X174948460Y-106890000D03*
X176218460Y-109430000D03*
X177498460Y-106890000D03*
X168598460Y-116020000D03*
X169878460Y-113480000D03*
X171148460Y-116020000D03*
X172418460Y-113480000D03*
X173678460Y-116020000D03*
X174948460Y-113480000D03*
X176218460Y-116020000D03*
X177498460Y-113480000D03*
D38*
X179908460Y-124910000D03*
X177368460Y-124910000D03*
X168728460Y-124910000D03*
X166188460Y-124910000D03*
D37*
X179908460Y-103860000D03*
X177368460Y-103860000D03*
X168728460Y-103860000D03*
X166188460Y-103860000D03*
D39*
X164608460Y-108400000D03*
X181488460Y-108410000D03*
X165288460Y-112730000D03*
X180808460Y-112730000D03*
X164608460Y-127080000D03*
X181488460Y-127080000D03*
%TD*%
D25*
%TO.C,R10*%
X186850000Y-111620001D03*
X186850000Y-112640001D03*
%TD*%
D26*
%TO.C,H10*%
X165908460Y-96140000D03*
X166787140Y-94018680D03*
X166787140Y-98261320D03*
X168908460Y-93140000D03*
D27*
X168908460Y-96140000D03*
D26*
X168908460Y-99140000D03*
X171029780Y-94018680D03*
X171029780Y-98261320D03*
X171908460Y-96140000D03*
%TD*%
D24*
%TO.C,R1*%
X187340000Y-94240001D03*
X188980000Y-94240001D03*
%TD*%
%LPD*%
M02*
