%TF.GenerationSoftware,KiCad,Pcbnew,9.0.6-9.0.6~ubuntu24.04.1*%
%TF.CreationDate,2025-11-06T20:02:42+01:00*%
%TF.ProjectId,ModuCard-vesc-to-mms-converter,4d6f6475-4361-4726-942d-766573632d74,rev?*%
%TF.SameCoordinates,Original*%
%TF.FileFunction,Copper,L2,Bot*%
%TF.FilePolarity,Positive*%
%FSLAX46Y46*%
G04 Gerber Fmt 4.6, Leading zero omitted, Abs format (unit mm)*
G04 Created by KiCad (PCBNEW 9.0.6-9.0.6~ubuntu24.04.1) date 2025-11-06 20:02:42*
%MOMM*%
%LPD*%
G01*
G04 APERTURE LIST*
G04 Aperture macros list*
%AMRoundRect*
0 Rectangle with rounded corners*
0 $1 Rounding radius*
0 $2 $3 $4 $5 $6 $7 $8 $9 X,Y pos of 4 corners*
0 Add a 4 corners polygon primitive as box body*
4,1,4,$2,$3,$4,$5,$6,$7,$8,$9,$2,$3,0*
0 Add four circle primitives for the rounded corners*
1,1,$1+$1,$2,$3*
1,1,$1+$1,$4,$5*
1,1,$1+$1,$6,$7*
1,1,$1+$1,$8,$9*
0 Add four rect primitives between the rounded corners*
20,1,$1+$1,$2,$3,$4,$5,0*
20,1,$1+$1,$4,$5,$6,$7,0*
20,1,$1+$1,$6,$7,$8,$9,0*
20,1,$1+$1,$8,$9,$2,$3,0*%
G04 Aperture macros list end*
%TA.AperFunction,ComponentPad*%
%ADD10RoundRect,0.250000X-0.600000X-0.725000X0.600000X-0.725000X0.600000X0.725000X-0.600000X0.725000X0*%
%TD*%
%TA.AperFunction,ComponentPad*%
%ADD11O,1.700000X1.950000*%
%TD*%
%TA.AperFunction,ComponentPad*%
%ADD12R,1.600000X1.600000*%
%TD*%
%TA.AperFunction,ComponentPad*%
%ADD13O,1.600000X1.600000*%
%TD*%
%TA.AperFunction,ComponentPad*%
%ADD14C,0.900000*%
%TD*%
%TA.AperFunction,ComponentPad*%
%ADD15C,8.000000*%
%TD*%
%TA.AperFunction,ComponentPad*%
%ADD16RoundRect,0.495000X-1.155000X4.255000X-1.155000X-4.255000X1.155000X-4.255000X1.155000X4.255000X0*%
%TD*%
%TA.AperFunction,ComponentPad*%
%ADD17C,7.000000*%
%TD*%
%TA.AperFunction,ComponentPad*%
%ADD18RoundRect,0.505697X-1.179959X4.794303X-1.179959X-4.794303X1.179959X-4.794303X1.179959X4.794303X0*%
%TD*%
%TA.AperFunction,ComponentPad*%
%ADD19C,3.200000*%
%TD*%
%TA.AperFunction,ComponentPad*%
%ADD20C,1.500000*%
%TD*%
%TA.AperFunction,ComponentPad*%
%ADD21C,1.700000*%
%TD*%
%TA.AperFunction,ComponentPad*%
%ADD22C,2.400000*%
%TD*%
%TA.AperFunction,ViaPad*%
%ADD23C,0.600000*%
%TD*%
%TA.AperFunction,Conductor*%
%ADD24C,0.508000*%
%TD*%
%TA.AperFunction,Conductor*%
%ADD25C,1.270000*%
%TD*%
%TA.AperFunction,Conductor*%
%ADD26C,0.300000*%
%TD*%
G04 APERTURE END LIST*
D10*
%TO.P,J3,1,Pin_1*%
%TO.N,GND*%
X185790000Y-99680001D03*
D11*
%TO.P,J3,2,Pin_2*%
%TO.N,/CAN/CAN-*%
X188290000Y-99680001D03*
%TO.P,J3,3,Pin_3*%
%TO.N,/CAN/CAN+*%
X190790000Y-99680001D03*
%TO.P,J3,4,Pin_4*%
%TO.N,+5V*%
X193290000Y-99680001D03*
%TD*%
D12*
%TO.P,SW1,1*%
%TO.N,Net-(R6-Pad2)*%
X179308460Y-92670000D03*
D13*
%TO.P,SW1,2*%
%TO.N,Net-(R2-Pad1)*%
X176768460Y-92670000D03*
%TO.P,SW1,3*%
%TO.N,/CAN/CAN2-*%
X176768460Y-100290000D03*
%TO.P,SW1,4*%
%TO.N,/CAN/CAN1+*%
X179308460Y-100290000D03*
%TD*%
D14*
%TO.P,H9,1,1*%
%TO.N,VCC*%
X153838460Y-96140000D03*
X154717140Y-94018680D03*
X154717140Y-98261320D03*
X156838460Y-93140000D03*
D15*
X156838460Y-96140000D03*
D14*
X156838460Y-99140000D03*
X158959780Y-94018680D03*
X158959780Y-98261320D03*
X159838460Y-96140000D03*
%TD*%
D10*
%TO.P,J1,1,Pin_1*%
%TO.N,GND*%
X185790000Y-106450001D03*
D11*
%TO.P,J1,2,Pin_2*%
%TO.N,/USB/USB_VESC_D+*%
X188290000Y-106450001D03*
%TO.P,J1,3,Pin_3*%
%TO.N,/USB/USB_VESC_D-*%
X190790000Y-106450001D03*
%TO.P,J1,4,Pin_4*%
%TO.N,+UBS_5V*%
X193290000Y-106450001D03*
%TD*%
D16*
%TO.P,J5,1,Pin_1*%
%TO.N,VCC*%
X160250000Y-108490000D03*
D17*
X154800000Y-108540000D03*
D18*
%TO.P,J5,2,Pin_2*%
%TO.N,GND*%
X160214344Y-119240000D03*
%TD*%
D19*
%TO.P,U2,*%
%TO.N,*%
X173048460Y-122370000D03*
D20*
%TO.P,U2,1,1*%
%TO.N,USB_UPSTREAM_D+*%
X168598460Y-109430000D03*
%TO.P,U2,2,2*%
%TO.N,USB_UPSTREAM_D-*%
X169878460Y-106890000D03*
%TO.P,U2,3,3*%
%TO.N,+12V*%
X171148460Y-109430000D03*
%TO.P,U2,4,4*%
%TO.N,/CAN/CAN2+*%
X172418460Y-106890000D03*
%TO.P,U2,5,5*%
%TO.N,/CAN/CAN2-*%
X173678460Y-109430000D03*
%TO.P,U2,6,6*%
%TO.N,GND*%
X174948460Y-106890000D03*
%TO.P,U2,7,7*%
%TO.N,/CAN/CAN1+*%
X176218460Y-109430000D03*
%TO.P,U2,8,8*%
%TO.N,/CAN/CAN1-*%
X177498460Y-106890000D03*
%TO.P,U2,9,9*%
X168598460Y-116020000D03*
%TO.P,U2,10,10*%
%TO.N,/CAN/CAN1+*%
X169878460Y-113480000D03*
%TO.P,U2,11,11*%
%TO.N,GND*%
X171148460Y-116020000D03*
%TO.P,U2,12,12*%
%TO.N,/CAN/CAN2-*%
X172418460Y-113480000D03*
%TO.P,U2,13,13*%
%TO.N,/CAN/CAN2+*%
X173678460Y-116020000D03*
%TO.P,U2,14,14*%
%TO.N,+12V*%
X174948460Y-113480000D03*
%TO.P,U2,15,15*%
%TO.N,USB_DOWNSTREAM_D-*%
X176218460Y-116020000D03*
%TO.P,U2,16,16*%
%TO.N,USB_DOWNSTREAM_D+*%
X177498460Y-113480000D03*
D21*
%TO.P,U2,17,-*%
%TO.N,GND*%
X179908460Y-124910000D03*
%TO.P,U2,18,+*%
%TO.N,Net-(R15-Pad1)*%
X177368460Y-124910000D03*
%TO.P,U2,19,-*%
%TO.N,GND*%
X168728460Y-124910000D03*
%TO.P,U2,20,+*%
%TO.N,Net-(R16-Pad1)*%
X166188460Y-124910000D03*
D20*
%TO.P,U2,21,-*%
%TO.N,Net-(R19-Pad1)*%
X179908460Y-103860000D03*
%TO.P,U2,22,+*%
%TO.N,+12V*%
X177368460Y-103860000D03*
%TO.P,U2,23,-*%
%TO.N,GND*%
X168728460Y-103860000D03*
%TO.P,U2,24,+*%
%TO.N,Net-(R20-Pad1)*%
X166188460Y-103860000D03*
D22*
%TO.P,U2,25,25*%
%TO.N,GND*%
X164608460Y-108400000D03*
%TO.P,U2,26,26*%
X181488460Y-108410000D03*
%TO.P,U2,27,27*%
X165288460Y-112730000D03*
%TO.P,U2,28,28*%
X180808460Y-112730000D03*
%TO.P,U2,29,29*%
X164608460Y-127080000D03*
%TO.P,U2,30,30*%
X181488460Y-127080000D03*
%TD*%
D14*
%TO.P,H10,1,1*%
%TO.N,GND*%
X165908460Y-96140000D03*
X166787140Y-94018680D03*
X166787140Y-98261320D03*
X168908460Y-93140000D03*
D15*
X168908460Y-96140000D03*
D14*
X168908460Y-99140000D03*
X171029780Y-94018680D03*
X171029780Y-98261320D03*
X171908460Y-96140000D03*
%TD*%
D23*
%TO.N,GND*%
X189210000Y-118360001D03*
X183538460Y-107350000D03*
X163218460Y-125130000D03*
X173378460Y-127670000D03*
X183538460Y-104810000D03*
X158138460Y-130210000D03*
X155598460Y-122590000D03*
X153058460Y-122590000D03*
X178007480Y-111928841D03*
X175918460Y-127670000D03*
X186078460Y-89570000D03*
X175918460Y-94650000D03*
X188720000Y-124460001D03*
X189600000Y-116820001D03*
X191158460Y-125130000D03*
X193698460Y-120050000D03*
X153058460Y-87030000D03*
X192509999Y-111342501D03*
X186078460Y-87030000D03*
X191158460Y-102270000D03*
X158138460Y-125130000D03*
X188618460Y-127670000D03*
X193698460Y-89570000D03*
X173378460Y-97190000D03*
X193698460Y-87030000D03*
X186078460Y-127670000D03*
X187280000Y-121320001D03*
X153058460Y-117510000D03*
X160678460Y-127670000D03*
X191158460Y-104810000D03*
X163218460Y-104810000D03*
X175918460Y-122590000D03*
X168298460Y-122590000D03*
X165758460Y-92110000D03*
X165758460Y-122590000D03*
X155598460Y-127670000D03*
X170838460Y-102270000D03*
X193698460Y-94650000D03*
X170838460Y-125130000D03*
X183538460Y-114970000D03*
X193698460Y-122590000D03*
X183538460Y-89570000D03*
X160678460Y-130210000D03*
X163218460Y-112430000D03*
X176236316Y-120590001D03*
X173378460Y-92110000D03*
X193698460Y-92110000D03*
X168298460Y-89570000D03*
X160678460Y-87030000D03*
X174570557Y-118960001D03*
X185709999Y-116642501D03*
X188618460Y-102270000D03*
X183538460Y-112430000D03*
X165758460Y-114970000D03*
X174676000Y-120590001D03*
X186520000Y-122760001D03*
X155598460Y-125130000D03*
X178458460Y-87030000D03*
X186078460Y-102270000D03*
X175918460Y-89570000D03*
X153058460Y-114970000D03*
X163218460Y-109890000D03*
X173378460Y-94650000D03*
X163218460Y-102270000D03*
X180998460Y-102270000D03*
X193698460Y-114970000D03*
X183538460Y-99730000D03*
X175918460Y-97190000D03*
X168298460Y-130210000D03*
X165758460Y-99730000D03*
X183538460Y-120050000D03*
X163218460Y-117510000D03*
X178458460Y-122590000D03*
X176170560Y-118960001D03*
X183538460Y-127670000D03*
X175918460Y-125130000D03*
X179275983Y-109756501D03*
X178458460Y-89570000D03*
X188618460Y-130210000D03*
X163218460Y-122590000D03*
X193698460Y-112430000D03*
X181178460Y-104130000D03*
X193698460Y-125130000D03*
X165758460Y-120050000D03*
X153058460Y-120050000D03*
X186078460Y-130210000D03*
X173378460Y-125130000D03*
X178458460Y-94650000D03*
X158138460Y-127670000D03*
X186078460Y-109890000D03*
X155598460Y-120050000D03*
X163218460Y-97190000D03*
X180998460Y-114970000D03*
X153058460Y-130210000D03*
X168298460Y-112430000D03*
X163218460Y-130210000D03*
X163218460Y-99730000D03*
X163218460Y-92110000D03*
X180998460Y-117510000D03*
X165758460Y-117510000D03*
X155598460Y-117510000D03*
X193698460Y-117510000D03*
X153058460Y-127670000D03*
X168298460Y-87030000D03*
X191158460Y-122590000D03*
X193698460Y-109890000D03*
X155598460Y-130210000D03*
X186078460Y-104810000D03*
X188000000Y-116920001D03*
X168298460Y-117510000D03*
X193698460Y-104810000D03*
X183538460Y-102270000D03*
X165758460Y-130210000D03*
X186078460Y-97190000D03*
X153058460Y-125130000D03*
X183538460Y-122590000D03*
X188618460Y-104810000D03*
X170838460Y-127670000D03*
X163218460Y-120050000D03*
X155598460Y-114970000D03*
X163218460Y-89570000D03*
X193698460Y-97190000D03*
X191158460Y-109890000D03*
X163218460Y-94650000D03*
X163218460Y-114970000D03*
X173378460Y-99730000D03*
X170838460Y-89570000D03*
X170838460Y-122590000D03*
X160678460Y-125130000D03*
%TO.N,+12V*%
X175370560Y-118960001D03*
X184690000Y-127830001D03*
X175430000Y-120860001D03*
%TO.N,/CAN/CAN1-*%
X182430000Y-93800001D03*
X182470000Y-96600001D03*
%TD*%
D24*
%TO.N,+12V*%
X175415000Y-119004441D02*
X175415000Y-119242733D01*
X175430000Y-119257733D02*
X175430000Y-120860001D01*
X175370560Y-118960001D02*
X175415000Y-119004441D01*
D25*
X174948460Y-113318461D02*
X174948460Y-113480000D01*
X171148460Y-109518461D02*
X174948460Y-113318461D01*
X171148460Y-109430000D02*
X171148460Y-109518461D01*
D24*
X175415000Y-119242733D02*
X175430000Y-119257733D01*
D26*
%TO.N,/CAN/CAN1-*%
X179257460Y-110764735D02*
X179257460Y-113372446D01*
X179260000Y-113374986D02*
X179260000Y-116914265D01*
X177498460Y-106890000D02*
X177498460Y-109005735D01*
X182430000Y-93800001D02*
X182430000Y-96560001D01*
X182430000Y-96560001D02*
X182470000Y-96600001D01*
X179257460Y-113372446D02*
X179260000Y-113374986D01*
X177498460Y-109005735D02*
X179257460Y-110764735D01*
X169278459Y-117322724D02*
X169278459Y-116699999D01*
X170125736Y-118170001D02*
X169278459Y-117322724D01*
X178004264Y-118170001D02*
X170125736Y-118170001D01*
X179260000Y-116914265D02*
X178004264Y-118170001D01*
X169278459Y-116699999D02*
X168598460Y-116020000D01*
%TO.N,/CAN/CAN1+*%
X169878460Y-117074197D02*
X169878460Y-113480000D01*
X178657480Y-113620966D02*
X178660000Y-113623486D01*
X178660000Y-113623486D02*
X178660000Y-116665737D01*
X170374264Y-117570001D02*
X169878460Y-117074197D01*
X176218460Y-109430000D02*
X177074195Y-109430000D01*
X177755736Y-117570001D02*
X170374264Y-117570001D01*
X178660000Y-116665737D02*
X177755736Y-117570001D01*
X177074195Y-109430000D02*
X178657480Y-111013285D01*
X178657480Y-111013285D02*
X178657480Y-113620966D01*
%TD*%
%TA.AperFunction,Conductor*%
%TO.N,GND*%
G36*
X195660999Y-85060185D02*
G01*
X195706754Y-85112989D01*
X195717960Y-85164500D01*
X195717963Y-132615500D01*
X195698278Y-132682539D01*
X195645474Y-132728294D01*
X195593963Y-132739500D01*
X151392960Y-132739500D01*
X151325921Y-132719815D01*
X151280166Y-132667011D01*
X151268960Y-132615500D01*
X151268960Y-128749041D01*
X189617960Y-128749041D01*
X189617960Y-129030958D01*
X189654755Y-129310439D01*
X189727719Y-129582743D01*
X189835595Y-129843179D01*
X189835600Y-129843190D01*
X189976543Y-130087309D01*
X189976548Y-130087317D01*
X190148160Y-130310965D01*
X190148164Y-130310970D01*
X190347489Y-130510295D01*
X190347493Y-130510298D01*
X190347495Y-130510300D01*
X190571143Y-130681912D01*
X190571150Y-130681916D01*
X190815269Y-130822859D01*
X190815274Y-130822861D01*
X190815277Y-130822863D01*
X191075721Y-130930742D01*
X191348018Y-131003704D01*
X191627509Y-131040500D01*
X191627516Y-131040500D01*
X191909404Y-131040500D01*
X191909411Y-131040500D01*
X192188902Y-131003704D01*
X192461199Y-130930742D01*
X192721643Y-130822863D01*
X192965777Y-130681912D01*
X193189425Y-130510300D01*
X193388760Y-130310965D01*
X193560372Y-130087317D01*
X193701323Y-129843183D01*
X193809202Y-129582739D01*
X193882164Y-129310442D01*
X193918960Y-129030951D01*
X193918960Y-128749049D01*
X193882164Y-128469558D01*
X193809202Y-128197261D01*
X193701323Y-127936817D01*
X193701321Y-127936814D01*
X193701319Y-127936809D01*
X193560376Y-127692690D01*
X193560372Y-127692683D01*
X193388760Y-127469035D01*
X193388758Y-127469033D01*
X193388755Y-127469029D01*
X193189430Y-127269704D01*
X193189425Y-127269700D01*
X192965777Y-127098088D01*
X192965771Y-127098084D01*
X192965769Y-127098083D01*
X192721650Y-126957140D01*
X192721639Y-126957135D01*
X192461203Y-126849259D01*
X192188899Y-126776295D01*
X191909418Y-126739500D01*
X191909411Y-126739500D01*
X191627509Y-126739500D01*
X191627501Y-126739500D01*
X191348020Y-126776295D01*
X191075716Y-126849259D01*
X190815280Y-126957135D01*
X190815269Y-126957140D01*
X190571150Y-127098083D01*
X190571142Y-127098089D01*
X190347489Y-127269704D01*
X190148164Y-127469029D01*
X189976549Y-127692682D01*
X189976543Y-127692690D01*
X189835600Y-127936809D01*
X189835595Y-127936820D01*
X189727719Y-128197256D01*
X189654755Y-128469560D01*
X189617960Y-128749041D01*
X151268960Y-128749041D01*
X151268960Y-127764109D01*
X184189500Y-127764109D01*
X184189500Y-127895893D01*
X184200466Y-127936820D01*
X184223608Y-128023188D01*
X184256554Y-128080251D01*
X184289500Y-128137315D01*
X184382686Y-128230501D01*
X184496814Y-128296393D01*
X184624108Y-128330501D01*
X184624110Y-128330501D01*
X184755890Y-128330501D01*
X184755892Y-128330501D01*
X184883186Y-128296393D01*
X184997314Y-128230501D01*
X185090500Y-128137315D01*
X185156392Y-128023187D01*
X185190500Y-127895893D01*
X185190500Y-127764109D01*
X185156392Y-127636815D01*
X185090500Y-127522687D01*
X184997314Y-127429501D01*
X184940250Y-127396555D01*
X184883187Y-127363609D01*
X184819539Y-127346555D01*
X184755892Y-127329501D01*
X184624108Y-127329501D01*
X184496812Y-127363609D01*
X184382686Y-127429501D01*
X184382683Y-127429503D01*
X184289502Y-127522684D01*
X184289500Y-127522687D01*
X184223608Y-127636813D01*
X184208638Y-127692683D01*
X184189500Y-127764109D01*
X151268960Y-127764109D01*
X151268960Y-124806530D01*
X165137960Y-124806530D01*
X165137960Y-125013469D01*
X165178328Y-125216412D01*
X165178330Y-125216420D01*
X165257518Y-125407596D01*
X165372484Y-125579657D01*
X165518802Y-125725975D01*
X165518805Y-125725977D01*
X165690862Y-125840941D01*
X165882040Y-125920130D01*
X166084990Y-125960499D01*
X166084994Y-125960500D01*
X166084995Y-125960500D01*
X166291926Y-125960500D01*
X166291927Y-125960499D01*
X166494880Y-125920130D01*
X166686058Y-125840941D01*
X166858115Y-125725977D01*
X167004437Y-125579655D01*
X167119401Y-125407598D01*
X167198590Y-125216420D01*
X167238960Y-125013465D01*
X167238960Y-124806535D01*
X167238959Y-124806530D01*
X176317960Y-124806530D01*
X176317960Y-125013469D01*
X176358328Y-125216412D01*
X176358330Y-125216420D01*
X176437518Y-125407596D01*
X176552484Y-125579657D01*
X176698802Y-125725975D01*
X176698805Y-125725977D01*
X176870862Y-125840941D01*
X177062040Y-125920130D01*
X177264990Y-125960499D01*
X177264994Y-125960500D01*
X177264995Y-125960500D01*
X177471926Y-125960500D01*
X177471927Y-125960499D01*
X177674880Y-125920130D01*
X177866058Y-125840941D01*
X178038115Y-125725977D01*
X178184437Y-125579655D01*
X178299401Y-125407598D01*
X178378590Y-125216420D01*
X178418960Y-125013465D01*
X178418960Y-124806535D01*
X178378590Y-124603580D01*
X178299401Y-124412402D01*
X178184437Y-124240345D01*
X178184435Y-124240342D01*
X178038117Y-124094024D01*
X177952086Y-124036541D01*
X177866058Y-123979059D01*
X177674880Y-123899870D01*
X177674872Y-123899868D01*
X177471929Y-123859500D01*
X177471925Y-123859500D01*
X177264995Y-123859500D01*
X177264990Y-123859500D01*
X177062047Y-123899868D01*
X177062039Y-123899870D01*
X176870863Y-123979058D01*
X176698802Y-124094024D01*
X176552484Y-124240342D01*
X176437518Y-124412403D01*
X176358330Y-124603579D01*
X176358328Y-124603587D01*
X176317960Y-124806530D01*
X167238959Y-124806530D01*
X167198590Y-124603580D01*
X167119401Y-124412402D01*
X167004437Y-124240345D01*
X167004435Y-124240342D01*
X166858117Y-124094024D01*
X166772086Y-124036541D01*
X166686058Y-123979059D01*
X166494880Y-123899870D01*
X166494872Y-123899868D01*
X166291929Y-123859500D01*
X166291925Y-123859500D01*
X166084995Y-123859500D01*
X166084990Y-123859500D01*
X165882047Y-123899868D01*
X165882039Y-123899870D01*
X165690863Y-123979058D01*
X165518802Y-124094024D01*
X165372484Y-124240342D01*
X165257518Y-124412403D01*
X165178330Y-124603579D01*
X165178328Y-124603587D01*
X165137960Y-124806530D01*
X151268960Y-124806530D01*
X151268960Y-122248456D01*
X171193960Y-122248456D01*
X171193960Y-122491543D01*
X171193961Y-122491559D01*
X171225690Y-122732569D01*
X171288609Y-122967386D01*
X171381635Y-123191972D01*
X171381642Y-123191987D01*
X171503190Y-123402516D01*
X171651182Y-123595380D01*
X171651190Y-123595389D01*
X171823071Y-123767270D01*
X171823079Y-123767277D01*
X172015943Y-123915269D01*
X172226472Y-124036817D01*
X172226487Y-124036824D01*
X172342631Y-124084932D01*
X172451072Y-124129850D01*
X172685889Y-124192769D01*
X172926910Y-124224500D01*
X172926917Y-124224500D01*
X173170003Y-124224500D01*
X173170010Y-124224500D01*
X173411031Y-124192769D01*
X173645848Y-124129850D01*
X173870444Y-124036819D01*
X174080976Y-123915269D01*
X174273840Y-123767278D01*
X174273844Y-123767273D01*
X174273849Y-123767270D01*
X174445730Y-123595389D01*
X174445733Y-123595384D01*
X174445738Y-123595380D01*
X174593729Y-123402516D01*
X174715279Y-123191984D01*
X174808310Y-122967388D01*
X174871229Y-122732571D01*
X174902960Y-122491550D01*
X174902960Y-122248450D01*
X174871229Y-122007429D01*
X174808310Y-121772612D01*
X174715279Y-121548016D01*
X174607018Y-121360501D01*
X174593729Y-121337483D01*
X174445737Y-121144619D01*
X174445730Y-121144611D01*
X174273849Y-120972730D01*
X174273840Y-120972722D01*
X174080976Y-120824730D01*
X173870447Y-120703182D01*
X173870432Y-120703175D01*
X173645846Y-120610149D01*
X173411029Y-120547230D01*
X173170019Y-120515501D01*
X173170016Y-120515500D01*
X173170010Y-120515500D01*
X172926910Y-120515500D01*
X172926904Y-120515500D01*
X172926900Y-120515501D01*
X172685890Y-120547230D01*
X172451073Y-120610149D01*
X172226487Y-120703175D01*
X172226472Y-120703182D01*
X172015943Y-120824730D01*
X171823079Y-120972722D01*
X171651182Y-121144619D01*
X171503190Y-121337483D01*
X171381642Y-121548012D01*
X171381635Y-121548027D01*
X171288609Y-121772613D01*
X171225690Y-122007430D01*
X171193961Y-122248440D01*
X171193960Y-122248456D01*
X151268960Y-122248456D01*
X151268960Y-115926379D01*
X167647960Y-115926379D01*
X167647960Y-116113620D01*
X167684485Y-116297243D01*
X167684487Y-116297251D01*
X167756136Y-116470228D01*
X167756141Y-116470237D01*
X167860157Y-116625907D01*
X167860160Y-116625911D01*
X167992548Y-116758299D01*
X167992552Y-116758302D01*
X168148222Y-116862318D01*
X168148228Y-116862321D01*
X168148229Y-116862322D01*
X168321209Y-116933973D01*
X168454103Y-116960407D01*
X168504839Y-116970499D01*
X168504843Y-116970500D01*
X168504844Y-116970500D01*
X168692077Y-116970500D01*
X168692077Y-116970499D01*
X168779768Y-116953057D01*
X168849359Y-116959284D01*
X168904536Y-117002147D01*
X168927781Y-117068036D01*
X168927959Y-117074674D01*
X168927959Y-117368869D01*
X168945601Y-117434711D01*
X168951844Y-117458009D01*
X168951846Y-117458014D01*
X168997986Y-117537932D01*
X168997988Y-117537935D01*
X168997989Y-117537936D01*
X169910524Y-118450471D01*
X169990448Y-118496615D01*
X170079592Y-118520501D01*
X170079593Y-118520501D01*
X170171880Y-118520501D01*
X174831603Y-118520501D01*
X174898642Y-118540186D01*
X174944397Y-118592990D01*
X174954341Y-118662148D01*
X174938990Y-118706501D01*
X174904169Y-118766811D01*
X174904169Y-118766812D01*
X174904168Y-118766814D01*
X174904168Y-118766815D01*
X174870060Y-118894109D01*
X174870060Y-119025893D01*
X174899233Y-119134770D01*
X174904168Y-119153187D01*
X174943886Y-119221979D01*
X174958844Y-119263789D01*
X174960499Y-119273817D01*
X174960499Y-119302569D01*
X174972851Y-119348669D01*
X174973845Y-119354687D01*
X174973361Y-119358631D01*
X174975500Y-119374878D01*
X174975500Y-120613440D01*
X174966062Y-120660891D01*
X174963608Y-120666814D01*
X174929500Y-120794109D01*
X174929500Y-120925892D01*
X174963608Y-121053188D01*
X174996554Y-121110251D01*
X175029500Y-121167315D01*
X175122686Y-121260501D01*
X175236814Y-121326393D01*
X175364108Y-121360501D01*
X175364110Y-121360501D01*
X175495890Y-121360501D01*
X175495892Y-121360501D01*
X175623186Y-121326393D01*
X175737314Y-121260501D01*
X175830500Y-121167315D01*
X175896392Y-121053187D01*
X175930500Y-120925893D01*
X175930500Y-120794109D01*
X175896392Y-120666815D01*
X175896389Y-120666811D01*
X175893938Y-120660891D01*
X175884500Y-120613440D01*
X175884500Y-119332162D01*
X175884500Y-119317572D01*
X175884501Y-119317569D01*
X175884501Y-119197897D01*
X175870705Y-119146412D01*
X175869841Y-119134770D01*
X175870379Y-119132263D01*
X175869500Y-119125587D01*
X175869500Y-119074279D01*
X175869501Y-119074266D01*
X175869501Y-119045861D01*
X175870562Y-119029673D01*
X175871060Y-119025890D01*
X175871060Y-118894111D01*
X175871060Y-118894109D01*
X175836952Y-118766815D01*
X175802130Y-118706501D01*
X175785657Y-118638601D01*
X175808509Y-118572574D01*
X175863430Y-118529384D01*
X175909517Y-118520501D01*
X178050406Y-118520501D01*
X178050408Y-118520501D01*
X178139552Y-118496615D01*
X178219476Y-118450471D01*
X179540470Y-117129477D01*
X179586614Y-117049553D01*
X179592375Y-117028053D01*
X179610500Y-116960409D01*
X179610500Y-113328842D01*
X179609439Y-113320781D01*
X179610281Y-113320670D01*
X179607960Y-113303036D01*
X179607960Y-110718593D01*
X179607960Y-110718591D01*
X179584074Y-110629447D01*
X179537930Y-110549523D01*
X177885279Y-108896872D01*
X177851794Y-108835549D01*
X177848960Y-108809191D01*
X177848960Y-107856486D01*
X177868645Y-107789447D01*
X177921449Y-107743692D01*
X177925473Y-107741938D01*
X177948691Y-107732322D01*
X178104368Y-107628302D01*
X178236762Y-107495908D01*
X178340782Y-107340231D01*
X178412433Y-107167251D01*
X178448960Y-106983616D01*
X178448960Y-106796384D01*
X178412433Y-106612749D01*
X178340782Y-106439769D01*
X178340781Y-106439768D01*
X178340778Y-106439762D01*
X178236925Y-106284335D01*
X178236924Y-106284334D01*
X178236765Y-106284096D01*
X178236759Y-106284088D01*
X178174202Y-106221531D01*
X187239500Y-106221531D01*
X187239500Y-106678470D01*
X187279868Y-106881413D01*
X187279870Y-106881421D01*
X187359058Y-107072597D01*
X187474024Y-107244658D01*
X187620342Y-107390976D01*
X187620345Y-107390978D01*
X187792402Y-107505942D01*
X187983580Y-107585131D01*
X188186530Y-107625500D01*
X188186534Y-107625501D01*
X188186535Y-107625501D01*
X188393466Y-107625501D01*
X188393467Y-107625500D01*
X188596420Y-107585131D01*
X188787598Y-107505942D01*
X188959655Y-107390978D01*
X189105977Y-107244656D01*
X189220941Y-107072599D01*
X189300130Y-106881421D01*
X189340500Y-106678466D01*
X189340500Y-106221536D01*
X189340499Y-106221531D01*
X189739500Y-106221531D01*
X189739500Y-106678470D01*
X189779868Y-106881413D01*
X189779870Y-106881421D01*
X189859058Y-107072597D01*
X189974024Y-107244658D01*
X190120342Y-107390976D01*
X190120345Y-107390978D01*
X190292402Y-107505942D01*
X190483580Y-107585131D01*
X190686530Y-107625500D01*
X190686534Y-107625501D01*
X190686535Y-107625501D01*
X190893466Y-107625501D01*
X190893467Y-107625500D01*
X191096420Y-107585131D01*
X191287598Y-107505942D01*
X191459655Y-107390978D01*
X191605977Y-107244656D01*
X191720941Y-107072599D01*
X191800130Y-106881421D01*
X191840500Y-106678466D01*
X191840500Y-106221536D01*
X191840499Y-106221531D01*
X192239500Y-106221531D01*
X192239500Y-106678470D01*
X192279868Y-106881413D01*
X192279870Y-106881421D01*
X192359058Y-107072597D01*
X192474024Y-107244658D01*
X192620342Y-107390976D01*
X192620345Y-107390978D01*
X192792402Y-107505942D01*
X192983580Y-107585131D01*
X193186530Y-107625500D01*
X193186534Y-107625501D01*
X193186535Y-107625501D01*
X193393466Y-107625501D01*
X193393467Y-107625500D01*
X193596420Y-107585131D01*
X193787598Y-107505942D01*
X193959655Y-107390978D01*
X194105977Y-107244656D01*
X194220941Y-107072599D01*
X194300130Y-106881421D01*
X194340500Y-106678466D01*
X194340500Y-106221536D01*
X194300130Y-106018581D01*
X194220941Y-105827403D01*
X194105977Y-105655346D01*
X194105975Y-105655343D01*
X193959657Y-105509025D01*
X193873626Y-105451542D01*
X193787598Y-105394060D01*
X193596420Y-105314871D01*
X193596412Y-105314869D01*
X193393469Y-105274501D01*
X193393465Y-105274501D01*
X193186535Y-105274501D01*
X193186530Y-105274501D01*
X192983587Y-105314869D01*
X192983579Y-105314871D01*
X192792403Y-105394059D01*
X192620342Y-105509025D01*
X192474024Y-105655343D01*
X192359058Y-105827404D01*
X192279870Y-106018580D01*
X192279868Y-106018588D01*
X192239500Y-106221531D01*
X191840499Y-106221531D01*
X191800130Y-106018581D01*
X191720941Y-105827403D01*
X191605977Y-105655346D01*
X191605975Y-105655343D01*
X191459657Y-105509025D01*
X191373626Y-105451542D01*
X191287598Y-105394060D01*
X191096420Y-105314871D01*
X191096412Y-105314869D01*
X190893469Y-105274501D01*
X190893465Y-105274501D01*
X190686535Y-105274501D01*
X190686530Y-105274501D01*
X190483587Y-105314869D01*
X190483579Y-105314871D01*
X190292403Y-105394059D01*
X190120342Y-105509025D01*
X189974024Y-105655343D01*
X189859058Y-105827404D01*
X189779870Y-106018580D01*
X189779868Y-106018588D01*
X189739500Y-106221531D01*
X189340499Y-106221531D01*
X189300130Y-106018581D01*
X189220941Y-105827403D01*
X189105977Y-105655346D01*
X189105975Y-105655343D01*
X188959657Y-105509025D01*
X188873626Y-105451542D01*
X188787598Y-105394060D01*
X188596420Y-105314871D01*
X188596412Y-105314869D01*
X188393469Y-105274501D01*
X188393465Y-105274501D01*
X188186535Y-105274501D01*
X188186530Y-105274501D01*
X187983587Y-105314869D01*
X187983579Y-105314871D01*
X187792403Y-105394059D01*
X187620342Y-105509025D01*
X187474024Y-105655343D01*
X187359058Y-105827404D01*
X187279870Y-106018580D01*
X187279868Y-106018588D01*
X187239500Y-106221531D01*
X178174202Y-106221531D01*
X178104371Y-106151700D01*
X178104367Y-106151697D01*
X177948697Y-106047681D01*
X177948688Y-106047676D01*
X177775711Y-105976027D01*
X177775703Y-105976025D01*
X177592080Y-105939500D01*
X177592076Y-105939500D01*
X177404844Y-105939500D01*
X177404839Y-105939500D01*
X177221216Y-105976025D01*
X177221208Y-105976027D01*
X177048231Y-106047676D01*
X177048222Y-106047681D01*
X176892552Y-106151697D01*
X176892548Y-106151700D01*
X176760160Y-106284088D01*
X176760157Y-106284092D01*
X176656141Y-106439762D01*
X176656136Y-106439771D01*
X176584487Y-106612748D01*
X176584485Y-106612756D01*
X176547960Y-106796379D01*
X176547960Y-106983620D01*
X176584485Y-107167243D01*
X176584487Y-107167251D01*
X176656136Y-107340228D01*
X176656141Y-107340237D01*
X176760157Y-107495907D01*
X176760160Y-107495911D01*
X176892548Y-107628299D01*
X176892552Y-107628302D01*
X177048222Y-107732318D01*
X177048226Y-107732320D01*
X177048229Y-107732322D01*
X177071413Y-107741925D01*
X177125816Y-107785765D01*
X177147881Y-107852059D01*
X177147960Y-107856486D01*
X177147960Y-108715927D01*
X177128275Y-108782966D01*
X177075471Y-108828721D01*
X177006313Y-108838665D01*
X176942757Y-108809640D01*
X176936279Y-108803608D01*
X176824371Y-108691700D01*
X176824367Y-108691697D01*
X176668697Y-108587681D01*
X176668688Y-108587676D01*
X176495711Y-108516027D01*
X176495703Y-108516025D01*
X176312080Y-108479500D01*
X176312076Y-108479500D01*
X176124844Y-108479500D01*
X176124839Y-108479500D01*
X175941216Y-108516025D01*
X175941208Y-108516027D01*
X175768231Y-108587676D01*
X175768222Y-108587681D01*
X175612552Y-108691697D01*
X175612548Y-108691700D01*
X175480160Y-108824088D01*
X175480157Y-108824092D01*
X175376141Y-108979762D01*
X175376136Y-108979771D01*
X175304487Y-109152748D01*
X175304485Y-109152756D01*
X175267960Y-109336379D01*
X175267960Y-109523620D01*
X175304485Y-109707243D01*
X175304487Y-109707251D01*
X175376136Y-109880228D01*
X175376141Y-109880237D01*
X175480157Y-110035907D01*
X175480160Y-110035911D01*
X175612548Y-110168299D01*
X175612552Y-110168302D01*
X175768222Y-110272318D01*
X175768228Y-110272321D01*
X175768229Y-110272322D01*
X175941209Y-110343973D01*
X176124839Y-110380499D01*
X176124843Y-110380500D01*
X176124844Y-110380500D01*
X176312077Y-110380500D01*
X176312078Y-110380499D01*
X176495711Y-110343973D01*
X176668691Y-110272322D01*
X176824368Y-110168302D01*
X176956762Y-110035908D01*
X176964004Y-110025070D01*
X177017614Y-109980263D01*
X177086939Y-109971553D01*
X177149968Y-110001706D01*
X177154789Y-110006276D01*
X178270661Y-111122148D01*
X178304146Y-111183471D01*
X178306980Y-111209829D01*
X178306980Y-112645801D01*
X178287295Y-112712840D01*
X178234491Y-112758595D01*
X178165333Y-112768539D01*
X178110038Y-112744176D01*
X178109433Y-112745082D01*
X177948697Y-112637681D01*
X177948688Y-112637676D01*
X177775711Y-112566027D01*
X177775703Y-112566025D01*
X177592080Y-112529500D01*
X177592076Y-112529500D01*
X177404844Y-112529500D01*
X177404839Y-112529500D01*
X177221216Y-112566025D01*
X177221208Y-112566027D01*
X177048231Y-112637676D01*
X177048222Y-112637681D01*
X176892552Y-112741697D01*
X176892548Y-112741700D01*
X176760160Y-112874088D01*
X176760157Y-112874092D01*
X176656141Y-113029762D01*
X176656136Y-113029771D01*
X176584487Y-113202748D01*
X176584485Y-113202756D01*
X176547960Y-113386379D01*
X176547960Y-113573620D01*
X176584485Y-113757243D01*
X176584487Y-113757251D01*
X176656136Y-113930228D01*
X176656141Y-113930237D01*
X176760157Y-114085907D01*
X176760160Y-114085911D01*
X176892548Y-114218299D01*
X176892552Y-114218302D01*
X177048222Y-114322318D01*
X177048226Y-114322320D01*
X177048229Y-114322322D01*
X177221209Y-114393973D01*
X177404839Y-114430499D01*
X177404843Y-114430500D01*
X177404844Y-114430500D01*
X177592077Y-114430500D01*
X177592078Y-114430499D01*
X177775711Y-114393973D01*
X177948691Y-114322322D01*
X178104368Y-114218302D01*
X178104376Y-114218293D01*
X178106829Y-114216282D01*
X178108373Y-114215625D01*
X178109433Y-114214918D01*
X178109567Y-114215118D01*
X178171137Y-114188965D01*
X178240005Y-114200751D01*
X178291568Y-114247900D01*
X178309500Y-114312130D01*
X178309500Y-116469193D01*
X178289815Y-116536232D01*
X178273181Y-116556874D01*
X177646873Y-117183182D01*
X177585550Y-117216667D01*
X177559192Y-117219501D01*
X170570808Y-117219501D01*
X170503769Y-117199816D01*
X170483127Y-117183182D01*
X170265279Y-116965334D01*
X170231794Y-116904011D01*
X170228960Y-116877653D01*
X170228960Y-115926379D01*
X172727960Y-115926379D01*
X172727960Y-116113620D01*
X172764485Y-116297243D01*
X172764487Y-116297251D01*
X172836136Y-116470228D01*
X172836141Y-116470237D01*
X172940157Y-116625907D01*
X172940160Y-116625911D01*
X173072548Y-116758299D01*
X173072552Y-116758302D01*
X173228222Y-116862318D01*
X173228228Y-116862321D01*
X173228229Y-116862322D01*
X173401209Y-116933973D01*
X173534103Y-116960407D01*
X173584839Y-116970499D01*
X173584843Y-116970500D01*
X173584844Y-116970500D01*
X173772077Y-116970500D01*
X173772078Y-116970499D01*
X173955711Y-116933973D01*
X174128691Y-116862322D01*
X174284368Y-116758302D01*
X174416762Y-116625908D01*
X174520782Y-116470231D01*
X174592433Y-116297251D01*
X174628960Y-116113616D01*
X174628960Y-115926384D01*
X174628959Y-115926379D01*
X175267960Y-115926379D01*
X175267960Y-116113620D01*
X175304485Y-116297243D01*
X175304487Y-116297251D01*
X175376136Y-116470228D01*
X175376141Y-116470237D01*
X175480157Y-116625907D01*
X175480160Y-116625911D01*
X175612548Y-116758299D01*
X175612552Y-116758302D01*
X175768222Y-116862318D01*
X175768228Y-116862321D01*
X175768229Y-116862322D01*
X175941209Y-116933973D01*
X176074103Y-116960407D01*
X176124839Y-116970499D01*
X176124843Y-116970500D01*
X176124844Y-116970500D01*
X176312077Y-116970500D01*
X176312078Y-116970499D01*
X176495711Y-116933973D01*
X176668691Y-116862322D01*
X176824368Y-116758302D01*
X176956762Y-116625908D01*
X177060782Y-116470231D01*
X177132433Y-116297251D01*
X177168960Y-116113616D01*
X177168960Y-115926384D01*
X177132433Y-115742749D01*
X177060782Y-115569769D01*
X177060781Y-115569768D01*
X177060778Y-115569762D01*
X176956762Y-115414092D01*
X176956759Y-115414088D01*
X176824371Y-115281700D01*
X176824367Y-115281697D01*
X176668697Y-115177681D01*
X176668688Y-115177676D01*
X176495711Y-115106027D01*
X176495703Y-115106025D01*
X176312080Y-115069500D01*
X176312076Y-115069500D01*
X176124844Y-115069500D01*
X176124839Y-115069500D01*
X175941216Y-115106025D01*
X175941208Y-115106027D01*
X175768231Y-115177676D01*
X175768222Y-115177681D01*
X175612552Y-115281697D01*
X175612548Y-115281700D01*
X175480160Y-115414088D01*
X175480157Y-115414092D01*
X175376141Y-115569762D01*
X175376136Y-115569771D01*
X175304487Y-115742748D01*
X175304485Y-115742756D01*
X175267960Y-115926379D01*
X174628959Y-115926379D01*
X174592433Y-115742749D01*
X174520782Y-115569769D01*
X174520781Y-115569768D01*
X174520778Y-115569762D01*
X174416762Y-115414092D01*
X174416759Y-115414088D01*
X174284371Y-115281700D01*
X174284367Y-115281697D01*
X174128697Y-115177681D01*
X174128688Y-115177676D01*
X173955711Y-115106027D01*
X173955703Y-115106025D01*
X173772080Y-115069500D01*
X173772076Y-115069500D01*
X173584844Y-115069500D01*
X173584839Y-115069500D01*
X173401216Y-115106025D01*
X173401208Y-115106027D01*
X173228231Y-115177676D01*
X173228222Y-115177681D01*
X173072552Y-115281697D01*
X173072548Y-115281700D01*
X172940160Y-115414088D01*
X172940157Y-115414092D01*
X172836141Y-115569762D01*
X172836136Y-115569771D01*
X172764487Y-115742748D01*
X172764485Y-115742756D01*
X172727960Y-115926379D01*
X170228960Y-115926379D01*
X170228960Y-114446486D01*
X170248645Y-114379447D01*
X170301449Y-114333692D01*
X170305473Y-114331938D01*
X170328691Y-114322322D01*
X170484368Y-114218302D01*
X170616762Y-114085908D01*
X170720782Y-113930231D01*
X170792433Y-113757251D01*
X170828960Y-113573616D01*
X170828960Y-113386384D01*
X170792433Y-113202749D01*
X170720782Y-113029769D01*
X170720781Y-113029768D01*
X170720778Y-113029762D01*
X170616762Y-112874092D01*
X170616759Y-112874088D01*
X170484371Y-112741700D01*
X170484367Y-112741697D01*
X170328697Y-112637681D01*
X170328688Y-112637676D01*
X170155711Y-112566027D01*
X170155703Y-112566025D01*
X169972080Y-112529500D01*
X169972076Y-112529500D01*
X169784844Y-112529500D01*
X169784839Y-112529500D01*
X169601216Y-112566025D01*
X169601208Y-112566027D01*
X169428231Y-112637676D01*
X169428222Y-112637681D01*
X169272552Y-112741697D01*
X169272548Y-112741700D01*
X169140160Y-112874088D01*
X169140157Y-112874092D01*
X169036141Y-113029762D01*
X169036136Y-113029771D01*
X168964487Y-113202748D01*
X168964485Y-113202756D01*
X168927960Y-113386379D01*
X168927960Y-113573620D01*
X168964485Y-113757243D01*
X168964487Y-113757251D01*
X169036136Y-113930228D01*
X169036141Y-113930237D01*
X169140157Y-114085907D01*
X169140160Y-114085911D01*
X169272548Y-114218299D01*
X169272552Y-114218302D01*
X169428222Y-114322318D01*
X169428226Y-114322320D01*
X169428229Y-114322322D01*
X169451413Y-114331925D01*
X169505816Y-114375765D01*
X169527881Y-114442059D01*
X169527960Y-114446486D01*
X169527960Y-115305927D01*
X169508275Y-115372966D01*
X169455471Y-115418721D01*
X169386313Y-115428665D01*
X169322757Y-115399640D01*
X169316279Y-115393608D01*
X169204371Y-115281700D01*
X169204367Y-115281697D01*
X169048697Y-115177681D01*
X169048688Y-115177676D01*
X168875711Y-115106027D01*
X168875703Y-115106025D01*
X168692080Y-115069500D01*
X168692076Y-115069500D01*
X168504844Y-115069500D01*
X168504839Y-115069500D01*
X168321216Y-115106025D01*
X168321208Y-115106027D01*
X168148231Y-115177676D01*
X168148222Y-115177681D01*
X167992552Y-115281697D01*
X167992548Y-115281700D01*
X167860160Y-115414088D01*
X167860157Y-115414092D01*
X167756141Y-115569762D01*
X167756136Y-115569771D01*
X167684487Y-115742748D01*
X167684485Y-115742756D01*
X167647960Y-115926379D01*
X151268960Y-115926379D01*
X151268960Y-113652470D01*
X151288645Y-113585431D01*
X151341449Y-113539676D01*
X151393379Y-113528471D01*
X160771560Y-113560339D01*
X162412012Y-113565914D01*
X162412012Y-113565913D01*
X162412024Y-113565914D01*
X162456275Y-113561247D01*
X162479241Y-113556266D01*
X162508456Y-113549931D01*
X162519165Y-113547305D01*
X162519165Y-113547304D01*
X162519173Y-113547303D01*
X162599794Y-113504123D01*
X162652501Y-113458257D01*
X162670420Y-113440627D01*
X162714898Y-113360715D01*
X162734441Y-113293634D01*
X162742643Y-113235720D01*
X162734407Y-109336379D01*
X167647960Y-109336379D01*
X167647960Y-109523620D01*
X167684485Y-109707243D01*
X167684487Y-109707251D01*
X167756136Y-109880228D01*
X167756141Y-109880237D01*
X167860157Y-110035907D01*
X167860160Y-110035911D01*
X167992548Y-110168299D01*
X167992552Y-110168302D01*
X168148222Y-110272318D01*
X168148228Y-110272321D01*
X168148229Y-110272322D01*
X168321209Y-110343973D01*
X168504839Y-110380499D01*
X168504843Y-110380500D01*
X168504844Y-110380500D01*
X168692077Y-110380500D01*
X168692078Y-110380499D01*
X168875711Y-110343973D01*
X169048691Y-110272322D01*
X169204368Y-110168302D01*
X169336762Y-110035908D01*
X169440782Y-109880231D01*
X169512433Y-109707251D01*
X169548960Y-109523616D01*
X169548960Y-109336384D01*
X169548959Y-109336379D01*
X170197960Y-109336379D01*
X170197960Y-109523620D01*
X170234485Y-109707243D01*
X170234487Y-109707251D01*
X170306136Y-109880228D01*
X170306141Y-109880237D01*
X170410157Y-110035907D01*
X170410160Y-110035911D01*
X170542548Y-110168299D01*
X170542552Y-110168302D01*
X170698222Y-110272318D01*
X170698226Y-110272320D01*
X170698229Y-110272322D01*
X170713876Y-110278803D01*
X170754107Y-110305684D01*
X172804547Y-112356124D01*
X172838032Y-112417447D01*
X172833048Y-112487139D01*
X172791176Y-112543072D01*
X172725712Y-112567489D01*
X172692675Y-112565422D01*
X172512080Y-112529500D01*
X172512076Y-112529500D01*
X172324844Y-112529500D01*
X172324839Y-112529500D01*
X172141216Y-112566025D01*
X172141208Y-112566027D01*
X171968231Y-112637676D01*
X171968222Y-112637681D01*
X171812552Y-112741697D01*
X171812548Y-112741700D01*
X171680160Y-112874088D01*
X171680157Y-112874092D01*
X171576141Y-113029762D01*
X171576136Y-113029771D01*
X171504487Y-113202748D01*
X171504485Y-113202756D01*
X171467960Y-113386379D01*
X171467960Y-113573620D01*
X171504485Y-113757243D01*
X171504487Y-113757251D01*
X171576136Y-113930228D01*
X171576141Y-113930237D01*
X171680157Y-114085907D01*
X171680160Y-114085911D01*
X171812548Y-114218299D01*
X171812552Y-114218302D01*
X171968222Y-114322318D01*
X171968226Y-114322320D01*
X171968229Y-114322322D01*
X172141209Y-114393973D01*
X172324839Y-114430499D01*
X172324843Y-114430500D01*
X172324844Y-114430500D01*
X172512077Y-114430500D01*
X172512078Y-114430499D01*
X172695711Y-114393973D01*
X172868691Y-114322322D01*
X173024368Y-114218302D01*
X173156762Y-114085908D01*
X173260782Y-113930231D01*
X173332433Y-113757251D01*
X173368960Y-113573616D01*
X173368960Y-113386384D01*
X173338992Y-113235723D01*
X173333037Y-113205784D01*
X173339264Y-113136193D01*
X173382127Y-113081015D01*
X173448017Y-113057771D01*
X173516014Y-113073839D01*
X173542335Y-113093912D01*
X173965382Y-113516959D01*
X173998867Y-113578282D01*
X173999318Y-113580449D01*
X174034485Y-113757243D01*
X174034487Y-113757251D01*
X174106136Y-113930228D01*
X174106141Y-113930237D01*
X174210157Y-114085907D01*
X174210160Y-114085911D01*
X174342548Y-114218299D01*
X174342552Y-114218302D01*
X174498222Y-114322318D01*
X174498226Y-114322320D01*
X174498229Y-114322322D01*
X174671209Y-114393973D01*
X174854839Y-114430499D01*
X174854843Y-114430500D01*
X174854844Y-114430500D01*
X175042077Y-114430500D01*
X175042078Y-114430499D01*
X175225711Y-114393973D01*
X175398691Y-114322322D01*
X175554368Y-114218302D01*
X175686762Y-114085908D01*
X175790782Y-113930231D01*
X175862433Y-113757251D01*
X175898960Y-113573616D01*
X175898960Y-113386384D01*
X175862433Y-113202749D01*
X175790782Y-113029769D01*
X175790781Y-113029768D01*
X175790778Y-113029762D01*
X175686762Y-112874092D01*
X175686759Y-112874088D01*
X175554370Y-112741699D01*
X175552965Y-112740546D01*
X175543949Y-112732374D01*
X173383595Y-110572020D01*
X173350110Y-110510697D01*
X173355094Y-110441005D01*
X173396966Y-110385072D01*
X173462430Y-110360655D01*
X173495466Y-110362721D01*
X173584842Y-110380499D01*
X173584843Y-110380500D01*
X173584844Y-110380500D01*
X173772077Y-110380500D01*
X173772078Y-110380499D01*
X173955711Y-110343973D01*
X174128691Y-110272322D01*
X174284368Y-110168302D01*
X174416762Y-110035908D01*
X174520782Y-109880231D01*
X174592433Y-109707251D01*
X174628960Y-109523616D01*
X174628960Y-109336384D01*
X174592433Y-109152749D01*
X174520782Y-108979769D01*
X174520781Y-108979768D01*
X174520778Y-108979762D01*
X174416762Y-108824092D01*
X174416759Y-108824088D01*
X174284371Y-108691700D01*
X174284367Y-108691697D01*
X174128697Y-108587681D01*
X174128688Y-108587676D01*
X173955711Y-108516027D01*
X173955703Y-108516025D01*
X173772080Y-108479500D01*
X173772076Y-108479500D01*
X173584844Y-108479500D01*
X173584839Y-108479500D01*
X173401216Y-108516025D01*
X173401208Y-108516027D01*
X173228231Y-108587676D01*
X173228222Y-108587681D01*
X173072552Y-108691697D01*
X173072548Y-108691700D01*
X172940160Y-108824088D01*
X172940157Y-108824092D01*
X172836141Y-108979762D01*
X172836136Y-108979771D01*
X172764487Y-109152748D01*
X172764485Y-109152756D01*
X172727960Y-109336379D01*
X172727960Y-109523620D01*
X172745737Y-109612992D01*
X172739510Y-109682584D01*
X172696646Y-109737761D01*
X172630756Y-109761005D01*
X172562760Y-109744937D01*
X172536439Y-109724864D01*
X172113391Y-109301816D01*
X172079906Y-109240493D01*
X172079469Y-109238398D01*
X172062433Y-109152749D01*
X171990782Y-108979769D01*
X171990781Y-108979768D01*
X171990778Y-108979762D01*
X171886762Y-108824092D01*
X171886759Y-108824088D01*
X171754371Y-108691700D01*
X171754367Y-108691697D01*
X171598697Y-108587681D01*
X171598688Y-108587676D01*
X171425711Y-108516027D01*
X171425703Y-108516025D01*
X171242080Y-108479500D01*
X171242076Y-108479500D01*
X171054844Y-108479500D01*
X171054839Y-108479500D01*
X170871216Y-108516025D01*
X170871208Y-108516027D01*
X170698231Y-108587676D01*
X170698222Y-108587681D01*
X170542552Y-108691697D01*
X170542548Y-108691700D01*
X170410160Y-108824088D01*
X170410157Y-108824092D01*
X170306141Y-108979762D01*
X170306136Y-108979771D01*
X170234487Y-109152748D01*
X170234485Y-109152756D01*
X170197960Y-109336379D01*
X169548959Y-109336379D01*
X169512433Y-109152749D01*
X169440782Y-108979769D01*
X169440781Y-108979768D01*
X169440778Y-108979762D01*
X169336762Y-108824092D01*
X169336759Y-108824088D01*
X169204371Y-108691700D01*
X169204367Y-108691697D01*
X169048697Y-108587681D01*
X169048688Y-108587676D01*
X168875711Y-108516027D01*
X168875703Y-108516025D01*
X168692080Y-108479500D01*
X168692076Y-108479500D01*
X168504844Y-108479500D01*
X168504839Y-108479500D01*
X168321216Y-108516025D01*
X168321208Y-108516027D01*
X168148231Y-108587676D01*
X168148222Y-108587681D01*
X167992552Y-108691697D01*
X167992548Y-108691700D01*
X167860160Y-108824088D01*
X167860157Y-108824092D01*
X167756141Y-108979762D01*
X167756136Y-108979771D01*
X167684487Y-109152748D01*
X167684485Y-109152756D01*
X167647960Y-109336379D01*
X162734407Y-109336379D01*
X162733096Y-108715927D01*
X162729041Y-106796379D01*
X168927960Y-106796379D01*
X168927960Y-106983620D01*
X168964485Y-107167243D01*
X168964487Y-107167251D01*
X169036136Y-107340228D01*
X169036141Y-107340237D01*
X169140157Y-107495907D01*
X169140160Y-107495911D01*
X169272548Y-107628299D01*
X169272552Y-107628302D01*
X169428222Y-107732318D01*
X169428226Y-107732320D01*
X169428229Y-107732322D01*
X169601209Y-107803973D01*
X169784839Y-107840499D01*
X169784843Y-107840500D01*
X169784844Y-107840500D01*
X169972077Y-107840500D01*
X169972078Y-107840499D01*
X170155711Y-107803973D01*
X170328691Y-107732322D01*
X170484368Y-107628302D01*
X170616762Y-107495908D01*
X170720782Y-107340231D01*
X170792433Y-107167251D01*
X170828960Y-106983616D01*
X170828960Y-106796384D01*
X170828959Y-106796379D01*
X171467960Y-106796379D01*
X171467960Y-106983620D01*
X171504485Y-107167243D01*
X171504487Y-107167251D01*
X171576136Y-107340228D01*
X171576141Y-107340237D01*
X171680157Y-107495907D01*
X171680160Y-107495911D01*
X171812548Y-107628299D01*
X171812552Y-107628302D01*
X171968222Y-107732318D01*
X171968226Y-107732320D01*
X171968229Y-107732322D01*
X172141209Y-107803973D01*
X172324839Y-107840499D01*
X172324843Y-107840500D01*
X172324844Y-107840500D01*
X172512077Y-107840500D01*
X172512078Y-107840499D01*
X172695711Y-107803973D01*
X172868691Y-107732322D01*
X173024368Y-107628302D01*
X173156762Y-107495908D01*
X173260782Y-107340231D01*
X173332433Y-107167251D01*
X173368960Y-106983616D01*
X173368960Y-106796384D01*
X173332433Y-106612749D01*
X173260782Y-106439769D01*
X173260781Y-106439768D01*
X173260778Y-106439762D01*
X173156762Y-106284092D01*
X173156759Y-106284088D01*
X173024371Y-106151700D01*
X173024367Y-106151697D01*
X172868697Y-106047681D01*
X172868688Y-106047676D01*
X172695711Y-105976027D01*
X172695703Y-105976025D01*
X172512080Y-105939500D01*
X172512076Y-105939500D01*
X172324844Y-105939500D01*
X172324839Y-105939500D01*
X172141216Y-105976025D01*
X172141208Y-105976027D01*
X171968231Y-106047676D01*
X171968222Y-106047681D01*
X171812552Y-106151697D01*
X171812548Y-106151700D01*
X171680160Y-106284088D01*
X171680157Y-106284092D01*
X171576141Y-106439762D01*
X171576136Y-106439771D01*
X171504487Y-106612748D01*
X171504485Y-106612756D01*
X171467960Y-106796379D01*
X170828959Y-106796379D01*
X170792433Y-106612749D01*
X170720782Y-106439769D01*
X170720781Y-106439768D01*
X170720778Y-106439762D01*
X170616762Y-106284092D01*
X170616759Y-106284088D01*
X170484371Y-106151700D01*
X170484367Y-106151697D01*
X170328697Y-106047681D01*
X170328688Y-106047676D01*
X170155711Y-105976027D01*
X170155703Y-105976025D01*
X169972080Y-105939500D01*
X169972076Y-105939500D01*
X169784844Y-105939500D01*
X169784839Y-105939500D01*
X169601216Y-105976025D01*
X169601208Y-105976027D01*
X169428231Y-106047676D01*
X169428222Y-106047681D01*
X169272552Y-106151697D01*
X169272548Y-106151700D01*
X169140160Y-106284088D01*
X169140157Y-106284092D01*
X169036141Y-106439762D01*
X169036136Y-106439771D01*
X168964487Y-106612748D01*
X168964485Y-106612756D01*
X168927960Y-106796379D01*
X162729041Y-106796379D01*
X162729029Y-106790554D01*
X162723036Y-103953616D01*
X162722641Y-103766379D01*
X165237960Y-103766379D01*
X165237960Y-103953620D01*
X165274485Y-104137243D01*
X165274487Y-104137251D01*
X165346136Y-104310228D01*
X165346141Y-104310237D01*
X165450157Y-104465907D01*
X165450160Y-104465911D01*
X165582548Y-104598299D01*
X165582552Y-104598302D01*
X165738222Y-104702318D01*
X165738228Y-104702321D01*
X165738229Y-104702322D01*
X165911209Y-104773973D01*
X166094839Y-104810499D01*
X166094843Y-104810500D01*
X166094844Y-104810500D01*
X166282077Y-104810500D01*
X166282078Y-104810499D01*
X166465711Y-104773973D01*
X166638691Y-104702322D01*
X166794368Y-104598302D01*
X166926762Y-104465908D01*
X167030782Y-104310231D01*
X167102433Y-104137251D01*
X167138960Y-103953616D01*
X167138960Y-103766384D01*
X167138959Y-103766379D01*
X176417960Y-103766379D01*
X176417960Y-103953620D01*
X176454485Y-104137243D01*
X176454487Y-104137251D01*
X176526136Y-104310228D01*
X176526141Y-104310237D01*
X176630157Y-104465907D01*
X176630160Y-104465911D01*
X176762548Y-104598299D01*
X176762552Y-104598302D01*
X176918222Y-104702318D01*
X176918228Y-104702321D01*
X176918229Y-104702322D01*
X177091209Y-104773973D01*
X177274839Y-104810499D01*
X177274843Y-104810500D01*
X177274844Y-104810500D01*
X177462077Y-104810500D01*
X177462078Y-104810499D01*
X177645711Y-104773973D01*
X177818691Y-104702322D01*
X177974368Y-104598302D01*
X178106762Y-104465908D01*
X178210782Y-104310231D01*
X178282433Y-104137251D01*
X178318960Y-103953616D01*
X178318960Y-103766384D01*
X178318959Y-103766379D01*
X178957960Y-103766379D01*
X178957960Y-103953620D01*
X178994485Y-104137243D01*
X178994487Y-104137251D01*
X179066136Y-104310228D01*
X179066141Y-104310237D01*
X179170157Y-104465907D01*
X179170160Y-104465911D01*
X179302548Y-104598299D01*
X179302552Y-104598302D01*
X179458222Y-104702318D01*
X179458228Y-104702321D01*
X179458229Y-104702322D01*
X179631209Y-104773973D01*
X179814839Y-104810499D01*
X179814843Y-104810500D01*
X179814844Y-104810500D01*
X180002077Y-104810500D01*
X180002078Y-104810499D01*
X180185711Y-104773973D01*
X180358691Y-104702322D01*
X180514368Y-104598302D01*
X180646762Y-104465908D01*
X180750782Y-104310231D01*
X180822433Y-104137251D01*
X180858960Y-103953616D01*
X180858960Y-103766384D01*
X180822433Y-103582749D01*
X180750782Y-103409769D01*
X180750781Y-103409768D01*
X180750778Y-103409762D01*
X180646762Y-103254092D01*
X180646759Y-103254088D01*
X180514371Y-103121700D01*
X180514367Y-103121697D01*
X180358697Y-103017681D01*
X180358688Y-103017676D01*
X180185711Y-102946027D01*
X180185703Y-102946025D01*
X180002080Y-102909500D01*
X180002076Y-102909500D01*
X179814844Y-102909500D01*
X179814839Y-102909500D01*
X179631216Y-102946025D01*
X179631208Y-102946027D01*
X179458231Y-103017676D01*
X179458222Y-103017681D01*
X179302552Y-103121697D01*
X179302548Y-103121700D01*
X179170160Y-103254088D01*
X179170157Y-103254092D01*
X179066141Y-103409762D01*
X179066136Y-103409771D01*
X178994487Y-103582748D01*
X178994485Y-103582756D01*
X178957960Y-103766379D01*
X178318959Y-103766379D01*
X178282433Y-103582749D01*
X178210782Y-103409769D01*
X178210781Y-103409768D01*
X178210778Y-103409762D01*
X178106762Y-103254092D01*
X178106759Y-103254088D01*
X177974371Y-103121700D01*
X177974367Y-103121697D01*
X177818697Y-103017681D01*
X177818688Y-103017676D01*
X177645711Y-102946027D01*
X177645703Y-102946025D01*
X177462080Y-102909500D01*
X177462076Y-102909500D01*
X177274844Y-102909500D01*
X177274839Y-102909500D01*
X177091216Y-102946025D01*
X177091208Y-102946027D01*
X176918231Y-103017676D01*
X176918222Y-103017681D01*
X176762552Y-103121697D01*
X176762548Y-103121700D01*
X176630160Y-103254088D01*
X176630157Y-103254092D01*
X176526141Y-103409762D01*
X176526136Y-103409771D01*
X176454487Y-103582748D01*
X176454485Y-103582756D01*
X176417960Y-103766379D01*
X167138959Y-103766379D01*
X167102433Y-103582749D01*
X167030782Y-103409769D01*
X167030781Y-103409768D01*
X167030778Y-103409762D01*
X166926762Y-103254092D01*
X166926759Y-103254088D01*
X166794371Y-103121700D01*
X166794367Y-103121697D01*
X166638697Y-103017681D01*
X166638688Y-103017676D01*
X166465711Y-102946027D01*
X166465703Y-102946025D01*
X166282080Y-102909500D01*
X166282076Y-102909500D01*
X166094844Y-102909500D01*
X166094839Y-102909500D01*
X165911216Y-102946025D01*
X165911208Y-102946027D01*
X165738231Y-103017676D01*
X165738222Y-103017681D01*
X165582552Y-103121697D01*
X165582548Y-103121700D01*
X165450160Y-103254088D01*
X165450157Y-103254092D01*
X165346141Y-103409762D01*
X165346136Y-103409771D01*
X165274487Y-103582748D01*
X165274485Y-103582756D01*
X165237960Y-103766379D01*
X162722641Y-103766379D01*
X162717411Y-101290500D01*
X162715506Y-100388543D01*
X175767959Y-100388543D01*
X175806407Y-100581829D01*
X175806410Y-100581839D01*
X175881824Y-100763907D01*
X175881831Y-100763920D01*
X175991320Y-100927781D01*
X175991323Y-100927785D01*
X176130674Y-101067136D01*
X176130678Y-101067139D01*
X176294539Y-101176628D01*
X176294552Y-101176635D01*
X176476620Y-101252049D01*
X176476625Y-101252051D01*
X176476629Y-101252051D01*
X176476630Y-101252052D01*
X176669916Y-101290500D01*
X176669919Y-101290500D01*
X176867003Y-101290500D01*
X176997042Y-101264632D01*
X177060295Y-101252051D01*
X177242374Y-101176632D01*
X177406242Y-101067139D01*
X177545599Y-100927782D01*
X177655092Y-100763914D01*
X177730511Y-100581835D01*
X177751830Y-100474658D01*
X177768960Y-100388543D01*
X178307959Y-100388543D01*
X178346407Y-100581829D01*
X178346410Y-100581839D01*
X178421824Y-100763907D01*
X178421831Y-100763920D01*
X178531320Y-100927781D01*
X178531323Y-100927785D01*
X178670674Y-101067136D01*
X178670678Y-101067139D01*
X178834539Y-101176628D01*
X178834552Y-101176635D01*
X179016620Y-101252049D01*
X179016625Y-101252051D01*
X179016629Y-101252051D01*
X179016630Y-101252052D01*
X179209916Y-101290500D01*
X179209919Y-101290500D01*
X179407003Y-101290500D01*
X179537042Y-101264632D01*
X179600295Y-101252051D01*
X179782374Y-101176632D01*
X179946242Y-101067139D01*
X180085599Y-100927782D01*
X180195092Y-100763914D01*
X180270511Y-100581835D01*
X180291830Y-100474658D01*
X180308960Y-100388543D01*
X180308960Y-100191456D01*
X180270512Y-99998170D01*
X180270511Y-99998169D01*
X180270511Y-99998165D01*
X180270509Y-99998160D01*
X180195095Y-99816092D01*
X180195088Y-99816079D01*
X180085599Y-99652218D01*
X180085596Y-99652214D01*
X179946245Y-99512863D01*
X179946241Y-99512860D01*
X179854456Y-99451531D01*
X187239500Y-99451531D01*
X187239500Y-99908470D01*
X187279868Y-100111413D01*
X187279870Y-100111421D01*
X187359058Y-100302597D01*
X187474024Y-100474658D01*
X187620342Y-100620976D01*
X187620345Y-100620978D01*
X187792402Y-100735942D01*
X187983580Y-100815131D01*
X188186530Y-100855500D01*
X188186534Y-100855501D01*
X188186535Y-100855501D01*
X188393466Y-100855501D01*
X188393467Y-100855500D01*
X188596420Y-100815131D01*
X188787598Y-100735942D01*
X188959655Y-100620978D01*
X189105977Y-100474656D01*
X189220941Y-100302599D01*
X189300130Y-100111421D01*
X189340500Y-99908466D01*
X189340500Y-99451536D01*
X189340499Y-99451531D01*
X189739500Y-99451531D01*
X189739500Y-99908470D01*
X189779868Y-100111413D01*
X189779870Y-100111421D01*
X189859058Y-100302597D01*
X189974024Y-100474658D01*
X190120342Y-100620976D01*
X190120345Y-100620978D01*
X190292402Y-100735942D01*
X190483580Y-100815131D01*
X190686530Y-100855500D01*
X190686534Y-100855501D01*
X190686535Y-100855501D01*
X190893466Y-100855501D01*
X190893467Y-100855500D01*
X191096420Y-100815131D01*
X191287598Y-100735942D01*
X191459655Y-100620978D01*
X191605977Y-100474656D01*
X191720941Y-100302599D01*
X191800130Y-100111421D01*
X191840500Y-99908466D01*
X191840500Y-99451536D01*
X191840499Y-99451531D01*
X192239500Y-99451531D01*
X192239500Y-99908470D01*
X192279868Y-100111413D01*
X192279870Y-100111421D01*
X192359058Y-100302597D01*
X192474024Y-100474658D01*
X192620342Y-100620976D01*
X192620345Y-100620978D01*
X192792402Y-100735942D01*
X192983580Y-100815131D01*
X193186530Y-100855500D01*
X193186534Y-100855501D01*
X193186535Y-100855501D01*
X193393466Y-100855501D01*
X193393467Y-100855500D01*
X193596420Y-100815131D01*
X193787598Y-100735942D01*
X193959655Y-100620978D01*
X194105977Y-100474656D01*
X194220941Y-100302599D01*
X194300130Y-100111421D01*
X194340500Y-99908466D01*
X194340500Y-99451536D01*
X194300130Y-99248581D01*
X194220941Y-99057403D01*
X194105977Y-98885346D01*
X194105975Y-98885343D01*
X193959657Y-98739025D01*
X193873626Y-98681542D01*
X193787598Y-98624060D01*
X193596420Y-98544871D01*
X193596412Y-98544869D01*
X193393469Y-98504501D01*
X193393465Y-98504501D01*
X193186535Y-98504501D01*
X193186530Y-98504501D01*
X192983587Y-98544869D01*
X192983579Y-98544871D01*
X192792403Y-98624059D01*
X192620342Y-98739025D01*
X192474024Y-98885343D01*
X192359058Y-99057404D01*
X192279870Y-99248580D01*
X192279868Y-99248588D01*
X192239500Y-99451531D01*
X191840499Y-99451531D01*
X191800130Y-99248581D01*
X191720941Y-99057403D01*
X191605977Y-98885346D01*
X191605975Y-98885343D01*
X191459657Y-98739025D01*
X191373626Y-98681542D01*
X191287598Y-98624060D01*
X191096420Y-98544871D01*
X191096412Y-98544869D01*
X190893469Y-98504501D01*
X190893465Y-98504501D01*
X190686535Y-98504501D01*
X190686530Y-98504501D01*
X190483587Y-98544869D01*
X190483579Y-98544871D01*
X190292403Y-98624059D01*
X190120342Y-98739025D01*
X189974024Y-98885343D01*
X189859058Y-99057404D01*
X189779870Y-99248580D01*
X189779868Y-99248588D01*
X189739500Y-99451531D01*
X189340499Y-99451531D01*
X189300130Y-99248581D01*
X189220941Y-99057403D01*
X189105977Y-98885346D01*
X189105975Y-98885343D01*
X188959657Y-98739025D01*
X188873626Y-98681542D01*
X188787598Y-98624060D01*
X188596420Y-98544871D01*
X188596412Y-98544869D01*
X188393469Y-98504501D01*
X188393465Y-98504501D01*
X188186535Y-98504501D01*
X188186530Y-98504501D01*
X187983587Y-98544869D01*
X187983579Y-98544871D01*
X187792403Y-98624059D01*
X187620342Y-98739025D01*
X187474024Y-98885343D01*
X187359058Y-99057404D01*
X187279870Y-99248580D01*
X187279868Y-99248588D01*
X187239500Y-99451531D01*
X179854456Y-99451531D01*
X179782380Y-99403371D01*
X179782367Y-99403364D01*
X179600299Y-99327950D01*
X179600289Y-99327947D01*
X179407003Y-99289500D01*
X179407001Y-99289500D01*
X179209919Y-99289500D01*
X179209917Y-99289500D01*
X179016630Y-99327947D01*
X179016620Y-99327950D01*
X178834552Y-99403364D01*
X178834539Y-99403371D01*
X178670678Y-99512860D01*
X178670674Y-99512863D01*
X178531323Y-99652214D01*
X178531320Y-99652218D01*
X178421831Y-99816079D01*
X178421824Y-99816092D01*
X178346410Y-99998160D01*
X178346407Y-99998170D01*
X178307960Y-100191456D01*
X178307960Y-100191459D01*
X178307960Y-100388541D01*
X178307960Y-100388543D01*
X178307959Y-100388543D01*
X177768960Y-100388543D01*
X177768960Y-100191456D01*
X177730512Y-99998170D01*
X177730511Y-99998169D01*
X177730511Y-99998165D01*
X177730509Y-99998160D01*
X177655095Y-99816092D01*
X177655088Y-99816079D01*
X177545599Y-99652218D01*
X177545596Y-99652214D01*
X177406245Y-99512863D01*
X177406241Y-99512860D01*
X177242380Y-99403371D01*
X177242367Y-99403364D01*
X177060299Y-99327950D01*
X177060289Y-99327947D01*
X176867003Y-99289500D01*
X176867001Y-99289500D01*
X176669919Y-99289500D01*
X176669917Y-99289500D01*
X176476630Y-99327947D01*
X176476620Y-99327950D01*
X176294552Y-99403364D01*
X176294539Y-99403371D01*
X176130678Y-99512860D01*
X176130674Y-99512863D01*
X175991323Y-99652214D01*
X175991320Y-99652218D01*
X175881831Y-99816079D01*
X175881824Y-99816092D01*
X175806410Y-99998160D01*
X175806407Y-99998170D01*
X175767960Y-100191456D01*
X175767960Y-100191459D01*
X175767960Y-100388541D01*
X175767960Y-100388543D01*
X175767959Y-100388543D01*
X162715506Y-100388543D01*
X162715077Y-100185629D01*
X162701450Y-93734109D01*
X181929500Y-93734109D01*
X181929500Y-93865892D01*
X181963608Y-93993188D01*
X181996554Y-94050251D01*
X182029500Y-94107315D01*
X182029502Y-94107317D01*
X182043181Y-94120996D01*
X182076666Y-94182319D01*
X182079500Y-94208677D01*
X182079500Y-96242140D01*
X182062887Y-96304140D01*
X182003609Y-96406811D01*
X182003609Y-96406812D01*
X181969500Y-96534109D01*
X181969500Y-96665892D01*
X182003608Y-96793188D01*
X182036554Y-96850251D01*
X182069500Y-96907315D01*
X182162686Y-97000501D01*
X182276814Y-97066393D01*
X182404108Y-97100501D01*
X182404110Y-97100501D01*
X182535890Y-97100501D01*
X182535892Y-97100501D01*
X182663186Y-97066393D01*
X182777314Y-97000501D01*
X182870500Y-96907315D01*
X182936392Y-96793187D01*
X182970500Y-96665893D01*
X182970500Y-96534109D01*
X182936392Y-96406815D01*
X182870500Y-96292687D01*
X182816819Y-96239006D01*
X182783334Y-96177683D01*
X182780500Y-96151325D01*
X182780500Y-94208677D01*
X182800185Y-94141638D01*
X182816819Y-94120996D01*
X182830500Y-94107315D01*
X182896392Y-93993187D01*
X182930500Y-93865893D01*
X182930500Y-93734109D01*
X182896392Y-93606815D01*
X182830500Y-93492687D01*
X182737314Y-93399501D01*
X182680250Y-93366555D01*
X182623187Y-93333609D01*
X182559539Y-93316555D01*
X182495892Y-93299501D01*
X182364108Y-93299501D01*
X182236812Y-93333609D01*
X182122686Y-93399501D01*
X182122683Y-93399503D01*
X182029502Y-93492684D01*
X182029500Y-93492687D01*
X181963608Y-93606813D01*
X181929500Y-93734109D01*
X162701450Y-93734109D01*
X162699410Y-92768543D01*
X175767959Y-92768543D01*
X175806407Y-92961829D01*
X175806410Y-92961839D01*
X175881824Y-93143907D01*
X175881831Y-93143920D01*
X175991320Y-93307781D01*
X175991323Y-93307785D01*
X176130674Y-93447136D01*
X176130678Y-93447139D01*
X176294539Y-93556628D01*
X176294552Y-93556635D01*
X176415699Y-93606815D01*
X176476625Y-93632051D01*
X176476629Y-93632051D01*
X176476630Y-93632052D01*
X176669916Y-93670500D01*
X176669919Y-93670500D01*
X176867003Y-93670500D01*
X176997042Y-93644632D01*
X177060295Y-93632051D01*
X177242374Y-93556632D01*
X177406242Y-93447139D01*
X177545599Y-93307782D01*
X177655092Y-93143914D01*
X177730511Y-92961835D01*
X177768960Y-92768541D01*
X177768960Y-92571459D01*
X177768960Y-92571456D01*
X177730512Y-92378170D01*
X177730511Y-92378169D01*
X177730511Y-92378165D01*
X177730509Y-92378160D01*
X177655095Y-92196092D01*
X177655088Y-92196079D01*
X177545599Y-92032218D01*
X177545596Y-92032214D01*
X177406245Y-91892863D01*
X177406241Y-91892860D01*
X177342466Y-91850247D01*
X178307960Y-91850247D01*
X178307960Y-93489752D01*
X178319591Y-93548229D01*
X178319592Y-93548230D01*
X178363907Y-93614552D01*
X178430229Y-93658867D01*
X178430230Y-93658868D01*
X178488707Y-93670499D01*
X178488710Y-93670500D01*
X178488712Y-93670500D01*
X180128210Y-93670500D01*
X180128211Y-93670499D01*
X180143028Y-93667552D01*
X180186689Y-93658868D01*
X180186689Y-93658867D01*
X180186691Y-93658867D01*
X180226826Y-93632049D01*
X180240549Y-93622880D01*
X180253012Y-93614552D01*
X180258183Y-93606813D01*
X180297327Y-93548231D01*
X180297327Y-93548229D01*
X180297328Y-93548229D01*
X180308959Y-93489752D01*
X180308960Y-93489750D01*
X180308960Y-91850249D01*
X180308959Y-91850247D01*
X180297328Y-91791770D01*
X180297327Y-91791769D01*
X180253012Y-91725447D01*
X180186690Y-91681132D01*
X180186689Y-91681131D01*
X180128212Y-91669500D01*
X180128208Y-91669500D01*
X178488712Y-91669500D01*
X178488707Y-91669500D01*
X178430230Y-91681131D01*
X178430229Y-91681132D01*
X178363907Y-91725447D01*
X178319592Y-91791769D01*
X178319591Y-91791770D01*
X178307960Y-91850247D01*
X177342466Y-91850247D01*
X177242380Y-91783371D01*
X177242367Y-91783364D01*
X177060299Y-91707950D01*
X177060289Y-91707947D01*
X176867003Y-91669500D01*
X176867001Y-91669500D01*
X176669919Y-91669500D01*
X176669917Y-91669500D01*
X176476630Y-91707947D01*
X176476620Y-91707950D01*
X176294552Y-91783364D01*
X176294539Y-91783371D01*
X176130678Y-91892860D01*
X176130674Y-91892863D01*
X175991323Y-92032214D01*
X175991320Y-92032218D01*
X175881831Y-92196079D01*
X175881824Y-92196092D01*
X175806410Y-92378160D01*
X175806407Y-92378170D01*
X175767960Y-92571456D01*
X175767960Y-92571459D01*
X175767960Y-92768541D01*
X175767960Y-92768543D01*
X175767959Y-92768543D01*
X162699410Y-92768543D01*
X162698981Y-92565629D01*
X162697088Y-91669500D01*
X162691118Y-88843305D01*
X162686375Y-88799842D01*
X162675169Y-88748593D01*
X162672728Y-88738628D01*
X162629718Y-88657916D01*
X162583963Y-88605112D01*
X162583957Y-88605105D01*
X162566375Y-88587161D01*
X162566374Y-88587160D01*
X162566372Y-88587158D01*
X162566370Y-88587157D01*
X162566368Y-88587155D01*
X162486558Y-88542512D01*
X162486553Y-88542510D01*
X162419521Y-88522827D01*
X162419517Y-88522826D01*
X162419516Y-88522826D01*
X162361618Y-88514501D01*
X162361614Y-88514501D01*
X159407134Y-88514501D01*
X159340095Y-88494816D01*
X159294340Y-88442012D01*
X159284396Y-88372854D01*
X159292573Y-88343048D01*
X159316854Y-88284428D01*
X159316858Y-88284419D01*
X159384730Y-88031116D01*
X159418960Y-87771120D01*
X159418960Y-87508880D01*
X159418098Y-87502332D01*
X163317960Y-87502332D01*
X163317960Y-87777667D01*
X163317961Y-87777684D01*
X163353898Y-88050655D01*
X163353899Y-88050660D01*
X163353900Y-88050666D01*
X163353901Y-88050668D01*
X163425164Y-88316630D01*
X163530535Y-88571017D01*
X163530540Y-88571028D01*
X163610269Y-88709121D01*
X163668211Y-88809479D01*
X163668213Y-88809482D01*
X163668214Y-88809483D01*
X163835830Y-89027926D01*
X163835836Y-89027933D01*
X164030526Y-89222623D01*
X164030532Y-89222628D01*
X164248981Y-89390249D01*
X164402238Y-89478732D01*
X164487431Y-89527919D01*
X164487436Y-89527921D01*
X164487439Y-89527923D01*
X164741828Y-89633295D01*
X165007794Y-89704560D01*
X165280786Y-89740500D01*
X165280793Y-89740500D01*
X165556127Y-89740500D01*
X165556134Y-89740500D01*
X165829126Y-89704560D01*
X166095092Y-89633295D01*
X166349481Y-89527923D01*
X166587939Y-89390249D01*
X166806388Y-89222628D01*
X167001088Y-89027928D01*
X167168709Y-88809479D01*
X167306383Y-88571021D01*
X167411755Y-88316632D01*
X167483020Y-88050666D01*
X167518960Y-87777674D01*
X167518960Y-87502332D01*
X171317960Y-87502332D01*
X171317960Y-87777667D01*
X171317961Y-87777684D01*
X171353898Y-88050655D01*
X171353899Y-88050660D01*
X171353900Y-88050666D01*
X171353901Y-88050668D01*
X171425164Y-88316630D01*
X171530535Y-88571017D01*
X171530540Y-88571028D01*
X171610269Y-88709121D01*
X171668211Y-88809479D01*
X171668213Y-88809482D01*
X171668214Y-88809483D01*
X171835830Y-89027926D01*
X171835836Y-89027933D01*
X172030526Y-89222623D01*
X172030532Y-89222628D01*
X172248981Y-89390249D01*
X172402238Y-89478732D01*
X172487431Y-89527919D01*
X172487436Y-89527921D01*
X172487439Y-89527923D01*
X172741828Y-89633295D01*
X173007794Y-89704560D01*
X173280786Y-89740500D01*
X173280793Y-89740500D01*
X173556127Y-89740500D01*
X173556134Y-89740500D01*
X173829126Y-89704560D01*
X174095092Y-89633295D01*
X174349481Y-89527923D01*
X174587939Y-89390249D01*
X174806388Y-89222628D01*
X175001088Y-89027928D01*
X175168709Y-88809479D01*
X175306383Y-88571021D01*
X175411755Y-88316632D01*
X175483020Y-88050666D01*
X175518960Y-87777674D01*
X175518960Y-87502332D01*
X179317960Y-87502332D01*
X179317960Y-87777667D01*
X179317961Y-87777684D01*
X179353898Y-88050655D01*
X179353899Y-88050660D01*
X179353900Y-88050666D01*
X179353901Y-88050668D01*
X179425164Y-88316630D01*
X179530535Y-88571017D01*
X179530540Y-88571028D01*
X179610269Y-88709121D01*
X179668211Y-88809479D01*
X179668213Y-88809482D01*
X179668214Y-88809483D01*
X179835830Y-89027926D01*
X179835836Y-89027933D01*
X180030526Y-89222623D01*
X180030532Y-89222628D01*
X180248981Y-89390249D01*
X180402238Y-89478732D01*
X180487431Y-89527919D01*
X180487436Y-89527921D01*
X180487439Y-89527923D01*
X180741828Y-89633295D01*
X181007794Y-89704560D01*
X181280786Y-89740500D01*
X181280793Y-89740500D01*
X181556127Y-89740500D01*
X181556134Y-89740500D01*
X181829126Y-89704560D01*
X182095092Y-89633295D01*
X182349481Y-89527923D01*
X182587939Y-89390249D01*
X182806388Y-89222628D01*
X183001088Y-89027928D01*
X183168709Y-88809479D01*
X183306383Y-88571021D01*
X183411755Y-88316632D01*
X183483020Y-88050666D01*
X183518960Y-87777674D01*
X183518960Y-87502332D01*
X187317960Y-87502332D01*
X187317960Y-87777667D01*
X187317961Y-87777684D01*
X187353898Y-88050655D01*
X187353899Y-88050660D01*
X187353900Y-88050666D01*
X187353901Y-88050668D01*
X187425164Y-88316630D01*
X187530535Y-88571017D01*
X187530540Y-88571028D01*
X187610269Y-88709121D01*
X187668211Y-88809479D01*
X187668213Y-88809482D01*
X187668214Y-88809483D01*
X187835830Y-89027926D01*
X187835836Y-89027933D01*
X188030526Y-89222623D01*
X188030532Y-89222628D01*
X188248981Y-89390249D01*
X188402238Y-89478732D01*
X188487431Y-89527919D01*
X188487436Y-89527921D01*
X188487439Y-89527923D01*
X188741828Y-89633295D01*
X189007794Y-89704560D01*
X189280786Y-89740500D01*
X189280793Y-89740500D01*
X189556127Y-89740500D01*
X189556134Y-89740500D01*
X189829126Y-89704560D01*
X190095092Y-89633295D01*
X190349481Y-89527923D01*
X190587939Y-89390249D01*
X190806388Y-89222628D01*
X191001088Y-89027928D01*
X191168709Y-88809479D01*
X191306383Y-88571021D01*
X191411755Y-88316632D01*
X191483020Y-88050666D01*
X191518960Y-87777674D01*
X191518960Y-87502326D01*
X191483020Y-87229334D01*
X191411755Y-86963368D01*
X191306383Y-86708979D01*
X191306381Y-86708976D01*
X191306379Y-86708971D01*
X191257192Y-86623778D01*
X191168709Y-86470521D01*
X191099559Y-86380403D01*
X191001089Y-86252073D01*
X191001083Y-86252066D01*
X190806393Y-86057376D01*
X190806386Y-86057370D01*
X190587943Y-85889754D01*
X190587942Y-85889753D01*
X190587939Y-85889751D01*
X190492867Y-85834861D01*
X190349488Y-85752080D01*
X190349477Y-85752075D01*
X190095090Y-85646704D01*
X189962109Y-85611072D01*
X189829126Y-85575440D01*
X189829120Y-85575439D01*
X189829115Y-85575438D01*
X189556144Y-85539501D01*
X189556139Y-85539500D01*
X189556134Y-85539500D01*
X189280786Y-85539500D01*
X189280780Y-85539500D01*
X189280775Y-85539501D01*
X189007804Y-85575438D01*
X189007797Y-85575439D01*
X189007794Y-85575440D01*
X188951585Y-85590500D01*
X188741829Y-85646704D01*
X188487442Y-85752075D01*
X188487431Y-85752080D01*
X188248976Y-85889754D01*
X188030533Y-86057370D01*
X188030526Y-86057376D01*
X187835836Y-86252066D01*
X187835830Y-86252073D01*
X187668214Y-86470516D01*
X187530540Y-86708971D01*
X187530535Y-86708982D01*
X187425164Y-86963369D01*
X187353901Y-87229331D01*
X187353898Y-87229344D01*
X187317961Y-87502315D01*
X187317960Y-87502332D01*
X183518960Y-87502332D01*
X183518960Y-87502326D01*
X183483020Y-87229334D01*
X183411755Y-86963368D01*
X183306383Y-86708979D01*
X183306381Y-86708976D01*
X183306379Y-86708971D01*
X183257192Y-86623778D01*
X183168709Y-86470521D01*
X183099559Y-86380403D01*
X183001089Y-86252073D01*
X183001083Y-86252066D01*
X182806393Y-86057376D01*
X182806386Y-86057370D01*
X182587943Y-85889754D01*
X182587942Y-85889753D01*
X182587939Y-85889751D01*
X182492867Y-85834861D01*
X182349488Y-85752080D01*
X182349477Y-85752075D01*
X182095090Y-85646704D01*
X181962109Y-85611072D01*
X181829126Y-85575440D01*
X181829120Y-85575439D01*
X181829115Y-85575438D01*
X181556144Y-85539501D01*
X181556139Y-85539500D01*
X181556134Y-85539500D01*
X181280786Y-85539500D01*
X181280780Y-85539500D01*
X181280775Y-85539501D01*
X181007804Y-85575438D01*
X181007797Y-85575439D01*
X181007794Y-85575440D01*
X180951585Y-85590500D01*
X180741829Y-85646704D01*
X180487442Y-85752075D01*
X180487431Y-85752080D01*
X180248976Y-85889754D01*
X180030533Y-86057370D01*
X180030526Y-86057376D01*
X179835836Y-86252066D01*
X179835830Y-86252073D01*
X179668214Y-86470516D01*
X179530540Y-86708971D01*
X179530535Y-86708982D01*
X179425164Y-86963369D01*
X179353901Y-87229331D01*
X179353898Y-87229344D01*
X179317961Y-87502315D01*
X179317960Y-87502332D01*
X175518960Y-87502332D01*
X175518960Y-87502326D01*
X175483020Y-87229334D01*
X175411755Y-86963368D01*
X175306383Y-86708979D01*
X175306381Y-86708976D01*
X175306379Y-86708971D01*
X175257192Y-86623778D01*
X175168709Y-86470521D01*
X175099559Y-86380403D01*
X175001089Y-86252073D01*
X175001083Y-86252066D01*
X174806393Y-86057376D01*
X174806386Y-86057370D01*
X174587943Y-85889754D01*
X174587942Y-85889753D01*
X174587939Y-85889751D01*
X174492867Y-85834861D01*
X174349488Y-85752080D01*
X174349477Y-85752075D01*
X174095090Y-85646704D01*
X173962109Y-85611072D01*
X173829126Y-85575440D01*
X173829120Y-85575439D01*
X173829115Y-85575438D01*
X173556144Y-85539501D01*
X173556139Y-85539500D01*
X173556134Y-85539500D01*
X173280786Y-85539500D01*
X173280780Y-85539500D01*
X173280775Y-85539501D01*
X173007804Y-85575438D01*
X173007797Y-85575439D01*
X173007794Y-85575440D01*
X172951585Y-85590500D01*
X172741829Y-85646704D01*
X172487442Y-85752075D01*
X172487431Y-85752080D01*
X172248976Y-85889754D01*
X172030533Y-86057370D01*
X172030526Y-86057376D01*
X171835836Y-86252066D01*
X171835830Y-86252073D01*
X171668214Y-86470516D01*
X171530540Y-86708971D01*
X171530535Y-86708982D01*
X171425164Y-86963369D01*
X171353901Y-87229331D01*
X171353898Y-87229344D01*
X171317961Y-87502315D01*
X171317960Y-87502332D01*
X167518960Y-87502332D01*
X167518960Y-87502326D01*
X167483020Y-87229334D01*
X167411755Y-86963368D01*
X167306383Y-86708979D01*
X167306381Y-86708976D01*
X167306379Y-86708971D01*
X167257192Y-86623778D01*
X167168709Y-86470521D01*
X167099559Y-86380403D01*
X167001089Y-86252073D01*
X167001083Y-86252066D01*
X166806393Y-86057376D01*
X166806386Y-86057370D01*
X166587943Y-85889754D01*
X166587942Y-85889753D01*
X166587939Y-85889751D01*
X166492867Y-85834861D01*
X166349488Y-85752080D01*
X166349477Y-85752075D01*
X166095090Y-85646704D01*
X165962109Y-85611072D01*
X165829126Y-85575440D01*
X165829120Y-85575439D01*
X165829115Y-85575438D01*
X165556144Y-85539501D01*
X165556139Y-85539500D01*
X165556134Y-85539500D01*
X165280786Y-85539500D01*
X165280780Y-85539500D01*
X165280775Y-85539501D01*
X165007804Y-85575438D01*
X165007797Y-85575439D01*
X165007794Y-85575440D01*
X164951585Y-85590500D01*
X164741829Y-85646704D01*
X164487442Y-85752075D01*
X164487431Y-85752080D01*
X164248976Y-85889754D01*
X164030533Y-86057370D01*
X164030526Y-86057376D01*
X163835836Y-86252066D01*
X163835830Y-86252073D01*
X163668214Y-86470516D01*
X163530540Y-86708971D01*
X163530535Y-86708982D01*
X163425164Y-86963369D01*
X163353901Y-87229331D01*
X163353898Y-87229344D01*
X163317961Y-87502315D01*
X163317960Y-87502332D01*
X159418098Y-87502332D01*
X159384730Y-87248884D01*
X159316858Y-86995581D01*
X159316854Y-86995571D01*
X159216506Y-86753309D01*
X159216501Y-86753299D01*
X159085384Y-86526196D01*
X158925741Y-86318148D01*
X158925734Y-86318140D01*
X158740320Y-86132726D01*
X158740311Y-86132718D01*
X158532263Y-85973075D01*
X158305160Y-85841958D01*
X158305150Y-85841953D01*
X158062888Y-85741605D01*
X158062881Y-85741603D01*
X158062879Y-85741602D01*
X157809576Y-85673730D01*
X157751799Y-85666123D01*
X157549587Y-85639500D01*
X157549580Y-85639500D01*
X157287340Y-85639500D01*
X157287332Y-85639500D01*
X157056232Y-85669926D01*
X157027344Y-85673730D01*
X156774041Y-85741602D01*
X156774031Y-85741605D01*
X156531769Y-85841953D01*
X156531759Y-85841958D01*
X156304656Y-85973075D01*
X156096608Y-86132718D01*
X155911178Y-86318148D01*
X155751535Y-86526196D01*
X155620418Y-86753299D01*
X155620413Y-86753309D01*
X155520065Y-86995571D01*
X155520062Y-86995581D01*
X155457429Y-87229334D01*
X155452190Y-87248885D01*
X155417960Y-87508872D01*
X155417960Y-87771127D01*
X155438896Y-87930140D01*
X155452190Y-88031116D01*
X155473638Y-88111161D01*
X155520062Y-88284418D01*
X155520065Y-88284428D01*
X155544347Y-88343048D01*
X155551816Y-88412517D01*
X155520541Y-88474996D01*
X155460453Y-88510649D01*
X155429786Y-88514501D01*
X151392960Y-88514501D01*
X151325921Y-88494816D01*
X151280166Y-88442012D01*
X151268960Y-88390501D01*
X151268960Y-85164500D01*
X151288645Y-85097461D01*
X151341449Y-85051706D01*
X151392960Y-85040500D01*
X195593960Y-85040500D01*
X195660999Y-85060185D01*
G37*
%TD.AperFunction*%
%TD*%
%TA.AperFunction,Conductor*%
%TO.N,VCC*%
G36*
X155731488Y-88739686D02*
G01*
X155762824Y-88768514D01*
X155911178Y-88961851D01*
X155911186Y-88961860D01*
X156096600Y-89147274D01*
X156096608Y-89147281D01*
X156304656Y-89306924D01*
X156531759Y-89438041D01*
X156531769Y-89438046D01*
X156774031Y-89538394D01*
X156774041Y-89538398D01*
X157027344Y-89606270D01*
X157287340Y-89640500D01*
X157287347Y-89640500D01*
X157549573Y-89640500D01*
X157549580Y-89640500D01*
X157809576Y-89606270D01*
X158062879Y-89538398D01*
X158305157Y-89438043D01*
X158532263Y-89306924D01*
X158740311Y-89147282D01*
X158740315Y-89147277D01*
X158740320Y-89147274D01*
X158925734Y-88961860D01*
X158925737Y-88961855D01*
X158925742Y-88961851D01*
X159055698Y-88792490D01*
X159074096Y-88768514D01*
X159130524Y-88727312D01*
X159172471Y-88720001D01*
X162361618Y-88720001D01*
X162428657Y-88739686D01*
X162474412Y-88792490D01*
X162485618Y-88843739D01*
X162537143Y-113236154D01*
X162517600Y-113303235D01*
X162464893Y-113349101D01*
X162412722Y-113360415D01*
X151392539Y-113322967D01*
X151325566Y-113303055D01*
X151279991Y-113250096D01*
X151268960Y-113198968D01*
X151268960Y-88844001D01*
X151288645Y-88776962D01*
X151341449Y-88731207D01*
X151392960Y-88720001D01*
X155664449Y-88720001D01*
X155731488Y-88739686D01*
G37*
%TD.AperFunction*%
%TD*%
M02*
