%TF.GenerationSoftware,KiCad,Pcbnew,9.0.4-9.0.4-0~ubuntu24.04.1*%
%TF.CreationDate,2025-09-29T23:59:47+02:00*%
%TF.ProjectId,ModuCard-vesc-to-mms-converter,4d6f6475-4361-4726-942d-766573632d74,rev?*%
%TF.SameCoordinates,Original*%
%TF.FileFunction,Copper,L1,Top*%
%TF.FilePolarity,Positive*%
%FSLAX46Y46*%
G04 Gerber Fmt 4.6, Leading zero omitted, Abs format (unit mm)*
G04 Created by KiCad (PCBNEW 9.0.4-9.0.4-0~ubuntu24.04.1) date 2025-09-29 23:59:47*
%MOMM*%
%LPD*%
G01*
G04 APERTURE LIST*
G04 Aperture macros list*
%AMRoundRect*
0 Rectangle with rounded corners*
0 $1 Rounding radius*
0 $2 $3 $4 $5 $6 $7 $8 $9 X,Y pos of 4 corners*
0 Add a 4 corners polygon primitive as box body*
4,1,4,$2,$3,$4,$5,$6,$7,$8,$9,$2,$3,0*
0 Add four circle primitives for the rounded corners*
1,1,$1+$1,$2,$3*
1,1,$1+$1,$4,$5*
1,1,$1+$1,$6,$7*
1,1,$1+$1,$8,$9*
0 Add four rect primitives between the rounded corners*
20,1,$1+$1,$2,$3,$4,$5,0*
20,1,$1+$1,$4,$5,$6,$7,0*
20,1,$1+$1,$6,$7,$8,$9,0*
20,1,$1+$1,$8,$9,$2,$3,0*%
G04 Aperture macros list end*
%TA.AperFunction,ComponentPad*%
%ADD10C,3.200000*%
%TD*%
%TA.AperFunction,ComponentPad*%
%ADD11C,2.400000*%
%TD*%
%TA.AperFunction,ComponentPad*%
%ADD12C,1.500000*%
%TD*%
%TA.AperFunction,ComponentPad*%
%ADD13C,1.700000*%
%TD*%
%TA.AperFunction,ComponentPad*%
%ADD14RoundRect,0.250000X-0.600000X-0.725000X0.600000X-0.725000X0.600000X0.725000X-0.600000X0.725000X0*%
%TD*%
%TA.AperFunction,ComponentPad*%
%ADD15O,1.700000X1.950000*%
%TD*%
%TA.AperFunction,ComponentPad*%
%ADD16RoundRect,0.250000X0.600000X0.725000X-0.600000X0.725000X-0.600000X-0.725000X0.600000X-0.725000X0*%
%TD*%
%TA.AperFunction,ComponentPad*%
%ADD17RoundRect,0.505697X-1.179959X4.794303X-1.179959X-4.794303X1.179959X-4.794303X1.179959X4.794303X0*%
%TD*%
%TA.AperFunction,ComponentPad*%
%ADD18C,7.000000*%
%TD*%
%TA.AperFunction,ComponentPad*%
%ADD19RoundRect,0.495000X-1.155000X4.255000X-1.155000X-4.255000X1.155000X-4.255000X1.155000X4.255000X0*%
%TD*%
%TA.AperFunction,ComponentPad*%
%ADD20O,1.600000X1.600000*%
%TD*%
%TA.AperFunction,ComponentPad*%
%ADD21R,1.600000X1.600000*%
%TD*%
%TA.AperFunction,SMDPad,CuDef*%
%ADD22RoundRect,0.140000X0.170000X-0.140000X0.170000X0.140000X-0.170000X0.140000X-0.170000X-0.140000X0*%
%TD*%
%TA.AperFunction,SMDPad,CuDef*%
%ADD23RoundRect,0.140000X0.140000X0.170000X-0.140000X0.170000X-0.140000X-0.170000X0.140000X-0.170000X0*%
%TD*%
%TA.AperFunction,SMDPad,CuDef*%
%ADD24RoundRect,0.140000X-0.140000X-0.170000X0.140000X-0.170000X0.140000X0.170000X-0.140000X0.170000X0*%
%TD*%
%TA.AperFunction,SMDPad,CuDef*%
%ADD25RoundRect,0.135000X-0.135000X-0.185000X0.135000X-0.185000X0.135000X0.185000X-0.135000X0.185000X0*%
%TD*%
%TA.AperFunction,SMDPad,CuDef*%
%ADD26RoundRect,0.100000X0.100000X-0.712500X0.100000X0.712500X-0.100000X0.712500X-0.100000X-0.712500X0*%
%TD*%
%TA.AperFunction,SMDPad,CuDef*%
%ADD27R,1.400000X1.200000*%
%TD*%
%TA.AperFunction,SMDPad,CuDef*%
%ADD28RoundRect,0.135000X0.135000X0.185000X-0.135000X0.185000X-0.135000X-0.185000X0.135000X-0.185000X0*%
%TD*%
%TA.AperFunction,ComponentPad*%
%ADD29C,0.900000*%
%TD*%
%TA.AperFunction,ComponentPad*%
%ADD30C,8.000000*%
%TD*%
%TA.AperFunction,SMDPad,CuDef*%
%ADD31RoundRect,0.225000X-0.225000X-0.250000X0.225000X-0.250000X0.225000X0.250000X-0.225000X0.250000X0*%
%TD*%
%TA.AperFunction,ViaPad*%
%ADD32C,0.600000*%
%TD*%
%TA.AperFunction,Conductor*%
%ADD33C,0.508000*%
%TD*%
%TA.AperFunction,Conductor*%
%ADD34C,0.200000*%
%TD*%
%TA.AperFunction,Conductor*%
%ADD35C,0.300000*%
%TD*%
%TA.AperFunction,Conductor*%
%ADD36C,0.240000*%
%TD*%
%TA.AperFunction,Conductor*%
%ADD37C,0.254000*%
%TD*%
%TA.AperFunction,Conductor*%
%ADD38C,1.000000*%
%TD*%
G04 APERTURE END LIST*
D10*
%TO.P,U2,*%
%TO.N,*%
X97880000Y-133280000D03*
D11*
%TO.P,U2,30,30*%
%TO.N,GND*%
X106320000Y-137990000D03*
%TO.P,U2,29,29*%
X89440000Y-137990000D03*
%TO.P,U2,28,28*%
X105640000Y-123640000D03*
%TO.P,U2,27,27*%
X90120000Y-123640000D03*
%TO.P,U2,26,26*%
X106320000Y-119320000D03*
%TO.P,U2,25,25*%
X89440000Y-119310000D03*
D12*
%TO.P,U2,24,+*%
%TO.N,Net-(R20-Pad1)*%
X91020000Y-114770000D03*
%TO.P,U2,23,-*%
%TO.N,GND*%
X93560000Y-114770000D03*
%TO.P,U2,22,+*%
%TO.N,Net-(R19-Pad1)*%
X102200000Y-114770000D03*
%TO.P,U2,21,-*%
%TO.N,GND*%
X104740000Y-114770000D03*
D13*
%TO.P,U2,20,+*%
%TO.N,Net-(R16-Pad1)*%
X91020000Y-135820000D03*
%TO.P,U2,19,-*%
%TO.N,GND*%
X93560000Y-135820000D03*
%TO.P,U2,17,-*%
X104740000Y-135820000D03*
%TO.P,U2,18,+*%
%TO.N,Net-(R15-Pad1)*%
X102200000Y-135820000D03*
D12*
%TO.P,U2,16,16*%
%TO.N,USB_DOWNSTREAM_D+*%
X102330000Y-124390000D03*
%TO.P,U2,15,15*%
%TO.N,USB_DOWNSTREAM_D-*%
X101050000Y-126930000D03*
%TO.P,U2,14,14*%
%TO.N,+12V*%
X99780000Y-124390000D03*
%TO.P,U2,13,13*%
%TO.N,/CAN/CAN2+*%
X98510000Y-126930000D03*
%TO.P,U2,12,12*%
%TO.N,/CAN/CAN2-*%
X97250000Y-124390000D03*
%TO.P,U2,11,11*%
%TO.N,GND*%
X95980000Y-126930000D03*
%TO.P,U2,10,10*%
%TO.N,/CAN/CAN1+*%
X94710000Y-124390000D03*
%TO.P,U2,9,9*%
%TO.N,/CAN/CAN1-*%
X93430000Y-126930000D03*
%TO.P,U2,8,8*%
%TO.N,USB_UPSTREAM_D+*%
X102330000Y-117800000D03*
%TO.P,U2,7,7*%
%TO.N,USB_UPSTREAM_D-*%
X101050000Y-120340000D03*
%TO.P,U2,6,6*%
%TO.N,+12V*%
X99780000Y-117800000D03*
%TO.P,U2,5,5*%
%TO.N,/CAN/CAN2+*%
X98510000Y-120340000D03*
%TO.P,U2,4,4*%
%TO.N,/CAN/CAN2-*%
X97250000Y-117800000D03*
%TO.P,U2,3,3*%
%TO.N,GND*%
X95980000Y-120340000D03*
%TO.P,U2,2,2*%
%TO.N,/CAN/CAN1+*%
X94710000Y-117800000D03*
%TO.P,U2,1,1*%
%TO.N,/CAN/CAN1-*%
X93430000Y-120340000D03*
%TD*%
D14*
%TO.P,J1,1,Pin_1*%
%TO.N,GND*%
X110650000Y-116375000D03*
D15*
%TO.P,J1,2,Pin_2*%
%TO.N,/USB/USB_VESC_D+*%
X113150000Y-116375000D03*
%TO.P,J1,3,Pin_3*%
%TO.N,/USB/USB_VESC_D-*%
X115650000Y-116375000D03*
%TO.P,J1,4,Pin_4*%
%TO.N,+5V*%
X118150000Y-116375000D03*
%TD*%
%TO.P,J3,4,Pin_4*%
%TO.N,+5V*%
X110600000Y-110600000D03*
%TO.P,J3,3,Pin_3*%
%TO.N,/CAN/CAN+*%
X113100000Y-110600000D03*
%TO.P,J3,2,Pin_2*%
%TO.N,/CAN/CAN-*%
X115600000Y-110600000D03*
D16*
%TO.P,J3,1,Pin_1*%
%TO.N,GND*%
X118100000Y-110600000D03*
%TD*%
D17*
%TO.P,J5,2,Pin_2*%
%TO.N,GND*%
X130314344Y-130500000D03*
D18*
%TO.P,J5,1,Pin_1*%
%TO.N,VCC*%
X124900000Y-119800000D03*
D19*
X130350000Y-119750000D03*
%TD*%
D20*
%TO.P,SW1,4*%
%TO.N,/CAN/CAN2-*%
X104140000Y-111200000D03*
%TO.P,SW1,3*%
%TO.N,/CAN/CAN1-*%
X101600000Y-111200000D03*
%TO.P,SW1,2*%
%TO.N,Net-(R2-Pad2)*%
X101600000Y-103580000D03*
D21*
%TO.P,SW1,1*%
%TO.N,Net-(R7-Pad2)*%
X104140000Y-103580000D03*
%TD*%
D22*
%TO.P,R2,2*%
%TO.N,Net-(R2-Pad2)*%
X107900000Y-102900000D03*
%TO.P,R2,1*%
%TO.N,/CAN/CAN1+*%
X107900000Y-103900000D03*
%TD*%
%TO.P,R7,1*%
%TO.N,/CAN/CAN2+*%
X107000000Y-103900000D03*
%TO.P,R7,2*%
%TO.N,Net-(R7-Pad2)*%
X107000000Y-102900000D03*
%TD*%
D23*
%TO.P,R6,1*%
%TO.N,/CAN/CAN-*%
X113300000Y-105500000D03*
%TO.P,R6,2*%
%TO.N,/CAN/CAN2-*%
X112300000Y-105500000D03*
%TD*%
%TO.P,R5,1*%
%TO.N,/CAN/CAN+*%
X113300000Y-106300000D03*
%TO.P,R5,2*%
%TO.N,/CAN/CAN2+*%
X112300000Y-106300000D03*
%TD*%
D24*
%TO.P,R4,1*%
%TO.N,/CAN/CAN1-*%
X112300000Y-102700000D03*
%TO.P,R4,2*%
%TO.N,/CAN/CAN-*%
X113300000Y-102700000D03*
%TD*%
%TO.P,R1,1*%
%TO.N,/CAN/CAN1+*%
X112300000Y-103500000D03*
%TO.P,R1,2*%
%TO.N,/CAN/CAN+*%
X113300000Y-103500000D03*
%TD*%
D25*
%TO.P,R9,2*%
%TO.N,Net-(U1-DM2)*%
X112310000Y-134432500D03*
%TO.P,R9,1*%
%TO.N,USB_DOWNSTREAM_D-*%
X111290000Y-134432500D03*
%TD*%
D24*
%TO.P,C7,2*%
%TO.N,Net-(U1-VDD33)*%
X109789999Y-129122500D03*
%TO.P,C7,1*%
%TO.N,GND*%
X108829999Y-129122500D03*
%TD*%
D26*
%TO.P,U1,16,XI*%
%TO.N,Net-(U1-XI)*%
X110809999Y-127325000D03*
%TO.P,U1,15,XO*%
%TO.N,Net-(U1-XO)*%
X111444999Y-127325000D03*
%TO.P,U1,14,GND*%
%TO.N,GND*%
X112079999Y-127325000D03*
%TO.P,U1,13,VDD33*%
%TO.N,Net-(U1-VDD33)*%
X112714999Y-127325000D03*
%TO.P,U1,12,V5*%
%TO.N,+5V*%
X113349999Y-127325000D03*
%TO.P,U1,11,DPU*%
%TO.N,USB_UPSTREAM_D+*%
X113984999Y-127325000D03*
%TO.P,U1,10,DMU*%
%TO.N,USB_UPSTREAM_D-*%
X114619999Y-127325000D03*
%TO.P,U1,9,RESET#/CDP*%
%TO.N,unconnected-(U1-RESET#{slash}CDP-Pad9)*%
X115254999Y-127325000D03*
%TO.P,U1,8,DP1*%
%TO.N,Net-(U1-DP1)*%
X115254999Y-132600000D03*
%TO.P,U1,7,DM1*%
%TO.N,Net-(U1-DM1)*%
X114619999Y-132600000D03*
%TO.P,U1,6,DP2*%
%TO.N,Net-(U1-DP2)*%
X113984999Y-132600000D03*
%TO.P,U1,5,DM2*%
%TO.N,Net-(U1-DM2)*%
X113349999Y-132600000D03*
%TO.P,U1,4,DP3*%
%TO.N,unconnected-(U1-DP3-Pad4)*%
X112714999Y-132600000D03*
%TO.P,U1,3,DM3*%
%TO.N,unconnected-(U1-DM3-Pad3)*%
X112079999Y-132600000D03*
%TO.P,U1,2,DP4*%
%TO.N,unconnected-(U1-DP4-Pad2)*%
X111444999Y-132600000D03*
%TO.P,U1,1,DM4*%
%TO.N,unconnected-(U1-DM4-Pad1)*%
X110809999Y-132600000D03*
%TD*%
D25*
%TO.P,R10,2*%
%TO.N,Net-(U1-DP2)*%
X112310000Y-135432500D03*
%TO.P,R10,1*%
%TO.N,USB_DOWNSTREAM_D+*%
X111290000Y-135432500D03*
%TD*%
%TO.P,R11,2*%
%TO.N,/USB/USB_VESC_D-*%
X117309999Y-135232500D03*
%TO.P,R11,1*%
%TO.N,Net-(U1-DM1)*%
X116290001Y-135232500D03*
%TD*%
D27*
%TO.P,Y1,4,4*%
%TO.N,GND*%
X112100000Y-124782500D03*
%TO.P,Y1,3,3*%
%TO.N,Net-(U1-XI)*%
X109900000Y-124782500D03*
%TO.P,Y1,2,2*%
%TO.N,GND*%
X109900000Y-123082500D03*
%TO.P,Y1,1,1*%
%TO.N,Net-(U1-XO)*%
X112100000Y-123082500D03*
%TD*%
D28*
%TO.P,R12,2*%
%TO.N,Net-(U1-DP1)*%
X116290000Y-134232500D03*
%TO.P,R12,1*%
%TO.N,/USB/USB_VESC_D+*%
X117310000Y-134232500D03*
%TD*%
D24*
%TO.P,C4,2*%
%TO.N,+5V*%
X109789999Y-131322500D03*
%TO.P,C4,1*%
%TO.N,GND*%
X108829999Y-131322500D03*
%TD*%
D29*
%TO.P,H10,1,1*%
%TO.N,GND*%
X97600000Y-106700000D03*
X96721320Y-108821320D03*
X96721320Y-104578680D03*
X94600000Y-109700000D03*
D30*
X94600000Y-106700000D03*
D29*
X94600000Y-103700000D03*
X92478680Y-108821320D03*
X92478680Y-104578680D03*
X91600000Y-106700000D03*
%TD*%
D28*
%TO.P,R20,1*%
%TO.N,Net-(R20-Pad1)*%
X89700000Y-110300000D03*
%TO.P,R20,2*%
%TO.N,+12V*%
X88680000Y-110300000D03*
%TD*%
%TO.P,R19,1*%
%TO.N,Net-(R19-Pad1)*%
X89710000Y-109300000D03*
%TO.P,R19,2*%
%TO.N,+12V*%
X88690000Y-109300000D03*
%TD*%
%TO.P,R16,1*%
%TO.N,Net-(R16-Pad1)*%
X89710000Y-112300000D03*
%TO.P,R16,2*%
%TO.N,+12V*%
X88690000Y-112300000D03*
%TD*%
%TO.P,R15,1*%
%TO.N,Net-(R15-Pad1)*%
X89710000Y-111300000D03*
%TO.P,R15,2*%
%TO.N,+12V*%
X88690000Y-111300000D03*
%TD*%
D31*
%TO.P,C5,1*%
%TO.N,GND*%
X108034999Y-127922500D03*
%TO.P,C5,2*%
%TO.N,Net-(U1-VDD33)*%
X109584999Y-127922500D03*
%TD*%
D29*
%TO.P,H9,1,1*%
%TO.N,VCC*%
X122600000Y-106700000D03*
X123478680Y-104578680D03*
X123478680Y-108821320D03*
X125600000Y-103700000D03*
D30*
X125600000Y-106700000D03*
D29*
X125600000Y-109700000D03*
X127721320Y-104578680D03*
X127721320Y-108821320D03*
X128600000Y-106700000D03*
%TD*%
D31*
%TO.P,C6,1*%
%TO.N,GND*%
X108034999Y-126422500D03*
%TO.P,C6,2*%
%TO.N,Net-(U1-VDD33)*%
X109584999Y-126422500D03*
%TD*%
%TO.P,C3,1*%
%TO.N,GND*%
X107934999Y-132522500D03*
%TO.P,C3,2*%
%TO.N,+5V*%
X109484999Y-132522500D03*
%TD*%
D32*
%TO.N,Net-(R19-Pad1)*%
X90500000Y-109300000D03*
%TO.N,/CAN/CAN-*%
X114800000Y-104800000D03*
X113300000Y-104800000D03*
%TO.N,/CAN/CAN2+*%
X107100000Y-108877000D03*
%TO.N,/CAN/CAN1+*%
X107900000Y-104500000D03*
X107900000Y-106300000D03*
%TO.N,/CAN/CAN2+*%
X107000000Y-104500000D03*
%TO.N,GND*%
X100810735Y-115310735D03*
X115500000Y-124000000D03*
X117700000Y-131300000D03*
X117600000Y-129100000D03*
X117600000Y-126700000D03*
X117500000Y-124000000D03*
X116900000Y-133200000D03*
X114800000Y-130500000D03*
X112100000Y-124782500D03*
X112509999Y-130222500D03*
X111632499Y-128950000D03*
X110909999Y-130322500D03*
X109900000Y-123082500D03*
%TO.N,+12V*%
X88500000Y-112950000D03*
%TD*%
D33*
%TO.N,+12V*%
X88690000Y-112300000D02*
X88690000Y-109300000D01*
D34*
%TO.N,Net-(R20-Pad1)*%
X90400000Y-110300000D02*
X91020000Y-110920000D01*
X91020000Y-110920000D02*
X91020000Y-114770000D01*
%TO.N,Net-(R15-Pad1)*%
X89710000Y-111300000D02*
X90281000Y-111871000D01*
X90111000Y-112856100D02*
X89201000Y-113766100D01*
X90281000Y-111871000D02*
X90281000Y-112669340D01*
X90281000Y-112669340D02*
X90111000Y-112839340D01*
X96220000Y-135820000D02*
X102200000Y-135820000D01*
X90111000Y-112839340D02*
X90111000Y-112856100D01*
X89201000Y-113766100D02*
X89201000Y-116233900D01*
X89201000Y-116233900D02*
X92101000Y-119133900D01*
X92101000Y-119133900D02*
X92101000Y-131701000D01*
X92101000Y-131701000D02*
X96220000Y-135820000D01*
%TO.N,Net-(R16-Pad1)*%
X89710000Y-112300000D02*
X89710000Y-112690000D01*
X89710000Y-112690000D02*
X88800000Y-113600000D01*
X88800000Y-113600000D02*
X88800000Y-116400000D01*
X91700000Y-119300000D02*
X91700000Y-135140000D01*
X88800000Y-116400000D02*
X91700000Y-119300000D01*
X91700000Y-135140000D02*
X91020000Y-135820000D01*
D35*
%TO.N,/CAN/CAN-*%
X113300000Y-105500000D02*
X113300000Y-104800000D01*
%TO.N,/CAN/CAN+*%
X113300000Y-106200000D02*
X113400000Y-106300000D01*
X113400000Y-106300000D02*
X114100000Y-106300000D01*
X114100000Y-106300000D02*
X114200000Y-106200000D01*
%TO.N,/CAN/CAN2-*%
X104140000Y-111200000D02*
X104700000Y-110640000D01*
X106859584Y-108300000D02*
X106860584Y-108299000D01*
X107340416Y-108300000D02*
X109500000Y-108300000D01*
X104700000Y-110640000D02*
X104700000Y-109700000D01*
X111200000Y-105600000D02*
X112200000Y-105600000D01*
X104700000Y-109700000D02*
X106100000Y-108300000D01*
X110600000Y-107200000D02*
X110600000Y-106200000D01*
X106100000Y-108300000D02*
X106859584Y-108300000D01*
X106860584Y-108299000D02*
X107339416Y-108299000D01*
X107339416Y-108299000D02*
X107340416Y-108300000D01*
X109500000Y-108300000D02*
X110600000Y-107200000D01*
X110600000Y-106200000D02*
X111200000Y-105600000D01*
X112200000Y-105600000D02*
X112300000Y-105500000D01*
%TO.N,/CAN/CAN2+*%
X98510000Y-120340000D02*
X98510000Y-116690000D01*
X98510000Y-116690000D02*
X101800000Y-113400000D01*
X109800000Y-108800000D02*
X111100000Y-107500000D01*
X101800000Y-113400000D02*
X103800000Y-113400000D01*
X103800000Y-113400000D02*
X105300000Y-111900000D01*
X105300000Y-111900000D02*
X105300000Y-109900000D01*
X105300000Y-109900000D02*
X106400000Y-108800000D01*
X106400000Y-108800000D02*
X109800000Y-108800000D01*
X111100000Y-107500000D02*
X111100000Y-106400000D01*
X111100000Y-106400000D02*
X111400000Y-106100000D01*
X111400000Y-106100000D02*
X112200000Y-106100000D01*
X112200000Y-106100000D02*
X112300000Y-106200000D01*
%TO.N,Net-(R2-Pad2)*%
X101600000Y-103580000D02*
X103380000Y-101800000D01*
X103380000Y-101800000D02*
X107079999Y-101800000D01*
X107079999Y-101800000D02*
X107900000Y-102620001D01*
X107900000Y-102620001D02*
X107900000Y-102900000D01*
D34*
%TO.N,Net-(R20-Pad1)*%
X90400000Y-110300000D02*
X89700000Y-110300000D01*
%TO.N,Net-(R19-Pad1)*%
X90500000Y-109300000D02*
X89710000Y-109300000D01*
D35*
%TO.N,/CAN/CAN1+*%
X112300000Y-103500000D02*
X112100000Y-103300000D01*
X108800000Y-106300000D02*
X107900000Y-106300000D01*
X112100000Y-103300000D02*
X110400000Y-103300000D01*
X110400000Y-103300000D02*
X110100000Y-103600000D01*
X110100000Y-103600000D02*
X110100000Y-105000000D01*
X110100000Y-105000000D02*
X108800000Y-106300000D01*
%TO.N,/CAN/CAN1-*%
X101600000Y-111200000D02*
X102400000Y-110400000D01*
X102400000Y-110400000D02*
X102400000Y-108300000D01*
X102400000Y-108300000D02*
X105200000Y-105500000D01*
X105200000Y-105500000D02*
X108800000Y-105500000D01*
X108800000Y-105500000D02*
X109600000Y-104700000D01*
X110100000Y-102700000D02*
X112300000Y-102700000D01*
X109600000Y-104700000D02*
X109600000Y-103200000D01*
X109600000Y-103200000D02*
X110100000Y-102700000D01*
%TO.N,/CAN/CAN1+*%
X107900000Y-106300000D02*
X105200000Y-106300000D01*
X102024523Y-112300000D02*
X99200000Y-112300000D01*
X105200000Y-106300000D02*
X102928000Y-108572000D01*
X102928000Y-108572000D02*
X102928000Y-111396523D01*
X102928000Y-111396523D02*
X102024523Y-112300000D01*
X99200000Y-112300000D02*
X94710000Y-116790000D01*
X94710000Y-116790000D02*
X94710000Y-117800000D01*
%TO.N,/CAN/CAN1-*%
X93430000Y-120340000D02*
X93430000Y-117270000D01*
X93430000Y-117270000D02*
X98900000Y-111800000D01*
X98900000Y-111800000D02*
X101000000Y-111800000D01*
X101000000Y-111800000D02*
X101600000Y-111200000D01*
%TO.N,/CAN/CAN-*%
X114800000Y-103400000D02*
X114800000Y-104800000D01*
%TO.N,/CAN/CAN+*%
X114200000Y-103600000D02*
X114200000Y-106200000D01*
%TO.N,/CAN/CAN-*%
X113300000Y-102700000D02*
X113472000Y-102872000D01*
X113472000Y-102872000D02*
X114272000Y-102872000D01*
X114272000Y-102872000D02*
X114800000Y-103400000D01*
%TO.N,/CAN/CAN+*%
X113300000Y-103500000D02*
X113400000Y-103400000D01*
X113400000Y-103400000D02*
X114000000Y-103400000D01*
X114000000Y-103400000D02*
X114200000Y-103600000D01*
%TO.N,/CAN/CAN1+*%
X107900000Y-103900000D02*
X107900000Y-104500000D01*
%TO.N,/CAN/CAN2+*%
X107000000Y-103900000D02*
X107000000Y-104500000D01*
%TO.N,Net-(R7-Pad2)*%
X104140000Y-103580000D02*
X104820000Y-102900000D01*
X104820000Y-102900000D02*
X107000000Y-102900000D01*
%TO.N,/CAN/CAN2-*%
X97250000Y-117800000D02*
X97250000Y-116950000D01*
X97250000Y-116950000D02*
X101300000Y-112900000D01*
X101300000Y-112900000D02*
X103400000Y-112900000D01*
X103400000Y-112900000D02*
X104140000Y-112160000D01*
X104140000Y-112160000D02*
X104140000Y-111200000D01*
X97250000Y-124390000D02*
X97250000Y-117800000D01*
%TO.N,/CAN/CAN2+*%
X98510000Y-120340000D02*
X98510000Y-126930000D01*
%TO.N,/CAN/CAN1+*%
X94710000Y-117800000D02*
X94710000Y-124390000D01*
%TO.N,/CAN/CAN1-*%
X93430000Y-126930000D02*
X93430000Y-120340000D01*
D34*
%TO.N,/CAN/CAN2-*%
X104500000Y-111820000D02*
X104550000Y-111770000D01*
X104550000Y-111770000D02*
X104550000Y-111320000D01*
D35*
%TO.N,+5V*%
X113349999Y-129400000D02*
X113349999Y-130682500D01*
X113349999Y-127325000D02*
X113349999Y-129400000D01*
D36*
%TO.N,USB_UPSTREAM_D+*%
X102330000Y-117800000D02*
X102200000Y-117800000D01*
X101900000Y-116500000D02*
X106800000Y-116500000D01*
X106800000Y-116500000D02*
X108116500Y-117816500D01*
X109640492Y-121900000D02*
X112940492Y-121900000D01*
X102200000Y-117800000D02*
X101600000Y-117200000D01*
X108116500Y-117816500D02*
X108116500Y-120376008D01*
X101600000Y-117200000D02*
X101600000Y-116800000D01*
X114117999Y-123077507D02*
X114117999Y-125973249D01*
X101600000Y-116800000D02*
X101900000Y-116500000D01*
X114117999Y-125973249D02*
X113984999Y-126106249D01*
X108116500Y-120376008D02*
X109640492Y-121900000D01*
X113984999Y-126106249D02*
X113984999Y-127325000D01*
X112940492Y-121900000D02*
X114117999Y-123077507D01*
%TO.N,USB_UPSTREAM_D-*%
X101050000Y-120340000D02*
X101050000Y-116650000D01*
X109759508Y-121500000D02*
X113059508Y-121500000D01*
X101050000Y-116650000D02*
X101600000Y-116100000D01*
X101600000Y-116100000D02*
X107070246Y-116100000D01*
X113059508Y-121500000D02*
X114485999Y-122926491D01*
X107070246Y-116100000D02*
X108483500Y-117513254D01*
X114485999Y-122926491D02*
X114485999Y-125972249D01*
X108483500Y-117513254D02*
X108483500Y-120223992D01*
X108483500Y-120223992D02*
X109759508Y-121500000D01*
X114619999Y-126106249D02*
X114619999Y-127325000D01*
X114485999Y-125972249D02*
X114619999Y-126106249D01*
%TO.N,USB_DOWNSTREAM_D-*%
X101823992Y-122216500D02*
X103148017Y-122216500D01*
X101050000Y-122990492D02*
X101823992Y-122216500D01*
X101050000Y-126930000D02*
X101050000Y-122990492D01*
X107708508Y-134749000D02*
X110493499Y-134749000D01*
X103148017Y-122216500D02*
X104083500Y-123151983D01*
X104083500Y-123151983D02*
X104083500Y-131123992D01*
X104083500Y-131123992D02*
X107708508Y-134749000D01*
X110493499Y-134749000D02*
X110809999Y-134432500D01*
X110809999Y-134432500D02*
X111290000Y-134432500D01*
D34*
%TO.N,Net-(U1-DP1)*%
X115254999Y-132600000D02*
X115120999Y-132734000D01*
X115120999Y-132734000D02*
X115120999Y-134053499D01*
X115599000Y-134531500D02*
X115991000Y-134531500D01*
X115120999Y-134053499D02*
X115599000Y-134531500D01*
X115991000Y-134531500D02*
X116290000Y-134232500D01*
%TO.N,Net-(U1-DM1)*%
X114619999Y-132600000D02*
X114719999Y-132700000D01*
X114719999Y-132700000D02*
X114719999Y-133315270D01*
X114719999Y-133315270D02*
X114699000Y-133336269D01*
X114699000Y-133336269D02*
X114699000Y-134198600D01*
X114699000Y-134198600D02*
X115432900Y-134932500D01*
X115432900Y-134932500D02*
X115990001Y-134932500D01*
X115990001Y-134932500D02*
X116290001Y-135232500D01*
%TO.N,Net-(U1-DM2)*%
X112310000Y-134432500D02*
X112609000Y-134731500D01*
X112609000Y-134731500D02*
X113001000Y-134731500D01*
X113001000Y-134731500D02*
X113483999Y-134248501D01*
X113483999Y-134248501D02*
X113483999Y-132734000D01*
X113483999Y-132734000D02*
X113349999Y-132600000D01*
%TO.N,Net-(U1-DP2)*%
X113984999Y-132600000D02*
X113884999Y-132700000D01*
X113884999Y-132700000D02*
X113884999Y-134414601D01*
X113884999Y-134414601D02*
X113167100Y-135132500D01*
X113167100Y-135132500D02*
X112610000Y-135132500D01*
X112610000Y-135132500D02*
X112310000Y-135432500D01*
%TO.N,Net-(U1-XI)*%
X110809999Y-126511144D02*
X110699000Y-126400145D01*
X110032499Y-124814999D02*
X109932499Y-124814999D01*
D35*
%TO.N,Net-(U1-VDD33)*%
X111901738Y-129600000D02*
X112714999Y-128786739D01*
%TO.N,+5V*%
X109459999Y-131699346D02*
X109332499Y-131826846D01*
%TO.N,GND*%
X111632499Y-128950000D02*
X112079999Y-128502500D01*
D34*
%TO.N,Net-(U1-XO)*%
X111444999Y-126579044D02*
X111100000Y-126234045D01*
D35*
%TO.N,GND*%
X112079999Y-128502500D02*
X112079999Y-127325000D01*
%TO.N,Net-(U1-VDD33)*%
X109789999Y-126627500D02*
X109789999Y-129122500D01*
%TO.N,+5V*%
X109459999Y-131672500D02*
X109459999Y-131699346D01*
X109969999Y-131162500D02*
X109459999Y-131672500D01*
D34*
%TO.N,Net-(U1-XO)*%
X111100000Y-126234045D02*
X111100000Y-123532500D01*
D35*
%TO.N,+5V*%
X112869999Y-131162500D02*
X109949999Y-131162500D01*
X112869999Y-131162500D02*
X113349999Y-130682500D01*
D34*
%TO.N,Net-(U1-XI)*%
X110699000Y-126400145D02*
X110699000Y-125481500D01*
%TO.N,Net-(U1-XO)*%
X111100000Y-123532500D02*
X111550000Y-123082500D01*
D35*
%TO.N,+5V*%
X112869999Y-131162500D02*
X109969999Y-131162500D01*
D34*
%TO.N,Net-(U1-XO)*%
X111550000Y-123082500D02*
X112100000Y-123082500D01*
%TO.N,Net-(U1-XI)*%
X110699000Y-125481500D02*
X110032499Y-124814999D01*
D35*
%TO.N,Net-(U1-VDD33)*%
X112714999Y-128786739D02*
X112714999Y-127325000D01*
%TO.N,+5V*%
X109332499Y-131826846D02*
X109332499Y-132762500D01*
%TO.N,Net-(U1-VDD33)*%
X109584999Y-126422500D02*
X109789999Y-126627500D01*
D34*
%TO.N,Net-(U1-XI)*%
X110809999Y-127325000D02*
X110809999Y-126511144D01*
D35*
%TO.N,+5V*%
X109949999Y-131162500D02*
X109789999Y-131322500D01*
%TO.N,Net-(U1-VDD33)*%
X110267499Y-129600000D02*
X111901738Y-129600000D01*
X109789999Y-129122500D02*
X110267499Y-129600000D01*
D34*
%TO.N,Net-(U1-XO)*%
X111444999Y-127325000D02*
X111444999Y-126579044D01*
D36*
%TO.N,USB_DOWNSTREAM_D+*%
X102330000Y-124390000D02*
X101500000Y-123560000D01*
X101500000Y-123560000D02*
X101500000Y-123059508D01*
X103716500Y-131276008D02*
X107556492Y-135116000D01*
X101500000Y-123059508D02*
X101976008Y-122583500D01*
X101976008Y-122583500D02*
X102996001Y-122583500D01*
X110809999Y-135432500D02*
X111290000Y-135432500D01*
X102996001Y-122583500D02*
X103716500Y-123303999D01*
X110493499Y-135116000D02*
X110809999Y-135432500D01*
X103716500Y-123303999D02*
X103716500Y-131276008D01*
X107556492Y-135116000D02*
X110493499Y-135116000D01*
D33*
%TO.N,+12V*%
X88500000Y-112950000D02*
X88500000Y-112490000D01*
X88500000Y-112490000D02*
X88690000Y-112300000D01*
D37*
%TO.N,/USB/USB_VESC_D-*%
X115650000Y-116375000D02*
X115650000Y-117350000D01*
X115650000Y-117350000D02*
X114637000Y-118363000D01*
X117998170Y-134969500D02*
X117572999Y-134969500D01*
X114637000Y-118363000D02*
X114637000Y-119001830D01*
X114637000Y-119001830D02*
X119037000Y-123401830D01*
X119037000Y-123401830D02*
X119037000Y-133930670D01*
X119037000Y-133930670D02*
X117998170Y-134969500D01*
X117572999Y-134969500D02*
X117309999Y-135232500D01*
%TO.N,/USB/USB_VESC_D+*%
X113150000Y-116375000D02*
X113150000Y-117350000D01*
X113150000Y-117350000D02*
X114163000Y-118363000D01*
X117573000Y-134495500D02*
X117310000Y-134232500D01*
X114163000Y-118363000D02*
X114163000Y-119198170D01*
X114163000Y-119198170D02*
X118563000Y-123598170D01*
X118563000Y-123598170D02*
X118563000Y-133734330D01*
X118563000Y-133734330D02*
X117801830Y-134495500D01*
X117801830Y-134495500D02*
X117573000Y-134495500D01*
D35*
%TO.N,+5V*%
X113349999Y-129400000D02*
X116000000Y-129400000D01*
X116000000Y-129400000D02*
X116500000Y-128900000D01*
X111851000Y-118751000D02*
X111851000Y-113651000D01*
X116500000Y-128900000D02*
X116500000Y-123400000D01*
X116500000Y-123400000D02*
X111851000Y-118751000D01*
X111851000Y-113651000D02*
X111700000Y-113500000D01*
D38*
X111700000Y-113500000D02*
X116600000Y-113500000D01*
X116600000Y-113500000D02*
X118150000Y-115050000D01*
X118150000Y-115050000D02*
X118150000Y-116375000D01*
D35*
%TO.N,/CAN/CAN-*%
X114800000Y-104800000D02*
X114800000Y-109800000D01*
X114800000Y-109800000D02*
X115600000Y-110600000D01*
%TO.N,/CAN/CAN+*%
X114200000Y-106200000D02*
X114200000Y-109800000D01*
X114200000Y-109800000D02*
X113400000Y-110600000D01*
X113400000Y-110600000D02*
X113100000Y-110600000D01*
D38*
%TO.N,+5V*%
X110600000Y-110600000D02*
X110600000Y-112400000D01*
X110600000Y-112400000D02*
X111700000Y-113500000D01*
%TD*%
%TA.AperFunction,Conductor*%
%TO.N,GND*%
G36*
X132242539Y-95920185D02*
G01*
X132288294Y-95972989D01*
X132299500Y-96024500D01*
X132299500Y-99670500D01*
X132279815Y-99737539D01*
X132227011Y-99783294D01*
X132175500Y-99794500D01*
X129527373Y-99794500D01*
X129460334Y-99774815D01*
X129414579Y-99722011D01*
X129404635Y-99652853D01*
X129419986Y-99608500D01*
X129548041Y-99386700D01*
X129548046Y-99386690D01*
X129648394Y-99144428D01*
X129648398Y-99144419D01*
X129716270Y-98891116D01*
X129750500Y-98631120D01*
X129750500Y-98368880D01*
X129716270Y-98108884D01*
X129648398Y-97855581D01*
X129550204Y-97618520D01*
X129548046Y-97613309D01*
X129548041Y-97613299D01*
X129416924Y-97386196D01*
X129257281Y-97178148D01*
X129257274Y-97178140D01*
X129071860Y-96992726D01*
X129071851Y-96992718D01*
X128863803Y-96833075D01*
X128636700Y-96701958D01*
X128636690Y-96701953D01*
X128394428Y-96601605D01*
X128394421Y-96601603D01*
X128394419Y-96601602D01*
X128141116Y-96533730D01*
X128083339Y-96526123D01*
X127881127Y-96499500D01*
X127881120Y-96499500D01*
X127618880Y-96499500D01*
X127618872Y-96499500D01*
X127387772Y-96529926D01*
X127358884Y-96533730D01*
X127105581Y-96601602D01*
X127105571Y-96601605D01*
X126863309Y-96701953D01*
X126863299Y-96701958D01*
X126636196Y-96833075D01*
X126428148Y-96992718D01*
X126242718Y-97178148D01*
X126083075Y-97386196D01*
X125951958Y-97613299D01*
X125951953Y-97613309D01*
X125851605Y-97855571D01*
X125851602Y-97855581D01*
X125783730Y-98108885D01*
X125749500Y-98368872D01*
X125749500Y-98631127D01*
X125770436Y-98790140D01*
X125783730Y-98891116D01*
X125805178Y-98971161D01*
X125851602Y-99144418D01*
X125851605Y-99144428D01*
X125951953Y-99386690D01*
X125951958Y-99386700D01*
X126080014Y-99608500D01*
X126096487Y-99676401D01*
X126073634Y-99742427D01*
X126018713Y-99785618D01*
X125972627Y-99794500D01*
X121373992Y-99794500D01*
X121330313Y-99799197D01*
X121278825Y-99810397D01*
X121268627Y-99812890D01*
X121268624Y-99812891D01*
X121187916Y-99855899D01*
X121187913Y-99855901D01*
X121135104Y-99901660D01*
X121117160Y-99919242D01*
X121117154Y-99919249D01*
X121072511Y-99999059D01*
X121072509Y-99999064D01*
X121052826Y-100066096D01*
X121044500Y-100124003D01*
X121044500Y-124533551D01*
X121049123Y-124576900D01*
X121049123Y-124576903D01*
X121060154Y-124628031D01*
X121062532Y-124637870D01*
X121105270Y-124718731D01*
X121150830Y-124771673D01*
X121150838Y-124771682D01*
X121150843Y-124771687D01*
X121168376Y-124789703D01*
X121248042Y-124834620D01*
X121315015Y-124854532D01*
X121372881Y-124863053D01*
X132174381Y-124899758D01*
X132174383Y-124899757D01*
X132175922Y-124899763D01*
X132242895Y-124919675D01*
X132288470Y-124972634D01*
X132299501Y-125023762D01*
X132299502Y-129652683D01*
X132299502Y-138875913D01*
X132299503Y-143475500D01*
X132279818Y-143542539D01*
X132227014Y-143588294D01*
X132175503Y-143599500D01*
X87974500Y-143599500D01*
X87907461Y-143579815D01*
X87861706Y-143527011D01*
X87850500Y-143475500D01*
X87850500Y-139609041D01*
X111999500Y-139609041D01*
X111999500Y-139890958D01*
X112036295Y-140170439D01*
X112109259Y-140442743D01*
X112217135Y-140703179D01*
X112217140Y-140703190D01*
X112358083Y-140947309D01*
X112358088Y-140947317D01*
X112529700Y-141170965D01*
X112529704Y-141170970D01*
X112729029Y-141370295D01*
X112729033Y-141370298D01*
X112729035Y-141370300D01*
X112952683Y-141541912D01*
X112952690Y-141541916D01*
X113196809Y-141682859D01*
X113196814Y-141682861D01*
X113196817Y-141682863D01*
X113457261Y-141790742D01*
X113729558Y-141863704D01*
X114009049Y-141900500D01*
X114009056Y-141900500D01*
X114290944Y-141900500D01*
X114290951Y-141900500D01*
X114570442Y-141863704D01*
X114842739Y-141790742D01*
X115103183Y-141682863D01*
X115347317Y-141541912D01*
X115570965Y-141370300D01*
X115770300Y-141170965D01*
X115941912Y-140947317D01*
X116082863Y-140703183D01*
X116190742Y-140442739D01*
X116263704Y-140170442D01*
X116300500Y-139890951D01*
X116300500Y-139609049D01*
X116263704Y-139329558D01*
X116190742Y-139057261D01*
X116082863Y-138796817D01*
X116082861Y-138796814D01*
X116082859Y-138796809D01*
X115941916Y-138552690D01*
X115941912Y-138552683D01*
X115770300Y-138329035D01*
X115770298Y-138329033D01*
X115770295Y-138329029D01*
X115570970Y-138129704D01*
X115570965Y-138129700D01*
X115347317Y-137958088D01*
X115347311Y-137958084D01*
X115347309Y-137958083D01*
X115103190Y-137817140D01*
X115103179Y-137817135D01*
X114842743Y-137709259D01*
X114570439Y-137636295D01*
X114290958Y-137599500D01*
X114290951Y-137599500D01*
X114009049Y-137599500D01*
X114009041Y-137599500D01*
X113729560Y-137636295D01*
X113457256Y-137709259D01*
X113196820Y-137817135D01*
X113196809Y-137817140D01*
X112952690Y-137958083D01*
X112952682Y-137958089D01*
X112729029Y-138129704D01*
X112529704Y-138329029D01*
X112358089Y-138552682D01*
X112358083Y-138552690D01*
X112217140Y-138796809D01*
X112217135Y-138796820D01*
X112109259Y-139057256D01*
X112036295Y-139329560D01*
X111999500Y-139609041D01*
X87850500Y-139609041D01*
X87850500Y-113288807D01*
X87870185Y-113221768D01*
X87922989Y-113176013D01*
X87992147Y-113166069D01*
X88055703Y-113195094D01*
X88081886Y-113226805D01*
X88099500Y-113257314D01*
X88192686Y-113350500D01*
X88306814Y-113416392D01*
X88407594Y-113443395D01*
X88467254Y-113479760D01*
X88497783Y-113542607D01*
X88499500Y-113563170D01*
X88499500Y-116439562D01*
X88519979Y-116515989D01*
X88556544Y-116579321D01*
X88556546Y-116579328D01*
X88556548Y-116579328D01*
X88559538Y-116584508D01*
X88559541Y-116584512D01*
X91363181Y-119388152D01*
X91396666Y-119449475D01*
X91399500Y-119475833D01*
X91399500Y-134673312D01*
X91379815Y-134740351D01*
X91327011Y-134786106D01*
X91257853Y-134796050D01*
X91251309Y-134794929D01*
X91123469Y-134769500D01*
X91123465Y-134769500D01*
X90916535Y-134769500D01*
X90916530Y-134769500D01*
X90713587Y-134809868D01*
X90713579Y-134809870D01*
X90522403Y-134889058D01*
X90350342Y-135004024D01*
X90204024Y-135150342D01*
X90089058Y-135322403D01*
X90009870Y-135513579D01*
X90009868Y-135513587D01*
X89969500Y-135716530D01*
X89969500Y-135923469D01*
X90009868Y-136126412D01*
X90009870Y-136126420D01*
X90089058Y-136317596D01*
X90204024Y-136489657D01*
X90350342Y-136635975D01*
X90350345Y-136635977D01*
X90522402Y-136750941D01*
X90713580Y-136830130D01*
X90916530Y-136870499D01*
X90916534Y-136870500D01*
X90916535Y-136870500D01*
X91123466Y-136870500D01*
X91123467Y-136870499D01*
X91326420Y-136830130D01*
X91517598Y-136750941D01*
X91689655Y-136635977D01*
X91835977Y-136489655D01*
X91950941Y-136317598D01*
X92030130Y-136126420D01*
X92070500Y-135923465D01*
X92070500Y-135716535D01*
X92030130Y-135513580D01*
X91970471Y-135369553D01*
X91963003Y-135300085D01*
X91977648Y-135260098D01*
X91980021Y-135255989D01*
X92000500Y-135179562D01*
X92000500Y-132324833D01*
X92020185Y-132257794D01*
X92072989Y-132212039D01*
X92142147Y-132202095D01*
X92205703Y-132231120D01*
X92212181Y-132237152D01*
X96035489Y-136060460D01*
X96104012Y-136100022D01*
X96180438Y-136120500D01*
X96259562Y-136120500D01*
X101104564Y-136120500D01*
X101171603Y-136140185D01*
X101217358Y-136192989D01*
X101219125Y-136197047D01*
X101269058Y-136317596D01*
X101384024Y-136489657D01*
X101530342Y-136635975D01*
X101530345Y-136635977D01*
X101702402Y-136750941D01*
X101893580Y-136830130D01*
X102096530Y-136870499D01*
X102096534Y-136870500D01*
X102096535Y-136870500D01*
X102303466Y-136870500D01*
X102303467Y-136870499D01*
X102506420Y-136830130D01*
X102697598Y-136750941D01*
X102869655Y-136635977D01*
X103015977Y-136489655D01*
X103130941Y-136317598D01*
X103210130Y-136126420D01*
X103250500Y-135923465D01*
X103250500Y-135716535D01*
X103210130Y-135513580D01*
X103130941Y-135322402D01*
X103015977Y-135150345D01*
X103015975Y-135150342D01*
X102869657Y-135004024D01*
X102783626Y-134946541D01*
X102697598Y-134889059D01*
X102506420Y-134809870D01*
X102506412Y-134809868D01*
X102303469Y-134769500D01*
X102303465Y-134769500D01*
X102096535Y-134769500D01*
X102096530Y-134769500D01*
X101893587Y-134809868D01*
X101893579Y-134809870D01*
X101702403Y-134889058D01*
X101530342Y-135004024D01*
X101384024Y-135150342D01*
X101269058Y-135322403D01*
X101219125Y-135442953D01*
X101175284Y-135497356D01*
X101108990Y-135519421D01*
X101104564Y-135519500D01*
X96395833Y-135519500D01*
X96328794Y-135499815D01*
X96308152Y-135483181D01*
X93983427Y-133158456D01*
X96025500Y-133158456D01*
X96025500Y-133401543D01*
X96025501Y-133401559D01*
X96057230Y-133642569D01*
X96120149Y-133877386D01*
X96213175Y-134101972D01*
X96213182Y-134101987D01*
X96334730Y-134312516D01*
X96482722Y-134505380D01*
X96482730Y-134505389D01*
X96654611Y-134677270D01*
X96654619Y-134677277D01*
X96847483Y-134825269D01*
X97058012Y-134946817D01*
X97058027Y-134946824D01*
X97110201Y-134968435D01*
X97282612Y-135039850D01*
X97517429Y-135102769D01*
X97758450Y-135134500D01*
X97758457Y-135134500D01*
X98001543Y-135134500D01*
X98001550Y-135134500D01*
X98242571Y-135102769D01*
X98477388Y-135039850D01*
X98701984Y-134946819D01*
X98912516Y-134825269D01*
X99105380Y-134677278D01*
X99105384Y-134677273D01*
X99105389Y-134677270D01*
X99277270Y-134505389D01*
X99277273Y-134505384D01*
X99277278Y-134505380D01*
X99425269Y-134312516D01*
X99546819Y-134101984D01*
X99639850Y-133877388D01*
X99702769Y-133642571D01*
X99734500Y-133401550D01*
X99734500Y-133158450D01*
X99702769Y-132917429D01*
X99639850Y-132682612D01*
X99546819Y-132458016D01*
X99546817Y-132458012D01*
X99425269Y-132247483D01*
X99277277Y-132054619D01*
X99277270Y-132054611D01*
X99105389Y-131882730D01*
X99105380Y-131882722D01*
X98912516Y-131734730D01*
X98701987Y-131613182D01*
X98701972Y-131613175D01*
X98477386Y-131520149D01*
X98242569Y-131457230D01*
X98001559Y-131425501D01*
X98001556Y-131425500D01*
X98001550Y-131425500D01*
X97758450Y-131425500D01*
X97758444Y-131425500D01*
X97758440Y-131425501D01*
X97517430Y-131457230D01*
X97282613Y-131520149D01*
X97058027Y-131613175D01*
X97058012Y-131613182D01*
X96847483Y-131734730D01*
X96654619Y-131882722D01*
X96482722Y-132054619D01*
X96334730Y-132247483D01*
X96213182Y-132458012D01*
X96213175Y-132458027D01*
X96120149Y-132682613D01*
X96057230Y-132917430D01*
X96025501Y-133158440D01*
X96025500Y-133158456D01*
X93983427Y-133158456D01*
X92437819Y-131612848D01*
X92404334Y-131551525D01*
X92401500Y-131525167D01*
X92401500Y-128460702D01*
X92421185Y-128393663D01*
X92473989Y-128347908D01*
X92543147Y-128337964D01*
X92581792Y-128350216D01*
X92684906Y-128402755D01*
X92796423Y-128459577D01*
X92796425Y-128459577D01*
X92796428Y-128459579D01*
X93043507Y-128539860D01*
X93175706Y-128560797D01*
X93300098Y-128580500D01*
X93300103Y-128580500D01*
X93559902Y-128580500D01*
X93673298Y-128562539D01*
X93816493Y-128539860D01*
X94063572Y-128459579D01*
X94295051Y-128341634D01*
X94505229Y-128188931D01*
X94688931Y-128005229D01*
X94841634Y-127795051D01*
X94959579Y-127563572D01*
X95039860Y-127316493D01*
X95062539Y-127173298D01*
X95080500Y-127059902D01*
X95080500Y-126800097D01*
X95056848Y-126650767D01*
X95039860Y-126543507D01*
X94959579Y-126296428D01*
X94959576Y-126296424D01*
X94959576Y-126296421D01*
X94907461Y-126194142D01*
X94894564Y-126125473D01*
X94920840Y-126060732D01*
X94977946Y-126020475D01*
X94998547Y-126015373D01*
X95017064Y-126012440D01*
X95096493Y-125999860D01*
X95343572Y-125919579D01*
X95575051Y-125801634D01*
X95785229Y-125648931D01*
X95892319Y-125541841D01*
X95953642Y-125508356D01*
X96023334Y-125513340D01*
X96067681Y-125541841D01*
X96174771Y-125648931D01*
X96384949Y-125801634D01*
X96616428Y-125919579D01*
X96863507Y-125999860D01*
X96942949Y-126012441D01*
X97006080Y-126042369D01*
X97043012Y-126101680D01*
X97042015Y-126171543D01*
X97034033Y-126191209D01*
X96980422Y-126296423D01*
X96900140Y-126543506D01*
X96859500Y-126800097D01*
X96859500Y-127059902D01*
X96900140Y-127316493D01*
X96980422Y-127563576D01*
X97061534Y-127722764D01*
X97086785Y-127772323D01*
X97098368Y-127795054D01*
X97160448Y-127880500D01*
X97251069Y-128005229D01*
X97434771Y-128188931D01*
X97644949Y-128341634D01*
X97792445Y-128416787D01*
X97876423Y-128459577D01*
X97876425Y-128459577D01*
X97876428Y-128459579D01*
X98123507Y-128539860D01*
X98255706Y-128560797D01*
X98380098Y-128580500D01*
X98380103Y-128580500D01*
X98639902Y-128580500D01*
X98753298Y-128562539D01*
X98896493Y-128539860D01*
X99143572Y-128459579D01*
X99375051Y-128341634D01*
X99585229Y-128188931D01*
X99768931Y-128005229D01*
X99921634Y-127795051D01*
X100039579Y-127563572D01*
X100055657Y-127514086D01*
X100095094Y-127456412D01*
X100159453Y-127429214D01*
X100228299Y-127441129D01*
X100276690Y-127483516D01*
X100311694Y-127535903D01*
X100311700Y-127535911D01*
X100444088Y-127668299D01*
X100444092Y-127668302D01*
X100599762Y-127772318D01*
X100599768Y-127772321D01*
X100599769Y-127772322D01*
X100772749Y-127843973D01*
X100956379Y-127880499D01*
X100956383Y-127880500D01*
X100956384Y-127880500D01*
X101143617Y-127880500D01*
X101143618Y-127880499D01*
X101327251Y-127843973D01*
X101500231Y-127772322D01*
X101655908Y-127668302D01*
X101788302Y-127535908D01*
X101892322Y-127380231D01*
X101963973Y-127207251D01*
X102000500Y-127023616D01*
X102000500Y-126836384D01*
X101963973Y-126652749D01*
X101892322Y-126479769D01*
X101892321Y-126479768D01*
X101892318Y-126479762D01*
X101788302Y-126324092D01*
X101788299Y-126324088D01*
X101655911Y-126191700D01*
X101655907Y-126191697D01*
X101500237Y-126087681D01*
X101500227Y-126087676D01*
X101447047Y-126065648D01*
X101392644Y-126021807D01*
X101370579Y-125955512D01*
X101370500Y-125951087D01*
X101370500Y-125072934D01*
X101390185Y-125005895D01*
X101442989Y-124960140D01*
X101512147Y-124950196D01*
X101575703Y-124979221D01*
X101590358Y-124994275D01*
X101591702Y-124995913D01*
X101724088Y-125128299D01*
X101724092Y-125128302D01*
X101879762Y-125232318D01*
X101879768Y-125232321D01*
X101879769Y-125232322D01*
X102052749Y-125303973D01*
X102236379Y-125340499D01*
X102236383Y-125340500D01*
X102236384Y-125340500D01*
X102423617Y-125340500D01*
X102423618Y-125340499D01*
X102607251Y-125303973D01*
X102780231Y-125232322D01*
X102935908Y-125128302D01*
X103068302Y-124995908D01*
X103143123Y-124883931D01*
X103168898Y-124845356D01*
X103222510Y-124800551D01*
X103291835Y-124791844D01*
X103354862Y-124821998D01*
X103391582Y-124881441D01*
X103396000Y-124914247D01*
X103396000Y-131318204D01*
X103402642Y-131342993D01*
X103417841Y-131399717D01*
X103460036Y-131472800D01*
X103460038Y-131472802D01*
X103526773Y-131539537D01*
X103526779Y-131539542D01*
X107295687Y-135308450D01*
X107295697Y-135308461D01*
X107300028Y-135312792D01*
X107359700Y-135372464D01*
X107432783Y-135414659D01*
X107452795Y-135420021D01*
X107514298Y-135436501D01*
X107598687Y-135436501D01*
X107598691Y-135436500D01*
X110309382Y-135436500D01*
X110376421Y-135456185D01*
X110397063Y-135472819D01*
X110549194Y-135624950D01*
X110549215Y-135624973D01*
X110613204Y-135688962D01*
X110654007Y-135712521D01*
X110654008Y-135712521D01*
X110686291Y-135731160D01*
X110767805Y-135753001D01*
X110769440Y-135753001D01*
X110770766Y-135753390D01*
X110775866Y-135754062D01*
X110775761Y-135754857D01*
X110836479Y-135772686D01*
X110871013Y-135805875D01*
X110875935Y-135812904D01*
X110959596Y-135896565D01*
X111066827Y-135946568D01*
X111115683Y-135953000D01*
X111115684Y-135953000D01*
X111464317Y-135953000D01*
X111480601Y-135950856D01*
X111513173Y-135946568D01*
X111620404Y-135896565D01*
X111704065Y-135812904D01*
X111704065Y-135812903D01*
X111711736Y-135805233D01*
X111714564Y-135808061D01*
X111752977Y-135777343D01*
X111822474Y-135770135D01*
X111884835Y-135801643D01*
X111888093Y-135805403D01*
X111888264Y-135805233D01*
X111895935Y-135812904D01*
X111979596Y-135896565D01*
X112086827Y-135946568D01*
X112135683Y-135953000D01*
X112135684Y-135953000D01*
X112484317Y-135953000D01*
X112500601Y-135950856D01*
X112533173Y-135946568D01*
X112640404Y-135896565D01*
X112724065Y-135812904D01*
X112774068Y-135705673D01*
X112780500Y-135656816D01*
X112780500Y-135557000D01*
X112800185Y-135489961D01*
X112852989Y-135444206D01*
X112904500Y-135433000D01*
X113206660Y-135433000D01*
X113206662Y-135433000D01*
X113283089Y-135412521D01*
X113351611Y-135372960D01*
X113407560Y-135317011D01*
X114125459Y-134599112D01*
X114165021Y-134530589D01*
X114185499Y-134454163D01*
X114185499Y-134375039D01*
X114185499Y-134372964D01*
X114186359Y-134370034D01*
X114185639Y-134367065D01*
X114196141Y-134336718D01*
X114205184Y-134305925D01*
X114207491Y-134303925D01*
X114208491Y-134301038D01*
X114233732Y-134281187D01*
X114257988Y-134260170D01*
X114261010Y-134259735D01*
X114263412Y-134257847D01*
X114295366Y-134254795D01*
X114327146Y-134250226D01*
X114329925Y-134251495D01*
X114332965Y-134251205D01*
X114361495Y-134265912D01*
X114390702Y-134279251D01*
X114393172Y-134282242D01*
X114395068Y-134283220D01*
X114416886Y-134310963D01*
X114418978Y-134314587D01*
X114418979Y-134314589D01*
X114444568Y-134358910D01*
X114458540Y-134383111D01*
X115192440Y-135117011D01*
X115248389Y-135172960D01*
X115248391Y-135172961D01*
X115248395Y-135172964D01*
X115309399Y-135208184D01*
X115316911Y-135212521D01*
X115393338Y-135233000D01*
X115695501Y-135233000D01*
X115762540Y-135252685D01*
X115808295Y-135305489D01*
X115819501Y-135357000D01*
X115819501Y-135456816D01*
X115825932Y-135505671D01*
X115825933Y-135505673D01*
X115875936Y-135612904D01*
X115959597Y-135696565D01*
X116066828Y-135746568D01*
X116115684Y-135753000D01*
X116115685Y-135753000D01*
X116464318Y-135753000D01*
X116480602Y-135750856D01*
X116513174Y-135746568D01*
X116620405Y-135696565D01*
X116704066Y-135612904D01*
X116704066Y-135612903D01*
X116711737Y-135605233D01*
X116714567Y-135608063D01*
X116752949Y-135577355D01*
X116822444Y-135570130D01*
X116884813Y-135601624D01*
X116888090Y-135605405D01*
X116888263Y-135605233D01*
X116895934Y-135612904D01*
X116979595Y-135696565D01*
X117086826Y-135746568D01*
X117135682Y-135753000D01*
X117135683Y-135753000D01*
X117484316Y-135753000D01*
X117500600Y-135750856D01*
X117533172Y-135746568D01*
X117640403Y-135696565D01*
X117724064Y-135612904D01*
X117774067Y-135505673D01*
X117780499Y-135456816D01*
X117780499Y-135421000D01*
X117800184Y-135353961D01*
X117852988Y-135308206D01*
X117904499Y-135297000D01*
X118041284Y-135297000D01*
X118041286Y-135297000D01*
X118124580Y-135274681D01*
X118199260Y-135231565D01*
X119299065Y-134131760D01*
X119342181Y-134057081D01*
X119364500Y-133973786D01*
X119364500Y-133887554D01*
X119364500Y-123358714D01*
X119342181Y-123275420D01*
X119299065Y-123200740D01*
X119238090Y-123139765D01*
X115000819Y-118902494D01*
X114967334Y-118841171D01*
X114964500Y-118814813D01*
X114964500Y-118550017D01*
X114984185Y-118482978D01*
X115000819Y-118462336D01*
X115912061Y-117551094D01*
X115912063Y-117551092D01*
X115912065Y-117551090D01*
X115912067Y-117551085D01*
X115917009Y-117544646D01*
X115919823Y-117546805D01*
X115958409Y-117509803D01*
X115968076Y-117505301D01*
X116147598Y-117430941D01*
X116319655Y-117315977D01*
X116465977Y-117169655D01*
X116580941Y-116997598D01*
X116660130Y-116806420D01*
X116700500Y-116603465D01*
X116700500Y-116146535D01*
X116660130Y-115943580D01*
X116580941Y-115752402D01*
X116465977Y-115580345D01*
X116465975Y-115580342D01*
X116319657Y-115434024D01*
X116216595Y-115365161D01*
X116147598Y-115319059D01*
X116110851Y-115303838D01*
X115956420Y-115239870D01*
X115956412Y-115239868D01*
X115753469Y-115199500D01*
X115753465Y-115199500D01*
X115546535Y-115199500D01*
X115546530Y-115199500D01*
X115343587Y-115239868D01*
X115343579Y-115239870D01*
X115152403Y-115319058D01*
X114980342Y-115434024D01*
X114834024Y-115580342D01*
X114719058Y-115752403D01*
X114639870Y-115943579D01*
X114639868Y-115943587D01*
X114599500Y-116146530D01*
X114599500Y-116603469D01*
X114639868Y-116806412D01*
X114639870Y-116806420D01*
X114719058Y-116997596D01*
X114834024Y-117169657D01*
X114980339Y-117315972D01*
X114980342Y-117315974D01*
X114980345Y-117315977D01*
X114998899Y-117328374D01*
X115043702Y-117381986D01*
X115052409Y-117451311D01*
X115022254Y-117514338D01*
X115017687Y-117519156D01*
X114487680Y-118049163D01*
X114426357Y-118082648D01*
X114356665Y-118077664D01*
X114312318Y-118049163D01*
X113782311Y-117519156D01*
X113748826Y-117457833D01*
X113753810Y-117388141D01*
X113795682Y-117332208D01*
X113801074Y-117328391D01*
X113819655Y-117315977D01*
X113965977Y-117169655D01*
X114080941Y-116997598D01*
X114160130Y-116806420D01*
X114200500Y-116603465D01*
X114200500Y-116146535D01*
X114160130Y-115943580D01*
X114080941Y-115752402D01*
X113965977Y-115580345D01*
X113965975Y-115580342D01*
X113819657Y-115434024D01*
X113716595Y-115365161D01*
X113647598Y-115319059D01*
X113610851Y-115303838D01*
X113456420Y-115239870D01*
X113456412Y-115239868D01*
X113253469Y-115199500D01*
X113253465Y-115199500D01*
X113046535Y-115199500D01*
X113046530Y-115199500D01*
X112843587Y-115239868D01*
X112843579Y-115239870D01*
X112652403Y-115319058D01*
X112480342Y-115434024D01*
X112480341Y-115434025D01*
X112413181Y-115501186D01*
X112351858Y-115534671D01*
X112282166Y-115529687D01*
X112226233Y-115487815D01*
X112201816Y-115422351D01*
X112201500Y-115413505D01*
X112201500Y-114324500D01*
X112221185Y-114257461D01*
X112273989Y-114211706D01*
X112325500Y-114200500D01*
X116258481Y-114200500D01*
X116325520Y-114220185D01*
X116346162Y-114236819D01*
X117413181Y-115303838D01*
X117427884Y-115330765D01*
X117444477Y-115356584D01*
X117445368Y-115362784D01*
X117446666Y-115365161D01*
X117449500Y-115391519D01*
X117449500Y-115413505D01*
X117429815Y-115480544D01*
X117413181Y-115501186D01*
X117334025Y-115580341D01*
X117334024Y-115580342D01*
X117219058Y-115752403D01*
X117139870Y-115943579D01*
X117139868Y-115943587D01*
X117099500Y-116146530D01*
X117099500Y-116603469D01*
X117139868Y-116806412D01*
X117139870Y-116806420D01*
X117219058Y-116997596D01*
X117334024Y-117169657D01*
X117480342Y-117315975D01*
X117480345Y-117315977D01*
X117652402Y-117430941D01*
X117843580Y-117510130D01*
X118017080Y-117544641D01*
X118046530Y-117550499D01*
X118046534Y-117550500D01*
X118046535Y-117550500D01*
X118253466Y-117550500D01*
X118253467Y-117550499D01*
X118456420Y-117510130D01*
X118647598Y-117430941D01*
X118819655Y-117315977D01*
X118965977Y-117169655D01*
X119080941Y-116997598D01*
X119160130Y-116806420D01*
X119200500Y-116603465D01*
X119200500Y-116146535D01*
X119160130Y-115943580D01*
X119080941Y-115752402D01*
X118965977Y-115580345D01*
X118965975Y-115580342D01*
X118886819Y-115501186D01*
X118853334Y-115439863D01*
X118850500Y-115413505D01*
X118850500Y-114981011D01*
X118850500Y-114981007D01*
X118849404Y-114975499D01*
X118823580Y-114845672D01*
X118823578Y-114845667D01*
X118770777Y-114718192D01*
X118694112Y-114603454D01*
X117046545Y-112955887D01*
X116931807Y-112879222D01*
X116804332Y-112826421D01*
X116804322Y-112826418D01*
X116668996Y-112799500D01*
X116668994Y-112799500D01*
X116668993Y-112799500D01*
X112041519Y-112799500D01*
X111974480Y-112779815D01*
X111953838Y-112763181D01*
X111336819Y-112146162D01*
X111303334Y-112084839D01*
X111300500Y-112058481D01*
X111300500Y-111571949D01*
X111320185Y-111504910D01*
X111372989Y-111459155D01*
X111442147Y-111449211D01*
X111505703Y-111478236D01*
X111531887Y-111509949D01*
X111601510Y-111630540D01*
X111633812Y-111686489D01*
X111641392Y-111699617D01*
X111781081Y-111881661D01*
X111781089Y-111881670D01*
X111943330Y-112043911D01*
X111943338Y-112043918D01*
X111943339Y-112043919D01*
X111984736Y-112075684D01*
X112125382Y-112183607D01*
X112125385Y-112183608D01*
X112125388Y-112183611D01*
X112324112Y-112298344D01*
X112324117Y-112298346D01*
X112324123Y-112298349D01*
X112402965Y-112331006D01*
X112536113Y-112386158D01*
X112757762Y-112445548D01*
X112985266Y-112475500D01*
X112985273Y-112475500D01*
X113214727Y-112475500D01*
X113214734Y-112475500D01*
X113442238Y-112445548D01*
X113663887Y-112386158D01*
X113875888Y-112298344D01*
X114074612Y-112183611D01*
X114256661Y-112043919D01*
X114262314Y-112038266D01*
X114323635Y-112004777D01*
X114393327Y-112009758D01*
X114437686Y-112038266D01*
X114443332Y-112043913D01*
X114443338Y-112043918D01*
X114443339Y-112043919D01*
X114484736Y-112075684D01*
X114625382Y-112183607D01*
X114625385Y-112183608D01*
X114625388Y-112183611D01*
X114824112Y-112298344D01*
X114824117Y-112298346D01*
X114824123Y-112298349D01*
X114902965Y-112331006D01*
X115036113Y-112386158D01*
X115257762Y-112445548D01*
X115485266Y-112475500D01*
X115485273Y-112475500D01*
X115714727Y-112475500D01*
X115714734Y-112475500D01*
X115942238Y-112445548D01*
X116163887Y-112386158D01*
X116375888Y-112298344D01*
X116574612Y-112183611D01*
X116756661Y-112043919D01*
X116756667Y-112043913D01*
X116756670Y-112043911D01*
X116918911Y-111881670D01*
X116918914Y-111881665D01*
X116918919Y-111881661D01*
X117058611Y-111699612D01*
X117173344Y-111500888D01*
X117261158Y-111288887D01*
X117320548Y-111067238D01*
X117350500Y-110839734D01*
X117350500Y-110360266D01*
X117320548Y-110132762D01*
X117261158Y-109911113D01*
X117208113Y-109783052D01*
X117173349Y-109699123D01*
X117173346Y-109699117D01*
X117173344Y-109699112D01*
X117058611Y-109500388D01*
X117058608Y-109500385D01*
X117058607Y-109500382D01*
X116918918Y-109318338D01*
X116918911Y-109318330D01*
X116756670Y-109156089D01*
X116756661Y-109156081D01*
X116574617Y-109016392D01*
X116375890Y-108901657D01*
X116375876Y-108901650D01*
X116163889Y-108813843D01*
X116163890Y-108813843D01*
X116163887Y-108813842D01*
X115942406Y-108754497D01*
X115882746Y-108718132D01*
X115852217Y-108655285D01*
X115850500Y-108634722D01*
X115850500Y-105412376D01*
X115864015Y-105356081D01*
X115912545Y-105260836D01*
X115912545Y-105260835D01*
X115912547Y-105260832D01*
X115970940Y-105081118D01*
X116000500Y-104894486D01*
X116000500Y-104705513D01*
X115970940Y-104518881D01*
X115912545Y-104339163D01*
X115864015Y-104243918D01*
X115850500Y-104187623D01*
X115850500Y-103509599D01*
X115850501Y-103509578D01*
X115850501Y-103296532D01*
X115810131Y-103093585D01*
X115810130Y-103093584D01*
X115810130Y-103093580D01*
X115810128Y-103093575D01*
X115730945Y-102902408D01*
X115730938Y-102902395D01*
X115615977Y-102730345D01*
X115615974Y-102730341D01*
X115095047Y-102209416D01*
X115095044Y-102209412D01*
X115095044Y-102209413D01*
X115087977Y-102202346D01*
X115087977Y-102202345D01*
X114941655Y-102056023D01*
X114769598Y-101941059D01*
X114578420Y-101861870D01*
X114578412Y-101861868D01*
X114375469Y-101821500D01*
X114375465Y-101821500D01*
X114261209Y-101821500D01*
X114194170Y-101801815D01*
X114182544Y-101793353D01*
X114020869Y-101660669D01*
X114020866Y-101660667D01*
X113840113Y-101564053D01*
X113643972Y-101504554D01*
X113532232Y-101493549D01*
X113491120Y-101489500D01*
X113108880Y-101489500D01*
X113071150Y-101493216D01*
X112956027Y-101504554D01*
X112835995Y-101540966D01*
X112766128Y-101541589D01*
X112764005Y-101540966D01*
X112693330Y-101519527D01*
X112643974Y-101504555D01*
X112643972Y-101504554D01*
X112643974Y-101504554D01*
X112525981Y-101492933D01*
X112491120Y-101489500D01*
X112108880Y-101489500D01*
X112071150Y-101493216D01*
X111956027Y-101504554D01*
X111759886Y-101564053D01*
X111627421Y-101634858D01*
X111568968Y-101649500D01*
X110209599Y-101649500D01*
X110209579Y-101649499D01*
X110203465Y-101649499D01*
X109996535Y-101649499D01*
X109996533Y-101649499D01*
X109793585Y-101689868D01*
X109793575Y-101689871D01*
X109602408Y-101769054D01*
X109602395Y-101769061D01*
X109430345Y-101884022D01*
X109430341Y-101884025D01*
X109045226Y-102269142D01*
X108930347Y-102384021D01*
X108930345Y-102384023D01*
X108888340Y-102426028D01*
X108784023Y-102530344D01*
X108669058Y-102702403D01*
X108654268Y-102738107D01*
X108644787Y-102749870D01*
X108639635Y-102764072D01*
X108623307Y-102776523D01*
X108610425Y-102792509D01*
X108596091Y-102797279D01*
X108584078Y-102806441D01*
X108563610Y-102808088D01*
X108544130Y-102814572D01*
X108528383Y-102810924D01*
X108514433Y-102812048D01*
X108481256Y-102800010D01*
X108472633Y-102795401D01*
X108422788Y-102746439D01*
X108408146Y-102702227D01*
X108403972Y-102670513D01*
X108353224Y-102561684D01*
X108268316Y-102476776D01*
X108268315Y-102476775D01*
X108240410Y-102463762D01*
X108187972Y-102417588D01*
X108185432Y-102413383D01*
X108180472Y-102404792D01*
X108180467Y-102404786D01*
X107295212Y-101519531D01*
X107295207Y-101519527D01*
X107215289Y-101473387D01*
X107215288Y-101473386D01*
X107215287Y-101473386D01*
X107126143Y-101449500D01*
X103333856Y-101449500D01*
X103244712Y-101473386D01*
X103244709Y-101473387D01*
X103164791Y-101519527D01*
X103164786Y-101519531D01*
X102073835Y-102610481D01*
X102012512Y-102643966D01*
X101942820Y-102638982D01*
X101938703Y-102637362D01*
X101933874Y-102635361D01*
X101891835Y-102617949D01*
X101891831Y-102617948D01*
X101891828Y-102617947D01*
X101698543Y-102579500D01*
X101698541Y-102579500D01*
X101501459Y-102579500D01*
X101501457Y-102579500D01*
X101308170Y-102617947D01*
X101308160Y-102617950D01*
X101126092Y-102693364D01*
X101126079Y-102693371D01*
X100962218Y-102802860D01*
X100962214Y-102802863D01*
X100822863Y-102942214D01*
X100822860Y-102942218D01*
X100713371Y-103106079D01*
X100713364Y-103106092D01*
X100637950Y-103288160D01*
X100637947Y-103288170D01*
X100599500Y-103481456D01*
X100599500Y-103481459D01*
X100599500Y-103678541D01*
X100599500Y-103678543D01*
X100599499Y-103678543D01*
X100637947Y-103871829D01*
X100637950Y-103871839D01*
X100713364Y-104053907D01*
X100713371Y-104053920D01*
X100822860Y-104217781D01*
X100822863Y-104217785D01*
X100962214Y-104357136D01*
X100962218Y-104357139D01*
X101126079Y-104466628D01*
X101126092Y-104466635D01*
X101265918Y-104524552D01*
X101308165Y-104542051D01*
X101308169Y-104542051D01*
X101308170Y-104542052D01*
X101501456Y-104580500D01*
X101501459Y-104580500D01*
X101698543Y-104580500D01*
X101828582Y-104554632D01*
X101891835Y-104542051D01*
X102073914Y-104466632D01*
X102237782Y-104357139D01*
X102377139Y-104217782D01*
X102486632Y-104053914D01*
X102562051Y-103871835D01*
X102600500Y-103678541D01*
X102600500Y-103481459D01*
X102600500Y-103481456D01*
X102562052Y-103288170D01*
X102562051Y-103288169D01*
X102562051Y-103288165D01*
X102542636Y-103241294D01*
X102535168Y-103171828D01*
X102566442Y-103109349D01*
X102569487Y-103106193D01*
X102927819Y-102747861D01*
X102989142Y-102714377D01*
X103058834Y-102719361D01*
X103114767Y-102761233D01*
X103139184Y-102826697D01*
X103139500Y-102835543D01*
X103139500Y-104399752D01*
X103151131Y-104458229D01*
X103151132Y-104458230D01*
X103195447Y-104524552D01*
X103261769Y-104568867D01*
X103261770Y-104568868D01*
X103320247Y-104580499D01*
X103320250Y-104580500D01*
X103320252Y-104580500D01*
X104334506Y-104580500D01*
X104401545Y-104600185D01*
X104447300Y-104652989D01*
X104457244Y-104722147D01*
X104428219Y-104785703D01*
X104422187Y-104792181D01*
X104384023Y-104830345D01*
X104384020Y-104830348D01*
X101730348Y-107484020D01*
X101730345Y-107484023D01*
X101684724Y-107529644D01*
X101584023Y-107630344D01*
X101469058Y-107802403D01*
X101389870Y-107993579D01*
X101389868Y-107993587D01*
X101349500Y-108196530D01*
X101349500Y-109411485D01*
X101329815Y-109478524D01*
X101277011Y-109524279D01*
X101257594Y-109531260D01*
X101209828Y-109544059D01*
X101052219Y-109586290D01*
X101052217Y-109586290D01*
X101052216Y-109586291D01*
X101052209Y-109586293D01*
X100846277Y-109671593D01*
X100846273Y-109671595D01*
X100653226Y-109783052D01*
X100653217Y-109783058D01*
X100476377Y-109918751D01*
X100476370Y-109918757D01*
X100318757Y-110076370D01*
X100318751Y-110076377D01*
X100183058Y-110253217D01*
X100183052Y-110253226D01*
X100071595Y-110446273D01*
X100071593Y-110446277D01*
X99986293Y-110652209D01*
X99986287Y-110652227D01*
X99984848Y-110657599D01*
X99948481Y-110717257D01*
X99885633Y-110747784D01*
X99865075Y-110749500D01*
X98796530Y-110749500D01*
X98593587Y-110789868D01*
X98593579Y-110789870D01*
X98402403Y-110869058D01*
X98230344Y-110984023D01*
X98187541Y-111026827D01*
X98084023Y-111130345D01*
X98084020Y-111130348D01*
X92760348Y-116454020D01*
X92760345Y-116454023D01*
X92698379Y-116515989D01*
X92614023Y-116600344D01*
X92499058Y-116772403D01*
X92419870Y-116963579D01*
X92419868Y-116963587D01*
X92379500Y-117166530D01*
X92379500Y-118688067D01*
X92359815Y-118755106D01*
X92307011Y-118800861D01*
X92237853Y-118810805D01*
X92174297Y-118781780D01*
X92167819Y-118775748D01*
X89537819Y-116145748D01*
X89504334Y-116084425D01*
X89501500Y-116058067D01*
X89501500Y-113941933D01*
X89521185Y-113874894D01*
X89537819Y-113854252D01*
X89941571Y-113450500D01*
X90351460Y-113040611D01*
X90366192Y-113015093D01*
X90385895Y-112989414D01*
X90507820Y-112867489D01*
X90569142Y-112834007D01*
X90638834Y-112838991D01*
X90694767Y-112880863D01*
X90719184Y-112946327D01*
X90719500Y-112955173D01*
X90719500Y-113782802D01*
X90699815Y-113849841D01*
X90647011Y-113895596D01*
X90642954Y-113897363D01*
X90569769Y-113927678D01*
X90569762Y-113927681D01*
X90414092Y-114031697D01*
X90414088Y-114031700D01*
X90281700Y-114164088D01*
X90281697Y-114164092D01*
X90177681Y-114319762D01*
X90177676Y-114319771D01*
X90106027Y-114492748D01*
X90106025Y-114492756D01*
X90069500Y-114676379D01*
X90069500Y-114863620D01*
X90106025Y-115047243D01*
X90106027Y-115047251D01*
X90177676Y-115220228D01*
X90177681Y-115220237D01*
X90281697Y-115375907D01*
X90281700Y-115375911D01*
X90414088Y-115508299D01*
X90414092Y-115508302D01*
X90569762Y-115612318D01*
X90569768Y-115612321D01*
X90569769Y-115612322D01*
X90742749Y-115683973D01*
X90926379Y-115720499D01*
X90926383Y-115720500D01*
X90926384Y-115720500D01*
X91113617Y-115720500D01*
X91113618Y-115720499D01*
X91297251Y-115683973D01*
X91470231Y-115612322D01*
X91625908Y-115508302D01*
X91758302Y-115375908D01*
X91862322Y-115220231D01*
X91933973Y-115047251D01*
X91970500Y-114863616D01*
X91970500Y-114676384D01*
X91933973Y-114492749D01*
X91862322Y-114319769D01*
X91862321Y-114319768D01*
X91862318Y-114319762D01*
X91758302Y-114164092D01*
X91758299Y-114164088D01*
X91625911Y-114031700D01*
X91625907Y-114031697D01*
X91470237Y-113927681D01*
X91470232Y-113927679D01*
X91470231Y-113927678D01*
X91440051Y-113915176D01*
X91397046Y-113897363D01*
X91342643Y-113853521D01*
X91320579Y-113787227D01*
X91320500Y-113782802D01*
X91320500Y-110880439D01*
X91317451Y-110869059D01*
X91300021Y-110804011D01*
X91291856Y-110789868D01*
X91260464Y-110735495D01*
X91260458Y-110735487D01*
X90584512Y-110059541D01*
X90584504Y-110059535D01*
X90551484Y-110040471D01*
X90551478Y-110040468D01*
X90542010Y-110035002D01*
X90531412Y-110028883D01*
X90483198Y-109978314D01*
X90469978Y-109909706D01*
X90495948Y-109844842D01*
X90552864Y-109804316D01*
X90561323Y-109801723D01*
X90565887Y-109800500D01*
X90565892Y-109800500D01*
X90693186Y-109766392D01*
X90807314Y-109700500D01*
X90900500Y-109607314D01*
X90966392Y-109493186D01*
X91000500Y-109365892D01*
X91000500Y-109234108D01*
X90966392Y-109106814D01*
X90900500Y-108992686D01*
X90807314Y-108899500D01*
X90747025Y-108864692D01*
X90693187Y-108833608D01*
X90619421Y-108813843D01*
X90565892Y-108799500D01*
X90434108Y-108799500D01*
X90306814Y-108833608D01*
X90306813Y-108833608D01*
X90306811Y-108833609D01*
X90306810Y-108833609D01*
X90218842Y-108884398D01*
X90150942Y-108900871D01*
X90084915Y-108878018D01*
X90069161Y-108864692D01*
X90040404Y-108835935D01*
X89993028Y-108813843D01*
X89933173Y-108785932D01*
X89933171Y-108785931D01*
X89933172Y-108785931D01*
X89884317Y-108779500D01*
X89884316Y-108779500D01*
X89535684Y-108779500D01*
X89535683Y-108779500D01*
X89486828Y-108785931D01*
X89379595Y-108835935D01*
X89288264Y-108927267D01*
X89285440Y-108924443D01*
X89246958Y-108955183D01*
X89177458Y-108962352D01*
X89115114Y-108930808D01*
X89111901Y-108927101D01*
X89111736Y-108927267D01*
X89020404Y-108835935D01*
X88973028Y-108813843D01*
X88913173Y-108785932D01*
X88913171Y-108785931D01*
X88913172Y-108785931D01*
X88864317Y-108779500D01*
X88864316Y-108779500D01*
X88515684Y-108779500D01*
X88515683Y-108779500D01*
X88466828Y-108785931D01*
X88359595Y-108835935D01*
X88275935Y-108919595D01*
X88225931Y-109026828D01*
X88219500Y-109075683D01*
X88219500Y-109524316D01*
X88225931Y-109573170D01*
X88228587Y-109582281D01*
X88226979Y-109582749D01*
X88235500Y-109621182D01*
X88235500Y-109957373D01*
X88223882Y-110009778D01*
X88215933Y-110026823D01*
X88215931Y-110026830D01*
X88209500Y-110075683D01*
X88209500Y-110524316D01*
X88215931Y-110573171D01*
X88223882Y-110590221D01*
X88235500Y-110642626D01*
X88235500Y-110978817D01*
X88226981Y-111017249D01*
X88228587Y-111017717D01*
X88225931Y-111026827D01*
X88219500Y-111075683D01*
X88219500Y-111524316D01*
X88225931Y-111573170D01*
X88228587Y-111582281D01*
X88226979Y-111582749D01*
X88235500Y-111621182D01*
X88235500Y-111978817D01*
X88233865Y-111998885D01*
X88231100Y-112015743D01*
X88225932Y-112026827D01*
X88219500Y-112075684D01*
X88219500Y-112086475D01*
X88217865Y-112096445D01*
X88206926Y-112119197D01*
X88199815Y-112143416D01*
X88188579Y-112157358D01*
X88187591Y-112159415D01*
X88186265Y-112160230D01*
X88183181Y-112164058D01*
X88136311Y-112210927D01*
X88136307Y-112210933D01*
X88081887Y-112305191D01*
X88031320Y-112353407D01*
X87962713Y-112366629D01*
X87897848Y-112340661D01*
X87857320Y-112283747D01*
X87850500Y-112243191D01*
X87850500Y-98368872D01*
X90249500Y-98368872D01*
X90249500Y-98631127D01*
X90270436Y-98790140D01*
X90283730Y-98891116D01*
X90305178Y-98971161D01*
X90351602Y-99144418D01*
X90351605Y-99144428D01*
X90451953Y-99386690D01*
X90451958Y-99386700D01*
X90583075Y-99613803D01*
X90742718Y-99821851D01*
X90742726Y-99821860D01*
X90928140Y-100007274D01*
X90928148Y-100007281D01*
X91136196Y-100166924D01*
X91363299Y-100298041D01*
X91363309Y-100298046D01*
X91605571Y-100398394D01*
X91605581Y-100398398D01*
X91858884Y-100466270D01*
X92118880Y-100500500D01*
X92118887Y-100500500D01*
X92381113Y-100500500D01*
X92381120Y-100500500D01*
X92641116Y-100466270D01*
X92894419Y-100398398D01*
X93136697Y-100298043D01*
X93363803Y-100166924D01*
X93571851Y-100007282D01*
X93571855Y-100007277D01*
X93571860Y-100007274D01*
X93757274Y-99821860D01*
X93757277Y-99821855D01*
X93757282Y-99821851D01*
X93916924Y-99613803D01*
X94048043Y-99386697D01*
X94148398Y-99144419D01*
X94216270Y-98891116D01*
X94250500Y-98631120D01*
X94250500Y-98368880D01*
X94250499Y-98368872D01*
X99124500Y-98368872D01*
X99124500Y-98631127D01*
X99145436Y-98790140D01*
X99158730Y-98891116D01*
X99180178Y-98971161D01*
X99226602Y-99144418D01*
X99226605Y-99144428D01*
X99326953Y-99386690D01*
X99326958Y-99386700D01*
X99458075Y-99613803D01*
X99617718Y-99821851D01*
X99617726Y-99821860D01*
X99803140Y-100007274D01*
X99803148Y-100007281D01*
X100011196Y-100166924D01*
X100238299Y-100298041D01*
X100238309Y-100298046D01*
X100480571Y-100398394D01*
X100480581Y-100398398D01*
X100733884Y-100466270D01*
X100993880Y-100500500D01*
X100993887Y-100500500D01*
X101256113Y-100500500D01*
X101256120Y-100500500D01*
X101516116Y-100466270D01*
X101769419Y-100398398D01*
X102011697Y-100298043D01*
X102238803Y-100166924D01*
X102446851Y-100007282D01*
X102446855Y-100007277D01*
X102446860Y-100007274D01*
X102632274Y-99821860D01*
X102632277Y-99821855D01*
X102632282Y-99821851D01*
X102791924Y-99613803D01*
X102923043Y-99386697D01*
X103023398Y-99144419D01*
X103091270Y-98891116D01*
X103125500Y-98631120D01*
X103125500Y-98368880D01*
X103125499Y-98368872D01*
X107999500Y-98368872D01*
X107999500Y-98631127D01*
X108020436Y-98790140D01*
X108033730Y-98891116D01*
X108055178Y-98971161D01*
X108101602Y-99144418D01*
X108101605Y-99144428D01*
X108201953Y-99386690D01*
X108201958Y-99386700D01*
X108333075Y-99613803D01*
X108492718Y-99821851D01*
X108492726Y-99821860D01*
X108678140Y-100007274D01*
X108678148Y-100007281D01*
X108886196Y-100166924D01*
X109113299Y-100298041D01*
X109113309Y-100298046D01*
X109355571Y-100398394D01*
X109355581Y-100398398D01*
X109608884Y-100466270D01*
X109868880Y-100500500D01*
X109868887Y-100500500D01*
X110131113Y-100500500D01*
X110131120Y-100500500D01*
X110391116Y-100466270D01*
X110644419Y-100398398D01*
X110886697Y-100298043D01*
X111113803Y-100166924D01*
X111321851Y-100007282D01*
X111321855Y-100007277D01*
X111321860Y-100007274D01*
X111507274Y-99821860D01*
X111507277Y-99821855D01*
X111507282Y-99821851D01*
X111666924Y-99613803D01*
X111798043Y-99386697D01*
X111898398Y-99144419D01*
X111966270Y-98891116D01*
X112000500Y-98631120D01*
X112000500Y-98368880D01*
X112000499Y-98368872D01*
X116874500Y-98368872D01*
X116874500Y-98631127D01*
X116895436Y-98790140D01*
X116908730Y-98891116D01*
X116930178Y-98971161D01*
X116976602Y-99144418D01*
X116976605Y-99144428D01*
X117076953Y-99386690D01*
X117076958Y-99386700D01*
X117208075Y-99613803D01*
X117367718Y-99821851D01*
X117367726Y-99821860D01*
X117553140Y-100007274D01*
X117553148Y-100007281D01*
X117761196Y-100166924D01*
X117988299Y-100298041D01*
X117988309Y-100298046D01*
X118230571Y-100398394D01*
X118230581Y-100398398D01*
X118483884Y-100466270D01*
X118743880Y-100500500D01*
X118743887Y-100500500D01*
X119006113Y-100500500D01*
X119006120Y-100500500D01*
X119266116Y-100466270D01*
X119519419Y-100398398D01*
X119761697Y-100298043D01*
X119988803Y-100166924D01*
X120196851Y-100007282D01*
X120196855Y-100007277D01*
X120196860Y-100007274D01*
X120382274Y-99821860D01*
X120382277Y-99821855D01*
X120382282Y-99821851D01*
X120541924Y-99613803D01*
X120673043Y-99386697D01*
X120773398Y-99144419D01*
X120841270Y-98891116D01*
X120875500Y-98631120D01*
X120875500Y-98368880D01*
X120841270Y-98108884D01*
X120773398Y-97855581D01*
X120675204Y-97618520D01*
X120673046Y-97613309D01*
X120673041Y-97613299D01*
X120541924Y-97386196D01*
X120382281Y-97178148D01*
X120382274Y-97178140D01*
X120196860Y-96992726D01*
X120196851Y-96992718D01*
X119988803Y-96833075D01*
X119761700Y-96701958D01*
X119761690Y-96701953D01*
X119519428Y-96601605D01*
X119519421Y-96601603D01*
X119519419Y-96601602D01*
X119266116Y-96533730D01*
X119208339Y-96526123D01*
X119006127Y-96499500D01*
X119006120Y-96499500D01*
X118743880Y-96499500D01*
X118743872Y-96499500D01*
X118512772Y-96529926D01*
X118483884Y-96533730D01*
X118230581Y-96601602D01*
X118230571Y-96601605D01*
X117988309Y-96701953D01*
X117988299Y-96701958D01*
X117761196Y-96833075D01*
X117553148Y-96992718D01*
X117367718Y-97178148D01*
X117208075Y-97386196D01*
X117076958Y-97613299D01*
X117076953Y-97613309D01*
X116976605Y-97855571D01*
X116976602Y-97855581D01*
X116908730Y-98108885D01*
X116874500Y-98368872D01*
X112000499Y-98368872D01*
X111966270Y-98108884D01*
X111898398Y-97855581D01*
X111800204Y-97618520D01*
X111798046Y-97613309D01*
X111798041Y-97613299D01*
X111666924Y-97386196D01*
X111507281Y-97178148D01*
X111507274Y-97178140D01*
X111321860Y-96992726D01*
X111321851Y-96992718D01*
X111113803Y-96833075D01*
X110886700Y-96701958D01*
X110886690Y-96701953D01*
X110644428Y-96601605D01*
X110644421Y-96601603D01*
X110644419Y-96601602D01*
X110391116Y-96533730D01*
X110333339Y-96526123D01*
X110131127Y-96499500D01*
X110131120Y-96499500D01*
X109868880Y-96499500D01*
X109868872Y-96499500D01*
X109637772Y-96529926D01*
X109608884Y-96533730D01*
X109355581Y-96601602D01*
X109355571Y-96601605D01*
X109113309Y-96701953D01*
X109113299Y-96701958D01*
X108886196Y-96833075D01*
X108678148Y-96992718D01*
X108492718Y-97178148D01*
X108333075Y-97386196D01*
X108201958Y-97613299D01*
X108201953Y-97613309D01*
X108101605Y-97855571D01*
X108101602Y-97855581D01*
X108033730Y-98108885D01*
X107999500Y-98368872D01*
X103125499Y-98368872D01*
X103091270Y-98108884D01*
X103023398Y-97855581D01*
X102925204Y-97618520D01*
X102923046Y-97613309D01*
X102923041Y-97613299D01*
X102791924Y-97386196D01*
X102632281Y-97178148D01*
X102632274Y-97178140D01*
X102446860Y-96992726D01*
X102446851Y-96992718D01*
X102238803Y-96833075D01*
X102011700Y-96701958D01*
X102011690Y-96701953D01*
X101769428Y-96601605D01*
X101769421Y-96601603D01*
X101769419Y-96601602D01*
X101516116Y-96533730D01*
X101458339Y-96526123D01*
X101256127Y-96499500D01*
X101256120Y-96499500D01*
X100993880Y-96499500D01*
X100993872Y-96499500D01*
X100762772Y-96529926D01*
X100733884Y-96533730D01*
X100480581Y-96601602D01*
X100480571Y-96601605D01*
X100238309Y-96701953D01*
X100238299Y-96701958D01*
X100011196Y-96833075D01*
X99803148Y-96992718D01*
X99617718Y-97178148D01*
X99458075Y-97386196D01*
X99326958Y-97613299D01*
X99326953Y-97613309D01*
X99226605Y-97855571D01*
X99226602Y-97855581D01*
X99158730Y-98108885D01*
X99124500Y-98368872D01*
X94250499Y-98368872D01*
X94216270Y-98108884D01*
X94148398Y-97855581D01*
X94050204Y-97618520D01*
X94048046Y-97613309D01*
X94048041Y-97613299D01*
X93916924Y-97386196D01*
X93757281Y-97178148D01*
X93757274Y-97178140D01*
X93571860Y-96992726D01*
X93571851Y-96992718D01*
X93363803Y-96833075D01*
X93136700Y-96701958D01*
X93136690Y-96701953D01*
X92894428Y-96601605D01*
X92894421Y-96601603D01*
X92894419Y-96601602D01*
X92641116Y-96533730D01*
X92583339Y-96526123D01*
X92381127Y-96499500D01*
X92381120Y-96499500D01*
X92118880Y-96499500D01*
X92118872Y-96499500D01*
X91887772Y-96529926D01*
X91858884Y-96533730D01*
X91605581Y-96601602D01*
X91605571Y-96601605D01*
X91363309Y-96701953D01*
X91363299Y-96701958D01*
X91136196Y-96833075D01*
X90928148Y-96992718D01*
X90742718Y-97178148D01*
X90583075Y-97386196D01*
X90451958Y-97613299D01*
X90451953Y-97613309D01*
X90351605Y-97855571D01*
X90351602Y-97855581D01*
X90283730Y-98108885D01*
X90249500Y-98368872D01*
X87850500Y-98368872D01*
X87850500Y-96024500D01*
X87870185Y-95957461D01*
X87922989Y-95911706D01*
X87974500Y-95900500D01*
X132175500Y-95900500D01*
X132242539Y-95920185D01*
G37*
%TD.AperFunction*%
%TA.AperFunction,Conductor*%
G36*
X106682922Y-116840185D02*
G01*
X106703564Y-116856819D01*
X107759681Y-117912936D01*
X107793166Y-117974259D01*
X107796000Y-118000617D01*
X107796000Y-120418203D01*
X107817841Y-120499717D01*
X107860036Y-120572800D01*
X107860038Y-120572802D01*
X107926773Y-120639537D01*
X107926779Y-120639542D01*
X109379687Y-122092450D01*
X109379697Y-122092461D01*
X109384028Y-122096792D01*
X109443700Y-122156464D01*
X109516783Y-122198659D01*
X109598297Y-122220500D01*
X109682686Y-122220500D01*
X111101936Y-122220500D01*
X111168975Y-122240185D01*
X111214730Y-122292989D01*
X111224674Y-122362147D01*
X111213256Y-122391930D01*
X111215806Y-122392987D01*
X111211131Y-122404270D01*
X111199500Y-122462747D01*
X111199500Y-122956667D01*
X111179815Y-123023706D01*
X111163181Y-123044348D01*
X110859541Y-123347987D01*
X110859535Y-123347995D01*
X110819982Y-123416504D01*
X110819979Y-123416509D01*
X110799500Y-123492939D01*
X110799500Y-123866660D01*
X110779815Y-123933699D01*
X110727011Y-123979454D01*
X110657853Y-123989398D01*
X110651309Y-123988277D01*
X110619752Y-123982000D01*
X110619748Y-123982000D01*
X109180252Y-123982000D01*
X109180247Y-123982000D01*
X109121770Y-123993631D01*
X109121769Y-123993632D01*
X109055447Y-124037947D01*
X109011132Y-124104269D01*
X109011131Y-124104270D01*
X108999500Y-124162747D01*
X108999500Y-125402252D01*
X109011131Y-125460729D01*
X109011132Y-125460730D01*
X109055447Y-125527052D01*
X109121769Y-125571367D01*
X109133054Y-125576042D01*
X109132091Y-125578365D01*
X109178750Y-125602772D01*
X109213324Y-125663488D01*
X109209583Y-125733258D01*
X109168717Y-125789930D01*
X109148943Y-125802488D01*
X109106780Y-125823971D01*
X109106773Y-125823976D01*
X109011475Y-125919274D01*
X109011472Y-125919278D01*
X108950278Y-126039378D01*
X108934499Y-126139006D01*
X108934499Y-126705993D01*
X108950278Y-126805621D01*
X108950279Y-126805624D01*
X108950280Y-126805626D01*
X108999905Y-126903020D01*
X109011472Y-126925721D01*
X109011475Y-126925725D01*
X109106773Y-127021023D01*
X109106775Y-127021024D01*
X109106779Y-127021028D01*
X109187221Y-127062015D01*
X109238017Y-127109990D01*
X109254812Y-127177811D01*
X109232274Y-127243946D01*
X109187221Y-127282984D01*
X109106779Y-127323972D01*
X109106778Y-127323973D01*
X109106773Y-127323976D01*
X109011475Y-127419274D01*
X109011472Y-127419278D01*
X109011471Y-127419280D01*
X108952045Y-127535911D01*
X108950278Y-127539378D01*
X108934499Y-127639006D01*
X108934499Y-128205993D01*
X108950278Y-128305621D01*
X108950279Y-128305624D01*
X108950280Y-128305626D01*
X109011471Y-128425720D01*
X109011472Y-128425721D01*
X109011475Y-128425725D01*
X109106773Y-128521023D01*
X109106777Y-128521026D01*
X109106779Y-128521028D01*
X109226873Y-128582219D01*
X109226875Y-128582219D01*
X109226877Y-128582220D01*
X109269298Y-128588939D01*
X109332433Y-128618868D01*
X109369365Y-128678179D01*
X109368367Y-128748042D01*
X109362283Y-128763817D01*
X109316026Y-128863014D01*
X109309499Y-128912598D01*
X109309499Y-129332394D01*
X109309500Y-129332400D01*
X109316027Y-129381987D01*
X109366775Y-129490816D01*
X109451683Y-129575724D01*
X109560512Y-129626472D01*
X109610098Y-129633000D01*
X109753453Y-129632999D01*
X109820493Y-129652683D01*
X109841135Y-129669318D01*
X110052287Y-129880470D01*
X110132211Y-129926614D01*
X110221355Y-129950500D01*
X110221357Y-129950500D01*
X111947880Y-129950500D01*
X111947882Y-129950500D01*
X112037026Y-129926614D01*
X112116950Y-129880470D01*
X112787818Y-129209602D01*
X112849141Y-129176117D01*
X112918833Y-129181101D01*
X112974766Y-129222973D01*
X112999183Y-129288437D01*
X112999499Y-129297283D01*
X112999499Y-130485956D01*
X112979814Y-130552995D01*
X112963180Y-130573637D01*
X112761136Y-130775681D01*
X112699813Y-130809166D01*
X112673455Y-130812000D01*
X109610104Y-130812000D01*
X109594385Y-130814069D01*
X109560512Y-130818528D01*
X109560510Y-130818529D01*
X109560508Y-130818529D01*
X109451682Y-130869276D01*
X109366775Y-130954183D01*
X109316026Y-131063014D01*
X109309499Y-131112598D01*
X109309499Y-131275954D01*
X109302303Y-131300458D01*
X109299044Y-131325788D01*
X109291718Y-131336508D01*
X109289814Y-131342993D01*
X109280405Y-131355759D01*
X109276958Y-131359858D01*
X109179529Y-131457288D01*
X109145567Y-131516112D01*
X109138541Y-131524468D01*
X109136133Y-131526066D01*
X109131317Y-131532343D01*
X109052028Y-131611633D01*
X109016600Y-131672998D01*
X109016600Y-131672999D01*
X109005886Y-131691555D01*
X109005885Y-131691558D01*
X108981999Y-131780702D01*
X108981999Y-131897389D01*
X108962314Y-131964428D01*
X108945680Y-131985070D01*
X108911475Y-132019274D01*
X108911472Y-132019278D01*
X108850278Y-132139378D01*
X108834499Y-132239006D01*
X108834499Y-132805993D01*
X108850278Y-132905621D01*
X108850279Y-132905624D01*
X108850280Y-132905626D01*
X108911471Y-133025720D01*
X108911472Y-133025721D01*
X108911475Y-133025725D01*
X109006773Y-133121023D01*
X109006777Y-133121026D01*
X109006779Y-133121028D01*
X109126873Y-133182219D01*
X109126875Y-133182219D01*
X109126877Y-133182220D01*
X109226506Y-133198000D01*
X109226511Y-133198000D01*
X109743492Y-133198000D01*
X109843120Y-133182220D01*
X109843120Y-133182219D01*
X109843125Y-133182219D01*
X109963219Y-133121028D01*
X110058527Y-133025720D01*
X110119718Y-132905626D01*
X110119719Y-132905621D01*
X110135499Y-132805993D01*
X110135499Y-132239006D01*
X110119719Y-132139378D01*
X110119718Y-132139376D01*
X110119718Y-132139374D01*
X110058527Y-132019280D01*
X110058525Y-132019278D01*
X110058522Y-132019274D01*
X110039841Y-132000593D01*
X110006356Y-131939270D01*
X110011340Y-131869578D01*
X110052287Y-131814344D01*
X110062952Y-131806203D01*
X110128315Y-131775724D01*
X110210317Y-131693721D01*
X110216899Y-131688698D01*
X110242090Y-131679032D01*
X110265775Y-131666100D01*
X110274223Y-131666704D01*
X110282132Y-131663670D01*
X110308552Y-131669159D01*
X110335467Y-131671084D01*
X110342247Y-131676159D01*
X110350541Y-131677883D01*
X110369799Y-131696784D01*
X110391401Y-131712955D01*
X110394361Y-131720891D01*
X110400406Y-131726824D01*
X110406387Y-131753135D01*
X110415818Y-131778419D01*
X110414713Y-131789758D01*
X110415895Y-131794955D01*
X110413587Y-131801323D01*
X110412919Y-131808178D01*
X110413489Y-131808245D01*
X110409499Y-131842631D01*
X110409499Y-133357356D01*
X110409501Y-133357382D01*
X110412412Y-133382487D01*
X110412414Y-133382491D01*
X110457792Y-133485264D01*
X110457793Y-133485265D01*
X110537234Y-133564706D01*
X110640008Y-133610085D01*
X110665134Y-133613000D01*
X110954863Y-133612999D01*
X110954878Y-133612997D01*
X110954881Y-133612997D01*
X110979986Y-133610086D01*
X110979986Y-133610085D01*
X110979990Y-133610085D01*
X111077416Y-133567067D01*
X111146689Y-133557996D01*
X111177580Y-133567066D01*
X111275008Y-133610085D01*
X111300134Y-133613000D01*
X111589863Y-133612999D01*
X111589878Y-133612997D01*
X111589881Y-133612997D01*
X111614986Y-133610086D01*
X111614986Y-133610085D01*
X111614990Y-133610085D01*
X111712416Y-133567067D01*
X111781689Y-133557996D01*
X111812580Y-133567066D01*
X111910008Y-133610085D01*
X111935134Y-133613000D01*
X112224863Y-133612999D01*
X112224878Y-133612997D01*
X112224881Y-133612997D01*
X112249986Y-133610086D01*
X112249986Y-133610085D01*
X112249990Y-133610085D01*
X112347416Y-133567067D01*
X112416689Y-133557996D01*
X112447580Y-133567066D01*
X112545008Y-133610085D01*
X112570134Y-133613000D01*
X112859863Y-133612999D01*
X112859878Y-133612997D01*
X112859881Y-133612997D01*
X112884986Y-133610086D01*
X112884986Y-133610085D01*
X112884990Y-133610085D01*
X112982416Y-133567067D01*
X113015558Y-133562727D01*
X113048597Y-133557551D01*
X113050665Y-133558130D01*
X113051689Y-133557996D01*
X113082575Y-133567064D01*
X113109588Y-133578991D01*
X113162961Y-133624075D01*
X113183489Y-133690861D01*
X113183499Y-133692424D01*
X113183499Y-134072668D01*
X113163814Y-134139707D01*
X113147180Y-134160349D01*
X112992181Y-134315348D01*
X112930858Y-134348833D01*
X112861166Y-134343849D01*
X112805233Y-134301977D01*
X112780816Y-134236513D01*
X112780500Y-134227667D01*
X112780500Y-134208183D01*
X112776268Y-134176036D01*
X112774068Y-134159327D01*
X112724065Y-134052096D01*
X112640404Y-133968435D01*
X112533173Y-133918432D01*
X112533171Y-133918431D01*
X112533172Y-133918431D01*
X112484317Y-133912000D01*
X112484316Y-133912000D01*
X112135684Y-133912000D01*
X112135683Y-133912000D01*
X112086828Y-133918431D01*
X111979595Y-133968435D01*
X111888264Y-134059767D01*
X111885440Y-134056943D01*
X111846958Y-134087683D01*
X111777458Y-134094852D01*
X111715114Y-134063308D01*
X111711901Y-134059601D01*
X111711736Y-134059767D01*
X111620404Y-133968435D01*
X111600872Y-133959327D01*
X111513173Y-133918432D01*
X111513171Y-133918431D01*
X111513172Y-133918431D01*
X111464317Y-133912000D01*
X111464316Y-133912000D01*
X111115684Y-133912000D01*
X111115683Y-133912000D01*
X111066828Y-133918431D01*
X110959595Y-133968435D01*
X110875935Y-134052095D01*
X110871013Y-134059125D01*
X110816435Y-134102749D01*
X110775839Y-134110739D01*
X110775866Y-134110938D01*
X110772737Y-134111349D01*
X110769440Y-134111999D01*
X110767803Y-134111999D01*
X110686292Y-134133838D01*
X110686290Y-134133839D01*
X110655405Y-134151670D01*
X110655406Y-134151671D01*
X110613206Y-134176036D01*
X110583371Y-134205872D01*
X110553535Y-134235708D01*
X110553533Y-134235710D01*
X110397061Y-134392182D01*
X110335740Y-134425666D01*
X110309382Y-134428500D01*
X107892626Y-134428500D01*
X107825587Y-134408815D01*
X107804945Y-134392181D01*
X104440319Y-131027555D01*
X104406834Y-130966232D01*
X104404000Y-130939874D01*
X104404000Y-123204180D01*
X104404001Y-123204167D01*
X104404001Y-123109790D01*
X104382159Y-123028275D01*
X104382159Y-123028274D01*
X104339966Y-122955194D01*
X104339965Y-122955193D01*
X104339964Y-122955191D01*
X104280292Y-122895519D01*
X104280291Y-122895518D01*
X104275961Y-122891188D01*
X104275950Y-122891178D01*
X103411551Y-122026779D01*
X103411549Y-122026776D01*
X103344811Y-121960038D01*
X103344809Y-121960036D01*
X103271726Y-121917841D01*
X103190213Y-121896000D01*
X103190212Y-121896000D01*
X101781797Y-121896000D01*
X101781795Y-121896000D01*
X101700282Y-121917841D01*
X101627200Y-121960036D01*
X101627197Y-121960038D01*
X100793538Y-122793697D01*
X100793536Y-122793700D01*
X100751341Y-122866782D01*
X100729500Y-122948295D01*
X100729500Y-123695927D01*
X100709815Y-123762966D01*
X100657011Y-123808721D01*
X100587853Y-123818665D01*
X100524297Y-123789640D01*
X100517819Y-123783608D01*
X100385911Y-123651700D01*
X100385907Y-123651697D01*
X100230237Y-123547681D01*
X100230228Y-123547676D01*
X100057251Y-123476027D01*
X100057243Y-123476025D01*
X99873620Y-123439500D01*
X99873616Y-123439500D01*
X99686384Y-123439500D01*
X99684500Y-123439500D01*
X99617461Y-123419815D01*
X99571706Y-123367011D01*
X99560500Y-123315500D01*
X99560500Y-121675022D01*
X99580185Y-121607983D01*
X99596819Y-121587341D01*
X99768931Y-121415229D01*
X99921634Y-121205051D01*
X100039579Y-120973572D01*
X100055657Y-120924086D01*
X100095094Y-120866412D01*
X100159453Y-120839214D01*
X100228299Y-120851129D01*
X100276690Y-120893516D01*
X100311694Y-120945903D01*
X100311700Y-120945911D01*
X100444088Y-121078299D01*
X100444092Y-121078302D01*
X100599762Y-121182318D01*
X100599768Y-121182321D01*
X100599769Y-121182322D01*
X100772749Y-121253973D01*
X100956379Y-121290499D01*
X100956383Y-121290500D01*
X100956384Y-121290500D01*
X101143617Y-121290500D01*
X101143618Y-121290499D01*
X101327251Y-121253973D01*
X101500231Y-121182322D01*
X101655908Y-121078302D01*
X101788302Y-120945908D01*
X101892322Y-120790231D01*
X101963973Y-120617251D01*
X102000500Y-120433616D01*
X102000500Y-120246384D01*
X101963973Y-120062749D01*
X101892322Y-119889769D01*
X101892321Y-119889768D01*
X101892318Y-119889762D01*
X101788302Y-119734092D01*
X101788299Y-119734088D01*
X101655911Y-119601700D01*
X101655907Y-119601697D01*
X101500237Y-119497681D01*
X101500227Y-119497676D01*
X101447047Y-119475648D01*
X101392644Y-119431807D01*
X101370579Y-119365512D01*
X101370500Y-119361087D01*
X101370500Y-118482934D01*
X101390185Y-118415895D01*
X101442989Y-118370140D01*
X101512147Y-118360196D01*
X101575703Y-118389221D01*
X101590358Y-118404275D01*
X101591702Y-118405913D01*
X101724088Y-118538299D01*
X101724092Y-118538302D01*
X101879762Y-118642318D01*
X101879768Y-118642321D01*
X101879769Y-118642322D01*
X102052749Y-118713973D01*
X102236379Y-118750499D01*
X102236383Y-118750500D01*
X102236384Y-118750500D01*
X102423617Y-118750500D01*
X102423618Y-118750499D01*
X102607251Y-118713973D01*
X102780231Y-118642322D01*
X102935908Y-118538302D01*
X103068302Y-118405908D01*
X103172322Y-118250231D01*
X103243973Y-118077251D01*
X103280500Y-117893616D01*
X103280500Y-117706384D01*
X103243973Y-117522749D01*
X103172322Y-117349769D01*
X103172321Y-117349768D01*
X103172318Y-117349762D01*
X103068302Y-117194092D01*
X103068299Y-117194088D01*
X102935910Y-117061699D01*
X102914813Y-117047603D01*
X102870007Y-116993991D01*
X102861300Y-116924666D01*
X102891454Y-116861638D01*
X102950897Y-116824918D01*
X102983703Y-116820500D01*
X106615883Y-116820500D01*
X106682922Y-116840185D01*
G37*
%TD.AperFunction*%
%TA.AperFunction,Conductor*%
G36*
X112329814Y-117215673D02*
G01*
X112343147Y-117213757D01*
X112363290Y-117222956D01*
X112384927Y-117227663D01*
X112402652Y-117240931D01*
X112406703Y-117242782D01*
X112413181Y-117248814D01*
X112480342Y-117315975D01*
X112652405Y-117430943D01*
X112749250Y-117471057D01*
X112831907Y-117505294D01*
X112881832Y-117545526D01*
X112882987Y-117544641D01*
X112887937Y-117551092D01*
X113799181Y-118462336D01*
X113832666Y-118523659D01*
X113835500Y-118550017D01*
X113835500Y-119155054D01*
X113835500Y-119241286D01*
X113841792Y-119264768D01*
X113857819Y-119324580D01*
X113900934Y-119399258D01*
X113900936Y-119399261D01*
X118199181Y-123697506D01*
X118232666Y-123758829D01*
X118235500Y-123785187D01*
X118235500Y-133547313D01*
X118215815Y-133614352D01*
X118199181Y-133634994D01*
X117931338Y-133902836D01*
X117870015Y-133936321D01*
X117800323Y-133931337D01*
X117744390Y-133889465D01*
X117731276Y-133867561D01*
X117724065Y-133852096D01*
X117640404Y-133768435D01*
X117533173Y-133718432D01*
X117533171Y-133718431D01*
X117533172Y-133718431D01*
X117484317Y-133712000D01*
X117484316Y-133712000D01*
X117135684Y-133712000D01*
X117135683Y-133712000D01*
X117086828Y-133718431D01*
X116979595Y-133768435D01*
X116888264Y-133859767D01*
X116885440Y-133856943D01*
X116846958Y-133887683D01*
X116777458Y-133894852D01*
X116715114Y-133863308D01*
X116711901Y-133859601D01*
X116711736Y-133859767D01*
X116620404Y-133768435D01*
X116513173Y-133718432D01*
X116513171Y-133718431D01*
X116513172Y-133718431D01*
X116464317Y-133712000D01*
X116464316Y-133712000D01*
X116115684Y-133712000D01*
X116115683Y-133712000D01*
X116066828Y-133718431D01*
X115959595Y-133768435D01*
X115875935Y-133852095D01*
X115825931Y-133959328D01*
X115819500Y-134008183D01*
X115819500Y-134027667D01*
X115813261Y-134048912D01*
X115811682Y-134071001D01*
X115803609Y-134081784D01*
X115799815Y-134094706D01*
X115783081Y-134109205D01*
X115769810Y-134126934D01*
X115757189Y-134131641D01*
X115747011Y-134140461D01*
X115725093Y-134143612D01*
X115704346Y-134151351D01*
X115691185Y-134148488D01*
X115677853Y-134150405D01*
X115657709Y-134141205D01*
X115636073Y-134136499D01*
X115618347Y-134123230D01*
X115614297Y-134121380D01*
X115607819Y-134115348D01*
X115457818Y-133965347D01*
X115424333Y-133904024D01*
X115421499Y-133877666D01*
X115421499Y-133692424D01*
X115441184Y-133625385D01*
X115493988Y-133579630D01*
X115495304Y-133579038D01*
X115527764Y-133564706D01*
X115607205Y-133485265D01*
X115652584Y-133382491D01*
X115655499Y-133357365D01*
X115655498Y-131842636D01*
X115655496Y-131842617D01*
X115652585Y-131817512D01*
X115652584Y-131817510D01*
X115652584Y-131817509D01*
X115607205Y-131714735D01*
X115527764Y-131635294D01*
X115477683Y-131613181D01*
X115424991Y-131589915D01*
X115399864Y-131587000D01*
X115110142Y-131587000D01*
X115110116Y-131587002D01*
X115085011Y-131589913D01*
X115085007Y-131589915D01*
X114987585Y-131632931D01*
X114918307Y-131642003D01*
X114887413Y-131632931D01*
X114789994Y-131589916D01*
X114789990Y-131589915D01*
X114764864Y-131587000D01*
X114475142Y-131587000D01*
X114475116Y-131587002D01*
X114450011Y-131589913D01*
X114450007Y-131589915D01*
X114352585Y-131632931D01*
X114283307Y-131642003D01*
X114252413Y-131632931D01*
X114154994Y-131589916D01*
X114154990Y-131589915D01*
X114129864Y-131587000D01*
X113840142Y-131587000D01*
X113840116Y-131587002D01*
X113815011Y-131589913D01*
X113815007Y-131589915D01*
X113717585Y-131632931D01*
X113648307Y-131642003D01*
X113617413Y-131632931D01*
X113519994Y-131589916D01*
X113519990Y-131589915D01*
X113494867Y-131587000D01*
X113240542Y-131587000D01*
X113173503Y-131567315D01*
X113127748Y-131514511D01*
X113117804Y-131445353D01*
X113146829Y-131381797D01*
X113152847Y-131375333D01*
X113630469Y-130897712D01*
X113676613Y-130817788D01*
X113700499Y-130728643D01*
X113700499Y-130636356D01*
X113700499Y-129874500D01*
X113720184Y-129807461D01*
X113772988Y-129761706D01*
X113824499Y-129750500D01*
X116046142Y-129750500D01*
X116046144Y-129750500D01*
X116135288Y-129726614D01*
X116215212Y-129680470D01*
X116780470Y-129115212D01*
X116826614Y-129035288D01*
X116850500Y-128946144D01*
X116850500Y-128853856D01*
X116850500Y-123353856D01*
X116826614Y-123264712D01*
X116816383Y-123246991D01*
X116780470Y-123184788D01*
X112237819Y-118642137D01*
X112204334Y-118580814D01*
X112201500Y-118554456D01*
X112201500Y-117336495D01*
X112207738Y-117315249D01*
X112209318Y-117293161D01*
X112217390Y-117282377D01*
X112221185Y-117269456D01*
X112237918Y-117254956D01*
X112251190Y-117237228D01*
X112263810Y-117232520D01*
X112273989Y-117223701D01*
X112295906Y-117220549D01*
X112316654Y-117212811D01*
X112329814Y-117215673D01*
G37*
%TD.AperFunction*%
%TA.AperFunction,Conductor*%
G36*
X113205703Y-122618912D02*
G01*
X113212181Y-122624944D01*
X113761180Y-123173943D01*
X113794665Y-123235266D01*
X113797499Y-123261624D01*
X113797499Y-125789131D01*
X113777814Y-125856170D01*
X113761180Y-125876812D01*
X113728537Y-125909454D01*
X113728535Y-125909457D01*
X113686340Y-125982539D01*
X113664499Y-126064052D01*
X113664499Y-126192462D01*
X113644814Y-126259501D01*
X113592010Y-126305256D01*
X113526210Y-126315636D01*
X113494867Y-126312000D01*
X113205142Y-126312000D01*
X113205116Y-126312002D01*
X113180011Y-126314913D01*
X113180007Y-126314915D01*
X113082585Y-126357931D01*
X113013307Y-126367003D01*
X112982413Y-126357931D01*
X112884994Y-126314916D01*
X112884990Y-126314915D01*
X112859864Y-126312000D01*
X112570142Y-126312000D01*
X112570116Y-126312002D01*
X112545011Y-126314913D01*
X112545007Y-126314915D01*
X112442234Y-126360293D01*
X112362793Y-126439734D01*
X112317414Y-126542506D01*
X112317414Y-126542508D01*
X112314499Y-126567631D01*
X112314499Y-128082356D01*
X112314501Y-128082382D01*
X112317412Y-128107487D01*
X112317413Y-128107491D01*
X112353933Y-128190199D01*
X112364499Y-128240285D01*
X112364499Y-128590195D01*
X112344814Y-128657234D01*
X112328180Y-128677876D01*
X111792875Y-129213181D01*
X111731552Y-129246666D01*
X111705194Y-129249500D01*
X110464043Y-129249500D01*
X110434602Y-129240855D01*
X110404616Y-129234332D01*
X110399600Y-129230577D01*
X110397004Y-129229815D01*
X110376362Y-129213181D01*
X110306817Y-129143636D01*
X110273332Y-129082313D01*
X110270498Y-129055955D01*
X110270498Y-128912605D01*
X110270498Y-128912600D01*
X110263971Y-128863013D01*
X110213223Y-128754184D01*
X110176818Y-128717779D01*
X110162114Y-128690851D01*
X110145522Y-128665033D01*
X110144630Y-128658832D01*
X110143333Y-128656456D01*
X110140499Y-128630098D01*
X110140499Y-128490822D01*
X110156676Y-128435729D01*
X110154096Y-128434415D01*
X110158525Y-128425721D01*
X110158527Y-128425720D01*
X110219718Y-128305626D01*
X110227964Y-128253561D01*
X110257892Y-128190429D01*
X110317203Y-128153497D01*
X110387066Y-128154493D01*
X110445299Y-128193103D01*
X110452737Y-128202883D01*
X110457791Y-128210262D01*
X110457793Y-128210265D01*
X110537234Y-128289706D01*
X110640008Y-128335085D01*
X110665134Y-128338000D01*
X110954863Y-128337999D01*
X110954878Y-128337997D01*
X110954881Y-128337997D01*
X110979986Y-128335086D01*
X110979986Y-128335085D01*
X110979990Y-128335085D01*
X111077416Y-128292067D01*
X111146689Y-128282996D01*
X111177580Y-128292066D01*
X111275008Y-128335085D01*
X111300134Y-128338000D01*
X111589863Y-128337999D01*
X111589878Y-128337997D01*
X111589881Y-128337997D01*
X111614986Y-128335086D01*
X111614987Y-128335085D01*
X111614990Y-128335085D01*
X111717764Y-128289706D01*
X111797205Y-128210265D01*
X111842584Y-128107491D01*
X111845499Y-128082365D01*
X111845498Y-126567636D01*
X111842700Y-126543506D01*
X111842585Y-126542512D01*
X111842584Y-126542510D01*
X111842584Y-126542509D01*
X111797205Y-126439735D01*
X111717764Y-126360294D01*
X111635765Y-126324088D01*
X111619810Y-126317043D01*
X111614312Y-126313276D01*
X111610470Y-126312441D01*
X111582216Y-126291290D01*
X111436819Y-126145893D01*
X111403334Y-126084570D01*
X111400500Y-126058212D01*
X111400500Y-124007000D01*
X111420185Y-123939961D01*
X111472989Y-123894206D01*
X111524500Y-123883000D01*
X112819750Y-123883000D01*
X112819751Y-123882999D01*
X112834568Y-123880052D01*
X112878229Y-123871368D01*
X112878229Y-123871367D01*
X112878231Y-123871367D01*
X112944552Y-123827052D01*
X112988867Y-123760731D01*
X112988867Y-123760729D01*
X112988868Y-123760729D01*
X113000499Y-123702252D01*
X113000500Y-123702250D01*
X113000500Y-122712625D01*
X113020185Y-122645586D01*
X113072989Y-122599831D01*
X113142147Y-122589887D01*
X113205703Y-122618912D01*
G37*
%TD.AperFunction*%
%TA.AperFunction,Conductor*%
G36*
X109603083Y-109870185D02*
G01*
X109648838Y-109922989D01*
X109658782Y-109992147D01*
X109650605Y-110021953D01*
X109589870Y-110168579D01*
X109589868Y-110168587D01*
X109549500Y-110371530D01*
X109549500Y-110828469D01*
X109589868Y-111031412D01*
X109589870Y-111031420D01*
X109630847Y-111130348D01*
X109669059Y-111222598D01*
X109784023Y-111394655D01*
X109863182Y-111473814D01*
X109896666Y-111535135D01*
X109899500Y-111561494D01*
X109899500Y-112331006D01*
X109899500Y-112468994D01*
X109899500Y-112468996D01*
X109899499Y-112468996D01*
X109926418Y-112604322D01*
X109926421Y-112604332D01*
X109979222Y-112731807D01*
X110055887Y-112846545D01*
X111253454Y-114044112D01*
X111253457Y-114044114D01*
X111368189Y-114120775D01*
X111393537Y-114131274D01*
X111423952Y-114143873D01*
X111478356Y-114187713D01*
X111500421Y-114254007D01*
X111500500Y-114258434D01*
X111500500Y-118797144D01*
X111510215Y-118833400D01*
X111524386Y-118886289D01*
X111524387Y-118886290D01*
X111570527Y-118966208D01*
X111570531Y-118966213D01*
X116113181Y-123508863D01*
X116146666Y-123570186D01*
X116149500Y-123596544D01*
X116149500Y-128703456D01*
X116129815Y-128770495D01*
X116113181Y-128791137D01*
X115891137Y-129013181D01*
X115829814Y-129046666D01*
X115803456Y-129049500D01*
X113824499Y-129049500D01*
X113757460Y-129029815D01*
X113711705Y-128977011D01*
X113700499Y-128925500D01*
X113700499Y-128461018D01*
X113720184Y-128393979D01*
X113772988Y-128348224D01*
X113836528Y-128338202D01*
X113836552Y-128337793D01*
X113838433Y-128337901D01*
X113838793Y-128337845D01*
X113839667Y-128337945D01*
X113840134Y-128338000D01*
X114129863Y-128337999D01*
X114129878Y-128337997D01*
X114129881Y-128337997D01*
X114154986Y-128335086D01*
X114154986Y-128335085D01*
X114154990Y-128335085D01*
X114252416Y-128292067D01*
X114321689Y-128282996D01*
X114352580Y-128292066D01*
X114450008Y-128335085D01*
X114475134Y-128338000D01*
X114764863Y-128337999D01*
X114764878Y-128337997D01*
X114764881Y-128337997D01*
X114789986Y-128335086D01*
X114789986Y-128335085D01*
X114789990Y-128335085D01*
X114887416Y-128292067D01*
X114956689Y-128282996D01*
X114987580Y-128292066D01*
X115085008Y-128335085D01*
X115110134Y-128338000D01*
X115399863Y-128337999D01*
X115399878Y-128337997D01*
X115399881Y-128337997D01*
X115424986Y-128335086D01*
X115424987Y-128335085D01*
X115424990Y-128335085D01*
X115527764Y-128289706D01*
X115607205Y-128210265D01*
X115652584Y-128107491D01*
X115655499Y-128082365D01*
X115655498Y-126567636D01*
X115652700Y-126543506D01*
X115652585Y-126542512D01*
X115652584Y-126542510D01*
X115652584Y-126542509D01*
X115607205Y-126439735D01*
X115527764Y-126360294D01*
X115495192Y-126345912D01*
X115424991Y-126314915D01*
X115399864Y-126312000D01*
X115110142Y-126312000D01*
X115110133Y-126312001D01*
X115078783Y-126315637D01*
X115062851Y-126312899D01*
X115046852Y-126315200D01*
X115029125Y-126307104D01*
X115009922Y-126303805D01*
X114998001Y-126292890D01*
X114983296Y-126286175D01*
X114972760Y-126269780D01*
X114958389Y-126256623D01*
X114953855Y-126240364D01*
X114945522Y-126227397D01*
X114940499Y-126192462D01*
X114940499Y-126158446D01*
X114940500Y-126158433D01*
X114940500Y-126064058D01*
X114940500Y-126064055D01*
X114918659Y-125982541D01*
X114890370Y-125933545D01*
X114876463Y-125909457D01*
X114838131Y-125871125D01*
X114833969Y-125865963D01*
X114823026Y-125839566D01*
X114809332Y-125814487D01*
X114808177Y-125803746D01*
X114807213Y-125801420D01*
X114807660Y-125798935D01*
X114806499Y-125788130D01*
X114806499Y-122884299D01*
X114806499Y-122884296D01*
X114784658Y-122802782D01*
X114742463Y-122729699D01*
X114682791Y-122670027D01*
X114678460Y-122665696D01*
X114678449Y-122665686D01*
X113323042Y-121310279D01*
X113323040Y-121310276D01*
X113256302Y-121243538D01*
X113256300Y-121243536D01*
X113183217Y-121201341D01*
X113101704Y-121179500D01*
X113101703Y-121179500D01*
X109943625Y-121179500D01*
X109876586Y-121159815D01*
X109855944Y-121143181D01*
X108840319Y-120127556D01*
X108806834Y-120066233D01*
X108804000Y-120039875D01*
X108804000Y-117471062D01*
X108804000Y-117471059D01*
X108782159Y-117389545D01*
X108739964Y-117316462D01*
X108680292Y-117256790D01*
X108675961Y-117252459D01*
X108675950Y-117252449D01*
X107333780Y-115910279D01*
X107333778Y-115910276D01*
X107267040Y-115843538D01*
X107267038Y-115843536D01*
X107193955Y-115801341D01*
X107169513Y-115794792D01*
X107112442Y-115779500D01*
X107112441Y-115779500D01*
X102808805Y-115779500D01*
X102741766Y-115759815D01*
X102696011Y-115707011D01*
X102686067Y-115637853D01*
X102715092Y-115574297D01*
X102739914Y-115552398D01*
X102805908Y-115508302D01*
X102938299Y-115375911D01*
X102938302Y-115375908D01*
X103042322Y-115220231D01*
X103113973Y-115047251D01*
X103150500Y-114863616D01*
X103150500Y-114676384D01*
X103135994Y-114603457D01*
X103135046Y-114598690D01*
X103141275Y-114529099D01*
X103184138Y-114473922D01*
X103250028Y-114450678D01*
X103256664Y-114450500D01*
X103903466Y-114450500D01*
X103903467Y-114450499D01*
X104106420Y-114410130D01*
X104297598Y-114330941D01*
X104469655Y-114215977D01*
X104615977Y-114069655D01*
X104615978Y-114069653D01*
X104623044Y-114062587D01*
X104623047Y-114062583D01*
X105969651Y-112715979D01*
X105969655Y-112715977D01*
X106115977Y-112569655D01*
X106230941Y-112397598D01*
X106310130Y-112206420D01*
X106347215Y-112019979D01*
X106350500Y-112003466D01*
X106350500Y-111796535D01*
X106350500Y-110386493D01*
X106370185Y-110319454D01*
X106386819Y-110298812D01*
X106432414Y-110253217D01*
X106628396Y-110057234D01*
X106689717Y-110023751D01*
X106754392Y-110026985D01*
X106791688Y-110039104D01*
X106818881Y-110047940D01*
X107005514Y-110077500D01*
X107005519Y-110077500D01*
X107194486Y-110077500D01*
X107381118Y-110047940D01*
X107404114Y-110040468D01*
X107560832Y-109989547D01*
X107729199Y-109903760D01*
X107769910Y-109874181D01*
X107835715Y-109850702D01*
X107842795Y-109850500D01*
X109536044Y-109850500D01*
X109603083Y-109870185D01*
G37*
%TD.AperFunction*%
%TA.AperFunction,Conductor*%
G36*
X96023334Y-118923341D02*
G01*
X96067681Y-118951842D01*
X96163181Y-119047342D01*
X96196666Y-119108665D01*
X96199500Y-119135023D01*
X96199500Y-123054978D01*
X96190855Y-123084418D01*
X96184332Y-123114405D01*
X96180577Y-123119420D01*
X96179815Y-123122017D01*
X96163181Y-123142659D01*
X96067681Y-123238159D01*
X96006358Y-123271644D01*
X95936666Y-123266660D01*
X95892319Y-123238159D01*
X95796819Y-123142659D01*
X95763334Y-123081336D01*
X95760500Y-123054978D01*
X95760500Y-119135023D01*
X95780185Y-119067984D01*
X95796819Y-119047342D01*
X95892319Y-118951842D01*
X95953642Y-118918357D01*
X96023334Y-118923341D01*
G37*
%TD.AperFunction*%
%TD*%
%TA.AperFunction,Conductor*%
%TO.N,VCC*%
G36*
X126443606Y-100019685D02*
G01*
X126452054Y-100025625D01*
X126636196Y-100166924D01*
X126863299Y-100298041D01*
X126863309Y-100298046D01*
X127105571Y-100398394D01*
X127105581Y-100398398D01*
X127358884Y-100466270D01*
X127618880Y-100500500D01*
X127618887Y-100500500D01*
X127881113Y-100500500D01*
X127881120Y-100500500D01*
X128141116Y-100466270D01*
X128394419Y-100398398D01*
X128636697Y-100298043D01*
X128863803Y-100166924D01*
X129047946Y-100025624D01*
X129113115Y-100000430D01*
X129123433Y-100000000D01*
X132175500Y-100000000D01*
X132242539Y-100019685D01*
X132288294Y-100072489D01*
X132299500Y-100124000D01*
X132299500Y-124570260D01*
X132279815Y-124637299D01*
X132227011Y-124683054D01*
X132175079Y-124694259D01*
X121373579Y-124657554D01*
X121306606Y-124637642D01*
X121261031Y-124584683D01*
X121250000Y-124533555D01*
X121250000Y-100124000D01*
X121269685Y-100056961D01*
X121322489Y-100011206D01*
X121374000Y-100000000D01*
X126376567Y-100000000D01*
X126443606Y-100019685D01*
G37*
%TD.AperFunction*%
%TD*%
M02*
