M48
; DRILL file {KiCad 9.0.4-9.0.4-0~ubuntu24.04.1} date 2025-09-29T23:59:47+0200
; FORMAT={-:-/ absolute / inch / decimal}
; #@! TF.CreationDate,2025-09-29T23:59:47+02:00
; #@! TF.GenerationSoftware,Kicad,Pcbnew,9.0.4-9.0.4-0~ubuntu24.04.1
; #@! TF.FileFunction,Plated,1,2,PTH
FMAT,2
INCH
; #@! TA.AperFunction,Plated,PTH,ViaDrill
T1C0.0118
; #@! TA.AperFunction,Plated,PTH,ComponentDrill
T2C0.0236
; #@! TA.AperFunction,Plated,PTH,ComponentDrill
T3C0.0315
; #@! TA.AperFunction,Plated,PTH,ComponentDrill
T4C0.0354
; #@! TA.AperFunction,Plated,PTH,ComponentDrill
T5C0.0374
; #@! TA.AperFunction,Plated,PTH,ComponentDrill
T6C0.0441
; #@! TA.AperFunction,Plated,PTH,ComponentDrill
T7C0.0630
; #@! TA.AperFunction,Plated,PTH,ComponentDrill
T8C0.0669
; #@! TA.AperFunction,Plated,PTH,ComponentDrill
T9C0.1220
; #@! TA.AperFunction,Plated,PTH,ComponentDrill
T10C0.1260
; #@! TA.AperFunction,Plated,PTH,ComponentDrill
T11C0.1575
%
G90
G05
T1
X3.4843Y-4.4469
X3.563Y-4.3031
X3.9689Y-4.5398
X4.2126Y-4.1142
X4.2165Y-4.2865
X4.248Y-4.1142
X4.248Y-4.185
X4.3268Y-4.8458
X4.3665Y-5.1308
X4.395Y-5.0768
X4.4134Y-4.9127
X4.4295Y-5.1269
X4.4606Y-4.126
X4.5197Y-4.126
X4.5197Y-5.1378
X4.5472Y-4.8819
X4.6024Y-5.2441
X4.626Y-4.8819
X4.6299Y-4.9882
X4.6299Y-5.0827
X4.6339Y-5.1693
T2
X3.6063Y-4.2008
X3.6409Y-4.1173
X3.6409Y-4.2843
X3.7244Y-4.0827
X3.7244Y-4.3189
X3.8079Y-4.1173
X3.8079Y-4.2843
X3.8425Y-4.2008
X4.8268Y-4.2008
X4.8614Y-4.1173
X4.8614Y-4.2843
X4.9449Y-4.0827
X4.9449Y-4.3189
X5.0284Y-4.1173
X5.0284Y-4.2843
X5.063Y-4.2008
T3
X4.0Y-4.078
X4.0Y-4.378
X4.1Y-4.078
X4.1Y-4.378
T4
X3.5835Y-4.5185
X3.6783Y-4.7378
X3.6783Y-4.9972
X3.6835Y-4.5185
X3.7287Y-4.6378
X3.7287Y-4.8972
X3.7787Y-4.7378
X3.7787Y-4.9972
X3.8287Y-4.6378
X3.8287Y-4.8972
X3.8783Y-4.7378
X3.8783Y-4.9972
X3.9283Y-4.6378
X3.9283Y-4.8972
X3.9783Y-4.7378
X3.9783Y-4.9972
X4.0236Y-4.5185
X4.0287Y-4.6378
X4.0287Y-4.8972
X4.1236Y-4.5185
T5
X4.3543Y-4.3543
X4.3563Y-4.5817
X4.4528Y-4.3543
X4.4547Y-4.5817
X4.5512Y-4.3543
X4.5531Y-4.5817
X4.6496Y-4.3543
X4.6516Y-4.5817
T6
X3.5835Y-5.3472
X3.6835Y-5.3472
X4.0236Y-5.3472
X4.1236Y-5.3472
T7
X3.5213Y-4.6972
X3.5213Y-5.4327
X3.548Y-4.8677
X4.1591Y-4.8677
X4.1858Y-4.6976
X4.1858Y-5.4327
T9
X4.9173Y-4.7165
T10
X3.8535Y-5.2472
T11
X3.7244Y-4.2008
X4.9449Y-4.2008
T8
G00X5.1299Y-4.5768
M15
G01X5.1299Y-4.8563
M16
G05
G00X5.1299Y-4.9705
M15
G01X5.1299Y-5.2972
M16
G05
M30
