M48
; DRILL file {KiCad 9.0.6-9.0.6~ubuntu24.04.1} date 2025-12-29T21:52:55+0100
; FORMAT={-:-/ absolute / inch / decimal}
; #@! TF.CreationDate,2025-12-29T21:52:55+01:00
; #@! TF.GenerationSoftware,Kicad,Pcbnew,9.0.6-9.0.6~ubuntu24.04.1
; #@! TF.FileFunction,Plated,1,2,PTH
FMAT,2
INCH
; #@! TA.AperFunction,Plated,PTH,ViaDrill
T1C0.0118
; #@! TA.AperFunction,Plated,PTH,ComponentDrill
T2C0.0236
; #@! TA.AperFunction,Plated,PTH,ComponentDrill
T3C0.0315
; #@! TA.AperFunction,Plated,PTH,ComponentDrill
T4C0.0354
; #@! TA.AperFunction,Plated,PTH,ComponentDrill
T5C0.0374
; #@! TA.AperFunction,Plated,PTH,ComponentDrill
T6C0.0441
; #@! TA.AperFunction,Plated,PTH,ComponentDrill
T7C0.0630
; #@! TA.AperFunction,Plated,PTH,ComponentDrill
T8C0.0669
; #@! TA.AperFunction,Plated,PTH,ComponentDrill
T9C0.1220
; #@! TA.AperFunction,Plated,PTH,ComponentDrill
T10C0.1260
; #@! TA.AperFunction,Plated,PTH,ComponentDrill
T11C0.1575
%
G90
G05
T1
X6.0259Y-3.4264
X6.0259Y-4.5264
X6.0259Y-4.6264
X6.0259Y-4.7264
X6.0259Y-4.8264
X6.0259Y-4.9264
X6.0259Y-5.0264
X6.0259Y-5.1264
X6.1259Y-4.5264
X6.1259Y-4.6264
X6.1259Y-4.7264
X6.1259Y-4.8264
X6.1259Y-4.9264
X6.1259Y-5.0264
X6.1259Y-5.1264
X6.2259Y-4.9264
X6.2259Y-5.0264
X6.2259Y-5.1264
X6.3259Y-3.4264
X6.3259Y-4.9264
X6.3259Y-5.0264
X6.3259Y-5.1264
X6.4259Y-3.5264
X6.4259Y-3.6264
X6.4259Y-3.7264
X6.4259Y-3.8264
X6.4259Y-3.9264
X6.4259Y-4.0264
X6.4259Y-4.1264
X6.4259Y-4.3264
X6.4259Y-4.4264
X6.4259Y-4.5264
X6.4259Y-4.6264
X6.4259Y-4.7264
X6.4259Y-4.8264
X6.4259Y-4.9264
X6.4259Y-5.1264
X6.5259Y-3.6264
X6.5259Y-3.9264
X6.5259Y-4.5264
X6.5259Y-4.6264
X6.5259Y-4.7264
X6.5259Y-4.8264
X6.5259Y-5.1264
X6.6259Y-3.4264
X6.6259Y-3.5264
X6.6259Y-4.4264
X6.6259Y-4.6264
X6.6259Y-4.8264
X6.6259Y-5.1264
X6.7259Y-3.5264
X6.7259Y-4.0264
X6.7259Y-4.8264
X6.7259Y-4.9264
X6.7259Y-5.0264
X6.8259Y-3.6264
X6.8259Y-3.7264
X6.8259Y-3.8264
X6.8259Y-3.9264
X6.8259Y-4.9264
X6.8259Y-5.0264
X6.8729Y-4.6835
X6.877Y-4.7476
X6.9044Y-4.6835
X6.9067Y-4.7583
X6.9259Y-3.5264
X6.9259Y-3.7264
X6.9259Y-3.8264
X6.9259Y-4.8264
X6.9259Y-4.9264
X6.9259Y-5.0264
X6.9358Y-4.6835
X6.9384Y-4.7476
X7.0082Y-4.4066
X7.0259Y-3.4264
X7.0259Y-3.5264
X7.0259Y-3.7264
X7.0259Y-4.8264
X7.0581Y-4.3211
X7.1259Y-4.0264
X7.1259Y-4.5264
X7.1259Y-4.6264
X7.133Y-4.0996
X7.1823Y-3.6929
X7.1839Y-3.8031
X7.2259Y-3.5264
X7.2259Y-3.9264
X7.2259Y-4.0264
X7.2259Y-4.1264
X7.2259Y-4.2264
X7.2259Y-4.4264
X7.2259Y-4.5264
X7.2259Y-4.7264
X7.2259Y-4.8264
X7.2259Y-5.0264
X7.2713Y-5.0327
X7.3114Y-4.5922
X7.3259Y-3.4264
X7.3259Y-3.5264
X7.3259Y-3.8264
X7.3259Y-4.0264
X7.3259Y-4.1264
X7.3259Y-4.3264
X7.3259Y-5.0264
X7.3259Y-5.1264
X7.3433Y-4.8331
X7.3732Y-4.7764
X7.4016Y-4.6031
X7.4259Y-4.0264
X7.4259Y-4.1264
X7.4259Y-5.0264
X7.4259Y-5.1264
X7.4299Y-4.9
X7.4492Y-4.6598
X7.4646Y-4.5992
X7.5259Y-4.0264
X7.5259Y-4.1264
X7.5259Y-4.3264
X7.5259Y-4.8264
X7.5259Y-4.9264
X7.5791Y-4.3836
X7.6259Y-3.4264
X7.6259Y-3.5264
X7.6259Y-3.6264
X7.6259Y-3.7264
X7.6259Y-3.8264
X7.6259Y-4.1264
X7.6259Y-4.3264
X7.6259Y-4.4264
X7.6259Y-4.5264
X7.6259Y-4.6264
X7.6259Y-4.7264
X7.6259Y-4.8264
X7.6259Y-4.9264
T2
X6.0566Y-3.785
X6.0912Y-3.7015
X6.0912Y-3.8686
X6.1747Y-3.6669
X6.1747Y-3.9031
X6.2583Y-3.7015
X6.2583Y-3.8686
X6.2929Y-3.785
X6.5318Y-3.785
X6.5664Y-3.7015
X6.5664Y-3.8686
X6.6499Y-3.6669
X6.6499Y-3.9031
X6.7335Y-3.7015
X6.7335Y-3.8686
X6.768Y-3.785
T3
X6.9594Y-3.6484
X6.9594Y-3.9484
X7.0594Y-3.6484
X7.0594Y-3.9484
T4
X6.5429Y-4.089
X6.6377Y-4.3083
X6.6377Y-4.5677
X6.6429Y-4.089
X6.6881Y-4.2083
X6.6881Y-4.4677
X6.7381Y-4.3083
X6.7381Y-4.5677
X6.7881Y-4.2083
X6.7881Y-4.4677
X6.8377Y-4.3083
X6.8377Y-4.5677
X6.8877Y-4.2083
X6.8877Y-4.4677
X6.9377Y-4.3083
X6.9377Y-4.5677
X6.983Y-4.089
X6.9881Y-4.2083
X6.9881Y-4.4677
X7.083Y-4.089
T5
X7.3146Y-3.9244
X7.3146Y-4.1909
X7.413Y-3.9244
X7.413Y-4.1909
X7.5114Y-3.9244
X7.5114Y-4.1909
X7.6098Y-3.9244
X7.6098Y-4.1909
T6
X6.5429Y-4.9177
X6.6429Y-4.9177
X6.983Y-4.9177
X7.083Y-4.9177
T7
X6.4806Y-4.2677
X6.4806Y-5.0031
X6.5074Y-4.4382
X7.1184Y-4.4382
X7.1452Y-4.2681
X7.1452Y-5.0031
T9
X6.0945Y-4.2732
T10
X6.8129Y-4.8177
T11
X6.1747Y-3.785
X6.6499Y-3.785
T8
G00X6.3071Y-4.1335
M15
G01X6.3071Y-4.413
M16
G05
G00X6.3071Y-4.5272
M15
G01X6.3071Y-4.8539
M16
G05
M30
