%TF.GenerationSoftware,KiCad,Pcbnew,9.0.6-9.0.6~ubuntu24.04.1*%
%TF.CreationDate,2025-12-29T21:52:55+01:00*%
%TF.ProjectId,ModuCard-vesc-to-mms-converter,4d6f6475-4361-4726-942d-766573632d74,rev?*%
%TF.SameCoordinates,Original*%
%TF.FileFunction,Copper,L1,Top*%
%TF.FilePolarity,Positive*%
%FSLAX46Y46*%
G04 Gerber Fmt 4.6, Leading zero omitted, Abs format (unit mm)*
G04 Created by KiCad (PCBNEW 9.0.6-9.0.6~ubuntu24.04.1) date 2025-12-29 21:52:55*
%MOMM*%
%LPD*%
G01*
G04 APERTURE LIST*
G04 Aperture macros list*
%AMRoundRect*
0 Rectangle with rounded corners*
0 $1 Rounding radius*
0 $2 $3 $4 $5 $6 $7 $8 $9 X,Y pos of 4 corners*
0 Add a 4 corners polygon primitive as box body*
4,1,4,$2,$3,$4,$5,$6,$7,$8,$9,$2,$3,0*
0 Add four circle primitives for the rounded corners*
1,1,$1+$1,$2,$3*
1,1,$1+$1,$4,$5*
1,1,$1+$1,$6,$7*
1,1,$1+$1,$8,$9*
0 Add four rect primitives between the rounded corners*
20,1,$1+$1,$2,$3,$4,$5,0*
20,1,$1+$1,$4,$5,$6,$7,0*
20,1,$1+$1,$6,$7,$8,$9,0*
20,1,$1+$1,$8,$9,$2,$3,0*%
G04 Aperture macros list end*
%TA.AperFunction,SMDPad,CuDef*%
%ADD10RoundRect,0.100000X-0.100000X0.712500X-0.100000X-0.712500X0.100000X-0.712500X0.100000X0.712500X0*%
%TD*%
%TA.AperFunction,SMDPad,CuDef*%
%ADD11RoundRect,0.135000X-0.135000X-0.185000X0.135000X-0.185000X0.135000X0.185000X-0.135000X0.185000X0*%
%TD*%
%TA.AperFunction,ComponentPad*%
%ADD12RoundRect,0.250000X-0.600000X-0.725000X0.600000X-0.725000X0.600000X0.725000X-0.600000X0.725000X0*%
%TD*%
%TA.AperFunction,ComponentPad*%
%ADD13O,1.700000X1.950000*%
%TD*%
%TA.AperFunction,SMDPad,CuDef*%
%ADD14RoundRect,0.225000X0.225000X0.250000X-0.225000X0.250000X-0.225000X-0.250000X0.225000X-0.250000X0*%
%TD*%
%TA.AperFunction,ComponentPad*%
%ADD15R,1.600000X1.600000*%
%TD*%
%TA.AperFunction,ComponentPad*%
%ADD16O,1.600000X1.600000*%
%TD*%
%TA.AperFunction,SMDPad,CuDef*%
%ADD17RoundRect,0.135000X0.185000X-0.135000X0.185000X0.135000X-0.185000X0.135000X-0.185000X-0.135000X0*%
%TD*%
%TA.AperFunction,SMDPad,CuDef*%
%ADD18RoundRect,0.200000X-0.200000X-0.275000X0.200000X-0.275000X0.200000X0.275000X-0.200000X0.275000X0*%
%TD*%
%TA.AperFunction,SMDPad,CuDef*%
%ADD19RoundRect,0.135000X-0.185000X0.135000X-0.185000X-0.135000X0.185000X-0.135000X0.185000X0.135000X0*%
%TD*%
%TA.AperFunction,ComponentPad*%
%ADD20C,0.900000*%
%TD*%
%TA.AperFunction,ComponentPad*%
%ADD21C,8.000000*%
%TD*%
%TA.AperFunction,ComponentPad*%
%ADD22RoundRect,0.495000X-1.155000X4.255000X-1.155000X-4.255000X1.155000X-4.255000X1.155000X4.255000X0*%
%TD*%
%TA.AperFunction,ComponentPad*%
%ADD23C,7.000000*%
%TD*%
%TA.AperFunction,ComponentPad*%
%ADD24RoundRect,0.505697X-1.179959X4.794303X-1.179959X-4.794303X1.179959X-4.794303X1.179959X4.794303X0*%
%TD*%
%TA.AperFunction,SMDPad,CuDef*%
%ADD25RoundRect,0.200000X0.200000X0.275000X-0.200000X0.275000X-0.200000X-0.275000X0.200000X-0.275000X0*%
%TD*%
%TA.AperFunction,SMDPad,CuDef*%
%ADD26RoundRect,0.200000X-0.275000X0.200000X-0.275000X-0.200000X0.275000X-0.200000X0.275000X0.200000X0*%
%TD*%
%TA.AperFunction,SMDPad,CuDef*%
%ADD27R,1.400000X1.200000*%
%TD*%
%TA.AperFunction,SMDPad,CuDef*%
%ADD28RoundRect,0.140000X0.140000X0.170000X-0.140000X0.170000X-0.140000X-0.170000X0.140000X-0.170000X0*%
%TD*%
%TA.AperFunction,SMDPad,CuDef*%
%ADD29RoundRect,0.200000X0.275000X-0.200000X0.275000X0.200000X-0.275000X0.200000X-0.275000X-0.200000X0*%
%TD*%
%TA.AperFunction,ComponentPad*%
%ADD30C,3.200000*%
%TD*%
%TA.AperFunction,ComponentPad*%
%ADD31C,1.500000*%
%TD*%
%TA.AperFunction,ComponentPad*%
%ADD32C,1.700000*%
%TD*%
%TA.AperFunction,ComponentPad*%
%ADD33C,2.400000*%
%TD*%
%TA.AperFunction,ViaPad*%
%ADD34C,0.600000*%
%TD*%
%TA.AperFunction,Conductor*%
%ADD35C,0.200000*%
%TD*%
%TA.AperFunction,Conductor*%
%ADD36C,0.300000*%
%TD*%
%TA.AperFunction,Conductor*%
%ADD37C,0.508000*%
%TD*%
%TA.AperFunction,Conductor*%
%ADD38C,0.240000*%
%TD*%
%TA.AperFunction,Conductor*%
%ADD39C,0.254000*%
%TD*%
G04 APERTURE END LIST*
D10*
%TO.P,U1,1,DM4*%
%TO.N,unconnected-(U1-DM4-Pad1)*%
X189700000Y-114542501D03*
%TO.P,U1,2,DP4*%
%TO.N,unconnected-(U1-DP4-Pad2)*%
X189065000Y-114542501D03*
%TO.P,U1,3,DM3*%
%TO.N,unconnected-(U1-DM3-Pad3)*%
X188430000Y-114542501D03*
%TO.P,U1,4,DP3*%
%TO.N,unconnected-(U1-DP3-Pad4)*%
X187795000Y-114542501D03*
%TO.P,U1,5,DM2*%
%TO.N,Net-(U1-DM2)*%
X187160000Y-114542501D03*
%TO.P,U1,6,DP2*%
%TO.N,Net-(U1-DP2)*%
X186525000Y-114542501D03*
%TO.P,U1,7,DM1*%
%TO.N,Net-(U1-DM1)*%
X185890000Y-114542501D03*
%TO.P,U1,8,DP1*%
%TO.N,Net-(U1-DP1)*%
X185255000Y-114542501D03*
%TO.P,U1,9,RESET#/CDP*%
%TO.N,unconnected-(U1-RESET#{slash}CDP-Pad9)*%
X185255000Y-119817501D03*
%TO.P,U1,10,DMU*%
%TO.N,USB_UPSTREAM_D-*%
X185890000Y-119817501D03*
%TO.P,U1,11,DPU*%
%TO.N,USB_UPSTREAM_D+*%
X186525000Y-119817501D03*
%TO.P,U1,12,V5*%
%TO.N,+5V*%
X187160000Y-119817501D03*
%TO.P,U1,13,VDD33*%
%TO.N,Net-(U1-VDD33)*%
X187795000Y-119817501D03*
%TO.P,U1,14,GND*%
%TO.N,GND*%
X188430000Y-119817501D03*
%TO.P,U1,15,XO*%
%TO.N,Net-(U1-XO)*%
X189065000Y-119817501D03*
%TO.P,U1,16,XI*%
%TO.N,Net-(U1-XI)*%
X189700000Y-119817501D03*
%TD*%
D11*
%TO.P,R16,1*%
%TO.N,Net-(R16-Pad1)*%
X183640000Y-129630001D03*
%TO.P,R16,2*%
%TO.N,+12V*%
X184660000Y-129630001D03*
%TD*%
D12*
%TO.P,J3,1,Pin_1*%
%TO.N,GND*%
X185790000Y-99680001D03*
D13*
%TO.P,J3,2,Pin_2*%
%TO.N,/CAN/CAN-*%
X188290000Y-99680001D03*
%TO.P,J3,3,Pin_3*%
%TO.N,/CAN/CAN+*%
X190790000Y-99680001D03*
%TO.P,J3,4,Pin_4*%
%TO.N,+5V*%
X193290000Y-99680001D03*
%TD*%
D14*
%TO.P,C5,1*%
%TO.N,GND*%
X192475000Y-119220001D03*
%TO.P,C5,2*%
%TO.N,Net-(U1-VDD33)*%
X190925000Y-119220001D03*
%TD*%
D15*
%TO.P,SW1,1*%
%TO.N,Net-(R6-Pad2)*%
X179308460Y-92670000D03*
D16*
%TO.P,SW1,2*%
%TO.N,Net-(R2-Pad1)*%
X176768460Y-92670000D03*
%TO.P,SW1,3*%
%TO.N,/CAN/CAN2-*%
X176768460Y-100290000D03*
%TO.P,SW1,4*%
%TO.N,/CAN/CAN1+*%
X179308460Y-100290000D03*
%TD*%
D17*
%TO.P,R11,1*%
%TO.N,Net-(U1-DM1)*%
X185860000Y-112640000D03*
%TO.P,R11,2*%
%TO.N,USB_DOWNSTREAM_D-*%
X185860000Y-111620002D03*
%TD*%
D18*
%TO.P,R3,1*%
%TO.N,/CAN/CAN1-*%
X187320000Y-95510001D03*
%TO.P,R3,2*%
%TO.N,/CAN/CAN-*%
X188960000Y-95510001D03*
%TD*%
D19*
%TO.P,R12,1*%
%TO.N,USB_DOWNSTREAM_D+*%
X184860000Y-111620001D03*
%TO.P,R12,2*%
%TO.N,Net-(U1-DP1)*%
X184860000Y-112640001D03*
%TD*%
D20*
%TO.P,H9,1,1*%
%TO.N,VCC*%
X153838460Y-96140000D03*
X154717140Y-94018680D03*
X154717140Y-98261320D03*
X156838460Y-93140000D03*
D21*
X156838460Y-96140000D03*
D20*
X156838460Y-99140000D03*
X158959780Y-94018680D03*
X158959780Y-98261320D03*
X159838460Y-96140000D03*
%TD*%
D19*
%TO.P,R19,1*%
%TO.N,Net-(R19-Pad1)*%
X182298460Y-103030000D03*
%TO.P,R19,2*%
%TO.N,GND*%
X182298460Y-104050000D03*
%TD*%
D12*
%TO.P,J1,1,Pin_1*%
%TO.N,GND*%
X185790000Y-106450001D03*
D13*
%TO.P,J1,2,Pin_2*%
%TO.N,/USB/USB_VESC_D+*%
X188290000Y-106450001D03*
%TO.P,J1,3,Pin_3*%
%TO.N,/USB/USB_VESC_D-*%
X190790000Y-106450001D03*
%TO.P,J1,4,Pin_4*%
%TO.N,+UBS_5V*%
X193290000Y-106450001D03*
%TD*%
D22*
%TO.P,J5,1,Pin_1*%
%TO.N,VCC*%
X160250000Y-108490000D03*
D23*
X154800000Y-108540000D03*
D24*
%TO.P,J5,2,Pin_2*%
%TO.N,GND*%
X160214344Y-119240000D03*
%TD*%
D25*
%TO.P,R4,1*%
%TO.N,/CAN/CAN+*%
X188920000Y-91480001D03*
%TO.P,R4,2*%
%TO.N,/CAN/CAN2+*%
X187280000Y-91480001D03*
%TD*%
D26*
%TO.P,R2,1*%
%TO.N,Net-(R2-Pad1)*%
X183730000Y-92450001D03*
%TO.P,R2,2*%
%TO.N,/CAN/CAN2+*%
X183730000Y-94090001D03*
%TD*%
D27*
%TO.P,Y1,1,1*%
%TO.N,Net-(U1-XO)*%
X186520000Y-124460001D03*
%TO.P,Y1,2,2*%
%TO.N,GND*%
X188720000Y-124460001D03*
%TO.P,Y1,3,3*%
%TO.N,Net-(U1-XI)*%
X188720000Y-122760001D03*
%TO.P,Y1,4,4*%
%TO.N,GND*%
X186520000Y-122760001D03*
%TD*%
D11*
%TO.P,R20,1*%
%TO.N,Net-(R20-Pad1)*%
X166920000Y-101270001D03*
%TO.P,R20,2*%
%TO.N,+12V*%
X167940000Y-101270001D03*
%TD*%
D19*
%TO.P,R9,1*%
%TO.N,/USB/USB_VESC_D-*%
X187850000Y-111620001D03*
%TO.P,R9,2*%
%TO.N,Net-(U1-DM2)*%
X187850000Y-112640001D03*
%TD*%
D14*
%TO.P,C6,1*%
%TO.N,GND*%
X192475000Y-120720001D03*
%TO.P,C6,2*%
%TO.N,Net-(U1-VDD33)*%
X190925000Y-120720001D03*
%TD*%
D11*
%TO.P,R15,1*%
%TO.N,Net-(R15-Pad1)*%
X183648460Y-128640000D03*
%TO.P,R15,2*%
%TO.N,+12V*%
X184668460Y-128640000D03*
%TD*%
D14*
%TO.P,C3,1*%
%TO.N,GND*%
X192575000Y-114620001D03*
%TO.P,C3,2*%
%TO.N,+5V*%
X191025000Y-114620001D03*
%TD*%
D28*
%TO.P,C4,1*%
%TO.N,GND*%
X191680000Y-115820001D03*
%TO.P,C4,2*%
%TO.N,+5V*%
X190720000Y-115820001D03*
%TD*%
D29*
%TO.P,R6,1*%
%TO.N,/CAN/CAN1-*%
X182420000Y-93330001D03*
%TO.P,R6,2*%
%TO.N,Net-(R6-Pad2)*%
X182420000Y-91690001D03*
%TD*%
D25*
%TO.P,R5,1*%
%TO.N,/CAN/CAN-*%
X188930000Y-92740001D03*
%TO.P,R5,2*%
%TO.N,/CAN/CAN2-*%
X187290000Y-92740001D03*
%TD*%
D28*
%TO.P,C7,1*%
%TO.N,GND*%
X191680000Y-118020001D03*
%TO.P,C7,2*%
%TO.N,Net-(U1-VDD33)*%
X190720000Y-118020001D03*
%TD*%
D30*
%TO.P,U2,*%
%TO.N,*%
X173048460Y-122370000D03*
D31*
%TO.P,U2,1,1*%
%TO.N,USB_UPSTREAM_D+*%
X168598460Y-109430000D03*
%TO.P,U2,2,2*%
%TO.N,USB_UPSTREAM_D-*%
X169878460Y-106890000D03*
%TO.P,U2,3,3*%
%TO.N,+12V*%
X171148460Y-109430000D03*
%TO.P,U2,4,4*%
%TO.N,/CAN/CAN2+*%
X172418460Y-106890000D03*
%TO.P,U2,5,5*%
%TO.N,/CAN/CAN2-*%
X173678460Y-109430000D03*
%TO.P,U2,6,6*%
%TO.N,GND*%
X174948460Y-106890000D03*
%TO.P,U2,7,7*%
%TO.N,/CAN/CAN1+*%
X176218460Y-109430000D03*
%TO.P,U2,8,8*%
%TO.N,/CAN/CAN1-*%
X177498460Y-106890000D03*
%TO.P,U2,9,9*%
X168598460Y-116020000D03*
%TO.P,U2,10,10*%
%TO.N,/CAN/CAN1+*%
X169878460Y-113480000D03*
%TO.P,U2,11,11*%
%TO.N,GND*%
X171148460Y-116020000D03*
%TO.P,U2,12,12*%
%TO.N,/CAN/CAN2-*%
X172418460Y-113480000D03*
%TO.P,U2,13,13*%
%TO.N,/CAN/CAN2+*%
X173678460Y-116020000D03*
%TO.P,U2,14,14*%
%TO.N,+12V*%
X174948460Y-113480000D03*
%TO.P,U2,15,15*%
%TO.N,USB_DOWNSTREAM_D-*%
X176218460Y-116020000D03*
%TO.P,U2,16,16*%
%TO.N,USB_DOWNSTREAM_D+*%
X177498460Y-113480000D03*
D32*
%TO.P,U2,17,-*%
%TO.N,GND*%
X179908460Y-124910000D03*
%TO.P,U2,18,+*%
%TO.N,Net-(R15-Pad1)*%
X177368460Y-124910000D03*
%TO.P,U2,19,-*%
%TO.N,GND*%
X168728460Y-124910000D03*
%TO.P,U2,20,+*%
%TO.N,Net-(R16-Pad1)*%
X166188460Y-124910000D03*
D31*
%TO.P,U2,21,-*%
%TO.N,Net-(R19-Pad1)*%
X179908460Y-103860000D03*
%TO.P,U2,22,+*%
%TO.N,+12V*%
X177368460Y-103860000D03*
%TO.P,U2,23,-*%
%TO.N,GND*%
X168728460Y-103860000D03*
%TO.P,U2,24,+*%
%TO.N,Net-(R20-Pad1)*%
X166188460Y-103860000D03*
D33*
%TO.P,U2,25,25*%
%TO.N,GND*%
X164608460Y-108400000D03*
%TO.P,U2,26,26*%
X181488460Y-108410000D03*
%TO.P,U2,27,27*%
X165288460Y-112730000D03*
%TO.P,U2,28,28*%
X180808460Y-112730000D03*
%TO.P,U2,29,29*%
X164608460Y-127080000D03*
%TO.P,U2,30,30*%
X181488460Y-127080000D03*
%TD*%
D19*
%TO.P,R10,1*%
%TO.N,/USB/USB_VESC_D+*%
X186850000Y-111620001D03*
%TO.P,R10,2*%
%TO.N,Net-(U1-DP2)*%
X186850000Y-112640001D03*
%TD*%
D20*
%TO.P,H10,1,1*%
%TO.N,GND*%
X165908460Y-96140000D03*
X166787140Y-94018680D03*
X166787140Y-98261320D03*
X168908460Y-93140000D03*
D21*
X168908460Y-96140000D03*
D20*
X168908460Y-99140000D03*
X171029780Y-94018680D03*
X171029780Y-98261320D03*
X171908460Y-96140000D03*
%TD*%
D18*
%TO.P,R1,1*%
%TO.N,/CAN/CAN1+*%
X187340000Y-94240001D03*
%TO.P,R1,2*%
%TO.N,/CAN/CAN+*%
X188980000Y-94240001D03*
%TD*%
D34*
%TO.N,GND*%
X189210000Y-118360001D03*
X183538460Y-107350000D03*
X163218460Y-125130000D03*
X173378460Y-127670000D03*
X183538460Y-104810000D03*
X158138460Y-130210000D03*
X155598460Y-122590000D03*
X153058460Y-122590000D03*
X178007480Y-111928841D03*
X175918460Y-127670000D03*
X186078460Y-89570000D03*
X175918460Y-94650000D03*
X188720000Y-124460001D03*
X189600000Y-116820001D03*
X191158460Y-125130000D03*
X193698460Y-120050000D03*
X153058460Y-87030000D03*
X192509999Y-111342501D03*
X186078460Y-87030000D03*
X191158460Y-102270000D03*
X158138460Y-125130000D03*
X188618460Y-127670000D03*
X193698460Y-89570000D03*
X173378460Y-97190000D03*
X193698460Y-87030000D03*
X186078460Y-127670000D03*
X187280000Y-121320001D03*
X153058460Y-117510000D03*
X160678460Y-127670000D03*
X191158460Y-104810000D03*
X163218460Y-104810000D03*
X175918460Y-122590000D03*
X168298460Y-122590000D03*
X165758460Y-92110000D03*
X165758460Y-122590000D03*
X155598460Y-127670000D03*
X170838460Y-102270000D03*
X193698460Y-94650000D03*
X170838460Y-125130000D03*
X183538460Y-114970000D03*
X193698460Y-122590000D03*
X183538460Y-89570000D03*
X160678460Y-130210000D03*
X163218460Y-112430000D03*
X176236316Y-120590001D03*
X173378460Y-92110000D03*
X193698460Y-92110000D03*
X168298460Y-89570000D03*
X160678460Y-87030000D03*
X174570557Y-118960001D03*
X185709999Y-116642501D03*
X188618460Y-102270000D03*
X183538460Y-112430000D03*
X165758460Y-114970000D03*
X174676000Y-120590001D03*
X186520000Y-122760001D03*
X155598460Y-125130000D03*
X178458460Y-87030000D03*
X186078460Y-102270000D03*
X175918460Y-89570000D03*
X153058460Y-114970000D03*
X163218460Y-109890000D03*
X173378460Y-94650000D03*
X163218460Y-102270000D03*
X180998460Y-102270000D03*
X193698460Y-114970000D03*
X183538460Y-99730000D03*
X175918460Y-97190000D03*
X168298460Y-130210000D03*
X165758460Y-99730000D03*
X183538460Y-120050000D03*
X163218460Y-117510000D03*
X178458460Y-122590000D03*
X176170560Y-118960001D03*
X183538460Y-127670000D03*
X175918460Y-125130000D03*
X179275983Y-109756501D03*
X178458460Y-89570000D03*
X188618460Y-130210000D03*
X163218460Y-122590000D03*
X193698460Y-112430000D03*
X181178460Y-104130000D03*
X193698460Y-125130000D03*
X165758460Y-120050000D03*
X153058460Y-120050000D03*
X186078460Y-130210000D03*
X173378460Y-125130000D03*
X178458460Y-94650000D03*
X158138460Y-127670000D03*
X186078460Y-109890000D03*
X155598460Y-120050000D03*
X163218460Y-97190000D03*
X180998460Y-114970000D03*
X153058460Y-130210000D03*
X168298460Y-112430000D03*
X163218460Y-130210000D03*
X163218460Y-99730000D03*
X163218460Y-92110000D03*
X180998460Y-117510000D03*
X165758460Y-117510000D03*
X155598460Y-117510000D03*
X193698460Y-117510000D03*
X153058460Y-127670000D03*
X168298460Y-87030000D03*
X191158460Y-122590000D03*
X193698460Y-109890000D03*
X155598460Y-130210000D03*
X186078460Y-104810000D03*
X188000000Y-116920001D03*
X168298460Y-117510000D03*
X193698460Y-104810000D03*
X183538460Y-102270000D03*
X165758460Y-130210000D03*
X186078460Y-97190000D03*
X153058460Y-125130000D03*
X183538460Y-122590000D03*
X188618460Y-104810000D03*
X170838460Y-127670000D03*
X163218460Y-120050000D03*
X155598460Y-114970000D03*
X163218460Y-89570000D03*
X193698460Y-97190000D03*
X191158460Y-109890000D03*
X163218460Y-94650000D03*
X163218460Y-114970000D03*
X173378460Y-99730000D03*
X170838460Y-89570000D03*
X170838460Y-122590000D03*
X160678460Y-125130000D03*
%TO.N,+12V*%
X175370560Y-118960001D03*
X184690000Y-127830001D03*
X175430000Y-120860001D03*
%TO.N,/CAN/CAN1-*%
X182430000Y-93800001D03*
X182470000Y-96600001D03*
%TD*%
D35*
%TO.N,GND*%
X181178460Y-104130000D02*
X182168460Y-104130000D01*
X182168460Y-104130000D02*
X182168460Y-104150000D01*
D36*
%TO.N,+5V*%
X187640000Y-115980001D02*
X190560000Y-115980001D01*
X187640000Y-115980001D02*
X190540000Y-115980001D01*
X191050000Y-115443155D02*
X191177500Y-115315655D01*
X192040000Y-103020001D02*
X192040000Y-110891846D01*
X191177500Y-115315655D02*
X191177500Y-114380001D01*
X193290000Y-99680001D02*
X193290000Y-101770001D01*
X191025000Y-111906846D02*
X191025000Y-114620001D01*
X191050000Y-115470001D02*
X191050000Y-115443155D01*
X193290000Y-101770001D02*
X192040000Y-103020001D01*
X190540000Y-115980001D02*
X191050000Y-115470001D01*
X187640000Y-115980001D02*
X187160000Y-116460001D01*
X187160000Y-117742501D02*
X187160000Y-116460001D01*
X190560000Y-115980001D02*
X190720000Y-115820001D01*
X187160000Y-119817501D02*
X187160000Y-117742501D01*
X192040000Y-110891846D02*
X191025000Y-111906846D01*
%TO.N,Net-(U1-VDD33)*%
X190720000Y-118020001D02*
X190242500Y-117542501D01*
X190925000Y-120720001D02*
X190720000Y-120515001D01*
X190242500Y-117542501D02*
X188608261Y-117542501D01*
X187795000Y-118355762D02*
X187795000Y-119817501D01*
X188608261Y-117542501D02*
X187795000Y-118355762D01*
X190720000Y-120515001D02*
X190720000Y-118020001D01*
D37*
%TO.N,+12V*%
X175370560Y-118960001D02*
X175370560Y-118850561D01*
D35*
X177368460Y-103860000D02*
X178940000Y-105431540D01*
D37*
X184690000Y-127830001D02*
X184685550Y-127834451D01*
X174970000Y-117780001D02*
X174970000Y-113501540D01*
X176150000Y-121570001D02*
X179390000Y-121570001D01*
X175370560Y-118850561D02*
X175390000Y-118831121D01*
X184678460Y-129611541D02*
X184660000Y-129630001D01*
X175430000Y-120860001D02*
X175440000Y-120860001D01*
X184685550Y-127834451D02*
X184678460Y-127834451D01*
D35*
X178940000Y-108490001D02*
X174948460Y-112481541D01*
X171148460Y-104478461D02*
X171148460Y-109430000D01*
D37*
X175390000Y-118200001D02*
X174970000Y-117780001D01*
X175390000Y-118831121D02*
X175390000Y-118200001D01*
X184690000Y-126870001D02*
X184690000Y-127830001D01*
X184678460Y-127834451D02*
X184678460Y-129611541D01*
X179390000Y-121570001D02*
X184690000Y-126870001D01*
D35*
X178940000Y-105431540D02*
X178940000Y-108490001D01*
D37*
X175440000Y-120860001D02*
X176150000Y-121570001D01*
X174970000Y-113501540D02*
X174948460Y-113480000D01*
D35*
X167940000Y-101270001D02*
X171148460Y-104478461D01*
X174948460Y-112481541D02*
X174948460Y-113480000D01*
%TO.N,Net-(R15-Pad1)*%
X178418460Y-128640000D02*
X177368460Y-127590000D01*
X177368460Y-127590000D02*
X177368460Y-124910000D01*
X183648460Y-128640000D02*
X178418460Y-128640000D01*
%TO.N,Net-(R16-Pad1)*%
X166188460Y-124910000D02*
X170908461Y-129630001D01*
X170908461Y-129630001D02*
X183640000Y-129630001D01*
%TO.N,Net-(U1-DM2)*%
X187850000Y-112640001D02*
X187160000Y-113330001D01*
X187160000Y-113330001D02*
X187160000Y-114542501D01*
%TO.N,Net-(U1-DP2)*%
X186525000Y-114542501D02*
X186525000Y-112965001D01*
X186525000Y-112965001D02*
X186850000Y-112640001D01*
%TO.N,Net-(U1-DM1)*%
X185760000Y-114412501D02*
X185890000Y-114542501D01*
X185760000Y-112740000D02*
X185760000Y-114412501D01*
X185860000Y-112640000D02*
X185760000Y-112740000D01*
%TO.N,Net-(U1-DP1)*%
X185360000Y-113140001D02*
X184860000Y-112640001D01*
X185255000Y-114542501D02*
X185360000Y-114437501D01*
X185360000Y-114437501D02*
X185360000Y-113140001D01*
%TO.N,Net-(U1-XI)*%
X188720000Y-122760001D02*
X188720000Y-121890001D01*
X188720000Y-121890001D02*
X189700000Y-120910001D01*
X189700000Y-120910001D02*
X189700000Y-119817501D01*
%TO.N,Net-(U1-XO)*%
X188400000Y-121540001D02*
X189065000Y-120875001D01*
X187719000Y-121859001D02*
X188038000Y-121540001D01*
X186520000Y-124460001D02*
X186620000Y-124460001D01*
X188038000Y-121540001D02*
X188400000Y-121540001D01*
X189065000Y-120875001D02*
X189065000Y-119817501D01*
X186620000Y-124460001D02*
X187719000Y-123361001D01*
X187719000Y-123361001D02*
X187719000Y-121859001D01*
D38*
%TO.N,USB_UPSTREAM_D+*%
X168620922Y-119580001D02*
X167310000Y-118269079D01*
X186420000Y-118240001D02*
X185706500Y-117526501D01*
X185695930Y-117525501D02*
X183373577Y-117525501D01*
X183373577Y-117525501D02*
X181319077Y-119580001D01*
X181319077Y-119580001D02*
X168620922Y-119580001D01*
X168900000Y-108340001D02*
X168900000Y-109128460D01*
X167630000Y-108150001D02*
X168710000Y-108150001D01*
X167310000Y-118269079D02*
X167310000Y-108470001D01*
X185706500Y-117526501D02*
X185696930Y-117526501D01*
X185696930Y-117526501D02*
X185695930Y-117525501D01*
X168710000Y-108150001D02*
X168900000Y-108340001D01*
X168900000Y-109128460D02*
X168598460Y-109430000D01*
X186525000Y-119817501D02*
X186420000Y-119712501D01*
X186420000Y-119712501D02*
X186420000Y-118240001D01*
X167310000Y-108470001D02*
X167630000Y-108150001D01*
%TO.N,USB_UPSTREAM_D-*%
X168490492Y-119970001D02*
X181449508Y-119970001D01*
X166870000Y-108280001D02*
X166870000Y-118349509D01*
X166870000Y-118349509D02*
X168490492Y-119970001D01*
X169008459Y-107760001D02*
X167390000Y-107760001D01*
X169878460Y-106890000D02*
X169008459Y-107760001D01*
X186000000Y-119707501D02*
X185890000Y-119817501D01*
X183526008Y-117893501D02*
X185543500Y-117893501D01*
X181449508Y-119970001D02*
X183526008Y-117893501D01*
X185934959Y-119862460D02*
X185890000Y-119817501D01*
X185543500Y-117893501D02*
X186000000Y-118350001D01*
X167390000Y-107760001D02*
X166870000Y-108280001D01*
X186000000Y-118350001D02*
X186000000Y-119707501D01*
D36*
%TO.N,/CAN/CAN2-*%
X176000000Y-99900001D02*
X176378461Y-99900001D01*
X171840000Y-112265285D02*
X171840000Y-112901540D01*
X185754999Y-92405002D02*
X186955001Y-92405002D01*
X171840000Y-112901540D02*
X172418460Y-113480000D01*
X173678460Y-109430000D02*
X173678460Y-102221541D01*
X180996104Y-94940001D02*
X184520000Y-94940001D01*
X172846460Y-111258825D02*
X171840000Y-112265285D01*
X176950000Y-98986105D02*
X180996104Y-94940001D01*
X185170000Y-94290001D02*
X185170000Y-92990001D01*
X185170000Y-92990001D02*
X185754999Y-92405002D01*
X176950000Y-100108460D02*
X176950000Y-98986105D01*
X173678460Y-109430000D02*
X172846460Y-110262000D01*
X176768460Y-100290000D02*
X176950000Y-100108460D01*
X172846460Y-110262000D02*
X172846460Y-111258825D01*
X186955001Y-92405002D02*
X187290000Y-92740001D01*
X173678460Y-102221541D02*
X176000000Y-99900001D01*
X184520000Y-94940001D02*
X185170000Y-94290001D01*
X176378461Y-99900001D02*
X176768460Y-100290000D01*
%TO.N,/CAN/CAN2+*%
X173078459Y-106230001D02*
X173078459Y-102009118D01*
X172418460Y-110841541D02*
X171270000Y-111990001D01*
X186955001Y-91805000D02*
X187280000Y-91480001D01*
X184660000Y-92770001D02*
X185625001Y-91805000D01*
X172418460Y-106890000D02*
X173078459Y-106230001D01*
X173078459Y-102009118D02*
X180607576Y-94480001D01*
X184660000Y-94080001D02*
X184660000Y-92770001D01*
X171270000Y-111990001D02*
X171270000Y-114210001D01*
X184260000Y-94480001D02*
X184660000Y-94080001D01*
X172418460Y-106890000D02*
X172418460Y-110841541D01*
X185625001Y-91805000D02*
X186955001Y-91805000D01*
X171270000Y-114210001D02*
X173079999Y-116020000D01*
X173079999Y-116020000D02*
X173678460Y-116020000D01*
X180607576Y-94480001D02*
X184260000Y-94480001D01*
%TO.N,/CAN/CAN1-*%
X176818461Y-105738462D02*
X176818461Y-106210001D01*
X182430000Y-96280001D02*
X180604347Y-98105654D01*
X176100000Y-102964265D02*
X176100000Y-105020001D01*
X180604347Y-100745654D02*
X179070000Y-102280001D01*
X176818461Y-106210001D02*
X177498460Y-106890000D01*
X185024264Y-96280001D02*
X182430000Y-96280001D01*
X187200000Y-95470001D02*
X187310000Y-95580001D01*
X186119263Y-95185002D02*
X185024264Y-96280001D01*
X182420000Y-93790001D02*
X182430000Y-93800001D01*
X176784264Y-102280001D02*
X176100000Y-102964265D01*
X187200000Y-95250001D02*
X187200000Y-95470001D01*
X180604347Y-98105654D02*
X180604347Y-100745654D01*
X187320000Y-95510001D02*
X186995001Y-95185002D01*
X176100000Y-105020001D02*
X176818461Y-105738462D01*
X182420000Y-93330001D02*
X182420000Y-93790001D01*
X186995001Y-95185002D02*
X186119263Y-95185002D01*
X179070000Y-102280001D02*
X176784264Y-102280001D01*
%TO.N,/CAN/CAN1+*%
X185870737Y-94585000D02*
X184775736Y-95680001D01*
X187340000Y-94240001D02*
X186995001Y-94585000D01*
X176535736Y-101680001D02*
X178800000Y-101680001D01*
X184775736Y-95680001D02*
X182250000Y-95680001D01*
X180004347Y-99594113D02*
X179308460Y-100290000D01*
X179308460Y-101171541D02*
X179308460Y-100290000D01*
X175500000Y-105260001D02*
X175500000Y-102715737D01*
X175500000Y-102715737D02*
X176535736Y-101680001D01*
X176218460Y-105978461D02*
X175500000Y-105260001D01*
X187300000Y-94320001D02*
X187280000Y-94300001D01*
X178800000Y-101680001D02*
X179308460Y-101171541D01*
X176218460Y-109430000D02*
X176218460Y-105978461D01*
X180004347Y-97925654D02*
X180004347Y-99594113D01*
X186995001Y-94585000D02*
X185870737Y-94585000D01*
X182250000Y-95680001D02*
X180004347Y-97925654D01*
D38*
%TO.N,USB_DOWNSTREAM_D-*%
X176218460Y-112322033D02*
X178163992Y-110376501D01*
X185500000Y-111260002D02*
X185860000Y-111620002D01*
X184926500Y-110376501D02*
X185500000Y-110950001D01*
X178163992Y-110376501D02*
X184926500Y-110376501D01*
X185500000Y-110950001D02*
X185500000Y-111260002D01*
X176218460Y-116020000D02*
X176218460Y-112322033D01*
%TO.N,USB_DOWNSTREAM_D+*%
X177019999Y-113480000D02*
X176585460Y-113045461D01*
X176585460Y-112474049D02*
X178316008Y-110743501D01*
X178316008Y-110743501D02*
X184693500Y-110743501D01*
X177498460Y-113480000D02*
X177019999Y-113480000D01*
X184693500Y-110743501D02*
X185090000Y-111140001D01*
X185090000Y-111390001D02*
X184860000Y-111620001D01*
X185090000Y-111140001D02*
X185090000Y-111390001D01*
X176585460Y-113045461D02*
X176585460Y-112474049D01*
D36*
%TO.N,/CAN/CAN-*%
X189780000Y-94840001D02*
X189780000Y-93590001D01*
X188960000Y-95510001D02*
X189110000Y-95510001D01*
X189710737Y-92415002D02*
X189254999Y-92415002D01*
X189110000Y-95510001D02*
X189780000Y-94840001D01*
X189780000Y-93590001D02*
X188930000Y-92740001D01*
X188290000Y-99680001D02*
X188290000Y-99400001D01*
X189240000Y-98450001D02*
X189240000Y-97405737D01*
X189240000Y-97405737D02*
X190460000Y-96185737D01*
X188290000Y-99400001D02*
X189240000Y-98450001D01*
X190460000Y-96185737D02*
X190460000Y-93164265D01*
X189254999Y-92415002D02*
X188930000Y-92740001D01*
X190460000Y-93164265D02*
X189710737Y-92415002D01*
%TO.N,/CAN/CAN+*%
X191060000Y-92915737D02*
X189959263Y-91815000D01*
X189840000Y-97654265D02*
X191060000Y-96434265D01*
X189840000Y-98500001D02*
X189840000Y-97654265D01*
X191060000Y-96434265D02*
X191060000Y-92915737D01*
X188252000Y-92148001D02*
X188252000Y-93512001D01*
X190790000Y-99450001D02*
X189840000Y-98500001D01*
X188252000Y-93512001D02*
X188980000Y-94240001D01*
X189959263Y-91815000D02*
X189254999Y-91815000D01*
X188920000Y-91480001D02*
X188252000Y-92148001D01*
X190790000Y-99680001D02*
X190790000Y-99450001D01*
X189254999Y-91815000D02*
X188920000Y-91480001D01*
D39*
%TO.N,/USB/USB_VESC_D-*%
X187850000Y-111620001D02*
X187850000Y-111570001D01*
X189677000Y-107563001D02*
X190790000Y-106450001D01*
X187587000Y-111307001D02*
X187587000Y-110938171D01*
X187850000Y-111570001D02*
X187587000Y-111307001D01*
X189677000Y-108848171D02*
X189677000Y-107563001D01*
X187587000Y-110938171D02*
X189677000Y-108848171D01*
%TO.N,/USB/USB_VESC_D+*%
X186850000Y-111620001D02*
X186850000Y-111570001D01*
X189203000Y-108651831D02*
X189203000Y-107363001D01*
X187113000Y-110741831D02*
X189203000Y-108651831D01*
X187113000Y-111307001D02*
X187113000Y-110741831D01*
X186850000Y-111570001D02*
X187113000Y-111307001D01*
X189203000Y-107363001D02*
X188318460Y-106478461D01*
D36*
%TO.N,Net-(R2-Pad1)*%
X183239999Y-90890000D02*
X183730000Y-91380001D01*
X183730000Y-91380001D02*
X183730000Y-92450001D01*
X178548460Y-90890000D02*
X183239999Y-90890000D01*
X176768460Y-92670000D02*
X178548460Y-90890000D01*
D35*
%TO.N,Net-(R19-Pad1)*%
X182298460Y-103030000D02*
X182198460Y-103130000D01*
X182198460Y-103130000D02*
X180638460Y-103130000D01*
X180638460Y-103130000D02*
X179908460Y-103860000D01*
%TO.N,Net-(R20-Pad1)*%
X166188460Y-103860000D02*
X166188460Y-102001541D01*
X166188460Y-102001541D02*
X166920000Y-101270001D01*
D36*
%TO.N,Net-(R6-Pad2)*%
X182390000Y-91660001D02*
X182420000Y-91690001D01*
X180318459Y-91660001D02*
X182390000Y-91660001D01*
X179308460Y-92670000D02*
X180318459Y-91660001D01*
%TD*%
%TA.AperFunction,Conductor*%
%TO.N,GND*%
G36*
X170806821Y-107466419D02*
G01*
X170843541Y-107525861D01*
X170847960Y-107558669D01*
X170847960Y-108442802D01*
X170828275Y-108509841D01*
X170775471Y-108555596D01*
X170771414Y-108557363D01*
X170698229Y-108587678D01*
X170698222Y-108587681D01*
X170542552Y-108691697D01*
X170542548Y-108691700D01*
X170410160Y-108824088D01*
X170410157Y-108824092D01*
X170306141Y-108979762D01*
X170306136Y-108979771D01*
X170234487Y-109152748D01*
X170234485Y-109152756D01*
X170197960Y-109336379D01*
X170197960Y-109523620D01*
X170234485Y-109707243D01*
X170234487Y-109707251D01*
X170306136Y-109880228D01*
X170306141Y-109880237D01*
X170410157Y-110035907D01*
X170410160Y-110035911D01*
X170542548Y-110168299D01*
X170542552Y-110168302D01*
X170698222Y-110272318D01*
X170698228Y-110272321D01*
X170698229Y-110272322D01*
X170871209Y-110343973D01*
X171054004Y-110380333D01*
X171054839Y-110380499D01*
X171054843Y-110380500D01*
X171054844Y-110380500D01*
X171242077Y-110380500D01*
X171242078Y-110380499D01*
X171425711Y-110343973D01*
X171598691Y-110272322D01*
X171754368Y-110168302D01*
X171802633Y-110120037D01*
X171856279Y-110066392D01*
X171917602Y-110032907D01*
X171987294Y-110037891D01*
X172043227Y-110079763D01*
X172067644Y-110145227D01*
X172067960Y-110154073D01*
X172067960Y-110644997D01*
X172048275Y-110712036D01*
X172031641Y-110732678D01*
X170989531Y-111774787D01*
X170989527Y-111774792D01*
X170943387Y-111854710D01*
X170943386Y-111854713D01*
X170919500Y-111943857D01*
X170919500Y-112918397D01*
X170899815Y-112985436D01*
X170847011Y-113031191D01*
X170777853Y-113041135D01*
X170714297Y-113012110D01*
X170692398Y-112987288D01*
X170616762Y-112874092D01*
X170616759Y-112874088D01*
X170484371Y-112741700D01*
X170484367Y-112741697D01*
X170328697Y-112637681D01*
X170328688Y-112637676D01*
X170155711Y-112566027D01*
X170155703Y-112566025D01*
X169972080Y-112529500D01*
X169972076Y-112529500D01*
X169784844Y-112529500D01*
X169784839Y-112529500D01*
X169601216Y-112566025D01*
X169601208Y-112566027D01*
X169428231Y-112637676D01*
X169428222Y-112637681D01*
X169272552Y-112741697D01*
X169272548Y-112741700D01*
X169140160Y-112874088D01*
X169140157Y-112874092D01*
X169036141Y-113029762D01*
X169036136Y-113029771D01*
X168964487Y-113202748D01*
X168964485Y-113202756D01*
X168927960Y-113386379D01*
X168927960Y-113573620D01*
X168964485Y-113757243D01*
X168964487Y-113757251D01*
X169036136Y-113930228D01*
X169036141Y-113930237D01*
X169140157Y-114085907D01*
X169140160Y-114085911D01*
X169272548Y-114218299D01*
X169272552Y-114218302D01*
X169428222Y-114322318D01*
X169428228Y-114322321D01*
X169428229Y-114322322D01*
X169601209Y-114393973D01*
X169763010Y-114426157D01*
X169784839Y-114430499D01*
X169784843Y-114430500D01*
X169784844Y-114430500D01*
X169972077Y-114430500D01*
X169972078Y-114430499D01*
X170155711Y-114393973D01*
X170328691Y-114322322D01*
X170484368Y-114218302D01*
X170616762Y-114085908D01*
X170647306Y-114040196D01*
X170692398Y-113972711D01*
X170746010Y-113927906D01*
X170815335Y-113919199D01*
X170878362Y-113949353D01*
X170915082Y-114008796D01*
X170919500Y-114041602D01*
X170919500Y-114256145D01*
X170941035Y-114336513D01*
X170943386Y-114345288D01*
X170943387Y-114345291D01*
X170989527Y-114425209D01*
X170989531Y-114425214D01*
X172713783Y-116149466D01*
X172747268Y-116210789D01*
X172747719Y-116212956D01*
X172764485Y-116297243D01*
X172764487Y-116297251D01*
X172836136Y-116470228D01*
X172836141Y-116470237D01*
X172940157Y-116625907D01*
X172940160Y-116625911D01*
X173072548Y-116758299D01*
X173072552Y-116758302D01*
X173228222Y-116862318D01*
X173228228Y-116862321D01*
X173228229Y-116862322D01*
X173401209Y-116933973D01*
X173584839Y-116970499D01*
X173584843Y-116970500D01*
X173584844Y-116970500D01*
X173772077Y-116970500D01*
X173772078Y-116970499D01*
X173955711Y-116933973D01*
X174128691Y-116862322D01*
X174284368Y-116758302D01*
X174290827Y-116751843D01*
X174303819Y-116738852D01*
X174365142Y-116705367D01*
X174434834Y-116710351D01*
X174490767Y-116752223D01*
X174515184Y-116817687D01*
X174515500Y-116826533D01*
X174515500Y-117720161D01*
X174515499Y-117720165D01*
X174515499Y-117839837D01*
X174527524Y-117884713D01*
X174530457Y-117895662D01*
X174530458Y-117895663D01*
X174546473Y-117955433D01*
X174546474Y-117955434D01*
X174555228Y-117970596D01*
X174606309Y-118059071D01*
X174606311Y-118059073D01*
X174697995Y-118150757D01*
X174698001Y-118150762D01*
X174899181Y-118351942D01*
X174913884Y-118378869D01*
X174930477Y-118404688D01*
X174931368Y-118410888D01*
X174932666Y-118413265D01*
X174935500Y-118439623D01*
X174935500Y-118679320D01*
X174918888Y-118741319D01*
X174904168Y-118766814D01*
X174904168Y-118766815D01*
X174870060Y-118894109D01*
X174870060Y-119025893D01*
X174890830Y-119103408D01*
X174889167Y-119173258D01*
X174850004Y-119231120D01*
X174785776Y-119258624D01*
X174771055Y-119259501D01*
X168805039Y-119259501D01*
X168738000Y-119239816D01*
X168717358Y-119223182D01*
X167666819Y-118172643D01*
X167633334Y-118111320D01*
X167630500Y-118084962D01*
X167630500Y-116690974D01*
X167650185Y-116623935D01*
X167702989Y-116578180D01*
X167772147Y-116568236D01*
X167835703Y-116597261D01*
X167857603Y-116622084D01*
X167860159Y-116625910D01*
X167992548Y-116758299D01*
X167992552Y-116758302D01*
X168148222Y-116862318D01*
X168148228Y-116862321D01*
X168148229Y-116862322D01*
X168321209Y-116933973D01*
X168504839Y-116970499D01*
X168504843Y-116970500D01*
X168504844Y-116970500D01*
X168692077Y-116970500D01*
X168692078Y-116970499D01*
X168875711Y-116933973D01*
X169048691Y-116862322D01*
X169204368Y-116758302D01*
X169336762Y-116625908D01*
X169440782Y-116470231D01*
X169512433Y-116297251D01*
X169548960Y-116113616D01*
X169548960Y-115926384D01*
X169512433Y-115742749D01*
X169440782Y-115569769D01*
X169440781Y-115569768D01*
X169440778Y-115569762D01*
X169336762Y-115414092D01*
X169336759Y-115414088D01*
X169204371Y-115281700D01*
X169204367Y-115281697D01*
X169048697Y-115177681D01*
X169048688Y-115177676D01*
X168875711Y-115106027D01*
X168875703Y-115106025D01*
X168692080Y-115069500D01*
X168692076Y-115069500D01*
X168504844Y-115069500D01*
X168504839Y-115069500D01*
X168321216Y-115106025D01*
X168321208Y-115106027D01*
X168148231Y-115177676D01*
X168148222Y-115177681D01*
X167992552Y-115281697D01*
X167992548Y-115281700D01*
X167860160Y-115414088D01*
X167860154Y-115414096D01*
X167857599Y-115417920D01*
X167803985Y-115462723D01*
X167734660Y-115471427D01*
X167671634Y-115441270D01*
X167634917Y-115381825D01*
X167630500Y-115349025D01*
X167630500Y-110100974D01*
X167650185Y-110033935D01*
X167702989Y-109988180D01*
X167772147Y-109978236D01*
X167835703Y-110007261D01*
X167857603Y-110032084D01*
X167860159Y-110035910D01*
X167992548Y-110168299D01*
X167992552Y-110168302D01*
X168148222Y-110272318D01*
X168148228Y-110272321D01*
X168148229Y-110272322D01*
X168321209Y-110343973D01*
X168504004Y-110380333D01*
X168504839Y-110380499D01*
X168504843Y-110380500D01*
X168504844Y-110380500D01*
X168692077Y-110380500D01*
X168692078Y-110380499D01*
X168875711Y-110343973D01*
X169048691Y-110272322D01*
X169204368Y-110168302D01*
X169336762Y-110035908D01*
X169440782Y-109880231D01*
X169512433Y-109707251D01*
X169548960Y-109523616D01*
X169548960Y-109336384D01*
X169512433Y-109152749D01*
X169440782Y-108979769D01*
X169440781Y-108979768D01*
X169440778Y-108979762D01*
X169336762Y-108824092D01*
X169336759Y-108824088D01*
X169256819Y-108744148D01*
X169223334Y-108682825D01*
X169220500Y-108656467D01*
X169220500Y-108392198D01*
X169220501Y-108392185D01*
X169220501Y-108297810D01*
X169220501Y-108297807D01*
X169198660Y-108216293D01*
X169175103Y-108175493D01*
X169168442Y-108148035D01*
X169158749Y-108121495D01*
X169160313Y-108114530D01*
X169158631Y-108107594D01*
X169167872Y-108080891D01*
X169174067Y-108053325D01*
X169179657Y-108046840D01*
X169181483Y-108041567D01*
X169195411Y-108025216D01*
X169202915Y-108017813D01*
X169205251Y-108016465D01*
X169264923Y-107956793D01*
X169264924Y-107956790D01*
X169412892Y-107808821D01*
X169474213Y-107775338D01*
X169543905Y-107780322D01*
X169548024Y-107781943D01*
X169562498Y-107787938D01*
X169601209Y-107803973D01*
X169784839Y-107840499D01*
X169784843Y-107840500D01*
X169784844Y-107840500D01*
X169972077Y-107840500D01*
X169972078Y-107840499D01*
X170155711Y-107803973D01*
X170328691Y-107732322D01*
X170484368Y-107628302D01*
X170616762Y-107495908D01*
X170620857Y-107489780D01*
X170674468Y-107444974D01*
X170743793Y-107436265D01*
X170806821Y-107466419D01*
G37*
%TD.AperFunction*%
%TA.AperFunction,Conductor*%
G36*
X184343414Y-111070239D02*
G01*
X184365503Y-111071819D01*
X184376286Y-111079891D01*
X184389208Y-111083686D01*
X184403707Y-111100419D01*
X184421436Y-111113691D01*
X184426143Y-111126311D01*
X184434963Y-111136490D01*
X184438114Y-111158407D01*
X184445853Y-111179155D01*
X184442990Y-111192315D01*
X184444907Y-111205648D01*
X184435707Y-111225791D01*
X184431001Y-111247428D01*
X184417732Y-111265153D01*
X184415882Y-111269204D01*
X184409850Y-111275682D01*
X184395935Y-111289596D01*
X184345931Y-111396829D01*
X184339500Y-111445684D01*
X184339500Y-111794317D01*
X184345931Y-111843172D01*
X184395935Y-111950405D01*
X184487267Y-112041737D01*
X184484443Y-112044560D01*
X184515183Y-112083043D01*
X184522352Y-112152543D01*
X184490808Y-112214887D01*
X184487101Y-112218099D01*
X184487267Y-112218265D01*
X184395935Y-112309596D01*
X184345931Y-112416829D01*
X184339500Y-112465684D01*
X184339500Y-112814317D01*
X184345931Y-112863172D01*
X184345932Y-112863174D01*
X184395935Y-112970405D01*
X184479596Y-113054066D01*
X184586827Y-113104069D01*
X184635683Y-113110501D01*
X184635684Y-113110501D01*
X184854167Y-113110501D01*
X184883607Y-113119145D01*
X184913594Y-113125669D01*
X184918609Y-113129423D01*
X184921206Y-113130186D01*
X184941848Y-113146820D01*
X185023181Y-113228153D01*
X185056666Y-113289476D01*
X185059500Y-113315834D01*
X185059500Y-113462880D01*
X185039815Y-113529919D01*
X184987011Y-113575674D01*
X184985592Y-113576312D01*
X184982240Y-113577791D01*
X184982232Y-113577797D01*
X184902794Y-113657235D01*
X184857415Y-113760007D01*
X184857415Y-113760009D01*
X184854500Y-113785132D01*
X184854500Y-115299857D01*
X184854502Y-115299883D01*
X184857413Y-115324988D01*
X184857415Y-115324992D01*
X184902793Y-115427765D01*
X184902794Y-115427766D01*
X184982235Y-115507207D01*
X185085009Y-115552586D01*
X185110135Y-115555501D01*
X185399864Y-115555500D01*
X185399879Y-115555498D01*
X185399882Y-115555498D01*
X185424987Y-115552587D01*
X185424987Y-115552586D01*
X185424991Y-115552586D01*
X185522417Y-115509568D01*
X185591690Y-115500497D01*
X185622581Y-115509567D01*
X185720009Y-115552586D01*
X185745135Y-115555501D01*
X186034864Y-115555500D01*
X186034879Y-115555498D01*
X186034882Y-115555498D01*
X186059987Y-115552587D01*
X186059987Y-115552586D01*
X186059991Y-115552586D01*
X186157417Y-115509568D01*
X186226690Y-115500497D01*
X186257581Y-115509567D01*
X186355009Y-115552586D01*
X186380135Y-115555501D01*
X186669864Y-115555500D01*
X186669879Y-115555498D01*
X186669882Y-115555498D01*
X186694987Y-115552587D01*
X186694987Y-115552586D01*
X186694991Y-115552586D01*
X186792417Y-115509568D01*
X186861690Y-115500497D01*
X186892581Y-115509567D01*
X186990009Y-115552586D01*
X187015135Y-115555501D01*
X187269456Y-115555500D01*
X187336495Y-115575184D01*
X187382250Y-115627988D01*
X187392194Y-115697147D01*
X187363169Y-115760702D01*
X187357137Y-115767181D01*
X186879531Y-116244787D01*
X186879527Y-116244792D01*
X186847383Y-116300469D01*
X186833386Y-116324711D01*
X186833386Y-116324712D01*
X186809500Y-116413857D01*
X186809500Y-117876883D01*
X186789815Y-117943922D01*
X186737011Y-117989677D01*
X186667853Y-117999621D01*
X186604297Y-117970596D01*
X186597819Y-117964564D01*
X185970034Y-117336780D01*
X185970032Y-117336777D01*
X185903294Y-117270039D01*
X185903292Y-117270037D01*
X185830209Y-117227842D01*
X185785595Y-117215888D01*
X185748696Y-117206001D01*
X185743581Y-117205328D01*
X185738591Y-117205001D01*
X185738125Y-117205001D01*
X183423384Y-117205001D01*
X183423368Y-117205000D01*
X183415772Y-117205000D01*
X183331383Y-117205000D01*
X183331381Y-117205000D01*
X183271711Y-117220987D01*
X183271712Y-117220988D01*
X183249871Y-117226840D01*
X183249870Y-117226840D01*
X183176788Y-117269035D01*
X183176782Y-117269039D01*
X183117113Y-117328709D01*
X183117111Y-117328711D01*
X182166332Y-118279491D01*
X181222641Y-119223182D01*
X181161318Y-119256667D01*
X181134960Y-119259501D01*
X175970065Y-119259501D01*
X175903026Y-119239816D01*
X175857271Y-119187012D01*
X175847327Y-119117854D01*
X175850290Y-119103408D01*
X175871060Y-119025893D01*
X175871060Y-118894109D01*
X175848725Y-118810752D01*
X175844500Y-118778659D01*
X175844500Y-118269839D01*
X175844501Y-118269826D01*
X175844501Y-118140166D01*
X175814848Y-118029501D01*
X175814848Y-118029500D01*
X175814847Y-118029497D01*
X175813527Y-118024570D01*
X175753691Y-117920931D01*
X175669070Y-117836310D01*
X175669069Y-117836309D01*
X175664739Y-117831979D01*
X175664728Y-117831969D01*
X175460819Y-117628060D01*
X175427334Y-117566737D01*
X175424500Y-117540379D01*
X175424500Y-116864637D01*
X175444185Y-116797598D01*
X175496989Y-116751843D01*
X175566147Y-116741899D01*
X175617391Y-116761535D01*
X175768222Y-116862318D01*
X175768228Y-116862321D01*
X175768229Y-116862322D01*
X175941209Y-116933973D01*
X176124839Y-116970499D01*
X176124843Y-116970500D01*
X176124844Y-116970500D01*
X176312077Y-116970500D01*
X176312078Y-116970499D01*
X176495711Y-116933973D01*
X176668691Y-116862322D01*
X176824368Y-116758302D01*
X176956762Y-116625908D01*
X177060782Y-116470231D01*
X177132433Y-116297251D01*
X177168960Y-116113616D01*
X177168960Y-115926384D01*
X177132433Y-115742749D01*
X177060782Y-115569769D01*
X177060781Y-115569768D01*
X177060778Y-115569762D01*
X176956762Y-115414092D01*
X176956759Y-115414088D01*
X176824371Y-115281700D01*
X176824367Y-115281697D01*
X176668697Y-115177681D01*
X176668687Y-115177676D01*
X176615507Y-115155648D01*
X176561104Y-115111807D01*
X176539039Y-115045512D01*
X176538960Y-115041087D01*
X176538960Y-114162934D01*
X176558645Y-114095895D01*
X176611449Y-114050140D01*
X176680607Y-114040196D01*
X176744163Y-114069221D01*
X176758818Y-114084275D01*
X176760162Y-114085913D01*
X176892548Y-114218299D01*
X176892552Y-114218302D01*
X177048222Y-114322318D01*
X177048228Y-114322321D01*
X177048229Y-114322322D01*
X177221209Y-114393973D01*
X177383010Y-114426157D01*
X177404839Y-114430499D01*
X177404843Y-114430500D01*
X177404844Y-114430500D01*
X177592077Y-114430500D01*
X177592078Y-114430499D01*
X177775711Y-114393973D01*
X177948691Y-114322322D01*
X178104368Y-114218302D01*
X178236762Y-114085908D01*
X178340782Y-113930231D01*
X178412433Y-113757251D01*
X178448960Y-113573616D01*
X178448960Y-113386384D01*
X178412433Y-113202749D01*
X178340782Y-113029769D01*
X178340781Y-113029768D01*
X178340778Y-113029762D01*
X178236762Y-112874092D01*
X178236759Y-112874088D01*
X178104371Y-112741700D01*
X178104367Y-112741697D01*
X177948697Y-112637681D01*
X177948688Y-112637676D01*
X177775711Y-112566027D01*
X177775703Y-112566025D01*
X177592080Y-112529500D01*
X177592076Y-112529500D01*
X177404844Y-112529500D01*
X177404839Y-112529500D01*
X177279502Y-112554431D01*
X177209910Y-112548204D01*
X177154733Y-112505340D01*
X177131489Y-112439450D01*
X177147557Y-112371454D01*
X177167626Y-112345137D01*
X178412445Y-111100320D01*
X178473768Y-111066835D01*
X178500126Y-111064001D01*
X184322169Y-111064001D01*
X184343414Y-111070239D01*
G37*
%TD.AperFunction*%
%TA.AperFunction,Conductor*%
G36*
X191608834Y-107344314D02*
G01*
X191664767Y-107386186D01*
X191689184Y-107451650D01*
X191689500Y-107460496D01*
X191689500Y-110695301D01*
X191669815Y-110762340D01*
X191653181Y-110782982D01*
X190744533Y-111691629D01*
X190744532Y-111691630D01*
X190729393Y-111717853D01*
X190698386Y-111771556D01*
X190674500Y-111860702D01*
X190674500Y-113880409D01*
X190654815Y-113947448D01*
X190606795Y-113990893D01*
X190546783Y-114021470D01*
X190546774Y-114021477D01*
X190451476Y-114116775D01*
X190451473Y-114116779D01*
X190390279Y-114236879D01*
X190374500Y-114336507D01*
X190374500Y-114903494D01*
X190390279Y-115003122D01*
X190390280Y-115003125D01*
X190390281Y-115003127D01*
X190451472Y-115123221D01*
X190451473Y-115123222D01*
X190451476Y-115123226D01*
X190470157Y-115141907D01*
X190503642Y-115203230D01*
X190498658Y-115272922D01*
X190457711Y-115328156D01*
X190447040Y-115336300D01*
X190381684Y-115366777D01*
X190299689Y-115448771D01*
X190293099Y-115453802D01*
X190267904Y-115463468D01*
X190244221Y-115476400D01*
X190235774Y-115475795D01*
X190227866Y-115478830D01*
X190201446Y-115473340D01*
X190174530Y-115471416D01*
X190167749Y-115466339D01*
X190159457Y-115464617D01*
X190140199Y-115445716D01*
X190118596Y-115429544D01*
X190115636Y-115421608D01*
X190109592Y-115415676D01*
X190103609Y-115389362D01*
X190094180Y-115364079D01*
X190095284Y-115352743D01*
X190094103Y-115347545D01*
X190096412Y-115341170D01*
X190097080Y-115334322D01*
X190096510Y-115334256D01*
X190097585Y-115324988D01*
X190100500Y-115299866D01*
X190100499Y-113785137D01*
X190100497Y-113785118D01*
X190097586Y-113760013D01*
X190097585Y-113760011D01*
X190097585Y-113760010D01*
X190052206Y-113657236D01*
X189972765Y-113577795D01*
X189967264Y-113575366D01*
X189869992Y-113532416D01*
X189844865Y-113529501D01*
X189555143Y-113529501D01*
X189555117Y-113529503D01*
X189530012Y-113532414D01*
X189530008Y-113532416D01*
X189432586Y-113575432D01*
X189363308Y-113584504D01*
X189332414Y-113575432D01*
X189234995Y-113532417D01*
X189234991Y-113532416D01*
X189209865Y-113529501D01*
X188920143Y-113529501D01*
X188920117Y-113529503D01*
X188895012Y-113532414D01*
X188895008Y-113532416D01*
X188797586Y-113575432D01*
X188728308Y-113584504D01*
X188697414Y-113575432D01*
X188599995Y-113532417D01*
X188599991Y-113532416D01*
X188574865Y-113529501D01*
X188285143Y-113529501D01*
X188285117Y-113529503D01*
X188260012Y-113532414D01*
X188260008Y-113532416D01*
X188162586Y-113575432D01*
X188093308Y-113584504D01*
X188062414Y-113575432D01*
X187964995Y-113532417D01*
X187964991Y-113532416D01*
X187939868Y-113529501D01*
X187684832Y-113529501D01*
X187663586Y-113523262D01*
X187641498Y-113521683D01*
X187630714Y-113513610D01*
X187617793Y-113509816D01*
X187603293Y-113493082D01*
X187585565Y-113479811D01*
X187580857Y-113467190D01*
X187572038Y-113457012D01*
X187568886Y-113435094D01*
X187561148Y-113414347D01*
X187564010Y-113401186D01*
X187562094Y-113387854D01*
X187571293Y-113367710D01*
X187576000Y-113346074D01*
X187589268Y-113328348D01*
X187591119Y-113324298D01*
X187597137Y-113317834D01*
X187768152Y-113146820D01*
X187829475Y-113113335D01*
X187855833Y-113110501D01*
X188074317Y-113110501D01*
X188090601Y-113108357D01*
X188123173Y-113104069D01*
X188230404Y-113054066D01*
X188314065Y-112970405D01*
X188364068Y-112863174D01*
X188370500Y-112814317D01*
X188370500Y-112465685D01*
X188364068Y-112416828D01*
X188314065Y-112309597D01*
X188230404Y-112225936D01*
X188222733Y-112218265D01*
X188225561Y-112215436D01*
X188194843Y-112177024D01*
X188187635Y-112107527D01*
X188219143Y-112045166D01*
X188222903Y-112041907D01*
X188222733Y-112041737D01*
X188248761Y-112015709D01*
X188314065Y-111950405D01*
X188364068Y-111843174D01*
X188370500Y-111794317D01*
X188370500Y-111445685D01*
X188364068Y-111396828D01*
X188314065Y-111289597D01*
X188230404Y-111205936D01*
X188123173Y-111155933D01*
X188123171Y-111155932D01*
X188123170Y-111155932D01*
X188123167Y-111155931D01*
X188115511Y-111154923D01*
X188051616Y-111126654D01*
X188013147Y-111068328D01*
X188012319Y-110998463D01*
X188044019Y-110944306D01*
X189939065Y-109049261D01*
X189982181Y-108974581D01*
X190004500Y-108891287D01*
X190004500Y-108805055D01*
X190004500Y-107750017D01*
X190013145Y-107720573D01*
X190019668Y-107690591D01*
X190023422Y-107685575D01*
X190024185Y-107682978D01*
X190040810Y-107662345D01*
X190166510Y-107536645D01*
X190227828Y-107503163D01*
X190297520Y-107508147D01*
X190301614Y-107509757D01*
X190483580Y-107585131D01*
X190681226Y-107624445D01*
X190686530Y-107625500D01*
X190686534Y-107625501D01*
X190686535Y-107625501D01*
X190893466Y-107625501D01*
X190893467Y-107625500D01*
X191096420Y-107585131D01*
X191287598Y-107505942D01*
X191459655Y-107390978D01*
X191464447Y-107386186D01*
X191477819Y-107372815D01*
X191539142Y-107339330D01*
X191608834Y-107344314D01*
G37*
%TD.AperFunction*%
%TA.AperFunction,Conductor*%
G36*
X195660999Y-85060185D02*
G01*
X195706754Y-85112989D01*
X195717960Y-85164500D01*
X195717963Y-132615500D01*
X195698278Y-132682539D01*
X195645474Y-132728294D01*
X195593963Y-132739500D01*
X151392960Y-132739500D01*
X151325921Y-132719815D01*
X151280166Y-132667011D01*
X151268960Y-132615500D01*
X151268960Y-124806530D01*
X165137960Y-124806530D01*
X165137960Y-125013469D01*
X165178328Y-125216412D01*
X165178330Y-125216420D01*
X165257518Y-125407596D01*
X165372484Y-125579657D01*
X165518802Y-125725975D01*
X165518805Y-125725977D01*
X165690862Y-125840941D01*
X165882040Y-125920130D01*
X166084990Y-125960499D01*
X166084994Y-125960500D01*
X166084995Y-125960500D01*
X166291926Y-125960500D01*
X166291927Y-125960499D01*
X166494880Y-125920130D01*
X166615434Y-125870194D01*
X166684898Y-125862726D01*
X166747378Y-125894000D01*
X166750564Y-125897075D01*
X170668001Y-129814512D01*
X170723950Y-129870461D01*
X170723952Y-129870462D01*
X170723956Y-129870465D01*
X170780607Y-129903172D01*
X170792472Y-129910022D01*
X170868899Y-129930501D01*
X183109679Y-129930501D01*
X183176718Y-129950186D01*
X183222060Y-130002096D01*
X183225935Y-130010405D01*
X183309596Y-130094066D01*
X183416827Y-130144069D01*
X183465683Y-130150501D01*
X183465684Y-130150501D01*
X183814317Y-130150501D01*
X183830601Y-130148357D01*
X183863173Y-130144069D01*
X183970404Y-130094066D01*
X184054065Y-130010405D01*
X184054065Y-130010404D01*
X184061736Y-130002734D01*
X184064564Y-130005562D01*
X184102977Y-129974844D01*
X184172474Y-129967636D01*
X184234835Y-129999144D01*
X184238093Y-130002904D01*
X184238264Y-130002734D01*
X184245935Y-130010405D01*
X184329596Y-130094066D01*
X184436827Y-130144069D01*
X184485683Y-130150501D01*
X184485684Y-130150501D01*
X184834317Y-130150501D01*
X184850601Y-130148357D01*
X184883173Y-130144069D01*
X184990404Y-130094066D01*
X185074065Y-130010405D01*
X185124068Y-129903174D01*
X185130500Y-129854317D01*
X185130500Y-129696881D01*
X185132782Y-129679549D01*
X185131899Y-129679433D01*
X185132960Y-129671375D01*
X185132960Y-128918017D01*
X185133034Y-128913720D01*
X185133240Y-128907758D01*
X185138960Y-128864316D01*
X185138960Y-128749041D01*
X189617960Y-128749041D01*
X189617960Y-129030958D01*
X189654755Y-129310439D01*
X189727719Y-129582743D01*
X189835595Y-129843179D01*
X189835600Y-129843190D01*
X189976543Y-130087309D01*
X189976548Y-130087317D01*
X190148160Y-130310965D01*
X190148164Y-130310970D01*
X190347489Y-130510295D01*
X190347493Y-130510298D01*
X190347495Y-130510300D01*
X190571143Y-130681912D01*
X190571150Y-130681916D01*
X190815269Y-130822859D01*
X190815274Y-130822861D01*
X190815277Y-130822863D01*
X191075721Y-130930742D01*
X191348018Y-131003704D01*
X191627509Y-131040500D01*
X191627516Y-131040500D01*
X191909404Y-131040500D01*
X191909411Y-131040500D01*
X192188902Y-131003704D01*
X192461199Y-130930742D01*
X192721643Y-130822863D01*
X192965777Y-130681912D01*
X193189425Y-130510300D01*
X193388760Y-130310965D01*
X193560372Y-130087317D01*
X193701323Y-129843183D01*
X193809202Y-129582739D01*
X193882164Y-129310442D01*
X193918960Y-129030951D01*
X193918960Y-128749049D01*
X193882164Y-128469558D01*
X193809202Y-128197261D01*
X193701323Y-127936817D01*
X193701321Y-127936814D01*
X193701319Y-127936809D01*
X193560376Y-127692690D01*
X193560372Y-127692683D01*
X193388760Y-127469035D01*
X193388758Y-127469033D01*
X193388755Y-127469029D01*
X193189430Y-127269704D01*
X193189425Y-127269700D01*
X192965777Y-127098088D01*
X192965771Y-127098084D01*
X192965769Y-127098083D01*
X192721650Y-126957140D01*
X192721639Y-126957135D01*
X192461203Y-126849259D01*
X192188899Y-126776295D01*
X191909418Y-126739500D01*
X191909411Y-126739500D01*
X191627509Y-126739500D01*
X191627501Y-126739500D01*
X191348020Y-126776295D01*
X191075716Y-126849259D01*
X190815280Y-126957135D01*
X190815269Y-126957140D01*
X190571150Y-127098083D01*
X190571144Y-127098087D01*
X190571143Y-127098088D01*
X190508945Y-127145814D01*
X190347489Y-127269704D01*
X190148164Y-127469029D01*
X189976549Y-127692682D01*
X189976543Y-127692690D01*
X189835600Y-127936809D01*
X189835595Y-127936820D01*
X189727719Y-128197256D01*
X189654755Y-128469560D01*
X189617960Y-128749041D01*
X185138960Y-128749041D01*
X185138960Y-128415684D01*
X185134021Y-128378167D01*
X185132960Y-128361982D01*
X185132960Y-128096998D01*
X185149574Y-128034996D01*
X185156391Y-128023188D01*
X185156392Y-128023187D01*
X185190500Y-127895893D01*
X185190500Y-127764109D01*
X185156392Y-127636815D01*
X185156389Y-127636811D01*
X185153938Y-127630891D01*
X185144500Y-127583440D01*
X185144500Y-126939839D01*
X185144501Y-126939826D01*
X185144501Y-126810166D01*
X185135425Y-126776296D01*
X185113527Y-126694571D01*
X185113527Y-126694570D01*
X185113527Y-126694569D01*
X185087144Y-126648873D01*
X185053691Y-126590931D01*
X184969070Y-126506310D01*
X184969069Y-126506309D01*
X179760760Y-121298001D01*
X179760759Y-121297999D01*
X179669072Y-121206312D01*
X179669070Y-121206310D01*
X179565433Y-121146475D01*
X179565432Y-121146474D01*
X179546790Y-121141479D01*
X179546788Y-121141478D01*
X179537802Y-121139071D01*
X179449836Y-121115500D01*
X179330164Y-121115500D01*
X179330160Y-121115501D01*
X176389622Y-121115501D01*
X176322583Y-121095816D01*
X176301941Y-121079182D01*
X175917248Y-120694489D01*
X175897542Y-120668808D01*
X175896392Y-120666817D01*
X175896392Y-120666815D01*
X175830500Y-120552687D01*
X175779995Y-120502182D01*
X175746510Y-120440859D01*
X175751494Y-120371167D01*
X175793366Y-120315234D01*
X175858830Y-120290817D01*
X175867676Y-120290501D01*
X181491700Y-120290501D01*
X181491702Y-120290501D01*
X181491703Y-120290501D01*
X181573217Y-120268660D01*
X181646300Y-120226465D01*
X181705972Y-120166793D01*
X181705972Y-120166791D01*
X181716176Y-120156588D01*
X181716179Y-120156583D01*
X183622445Y-118250320D01*
X183683768Y-118216835D01*
X183710126Y-118214001D01*
X185359383Y-118214001D01*
X185426422Y-118233686D01*
X185447064Y-118250320D01*
X185643181Y-118446437D01*
X185657884Y-118473364D01*
X185674477Y-118499183D01*
X185675368Y-118505383D01*
X185676666Y-118507760D01*
X185679500Y-118534118D01*
X185679500Y-118729491D01*
X185659815Y-118796530D01*
X185607011Y-118842285D01*
X185537853Y-118852229D01*
X185505414Y-118842926D01*
X185490211Y-118836213D01*
X185424991Y-118807416D01*
X185399865Y-118804501D01*
X185110143Y-118804501D01*
X185110117Y-118804503D01*
X185085012Y-118807414D01*
X185085008Y-118807416D01*
X184982235Y-118852794D01*
X184902794Y-118932235D01*
X184857415Y-119035007D01*
X184857415Y-119035009D01*
X184854500Y-119060132D01*
X184854500Y-120574857D01*
X184854502Y-120574883D01*
X184857413Y-120599988D01*
X184857415Y-120599992D01*
X184902793Y-120702765D01*
X184902794Y-120702766D01*
X184982235Y-120782207D01*
X185085009Y-120827586D01*
X185110135Y-120830501D01*
X185399864Y-120830500D01*
X185399879Y-120830498D01*
X185399882Y-120830498D01*
X185424987Y-120827587D01*
X185424987Y-120827586D01*
X185424991Y-120827586D01*
X185522417Y-120784568D01*
X185591690Y-120775497D01*
X185622581Y-120784567D01*
X185720009Y-120827586D01*
X185745135Y-120830501D01*
X186034864Y-120830500D01*
X186034879Y-120830498D01*
X186034882Y-120830498D01*
X186059987Y-120827587D01*
X186059987Y-120827586D01*
X186059991Y-120827586D01*
X186157417Y-120784568D01*
X186226690Y-120775497D01*
X186257581Y-120784567D01*
X186355009Y-120827586D01*
X186380135Y-120830501D01*
X186669864Y-120830500D01*
X186669879Y-120830498D01*
X186669882Y-120830498D01*
X186694987Y-120827587D01*
X186694987Y-120827586D01*
X186694991Y-120827586D01*
X186792417Y-120784568D01*
X186861690Y-120775497D01*
X186892581Y-120784567D01*
X186990009Y-120827586D01*
X187015135Y-120830501D01*
X187304864Y-120830500D01*
X187304879Y-120830498D01*
X187304882Y-120830498D01*
X187329987Y-120827587D01*
X187329987Y-120827586D01*
X187329991Y-120827586D01*
X187427417Y-120784568D01*
X187496690Y-120775497D01*
X187527581Y-120784567D01*
X187625009Y-120827586D01*
X187650135Y-120830501D01*
X187939864Y-120830500D01*
X187939879Y-120830498D01*
X187939882Y-120830498D01*
X187964987Y-120827587D01*
X187964988Y-120827586D01*
X187964991Y-120827586D01*
X188067765Y-120782207D01*
X188147206Y-120702766D01*
X188192585Y-120599992D01*
X188195500Y-120574866D01*
X188195499Y-119060137D01*
X188195497Y-119060118D01*
X188192586Y-119035014D01*
X188192585Y-119035012D01*
X188192585Y-119035010D01*
X188156064Y-118952298D01*
X188145500Y-118902215D01*
X188145500Y-118552306D01*
X188165185Y-118485267D01*
X188181819Y-118464625D01*
X188717124Y-117929320D01*
X188778447Y-117895835D01*
X188804805Y-117893001D01*
X190045956Y-117893001D01*
X190075396Y-117901645D01*
X190105383Y-117908169D01*
X190110398Y-117911923D01*
X190112995Y-117912686D01*
X190133637Y-117929320D01*
X190203181Y-117998864D01*
X190236666Y-118060187D01*
X190239500Y-118086544D01*
X190239500Y-118229895D01*
X190239501Y-118229901D01*
X190246028Y-118279488D01*
X190246029Y-118279490D01*
X190246029Y-118279491D01*
X190296776Y-118388317D01*
X190333181Y-118424722D01*
X190347884Y-118451649D01*
X190364477Y-118477468D01*
X190365368Y-118483668D01*
X190366666Y-118486045D01*
X190369500Y-118512403D01*
X190369500Y-118651678D01*
X190353322Y-118706771D01*
X190355903Y-118708086D01*
X190351473Y-118716779D01*
X190351472Y-118716781D01*
X190319944Y-118778659D01*
X190290279Y-118836878D01*
X190282034Y-118888939D01*
X190252104Y-118952073D01*
X190192793Y-118989004D01*
X190122930Y-118988006D01*
X190064698Y-118949396D01*
X190057260Y-118939615D01*
X190052207Y-118932238D01*
X190052206Y-118932236D01*
X189972765Y-118852795D01*
X189936719Y-118836879D01*
X189869992Y-118807416D01*
X189844865Y-118804501D01*
X189555143Y-118804501D01*
X189555117Y-118804503D01*
X189530012Y-118807414D01*
X189530008Y-118807416D01*
X189432586Y-118850432D01*
X189363308Y-118859504D01*
X189332414Y-118850432D01*
X189234995Y-118807417D01*
X189234991Y-118807416D01*
X189209865Y-118804501D01*
X188920143Y-118804501D01*
X188920117Y-118804503D01*
X188895012Y-118807414D01*
X188895008Y-118807416D01*
X188792235Y-118852794D01*
X188712794Y-118932235D01*
X188667415Y-119035007D01*
X188667415Y-119035009D01*
X188664500Y-119060132D01*
X188664500Y-120574857D01*
X188664502Y-120574883D01*
X188667413Y-120599987D01*
X188667414Y-120599991D01*
X188667415Y-120599992D01*
X188708445Y-120692917D01*
X188708952Y-120694064D01*
X188718023Y-120763343D01*
X188688199Y-120826527D01*
X188683198Y-120831831D01*
X188311848Y-121203182D01*
X188250525Y-121236667D01*
X188224167Y-121239501D01*
X187998438Y-121239501D01*
X187960224Y-121249740D01*
X187922009Y-121259980D01*
X187922004Y-121259983D01*
X187853495Y-121299536D01*
X187853487Y-121299542D01*
X187478541Y-121674488D01*
X187478535Y-121674496D01*
X187438982Y-121743005D01*
X187438979Y-121743010D01*
X187418500Y-121819440D01*
X187418500Y-123185168D01*
X187398815Y-123252207D01*
X187382181Y-123272849D01*
X187031848Y-123623182D01*
X186970525Y-123656667D01*
X186944167Y-123659501D01*
X185800247Y-123659501D01*
X185741770Y-123671132D01*
X185741769Y-123671133D01*
X185675447Y-123715448D01*
X185631132Y-123781770D01*
X185631131Y-123781771D01*
X185619500Y-123840248D01*
X185619500Y-125079753D01*
X185631131Y-125138230D01*
X185631132Y-125138231D01*
X185675447Y-125204553D01*
X185741769Y-125248868D01*
X185741770Y-125248869D01*
X185800247Y-125260500D01*
X185800250Y-125260501D01*
X185800252Y-125260501D01*
X187239750Y-125260501D01*
X187239751Y-125260500D01*
X187254568Y-125257553D01*
X187298229Y-125248869D01*
X187298229Y-125248868D01*
X187298231Y-125248868D01*
X187364552Y-125204553D01*
X187408867Y-125138232D01*
X187408867Y-125138230D01*
X187408868Y-125138230D01*
X187420499Y-125079753D01*
X187420500Y-125079751D01*
X187420500Y-124135833D01*
X187440185Y-124068794D01*
X187456815Y-124048156D01*
X187908151Y-123596819D01*
X187969474Y-123563335D01*
X187995832Y-123560501D01*
X189439750Y-123560501D01*
X189439751Y-123560500D01*
X189454568Y-123557553D01*
X189498229Y-123548869D01*
X189498229Y-123548868D01*
X189498231Y-123548868D01*
X189564552Y-123504553D01*
X189608867Y-123438232D01*
X189608867Y-123438230D01*
X189608868Y-123438230D01*
X189620499Y-123379753D01*
X189620500Y-123379751D01*
X189620500Y-122140250D01*
X189620499Y-122140248D01*
X189608868Y-122081771D01*
X189608867Y-122081770D01*
X189564552Y-122015448D01*
X189498230Y-121971133D01*
X189498229Y-121971132D01*
X189439752Y-121959501D01*
X189439748Y-121959501D01*
X189374833Y-121959501D01*
X189307794Y-121939816D01*
X189262039Y-121887012D01*
X189252095Y-121817854D01*
X189281120Y-121754298D01*
X189287152Y-121747820D01*
X189486960Y-121548012D01*
X189940460Y-121094512D01*
X189980021Y-121025990D01*
X190000500Y-120949563D01*
X190000500Y-120805834D01*
X190008782Y-120777626D01*
X190014413Y-120748765D01*
X190019163Y-120742275D01*
X190020185Y-120738795D01*
X190034950Y-120720062D01*
X190035858Y-120719113D01*
X190052206Y-120702766D01*
X190052795Y-120701430D01*
X190060950Y-120692917D01*
X190082796Y-120680369D01*
X190102312Y-120664435D01*
X190112579Y-120663264D01*
X190121538Y-120658119D01*
X190146697Y-120659374D01*
X190171732Y-120656520D01*
X190181002Y-120661086D01*
X190191321Y-120661601D01*
X190211807Y-120676259D01*
X190234411Y-120687393D01*
X190239741Y-120696246D01*
X190248143Y-120702258D01*
X190257453Y-120725665D01*
X190270449Y-120747252D01*
X190272562Y-120763655D01*
X190273965Y-120767181D01*
X190273394Y-120770107D01*
X190274500Y-120778689D01*
X190274500Y-121003494D01*
X190290279Y-121103122D01*
X190290280Y-121103125D01*
X190290281Y-121103127D01*
X190351472Y-121223221D01*
X190351473Y-121223222D01*
X190351476Y-121223226D01*
X190446774Y-121318524D01*
X190446778Y-121318527D01*
X190446780Y-121318529D01*
X190566874Y-121379720D01*
X190566876Y-121379720D01*
X190566878Y-121379721D01*
X190666507Y-121395501D01*
X190666512Y-121395501D01*
X191183493Y-121395501D01*
X191283121Y-121379721D01*
X191283121Y-121379720D01*
X191283126Y-121379720D01*
X191403220Y-121318529D01*
X191498528Y-121223221D01*
X191559719Y-121103127D01*
X191560877Y-121095816D01*
X191575500Y-121003494D01*
X191575500Y-120436507D01*
X191559720Y-120336879D01*
X191559719Y-120336877D01*
X191559719Y-120336875D01*
X191498528Y-120216781D01*
X191498526Y-120216779D01*
X191498523Y-120216775D01*
X191403225Y-120121477D01*
X191403221Y-120121474D01*
X191403220Y-120121473D01*
X191322775Y-120080484D01*
X191271981Y-120032512D01*
X191255186Y-119964691D01*
X191277723Y-119898556D01*
X191322774Y-119859517D01*
X191403220Y-119818529D01*
X191498528Y-119723221D01*
X191559719Y-119603127D01*
X191559720Y-119603122D01*
X191575500Y-119503494D01*
X191575500Y-118936507D01*
X191559720Y-118836879D01*
X191559719Y-118836877D01*
X191559719Y-118836875D01*
X191498528Y-118716781D01*
X191498526Y-118716779D01*
X191498523Y-118716775D01*
X191403225Y-118621477D01*
X191403221Y-118621474D01*
X191403220Y-118621473D01*
X191283126Y-118560282D01*
X191283124Y-118560281D01*
X191283121Y-118560280D01*
X191240698Y-118553561D01*
X191177563Y-118523631D01*
X191140633Y-118464319D01*
X191141631Y-118394457D01*
X191147705Y-118378705D01*
X191193972Y-118279488D01*
X191200500Y-118229902D01*
X191200499Y-117810101D01*
X191193972Y-117760514D01*
X191143224Y-117651685D01*
X191058316Y-117566777D01*
X190949487Y-117516029D01*
X190949485Y-117516028D01*
X190949486Y-117516028D01*
X190899902Y-117509501D01*
X190899901Y-117509501D01*
X190756544Y-117509501D01*
X190689505Y-117489816D01*
X190668863Y-117473182D01*
X190457713Y-117262032D01*
X190457708Y-117262028D01*
X190377790Y-117215888D01*
X190377789Y-117215887D01*
X190377788Y-117215887D01*
X190288644Y-117192001D01*
X188562117Y-117192001D01*
X188472973Y-117215887D01*
X188472970Y-117215888D01*
X188393052Y-117262028D01*
X188393047Y-117262032D01*
X187722181Y-117932898D01*
X187660858Y-117966383D01*
X187591166Y-117961399D01*
X187535233Y-117919527D01*
X187510816Y-117854063D01*
X187510500Y-117845217D01*
X187510500Y-116656545D01*
X187530185Y-116589506D01*
X187546819Y-116568864D01*
X187748863Y-116366820D01*
X187810186Y-116333335D01*
X187836544Y-116330501D01*
X190657498Y-116330501D01*
X190657507Y-116330500D01*
X190899895Y-116330500D01*
X190899900Y-116330500D01*
X190949487Y-116323973D01*
X191058316Y-116273225D01*
X191143224Y-116188317D01*
X191193972Y-116079488D01*
X191200500Y-116029902D01*
X191200499Y-115866545D01*
X191207693Y-115842043D01*
X191210953Y-115816711D01*
X191218278Y-115805991D01*
X191220183Y-115799506D01*
X191229593Y-115786740D01*
X191233031Y-115782650D01*
X191330470Y-115685213D01*
X191364437Y-115626378D01*
X191371460Y-115618027D01*
X191373868Y-115616428D01*
X191378686Y-115610150D01*
X191413653Y-115575184D01*
X191457970Y-115530867D01*
X191504114Y-115450943D01*
X191510324Y-115427766D01*
X191528000Y-115361799D01*
X191528000Y-115238805D01*
X191528640Y-115232530D01*
X191539548Y-115205782D01*
X191547685Y-115178072D01*
X191554091Y-115170121D01*
X191555025Y-115167833D01*
X191557124Y-115166358D01*
X191564320Y-115157429D01*
X191598524Y-115123225D01*
X191598528Y-115123221D01*
X191659719Y-115003127D01*
X191659720Y-115003122D01*
X191675500Y-114903494D01*
X191675500Y-114336507D01*
X191659720Y-114236879D01*
X191659719Y-114236877D01*
X191659719Y-114236875D01*
X191598528Y-114116781D01*
X191598526Y-114116779D01*
X191598523Y-114116775D01*
X191503225Y-114021477D01*
X191503216Y-114021470D01*
X191443205Y-113990893D01*
X191392409Y-113942919D01*
X191375500Y-113880409D01*
X191375500Y-112103390D01*
X191395185Y-112036351D01*
X191411819Y-112015709D01*
X191735899Y-111691629D01*
X192320470Y-111107058D01*
X192366614Y-111027134D01*
X192390500Y-110937990D01*
X192390500Y-110845702D01*
X192390500Y-107460496D01*
X192410185Y-107393457D01*
X192462989Y-107347702D01*
X192532147Y-107337758D01*
X192595703Y-107366783D01*
X192602181Y-107372815D01*
X192620342Y-107390976D01*
X192620345Y-107390978D01*
X192792402Y-107505942D01*
X192983580Y-107585131D01*
X193181226Y-107624445D01*
X193186530Y-107625500D01*
X193186534Y-107625501D01*
X193186535Y-107625501D01*
X193393466Y-107625501D01*
X193393467Y-107625500D01*
X193596420Y-107585131D01*
X193787598Y-107505942D01*
X193959655Y-107390978D01*
X194105977Y-107244656D01*
X194220941Y-107072599D01*
X194300130Y-106881421D01*
X194340500Y-106678466D01*
X194340500Y-106221536D01*
X194300130Y-106018581D01*
X194220941Y-105827403D01*
X194105977Y-105655346D01*
X194105975Y-105655343D01*
X193959657Y-105509025D01*
X193855613Y-105439506D01*
X193787598Y-105394060D01*
X193596420Y-105314871D01*
X193596412Y-105314869D01*
X193393469Y-105274501D01*
X193393465Y-105274501D01*
X193186535Y-105274501D01*
X193186530Y-105274501D01*
X192983587Y-105314869D01*
X192983579Y-105314871D01*
X192792403Y-105394059D01*
X192620342Y-105509025D01*
X192620341Y-105509026D01*
X192602181Y-105527187D01*
X192540858Y-105560672D01*
X192471166Y-105555688D01*
X192415233Y-105513816D01*
X192390816Y-105448352D01*
X192390500Y-105439506D01*
X192390500Y-103216545D01*
X192410185Y-103149506D01*
X192426819Y-103128864D01*
X192996183Y-102559500D01*
X193570470Y-101985213D01*
X193616614Y-101905289D01*
X193625043Y-101873830D01*
X193640500Y-101816145D01*
X193640500Y-100879726D01*
X193660185Y-100812687D01*
X193712989Y-100766932D01*
X193717048Y-100765165D01*
X193787594Y-100735944D01*
X193787595Y-100735943D01*
X193787598Y-100735942D01*
X193959655Y-100620978D01*
X194105977Y-100474656D01*
X194220941Y-100302599D01*
X194300130Y-100111421D01*
X194340500Y-99908466D01*
X194340500Y-99451536D01*
X194300130Y-99248581D01*
X194220941Y-99057403D01*
X194105977Y-98885346D01*
X194105975Y-98885343D01*
X193959657Y-98739025D01*
X193873626Y-98681542D01*
X193787598Y-98624060D01*
X193596420Y-98544871D01*
X193596412Y-98544869D01*
X193393469Y-98504501D01*
X193393465Y-98504501D01*
X193186535Y-98504501D01*
X193186530Y-98504501D01*
X192983587Y-98544869D01*
X192983579Y-98544871D01*
X192792403Y-98624059D01*
X192620342Y-98739025D01*
X192474024Y-98885343D01*
X192359058Y-99057404D01*
X192279870Y-99248580D01*
X192279868Y-99248588D01*
X192239500Y-99451531D01*
X192239500Y-99908470D01*
X192279868Y-100111413D01*
X192279870Y-100111421D01*
X192340560Y-100257940D01*
X192359059Y-100302599D01*
X192360926Y-100305393D01*
X192474024Y-100474658D01*
X192620342Y-100620976D01*
X192792405Y-100735944D01*
X192862952Y-100765165D01*
X192917356Y-100809006D01*
X192939421Y-100875300D01*
X192939500Y-100879726D01*
X192939500Y-101573457D01*
X192919815Y-101640496D01*
X192903181Y-101661138D01*
X191759531Y-102804787D01*
X191759529Y-102804789D01*
X191736033Y-102845488D01*
X191736032Y-102845489D01*
X191713387Y-102884710D01*
X191713386Y-102884713D01*
X191689500Y-102973857D01*
X191689500Y-105439506D01*
X191669815Y-105506545D01*
X191617011Y-105552300D01*
X191547853Y-105562244D01*
X191484297Y-105533219D01*
X191477819Y-105527187D01*
X191459657Y-105509025D01*
X191355613Y-105439506D01*
X191287598Y-105394060D01*
X191096420Y-105314871D01*
X191096412Y-105314869D01*
X190893469Y-105274501D01*
X190893465Y-105274501D01*
X190686535Y-105274501D01*
X190686530Y-105274501D01*
X190483587Y-105314869D01*
X190483579Y-105314871D01*
X190292403Y-105394059D01*
X190120342Y-105509025D01*
X189974024Y-105655343D01*
X189859058Y-105827404D01*
X189779870Y-106018580D01*
X189779868Y-106018588D01*
X189739500Y-106221531D01*
X189739500Y-106678470D01*
X189779868Y-106881413D01*
X189779870Y-106881421D01*
X189782004Y-106886574D01*
X189782008Y-106886582D01*
X189784145Y-106906459D01*
X189791131Y-106925189D01*
X189787803Y-106940485D01*
X189789477Y-106956051D01*
X189780528Y-106973927D01*
X189776279Y-106993462D01*
X189759592Y-107015752D01*
X189758202Y-107018530D01*
X189755128Y-107021716D01*
X189627680Y-107149164D01*
X189566357Y-107182649D01*
X189496665Y-107177665D01*
X189452318Y-107149164D01*
X189324871Y-107021717D01*
X189291386Y-106960394D01*
X189296370Y-106890702D01*
X189297995Y-106886574D01*
X189300130Y-106881421D01*
X189340500Y-106678466D01*
X189340500Y-106221536D01*
X189300130Y-106018581D01*
X189220941Y-105827403D01*
X189105977Y-105655346D01*
X189105975Y-105655343D01*
X188959657Y-105509025D01*
X188855613Y-105439506D01*
X188787598Y-105394060D01*
X188596420Y-105314871D01*
X188596412Y-105314869D01*
X188393469Y-105274501D01*
X188393465Y-105274501D01*
X188186535Y-105274501D01*
X188186530Y-105274501D01*
X187983587Y-105314869D01*
X187983579Y-105314871D01*
X187792403Y-105394059D01*
X187620342Y-105509025D01*
X187474024Y-105655343D01*
X187359058Y-105827404D01*
X187279870Y-106018580D01*
X187279868Y-106018588D01*
X187239500Y-106221531D01*
X187239500Y-106678470D01*
X187279868Y-106881413D01*
X187279870Y-106881421D01*
X187359058Y-107072597D01*
X187474024Y-107244658D01*
X187620342Y-107390976D01*
X187620345Y-107390978D01*
X187792402Y-107505942D01*
X187983580Y-107585131D01*
X188181226Y-107624445D01*
X188186530Y-107625500D01*
X188186534Y-107625501D01*
X188186535Y-107625501D01*
X188393466Y-107625501D01*
X188393467Y-107625500D01*
X188596420Y-107585131D01*
X188704047Y-107540549D01*
X188773516Y-107533081D01*
X188835996Y-107564356D01*
X188871648Y-107624445D01*
X188875500Y-107655111D01*
X188875500Y-108464814D01*
X188855815Y-108531853D01*
X188839181Y-108552495D01*
X186850936Y-110540739D01*
X186850934Y-110540742D01*
X186807819Y-110615420D01*
X186807819Y-110615421D01*
X186786132Y-110696359D01*
X186785500Y-110698716D01*
X186785500Y-111025501D01*
X186765815Y-111092540D01*
X186713011Y-111138295D01*
X186661500Y-111149501D01*
X186625683Y-111149501D01*
X186576828Y-111155932D01*
X186469597Y-111205935D01*
X186442679Y-111232853D01*
X186381355Y-111266337D01*
X186311664Y-111261351D01*
X186267318Y-111232851D01*
X186240404Y-111205937D01*
X186138476Y-111158407D01*
X186133173Y-111155934D01*
X186133171Y-111155933D01*
X186133172Y-111155933D01*
X186084317Y-111149502D01*
X186084316Y-111149502D01*
X185944500Y-111149502D01*
X185877461Y-111129817D01*
X185831706Y-111077013D01*
X185820500Y-111025502D01*
X185820500Y-110907809D01*
X185820500Y-110907806D01*
X185798659Y-110826292D01*
X185756464Y-110753209D01*
X185696792Y-110693537D01*
X185696791Y-110693536D01*
X185190033Y-110186779D01*
X185190032Y-110186777D01*
X185123294Y-110120039D01*
X185123292Y-110120037D01*
X185050209Y-110077842D01*
X185007476Y-110066392D01*
X184968696Y-110056001D01*
X184968695Y-110056001D01*
X178206191Y-110056001D01*
X178206187Y-110056000D01*
X178121798Y-110056000D01*
X178113390Y-110058252D01*
X178098463Y-110058583D01*
X178078552Y-110053212D01*
X178057940Y-110052717D01*
X178045506Y-110044297D01*
X178031005Y-110040386D01*
X178017158Y-110025103D01*
X178000085Y-110013542D01*
X177994176Y-109999735D01*
X177984093Y-109988606D01*
X177980707Y-109968264D01*
X177972595Y-109949308D01*
X177975088Y-109934499D01*
X177972623Y-109919685D01*
X177980772Y-109900743D01*
X177984196Y-109880408D01*
X177997641Y-109861530D01*
X178000235Y-109855503D01*
X178003506Y-109853296D01*
X178008040Y-109846932D01*
X179180457Y-108674515D01*
X179180457Y-108674514D01*
X179180460Y-108674512D01*
X179180461Y-108674508D01*
X179180464Y-108674506D01*
X179188548Y-108660504D01*
X179192764Y-108653201D01*
X179220021Y-108605990D01*
X179240500Y-108529563D01*
X179240500Y-105391978D01*
X179220021Y-105315551D01*
X179196321Y-105274501D01*
X179180464Y-105247035D01*
X179180458Y-105247027D01*
X178520682Y-104587251D01*
X178487197Y-104525928D01*
X178484381Y-104497436D01*
X178484924Y-104465907D01*
X178499108Y-103641776D01*
X178519944Y-103575088D01*
X178537447Y-103554240D01*
X178917271Y-103191525D01*
X178979347Y-103159464D01*
X179048905Y-103166052D01*
X179103860Y-103209201D01*
X179126762Y-103275210D01*
X179110341Y-103343123D01*
X179106010Y-103350095D01*
X179066140Y-103409764D01*
X179066136Y-103409771D01*
X178994487Y-103582748D01*
X178994485Y-103582756D01*
X178957960Y-103766379D01*
X178957960Y-103953620D01*
X178994485Y-104137243D01*
X178994487Y-104137251D01*
X179066136Y-104310228D01*
X179066141Y-104310237D01*
X179170157Y-104465907D01*
X179170160Y-104465911D01*
X179302548Y-104598299D01*
X179302552Y-104598302D01*
X179458222Y-104702318D01*
X179458228Y-104702321D01*
X179458229Y-104702322D01*
X179631209Y-104773973D01*
X179814839Y-104810499D01*
X179814843Y-104810500D01*
X179814844Y-104810500D01*
X180002077Y-104810500D01*
X180002078Y-104810499D01*
X180185711Y-104773973D01*
X180358691Y-104702322D01*
X180514368Y-104598302D01*
X180646762Y-104465908D01*
X180750782Y-104310231D01*
X180822433Y-104137251D01*
X180858960Y-103953616D01*
X180858960Y-103766384D01*
X180823876Y-103590001D01*
X180821626Y-103578691D01*
X180827853Y-103509100D01*
X180870716Y-103453922D01*
X180936606Y-103430678D01*
X180943243Y-103430500D01*
X181861476Y-103430500D01*
X181913881Y-103442118D01*
X181918055Y-103444064D01*
X181918056Y-103444065D01*
X182025287Y-103494068D01*
X182074143Y-103500500D01*
X182074144Y-103500500D01*
X182522777Y-103500500D01*
X182539061Y-103498356D01*
X182571633Y-103494068D01*
X182678864Y-103444065D01*
X182762525Y-103360404D01*
X182812528Y-103253173D01*
X182818960Y-103204316D01*
X182818960Y-102855684D01*
X182818375Y-102851244D01*
X182812528Y-102806828D01*
X182812528Y-102806827D01*
X182762525Y-102699596D01*
X182678864Y-102615935D01*
X182571633Y-102565932D01*
X182571631Y-102565931D01*
X182571632Y-102565931D01*
X182522777Y-102559500D01*
X182522776Y-102559500D01*
X182074144Y-102559500D01*
X182074143Y-102559500D01*
X182025288Y-102565931D01*
X181918055Y-102615935D01*
X181834395Y-102699595D01*
X181807205Y-102757905D01*
X181761032Y-102810344D01*
X181694823Y-102829500D01*
X180598898Y-102829500D01*
X180539228Y-102845489D01*
X180522471Y-102849979D01*
X180520279Y-102851244D01*
X180520276Y-102851246D01*
X180512590Y-102855684D01*
X180453949Y-102889540D01*
X180388816Y-102954672D01*
X180383018Y-102959234D01*
X180357153Y-102969594D01*
X180332703Y-102982945D01*
X180325170Y-102982406D01*
X180318158Y-102985215D01*
X180290797Y-102979947D01*
X180263012Y-102977960D01*
X180258893Y-102976340D01*
X180217595Y-102959234D01*
X180185711Y-102946027D01*
X180185703Y-102946025D01*
X180002080Y-102909500D01*
X180002076Y-102909500D01*
X179814844Y-102909500D01*
X179814839Y-102909500D01*
X179631216Y-102946025D01*
X179631208Y-102946027D01*
X179458231Y-103017676D01*
X179458215Y-103017685D01*
X179449878Y-103023256D01*
X179383200Y-103044132D01*
X179315821Y-103025645D01*
X179269132Y-102973665D01*
X179257958Y-102904695D01*
X179285846Y-102840632D01*
X179295346Y-102830480D01*
X180720000Y-101470001D01*
X183464168Y-96919420D01*
X183515643Y-96872178D01*
X183569385Y-96859460D01*
X187225036Y-96830974D01*
X187292225Y-96850135D01*
X187338390Y-96902581D01*
X187350000Y-96954970D01*
X187350000Y-99054607D01*
X187340561Y-99102060D01*
X187279870Y-99248580D01*
X187279868Y-99248588D01*
X187239500Y-99451531D01*
X187239500Y-99908470D01*
X187279868Y-100111413D01*
X187279870Y-100111421D01*
X187340561Y-100257940D01*
X187350000Y-100305393D01*
X187350000Y-100600000D01*
X187551334Y-100600000D01*
X187618373Y-100619685D01*
X187620224Y-100620898D01*
X187792400Y-100735941D01*
X187792401Y-100735941D01*
X187792402Y-100735942D01*
X187983580Y-100815131D01*
X188186530Y-100855500D01*
X188186534Y-100855501D01*
X188186535Y-100855501D01*
X188393466Y-100855501D01*
X188393467Y-100855500D01*
X188596420Y-100815131D01*
X188787598Y-100735942D01*
X188787599Y-100735941D01*
X188787600Y-100735941D01*
X188959776Y-100620898D01*
X189026453Y-100600020D01*
X189028666Y-100600000D01*
X190051334Y-100600000D01*
X190118373Y-100619685D01*
X190120224Y-100620898D01*
X190292400Y-100735941D01*
X190292401Y-100735941D01*
X190292402Y-100735942D01*
X190483580Y-100815131D01*
X190686530Y-100855500D01*
X190686534Y-100855501D01*
X190686535Y-100855501D01*
X190893466Y-100855501D01*
X190893467Y-100855500D01*
X191096420Y-100815131D01*
X191287598Y-100735942D01*
X191287599Y-100735941D01*
X191287600Y-100735941D01*
X191459776Y-100620898D01*
X191526453Y-100600020D01*
X191528666Y-100600000D01*
X191600000Y-100600000D01*
X191600000Y-100521216D01*
X191619685Y-100454177D01*
X191620898Y-100452326D01*
X191720940Y-100302601D01*
X191720940Y-100302600D01*
X191720941Y-100302599D01*
X191800130Y-100111421D01*
X191840500Y-99908466D01*
X191840500Y-99451536D01*
X191800130Y-99248581D01*
X191720941Y-99057403D01*
X191620897Y-98907675D01*
X191600020Y-98840998D01*
X191600000Y-98838785D01*
X191600000Y-91999999D01*
X191028572Y-91000000D01*
X189532754Y-91000000D01*
X189465715Y-90980315D01*
X189445073Y-90963681D01*
X189358347Y-90876955D01*
X189358344Y-90876953D01*
X189358342Y-90876951D01*
X189281517Y-90837806D01*
X189245301Y-90819353D01*
X189151524Y-90804501D01*
X188688482Y-90804501D01*
X188607519Y-90817324D01*
X188594696Y-90819355D01*
X188481658Y-90876951D01*
X188481657Y-90876952D01*
X188481652Y-90876955D01*
X188394927Y-90963681D01*
X188333604Y-90997166D01*
X188307246Y-91000000D01*
X187892754Y-91000000D01*
X187825715Y-90980315D01*
X187805073Y-90963681D01*
X187718347Y-90876955D01*
X187718344Y-90876953D01*
X187718342Y-90876951D01*
X187641517Y-90837806D01*
X187605301Y-90819353D01*
X187511524Y-90804501D01*
X187048482Y-90804501D01*
X186967519Y-90817324D01*
X186954696Y-90819355D01*
X186841658Y-90876951D01*
X186841657Y-90876952D01*
X186841652Y-90876955D01*
X186754927Y-90963681D01*
X186693604Y-90997166D01*
X186667246Y-91000000D01*
X184799999Y-91000000D01*
X184292181Y-91507819D01*
X184230858Y-91541304D01*
X184161166Y-91536320D01*
X184105233Y-91494448D01*
X184080816Y-91428984D01*
X184080500Y-91420138D01*
X184080500Y-91333859D01*
X184080500Y-91333857D01*
X184056614Y-91244713D01*
X184015492Y-91173488D01*
X184015491Y-91173485D01*
X184010472Y-91164792D01*
X184010469Y-91164788D01*
X183455212Y-90609531D01*
X183455207Y-90609527D01*
X183375289Y-90563387D01*
X183375288Y-90563386D01*
X183375287Y-90563386D01*
X183286143Y-90539500D01*
X178502316Y-90539500D01*
X178413172Y-90563386D01*
X178413169Y-90563387D01*
X178333251Y-90609527D01*
X178333246Y-90609531D01*
X177242295Y-91700481D01*
X177180972Y-91733966D01*
X177111280Y-91728982D01*
X177107163Y-91727362D01*
X177102334Y-91725361D01*
X177060295Y-91707949D01*
X177060291Y-91707948D01*
X177060288Y-91707947D01*
X176867003Y-91669500D01*
X176867001Y-91669500D01*
X176669919Y-91669500D01*
X176669917Y-91669500D01*
X176476630Y-91707947D01*
X176476620Y-91707950D01*
X176294552Y-91783364D01*
X176294539Y-91783371D01*
X176130678Y-91892860D01*
X176130674Y-91892863D01*
X175991323Y-92032214D01*
X175991320Y-92032218D01*
X175881831Y-92196079D01*
X175881824Y-92196092D01*
X175806410Y-92378160D01*
X175806407Y-92378170D01*
X175767960Y-92571456D01*
X175767960Y-92571459D01*
X175767960Y-92768541D01*
X175767960Y-92768543D01*
X175767959Y-92768543D01*
X175806407Y-92961829D01*
X175806410Y-92961839D01*
X175881824Y-93143907D01*
X175881831Y-93143920D01*
X175991320Y-93307781D01*
X175991323Y-93307785D01*
X176130674Y-93447136D01*
X176130678Y-93447139D01*
X176294539Y-93556628D01*
X176294552Y-93556635D01*
X176434378Y-93614552D01*
X176476625Y-93632051D01*
X176476629Y-93632051D01*
X176476630Y-93632052D01*
X176669916Y-93670500D01*
X176669919Y-93670500D01*
X176867003Y-93670500D01*
X176997042Y-93644632D01*
X177060295Y-93632051D01*
X177242374Y-93556632D01*
X177406242Y-93447139D01*
X177545599Y-93307782D01*
X177655092Y-93143914D01*
X177730511Y-92961835D01*
X177745130Y-92888343D01*
X177768960Y-92768543D01*
X177768960Y-92571456D01*
X177730512Y-92378170D01*
X177730511Y-92378169D01*
X177730511Y-92378165D01*
X177711096Y-92331294D01*
X177703628Y-92261828D01*
X177734902Y-92199349D01*
X177737947Y-92196193D01*
X178096279Y-91837861D01*
X178157602Y-91804377D01*
X178227294Y-91809361D01*
X178283227Y-91851233D01*
X178307644Y-91916697D01*
X178307960Y-91925543D01*
X178307960Y-93489752D01*
X178319591Y-93548229D01*
X178319592Y-93548230D01*
X178363907Y-93614552D01*
X178430229Y-93658867D01*
X178430230Y-93658868D01*
X178488707Y-93670499D01*
X178488710Y-93670500D01*
X178488712Y-93670500D01*
X180128210Y-93670500D01*
X180128211Y-93670499D01*
X180143028Y-93667552D01*
X180186689Y-93658868D01*
X180186689Y-93658867D01*
X180186691Y-93658867D01*
X180253012Y-93614552D01*
X180297327Y-93548231D01*
X180297327Y-93548229D01*
X180297328Y-93548229D01*
X180308324Y-93492946D01*
X180308960Y-93489748D01*
X180308960Y-92216543D01*
X180317604Y-92187102D01*
X180324128Y-92157116D01*
X180327882Y-92152100D01*
X180328645Y-92149504D01*
X180345279Y-92128862D01*
X180427321Y-92046820D01*
X180488644Y-92013335D01*
X180515002Y-92010501D01*
X181680919Y-92010501D01*
X181747958Y-92030186D01*
X181791403Y-92078205D01*
X181816949Y-92128341D01*
X181816954Y-92128348D01*
X181906652Y-92218046D01*
X181906654Y-92218047D01*
X181906658Y-92218051D01*
X182019694Y-92275646D01*
X182019698Y-92275648D01*
X182113475Y-92290500D01*
X182113481Y-92290501D01*
X182726518Y-92290500D01*
X182820304Y-92275647D01*
X182874207Y-92248181D01*
X182942874Y-92235286D01*
X183007615Y-92261562D01*
X183047872Y-92318668D01*
X183054500Y-92358667D01*
X183054500Y-92661335D01*
X183034815Y-92728374D01*
X182982011Y-92774129D01*
X182912853Y-92784073D01*
X182874206Y-92771819D01*
X182848317Y-92758628D01*
X182820303Y-92744354D01*
X182820301Y-92744353D01*
X182726524Y-92729501D01*
X182113482Y-92729501D01*
X182032519Y-92742324D01*
X182019696Y-92744355D01*
X181906658Y-92801951D01*
X181906657Y-92801952D01*
X181906652Y-92801955D01*
X181816954Y-92891653D01*
X181816951Y-92891658D01*
X181759352Y-93004699D01*
X181744500Y-93098476D01*
X181744500Y-93561518D01*
X181744569Y-93561951D01*
X181759354Y-93655305D01*
X181816950Y-93768343D01*
X181816952Y-93768345D01*
X181816954Y-93768348D01*
X181836925Y-93788319D01*
X181870410Y-93849642D01*
X181865426Y-93919334D01*
X181823554Y-93975267D01*
X181758090Y-93999684D01*
X181749244Y-94000000D01*
X179813333Y-94000000D01*
X177506036Y-96624948D01*
X177187036Y-96987866D01*
X177127992Y-97025223D01*
X177093901Y-97030001D01*
X175349999Y-97030001D01*
X171550001Y-101229998D01*
X171550000Y-101230002D01*
X171585487Y-104189677D01*
X171566608Y-104256948D01*
X171514356Y-104303333D01*
X171445322Y-104314105D01*
X171381423Y-104285844D01*
X171373815Y-104278845D01*
X168446819Y-101351849D01*
X168413334Y-101290526D01*
X168410500Y-101264168D01*
X168410500Y-101045684D01*
X168404068Y-100996829D01*
X168404068Y-100996828D01*
X168354065Y-100889597D01*
X168270404Y-100805936D01*
X168163173Y-100755933D01*
X168163171Y-100755932D01*
X168163172Y-100755932D01*
X168114317Y-100749501D01*
X168114316Y-100749501D01*
X167765684Y-100749501D01*
X167765683Y-100749501D01*
X167716828Y-100755932D01*
X167609595Y-100805936D01*
X167518264Y-100897268D01*
X167515440Y-100894444D01*
X167476958Y-100925184D01*
X167407458Y-100932353D01*
X167345114Y-100900809D01*
X167341901Y-100897102D01*
X167341736Y-100897268D01*
X167250404Y-100805936D01*
X167166760Y-100766932D01*
X167143173Y-100755933D01*
X167143171Y-100755932D01*
X167143172Y-100755932D01*
X167094317Y-100749501D01*
X167094316Y-100749501D01*
X166745684Y-100749501D01*
X166745683Y-100749501D01*
X166696828Y-100755932D01*
X166589595Y-100805936D01*
X166505935Y-100889596D01*
X166455931Y-100996829D01*
X166449500Y-101045684D01*
X166449500Y-101264168D01*
X166429815Y-101331207D01*
X166413181Y-101351849D01*
X165948001Y-101817028D01*
X165947995Y-101817036D01*
X165908442Y-101885545D01*
X165908439Y-101885550D01*
X165887960Y-101961980D01*
X165887960Y-102872802D01*
X165868275Y-102939841D01*
X165815471Y-102985596D01*
X165811414Y-102987363D01*
X165738229Y-103017678D01*
X165738222Y-103017681D01*
X165582552Y-103121697D01*
X165582548Y-103121700D01*
X165450160Y-103254088D01*
X165450157Y-103254092D01*
X165346141Y-103409762D01*
X165346136Y-103409771D01*
X165274487Y-103582748D01*
X165274485Y-103582756D01*
X165237960Y-103766379D01*
X165237960Y-103953620D01*
X165274485Y-104137243D01*
X165274487Y-104137251D01*
X165346136Y-104310228D01*
X165346141Y-104310237D01*
X165450157Y-104465907D01*
X165450160Y-104465911D01*
X165582548Y-104598299D01*
X165582552Y-104598302D01*
X165738222Y-104702318D01*
X165738228Y-104702321D01*
X165738229Y-104702322D01*
X165911209Y-104773973D01*
X166094839Y-104810499D01*
X166094843Y-104810500D01*
X166094844Y-104810500D01*
X166282077Y-104810500D01*
X166282078Y-104810499D01*
X166465711Y-104773973D01*
X166638691Y-104702322D01*
X166794368Y-104598302D01*
X166926762Y-104465908D01*
X167030782Y-104310231D01*
X167102433Y-104137251D01*
X167138960Y-103953616D01*
X167138960Y-103766384D01*
X167102433Y-103582749D01*
X167030782Y-103409769D01*
X167030779Y-103409764D01*
X167030778Y-103409762D01*
X166926762Y-103254092D01*
X166926759Y-103254088D01*
X166794371Y-103121700D01*
X166794367Y-103121697D01*
X166638697Y-103017681D01*
X166638692Y-103017679D01*
X166638691Y-103017678D01*
X166608511Y-103005176D01*
X166565506Y-102987363D01*
X166511103Y-102943521D01*
X166489039Y-102877227D01*
X166488960Y-102872802D01*
X166488960Y-102177374D01*
X166508645Y-102110335D01*
X166525279Y-102089693D01*
X166788152Y-101826820D01*
X166849475Y-101793335D01*
X166875833Y-101790501D01*
X167094317Y-101790501D01*
X167110601Y-101788357D01*
X167143173Y-101784069D01*
X167250404Y-101734066D01*
X167334065Y-101650405D01*
X167334065Y-101650404D01*
X167341736Y-101642734D01*
X167344564Y-101645562D01*
X167382977Y-101614844D01*
X167452474Y-101607636D01*
X167514835Y-101639144D01*
X167518093Y-101642904D01*
X167518264Y-101642734D01*
X167525935Y-101650405D01*
X167609596Y-101734066D01*
X167716827Y-101784069D01*
X167765683Y-101790501D01*
X167765684Y-101790501D01*
X167984167Y-101790501D01*
X168051206Y-101810186D01*
X168071848Y-101826820D01*
X170811641Y-104566613D01*
X170845126Y-104627936D01*
X170847960Y-104654294D01*
X170847960Y-106221330D01*
X170828275Y-106288369D01*
X170775471Y-106334124D01*
X170706313Y-106344068D01*
X170642757Y-106315043D01*
X170620860Y-106290223D01*
X170616766Y-106284097D01*
X170616759Y-106284088D01*
X170484371Y-106151700D01*
X170484367Y-106151697D01*
X170328697Y-106047681D01*
X170328688Y-106047676D01*
X170155711Y-105976027D01*
X170155703Y-105976025D01*
X169972080Y-105939500D01*
X169972076Y-105939500D01*
X169784844Y-105939500D01*
X169784839Y-105939500D01*
X169601216Y-105976025D01*
X169601208Y-105976027D01*
X169428231Y-106047676D01*
X169428222Y-106047681D01*
X169272552Y-106151697D01*
X169272548Y-106151700D01*
X169140160Y-106284088D01*
X169140157Y-106284092D01*
X169036141Y-106439762D01*
X169036136Y-106439771D01*
X168964487Y-106612748D01*
X168964485Y-106612756D01*
X168927960Y-106796379D01*
X168927960Y-106983620D01*
X168964485Y-107167243D01*
X168964487Y-107167251D01*
X168986516Y-107220433D01*
X168988653Y-107240309D01*
X168995639Y-107259039D01*
X168992311Y-107274336D01*
X168993985Y-107289902D01*
X168985037Y-107307777D01*
X168980788Y-107327312D01*
X168964101Y-107349602D01*
X168962710Y-107352382D01*
X168959637Y-107355566D01*
X168912023Y-107403181D01*
X168850700Y-107436667D01*
X168824341Y-107439501D01*
X167347803Y-107439501D01*
X167266290Y-107461342D01*
X167193208Y-107503537D01*
X167193205Y-107503539D01*
X166613538Y-108083206D01*
X166613536Y-108083209D01*
X166571341Y-108156291D01*
X166549500Y-108237804D01*
X166549500Y-118391705D01*
X166552979Y-118404688D01*
X166571341Y-118473218D01*
X166613536Y-118546301D01*
X166613538Y-118546303D01*
X166680273Y-118613038D01*
X166680279Y-118613043D01*
X168229687Y-120162451D01*
X168229697Y-120162462D01*
X168234027Y-120166792D01*
X168234028Y-120166793D01*
X168293700Y-120226465D01*
X168366783Y-120268660D01*
X168374355Y-120270688D01*
X168379483Y-120272063D01*
X168379485Y-120272063D01*
X168388625Y-120274512D01*
X168448298Y-120290502D01*
X168532687Y-120290502D01*
X168532691Y-120290501D01*
X168547102Y-120290501D01*
X172744074Y-120290501D01*
X172811113Y-120310186D01*
X172856868Y-120362990D01*
X172866812Y-120432148D01*
X172837787Y-120495704D01*
X172779009Y-120533478D01*
X172760259Y-120537440D01*
X172685890Y-120547230D01*
X172451073Y-120610149D01*
X172226487Y-120703175D01*
X172226472Y-120703182D01*
X172015943Y-120824730D01*
X171823079Y-120972722D01*
X171651182Y-121144619D01*
X171503190Y-121337483D01*
X171381642Y-121548012D01*
X171381635Y-121548027D01*
X171288609Y-121772613D01*
X171225690Y-122007430D01*
X171193961Y-122248440D01*
X171193960Y-122248456D01*
X171193960Y-122491543D01*
X171193961Y-122491559D01*
X171225690Y-122732569D01*
X171288609Y-122967386D01*
X171381635Y-123191972D01*
X171381642Y-123191987D01*
X171503190Y-123402516D01*
X171651182Y-123595380D01*
X171651190Y-123595389D01*
X171823071Y-123767270D01*
X171823079Y-123767277D01*
X171823080Y-123767278D01*
X171867952Y-123801709D01*
X172015943Y-123915269D01*
X172226472Y-124036817D01*
X172226487Y-124036824D01*
X172303670Y-124068794D01*
X172451072Y-124129850D01*
X172685889Y-124192769D01*
X172926910Y-124224500D01*
X172926917Y-124224500D01*
X173170003Y-124224500D01*
X173170010Y-124224500D01*
X173411031Y-124192769D01*
X173645848Y-124129850D01*
X173870444Y-124036819D01*
X174080976Y-123915269D01*
X174273840Y-123767278D01*
X174273844Y-123767273D01*
X174273849Y-123767270D01*
X174445730Y-123595389D01*
X174445733Y-123595384D01*
X174445738Y-123595380D01*
X174593729Y-123402516D01*
X174715279Y-123191984D01*
X174808310Y-122967388D01*
X174871229Y-122732571D01*
X174902960Y-122491550D01*
X174902960Y-122248450D01*
X174871229Y-122007429D01*
X174808310Y-121772612D01*
X174715279Y-121548016D01*
X174627225Y-121395501D01*
X174593729Y-121337483D01*
X174447161Y-121146475D01*
X174445738Y-121144620D01*
X174445737Y-121144619D01*
X174445730Y-121144611D01*
X174273849Y-120972730D01*
X174273840Y-120972722D01*
X174080976Y-120824730D01*
X173870447Y-120703182D01*
X173870432Y-120703175D01*
X173645846Y-120610149D01*
X173411029Y-120547230D01*
X173336661Y-120537440D01*
X173272764Y-120509173D01*
X173234293Y-120450849D01*
X173233462Y-120380984D01*
X173270534Y-120321761D01*
X173333740Y-120291982D01*
X173352846Y-120290501D01*
X174992324Y-120290501D01*
X175059363Y-120310186D01*
X175105118Y-120362990D01*
X175115062Y-120432148D01*
X175086037Y-120495704D01*
X175080005Y-120502182D01*
X175029502Y-120552684D01*
X175029500Y-120552687D01*
X174963608Y-120666813D01*
X174929500Y-120794109D01*
X174929500Y-120925892D01*
X174963608Y-121053188D01*
X174988220Y-121095816D01*
X175029500Y-121167315D01*
X175122686Y-121260501D01*
X175190307Y-121299542D01*
X175236814Y-121326393D01*
X175241349Y-121327608D01*
X175296942Y-121359703D01*
X175786307Y-121849068D01*
X175786309Y-121849071D01*
X175870930Y-121933692D01*
X175915633Y-121959501D01*
X175974570Y-121993529D01*
X176090164Y-122024502D01*
X176090166Y-122024502D01*
X176217432Y-122024502D01*
X176217448Y-122024501D01*
X179150378Y-122024501D01*
X179217417Y-122044186D01*
X179238059Y-122060820D01*
X184199181Y-127021942D01*
X184232666Y-127083265D01*
X184235500Y-127109623D01*
X184235500Y-127583440D01*
X184226062Y-127630891D01*
X184223608Y-127636814D01*
X184208638Y-127692683D01*
X184189500Y-127764109D01*
X184189500Y-127895893D01*
X184219735Y-128008736D01*
X184223960Y-128040823D01*
X184223960Y-128121669D01*
X184204275Y-128188708D01*
X184151471Y-128234463D01*
X184082313Y-128244407D01*
X184018757Y-128215382D01*
X184012279Y-128209350D01*
X183978864Y-128175935D01*
X183909219Y-128143459D01*
X183871633Y-128125932D01*
X183871631Y-128125931D01*
X183871632Y-128125931D01*
X183822777Y-128119500D01*
X183822776Y-128119500D01*
X183474144Y-128119500D01*
X183474143Y-128119500D01*
X183425288Y-128125931D01*
X183318055Y-128175935D01*
X183234395Y-128259595D01*
X183234395Y-128259596D01*
X183230520Y-128267904D01*
X183184350Y-128320343D01*
X183118139Y-128339500D01*
X178594293Y-128339500D01*
X178527254Y-128319815D01*
X178506612Y-128303181D01*
X177705279Y-127501848D01*
X177671794Y-127440525D01*
X177668960Y-127414167D01*
X177668960Y-126005435D01*
X177688645Y-125938396D01*
X177741449Y-125892641D01*
X177745472Y-125890889D01*
X177866058Y-125840941D01*
X178038115Y-125725977D01*
X178184437Y-125579655D01*
X178299401Y-125407598D01*
X178378590Y-125216420D01*
X178418960Y-125013465D01*
X178418960Y-124806535D01*
X178378590Y-124603580D01*
X178299401Y-124412402D01*
X178184437Y-124240345D01*
X178184435Y-124240342D01*
X178038117Y-124094024D01*
X177952086Y-124036541D01*
X177866058Y-123979059D01*
X177674880Y-123899870D01*
X177674872Y-123899868D01*
X177471929Y-123859500D01*
X177471925Y-123859500D01*
X177264995Y-123859500D01*
X177264990Y-123859500D01*
X177062047Y-123899868D01*
X177062039Y-123899870D01*
X176870863Y-123979058D01*
X176698802Y-124094024D01*
X176552484Y-124240342D01*
X176437518Y-124412403D01*
X176358330Y-124603579D01*
X176358328Y-124603587D01*
X176317960Y-124806530D01*
X176317960Y-125013469D01*
X176358328Y-125216412D01*
X176358330Y-125216420D01*
X176437518Y-125407596D01*
X176552484Y-125579657D01*
X176698802Y-125725975D01*
X176698805Y-125725977D01*
X176870862Y-125840941D01*
X176991413Y-125890875D01*
X177045816Y-125934714D01*
X177067881Y-126001008D01*
X177067960Y-126005435D01*
X177067960Y-127629562D01*
X177081612Y-127680513D01*
X177088439Y-127705990D01*
X177103049Y-127731294D01*
X177125490Y-127770163D01*
X177128001Y-127774513D01*
X177656670Y-128303181D01*
X178178000Y-128824511D01*
X178233949Y-128880460D01*
X178233951Y-128880461D01*
X178233955Y-128880464D01*
X178284925Y-128909891D01*
X178302471Y-128920021D01*
X178378898Y-128940500D01*
X183118139Y-128940500D01*
X183185178Y-128960185D01*
X183216222Y-128988633D01*
X183224677Y-128999563D01*
X183234395Y-129020404D01*
X183262659Y-129048668D01*
X183267482Y-129054903D01*
X183277450Y-129080394D01*
X183290565Y-129104412D01*
X183289989Y-129112459D01*
X183292928Y-129119974D01*
X183287533Y-129146803D01*
X183285581Y-129174104D01*
X183280433Y-129182113D01*
X183279155Y-129188473D01*
X183270814Y-129197080D01*
X183257081Y-129218450D01*
X183225936Y-129249595D01*
X183225935Y-129249596D01*
X183225935Y-129249597D01*
X183222060Y-129257905D01*
X183175890Y-129310344D01*
X183109679Y-129329501D01*
X171084294Y-129329501D01*
X171017255Y-129309816D01*
X170996613Y-129293182D01*
X167175535Y-125472104D01*
X167142050Y-125410781D01*
X167147034Y-125341089D01*
X167148623Y-125337049D01*
X167198590Y-125216420D01*
X167238960Y-125013465D01*
X167238960Y-124806535D01*
X167198590Y-124603580D01*
X167119401Y-124412402D01*
X167004437Y-124240345D01*
X167004435Y-124240342D01*
X166858117Y-124094024D01*
X166772086Y-124036541D01*
X166686058Y-123979059D01*
X166494880Y-123899870D01*
X166494872Y-123899868D01*
X166291929Y-123859500D01*
X166291925Y-123859500D01*
X166084995Y-123859500D01*
X166084990Y-123859500D01*
X165882047Y-123899868D01*
X165882039Y-123899870D01*
X165690863Y-123979058D01*
X165518802Y-124094024D01*
X165372484Y-124240342D01*
X165257518Y-124412403D01*
X165178330Y-124603579D01*
X165178328Y-124603587D01*
X165137960Y-124806530D01*
X151268960Y-124806530D01*
X151268960Y-113707891D01*
X151288645Y-113640852D01*
X151341449Y-113595097D01*
X151393379Y-113583892D01*
X160691815Y-113615490D01*
X162317197Y-113621014D01*
X162317197Y-113621013D01*
X162317209Y-113621014D01*
X162361460Y-113616347D01*
X162384426Y-113611366D01*
X162413641Y-113605031D01*
X162424350Y-113602405D01*
X162424350Y-113602404D01*
X162424358Y-113602403D01*
X162504979Y-113559223D01*
X162557686Y-113513357D01*
X162575605Y-113495727D01*
X162620083Y-113415815D01*
X162639626Y-113348734D01*
X162647828Y-113290820D01*
X162596186Y-88843305D01*
X162591443Y-88799842D01*
X162580237Y-88748593D01*
X162577796Y-88738628D01*
X162534786Y-88657916D01*
X162489031Y-88605112D01*
X162489025Y-88605105D01*
X162471443Y-88587161D01*
X162471442Y-88587160D01*
X162471440Y-88587158D01*
X162471438Y-88587157D01*
X162471436Y-88587155D01*
X162391626Y-88542512D01*
X162391621Y-88542510D01*
X162324589Y-88522827D01*
X162324585Y-88522826D01*
X162324584Y-88522826D01*
X162266686Y-88514501D01*
X162266682Y-88514501D01*
X159407134Y-88514501D01*
X159340095Y-88494816D01*
X159294340Y-88442012D01*
X159284396Y-88372854D01*
X159292573Y-88343048D01*
X159316854Y-88284428D01*
X159316858Y-88284419D01*
X159384730Y-88031116D01*
X159418960Y-87771120D01*
X159418960Y-87508880D01*
X159418098Y-87502332D01*
X163317960Y-87502332D01*
X163317960Y-87777667D01*
X163317961Y-87777684D01*
X163353898Y-88050655D01*
X163353899Y-88050660D01*
X163353900Y-88050666D01*
X163353901Y-88050668D01*
X163425164Y-88316630D01*
X163530535Y-88571017D01*
X163530540Y-88571028D01*
X163610269Y-88709121D01*
X163668211Y-88809479D01*
X163668213Y-88809482D01*
X163668214Y-88809483D01*
X163835830Y-89027926D01*
X163835836Y-89027933D01*
X164030526Y-89222623D01*
X164030532Y-89222628D01*
X164248981Y-89390249D01*
X164402238Y-89478732D01*
X164487431Y-89527919D01*
X164487436Y-89527921D01*
X164487439Y-89527923D01*
X164741828Y-89633295D01*
X165007794Y-89704560D01*
X165280786Y-89740500D01*
X165280793Y-89740500D01*
X165556127Y-89740500D01*
X165556134Y-89740500D01*
X165829126Y-89704560D01*
X166095092Y-89633295D01*
X166349481Y-89527923D01*
X166587939Y-89390249D01*
X166806388Y-89222628D01*
X167001088Y-89027928D01*
X167168709Y-88809479D01*
X167306383Y-88571021D01*
X167411755Y-88316632D01*
X167483020Y-88050666D01*
X167518960Y-87777674D01*
X167518960Y-87502332D01*
X171317960Y-87502332D01*
X171317960Y-87777667D01*
X171317961Y-87777684D01*
X171353898Y-88050655D01*
X171353899Y-88050660D01*
X171353900Y-88050666D01*
X171353901Y-88050668D01*
X171425164Y-88316630D01*
X171530535Y-88571017D01*
X171530540Y-88571028D01*
X171610269Y-88709121D01*
X171668211Y-88809479D01*
X171668213Y-88809482D01*
X171668214Y-88809483D01*
X171835830Y-89027926D01*
X171835836Y-89027933D01*
X172030526Y-89222623D01*
X172030532Y-89222628D01*
X172248981Y-89390249D01*
X172402238Y-89478732D01*
X172487431Y-89527919D01*
X172487436Y-89527921D01*
X172487439Y-89527923D01*
X172741828Y-89633295D01*
X173007794Y-89704560D01*
X173280786Y-89740500D01*
X173280793Y-89740500D01*
X173556127Y-89740500D01*
X173556134Y-89740500D01*
X173829126Y-89704560D01*
X174095092Y-89633295D01*
X174349481Y-89527923D01*
X174587939Y-89390249D01*
X174806388Y-89222628D01*
X175001088Y-89027928D01*
X175168709Y-88809479D01*
X175306383Y-88571021D01*
X175411755Y-88316632D01*
X175483020Y-88050666D01*
X175518960Y-87777674D01*
X175518960Y-87502332D01*
X179317960Y-87502332D01*
X179317960Y-87777667D01*
X179317961Y-87777684D01*
X179353898Y-88050655D01*
X179353899Y-88050660D01*
X179353900Y-88050666D01*
X179353901Y-88050668D01*
X179425164Y-88316630D01*
X179530535Y-88571017D01*
X179530540Y-88571028D01*
X179610269Y-88709121D01*
X179668211Y-88809479D01*
X179668213Y-88809482D01*
X179668214Y-88809483D01*
X179835830Y-89027926D01*
X179835836Y-89027933D01*
X180030526Y-89222623D01*
X180030532Y-89222628D01*
X180248981Y-89390249D01*
X180402238Y-89478732D01*
X180487431Y-89527919D01*
X180487436Y-89527921D01*
X180487439Y-89527923D01*
X180741828Y-89633295D01*
X181007794Y-89704560D01*
X181280786Y-89740500D01*
X181280793Y-89740500D01*
X181556127Y-89740500D01*
X181556134Y-89740500D01*
X181829126Y-89704560D01*
X182095092Y-89633295D01*
X182349481Y-89527923D01*
X182587939Y-89390249D01*
X182806388Y-89222628D01*
X183001088Y-89027928D01*
X183168709Y-88809479D01*
X183306383Y-88571021D01*
X183411755Y-88316632D01*
X183483020Y-88050666D01*
X183518960Y-87777674D01*
X183518960Y-87502332D01*
X187317960Y-87502332D01*
X187317960Y-87777667D01*
X187317961Y-87777684D01*
X187353898Y-88050655D01*
X187353899Y-88050660D01*
X187353900Y-88050666D01*
X187353901Y-88050668D01*
X187425164Y-88316630D01*
X187530535Y-88571017D01*
X187530540Y-88571028D01*
X187610269Y-88709121D01*
X187668211Y-88809479D01*
X187668213Y-88809482D01*
X187668214Y-88809483D01*
X187835830Y-89027926D01*
X187835836Y-89027933D01*
X188030526Y-89222623D01*
X188030532Y-89222628D01*
X188248981Y-89390249D01*
X188402238Y-89478732D01*
X188487431Y-89527919D01*
X188487436Y-89527921D01*
X188487439Y-89527923D01*
X188741828Y-89633295D01*
X189007794Y-89704560D01*
X189280786Y-89740500D01*
X189280793Y-89740500D01*
X189556127Y-89740500D01*
X189556134Y-89740500D01*
X189829126Y-89704560D01*
X190095092Y-89633295D01*
X190349481Y-89527923D01*
X190587939Y-89390249D01*
X190806388Y-89222628D01*
X191001088Y-89027928D01*
X191168709Y-88809479D01*
X191306383Y-88571021D01*
X191411755Y-88316632D01*
X191483020Y-88050666D01*
X191518960Y-87777674D01*
X191518960Y-87502326D01*
X191483020Y-87229334D01*
X191411755Y-86963368D01*
X191306383Y-86708979D01*
X191306381Y-86708976D01*
X191306379Y-86708971D01*
X191257192Y-86623778D01*
X191168709Y-86470521D01*
X191099559Y-86380403D01*
X191001089Y-86252073D01*
X191001083Y-86252066D01*
X190806393Y-86057376D01*
X190806386Y-86057370D01*
X190587943Y-85889754D01*
X190587942Y-85889753D01*
X190587939Y-85889751D01*
X190492867Y-85834861D01*
X190349488Y-85752080D01*
X190349477Y-85752075D01*
X190095090Y-85646704D01*
X189962109Y-85611072D01*
X189829126Y-85575440D01*
X189829120Y-85575439D01*
X189829115Y-85575438D01*
X189556144Y-85539501D01*
X189556139Y-85539500D01*
X189556134Y-85539500D01*
X189280786Y-85539500D01*
X189280780Y-85539500D01*
X189280775Y-85539501D01*
X189007804Y-85575438D01*
X189007797Y-85575439D01*
X189007794Y-85575440D01*
X188951585Y-85590500D01*
X188741829Y-85646704D01*
X188487442Y-85752075D01*
X188487431Y-85752080D01*
X188248976Y-85889754D01*
X188030533Y-86057370D01*
X188030526Y-86057376D01*
X187835836Y-86252066D01*
X187835830Y-86252073D01*
X187668214Y-86470516D01*
X187530540Y-86708971D01*
X187530535Y-86708982D01*
X187425164Y-86963369D01*
X187353901Y-87229331D01*
X187353898Y-87229344D01*
X187317961Y-87502315D01*
X187317960Y-87502332D01*
X183518960Y-87502332D01*
X183518960Y-87502326D01*
X183483020Y-87229334D01*
X183411755Y-86963368D01*
X183306383Y-86708979D01*
X183306381Y-86708976D01*
X183306379Y-86708971D01*
X183257192Y-86623778D01*
X183168709Y-86470521D01*
X183099559Y-86380403D01*
X183001089Y-86252073D01*
X183001083Y-86252066D01*
X182806393Y-86057376D01*
X182806386Y-86057370D01*
X182587943Y-85889754D01*
X182587942Y-85889753D01*
X182587939Y-85889751D01*
X182492867Y-85834861D01*
X182349488Y-85752080D01*
X182349477Y-85752075D01*
X182095090Y-85646704D01*
X181962109Y-85611072D01*
X181829126Y-85575440D01*
X181829120Y-85575439D01*
X181829115Y-85575438D01*
X181556144Y-85539501D01*
X181556139Y-85539500D01*
X181556134Y-85539500D01*
X181280786Y-85539500D01*
X181280780Y-85539500D01*
X181280775Y-85539501D01*
X181007804Y-85575438D01*
X181007797Y-85575439D01*
X181007794Y-85575440D01*
X180951585Y-85590500D01*
X180741829Y-85646704D01*
X180487442Y-85752075D01*
X180487431Y-85752080D01*
X180248976Y-85889754D01*
X180030533Y-86057370D01*
X180030526Y-86057376D01*
X179835836Y-86252066D01*
X179835830Y-86252073D01*
X179668214Y-86470516D01*
X179530540Y-86708971D01*
X179530535Y-86708982D01*
X179425164Y-86963369D01*
X179353901Y-87229331D01*
X179353898Y-87229344D01*
X179317961Y-87502315D01*
X179317960Y-87502332D01*
X175518960Y-87502332D01*
X175518960Y-87502326D01*
X175483020Y-87229334D01*
X175411755Y-86963368D01*
X175306383Y-86708979D01*
X175306381Y-86708976D01*
X175306379Y-86708971D01*
X175257192Y-86623778D01*
X175168709Y-86470521D01*
X175099559Y-86380403D01*
X175001089Y-86252073D01*
X175001083Y-86252066D01*
X174806393Y-86057376D01*
X174806386Y-86057370D01*
X174587943Y-85889754D01*
X174587942Y-85889753D01*
X174587939Y-85889751D01*
X174492867Y-85834861D01*
X174349488Y-85752080D01*
X174349477Y-85752075D01*
X174095090Y-85646704D01*
X173962109Y-85611072D01*
X173829126Y-85575440D01*
X173829120Y-85575439D01*
X173829115Y-85575438D01*
X173556144Y-85539501D01*
X173556139Y-85539500D01*
X173556134Y-85539500D01*
X173280786Y-85539500D01*
X173280780Y-85539500D01*
X173280775Y-85539501D01*
X173007804Y-85575438D01*
X173007797Y-85575439D01*
X173007794Y-85575440D01*
X172951585Y-85590500D01*
X172741829Y-85646704D01*
X172487442Y-85752075D01*
X172487431Y-85752080D01*
X172248976Y-85889754D01*
X172030533Y-86057370D01*
X172030526Y-86057376D01*
X171835836Y-86252066D01*
X171835830Y-86252073D01*
X171668214Y-86470516D01*
X171530540Y-86708971D01*
X171530535Y-86708982D01*
X171425164Y-86963369D01*
X171353901Y-87229331D01*
X171353898Y-87229344D01*
X171317961Y-87502315D01*
X171317960Y-87502332D01*
X167518960Y-87502332D01*
X167518960Y-87502326D01*
X167483020Y-87229334D01*
X167411755Y-86963368D01*
X167306383Y-86708979D01*
X167306381Y-86708976D01*
X167306379Y-86708971D01*
X167257192Y-86623778D01*
X167168709Y-86470521D01*
X167099559Y-86380403D01*
X167001089Y-86252073D01*
X167001083Y-86252066D01*
X166806393Y-86057376D01*
X166806386Y-86057370D01*
X166587943Y-85889754D01*
X166587942Y-85889753D01*
X166587939Y-85889751D01*
X166492867Y-85834861D01*
X166349488Y-85752080D01*
X166349477Y-85752075D01*
X166095090Y-85646704D01*
X165962109Y-85611072D01*
X165829126Y-85575440D01*
X165829120Y-85575439D01*
X165829115Y-85575438D01*
X165556144Y-85539501D01*
X165556139Y-85539500D01*
X165556134Y-85539500D01*
X165280786Y-85539500D01*
X165280780Y-85539500D01*
X165280775Y-85539501D01*
X165007804Y-85575438D01*
X165007797Y-85575439D01*
X165007794Y-85575440D01*
X164951585Y-85590500D01*
X164741829Y-85646704D01*
X164487442Y-85752075D01*
X164487431Y-85752080D01*
X164248976Y-85889754D01*
X164030533Y-86057370D01*
X164030526Y-86057376D01*
X163835836Y-86252066D01*
X163835830Y-86252073D01*
X163668214Y-86470516D01*
X163530540Y-86708971D01*
X163530535Y-86708982D01*
X163425164Y-86963369D01*
X163353901Y-87229331D01*
X163353898Y-87229344D01*
X163317961Y-87502315D01*
X163317960Y-87502332D01*
X159418098Y-87502332D01*
X159384730Y-87248884D01*
X159316858Y-86995581D01*
X159316854Y-86995571D01*
X159216506Y-86753309D01*
X159216501Y-86753299D01*
X159085384Y-86526196D01*
X158925741Y-86318148D01*
X158925734Y-86318140D01*
X158740320Y-86132726D01*
X158740311Y-86132718D01*
X158532263Y-85973075D01*
X158305160Y-85841958D01*
X158305150Y-85841953D01*
X158062888Y-85741605D01*
X158062881Y-85741603D01*
X158062879Y-85741602D01*
X157809576Y-85673730D01*
X157751799Y-85666123D01*
X157549587Y-85639500D01*
X157549580Y-85639500D01*
X157287340Y-85639500D01*
X157287332Y-85639500D01*
X157056232Y-85669926D01*
X157027344Y-85673730D01*
X156774041Y-85741602D01*
X156774031Y-85741605D01*
X156531769Y-85841953D01*
X156531759Y-85841958D01*
X156304656Y-85973075D01*
X156096608Y-86132718D01*
X155911178Y-86318148D01*
X155751535Y-86526196D01*
X155620418Y-86753299D01*
X155620413Y-86753309D01*
X155520065Y-86995571D01*
X155520062Y-86995581D01*
X155457429Y-87229334D01*
X155452190Y-87248885D01*
X155417960Y-87508872D01*
X155417960Y-87771127D01*
X155438896Y-87930140D01*
X155452190Y-88031116D01*
X155473638Y-88111161D01*
X155520062Y-88284418D01*
X155520065Y-88284428D01*
X155544347Y-88343048D01*
X155551816Y-88412517D01*
X155520541Y-88474996D01*
X155460453Y-88510649D01*
X155429786Y-88514501D01*
X151392960Y-88514501D01*
X151325921Y-88494816D01*
X151280166Y-88442012D01*
X151268960Y-88390501D01*
X151268960Y-85164500D01*
X151288645Y-85097461D01*
X151341449Y-85051706D01*
X151392960Y-85040500D01*
X195593960Y-85040500D01*
X195660999Y-85060185D01*
G37*
%TD.AperFunction*%
%TD*%
%TA.AperFunction,Conductor*%
%TO.N,VCC*%
G36*
X155731488Y-88739686D02*
G01*
X155762824Y-88768514D01*
X155911178Y-88961851D01*
X155911186Y-88961860D01*
X156096600Y-89147274D01*
X156096608Y-89147281D01*
X156304656Y-89306924D01*
X156531759Y-89438041D01*
X156531769Y-89438046D01*
X156774031Y-89538394D01*
X156774041Y-89538398D01*
X157027344Y-89606270D01*
X157287340Y-89640500D01*
X157287347Y-89640500D01*
X157549573Y-89640500D01*
X157549580Y-89640500D01*
X157809576Y-89606270D01*
X158062879Y-89538398D01*
X158305157Y-89438043D01*
X158532263Y-89306924D01*
X158740311Y-89147282D01*
X158740315Y-89147277D01*
X158740320Y-89147274D01*
X158925734Y-88961860D01*
X158925737Y-88961855D01*
X158925742Y-88961851D01*
X159055698Y-88792490D01*
X159074096Y-88768514D01*
X159130524Y-88727312D01*
X159172471Y-88720001D01*
X162266686Y-88720001D01*
X162333725Y-88739686D01*
X162379480Y-88792490D01*
X162390686Y-88843739D01*
X162442328Y-113291254D01*
X162422785Y-113358335D01*
X162370078Y-113404201D01*
X162317907Y-113415515D01*
X151392539Y-113378388D01*
X151325566Y-113358476D01*
X151279991Y-113305517D01*
X151268960Y-113254389D01*
X151268960Y-88844001D01*
X151288645Y-88776962D01*
X151341449Y-88731207D01*
X151392960Y-88720001D01*
X155664449Y-88720001D01*
X155731488Y-88739686D01*
G37*
%TD.AperFunction*%
%TD*%
M02*
