%TF.GenerationSoftware,KiCad,Pcbnew,9.0.4-9.0.4-0~ubuntu24.04.1*%
%TF.CreationDate,2025-09-29T23:59:47+02:00*%
%TF.ProjectId,ModuCard-vesc-to-mms-converter,4d6f6475-4361-4726-942d-766573632d74,rev?*%
%TF.SameCoordinates,Original*%
%TF.FileFunction,Soldermask,Bot*%
%TF.FilePolarity,Negative*%
%FSLAX46Y46*%
G04 Gerber Fmt 4.6, Leading zero omitted, Abs format (unit mm)*
G04 Created by KiCad (PCBNEW 9.0.4-9.0.4-0~ubuntu24.04.1) date 2025-09-29 23:59:47*
%MOMM*%
%LPD*%
G01*
G04 APERTURE LIST*
G04 Aperture macros list*
%AMRoundRect*
0 Rectangle with rounded corners*
0 $1 Rounding radius*
0 $2 $3 $4 $5 $6 $7 $8 $9 X,Y pos of 4 corners*
0 Add a 4 corners polygon primitive as box body*
4,1,4,$2,$3,$4,$5,$6,$7,$8,$9,$2,$3,0*
0 Add four circle primitives for the rounded corners*
1,1,$1+$1,$2,$3*
1,1,$1+$1,$4,$5*
1,1,$1+$1,$6,$7*
1,1,$1+$1,$8,$9*
0 Add four rect primitives between the rounded corners*
20,1,$1+$1,$2,$3,$4,$5,0*
20,1,$1+$1,$4,$5,$6,$7,0*
20,1,$1+$1,$6,$7,$8,$9,0*
20,1,$1+$1,$8,$9,$2,$3,0*%
G04 Aperture macros list end*
%ADD10C,0.500000*%
%ADD11C,0.700000*%
%ADD12C,3.200000*%
%ADD13C,2.400000*%
%ADD14C,1.500000*%
%ADD15C,1.700000*%
%ADD16RoundRect,0.250000X-0.600000X-0.725000X0.600000X-0.725000X0.600000X0.725000X-0.600000X0.725000X0*%
%ADD17O,1.700000X1.950000*%
%ADD18RoundRect,0.250000X0.600000X0.725000X-0.600000X0.725000X-0.600000X-0.725000X0.600000X-0.725000X0*%
%ADD19RoundRect,0.505697X-1.179959X4.794303X-1.179959X-4.794303X1.179959X-4.794303X1.179959X4.794303X0*%
%ADD20RoundRect,0.495000X-1.155000X4.255000X-1.155000X-4.255000X1.155000X-4.255000X1.155000X4.255000X0*%
%ADD21O,1.600000X1.600000*%
%ADD22R,1.600000X1.600000*%
%ADD23C,0.900000*%
%ADD24C,8.000000*%
G04 APERTURE END LIST*
D10*
%TO.C,J5*%
X126738478Y-119800000D02*
G75*
G02*
X123061522Y-119800000I-1838478J0D01*
G01*
X123061522Y-119800000D02*
G75*
G02*
X126738478Y-119800000I1838478J0D01*
G01*
D11*
X124900000Y-122865685D02*
X124900000Y-121734315D01*
X122700000Y-122000000D02*
X123500000Y-121200000D01*
X126200000Y-121200000D02*
X127000000Y-122000000D01*
X122965685Y-119900000D02*
X121834315Y-119900000D01*
X126834315Y-119800000D02*
X127965685Y-119800000D01*
X124900000Y-117865685D02*
X124900000Y-116734315D01*
X122700000Y-117700000D02*
X123500000Y-118500000D01*
X127000000Y-117600000D02*
X126200000Y-118400000D01*
%TD*%
D12*
%TO.C,U2*%
X97880000Y-133280000D03*
D13*
X106320000Y-137990000D03*
X89440000Y-137990000D03*
X105640000Y-123640000D03*
X90120000Y-123640000D03*
X106320000Y-119320000D03*
X89440000Y-119310000D03*
D14*
X91020000Y-114770000D03*
X93560000Y-114770000D03*
X102200000Y-114770000D03*
X104740000Y-114770000D03*
D15*
X91020000Y-135820000D03*
X93560000Y-135820000D03*
X104740000Y-135820000D03*
X102200000Y-135820000D03*
D14*
X102330000Y-124390000D03*
X101050000Y-126930000D03*
X99780000Y-124390000D03*
X98510000Y-126930000D03*
X97250000Y-124390000D03*
X95980000Y-126930000D03*
X94710000Y-124390000D03*
X93430000Y-126930000D03*
X102330000Y-117800000D03*
X101050000Y-120340000D03*
X99780000Y-117800000D03*
X98510000Y-120340000D03*
X97250000Y-117800000D03*
X95980000Y-120340000D03*
X94710000Y-117800000D03*
X93430000Y-120340000D03*
%TD*%
D16*
%TO.C,J1*%
X110650000Y-116375000D03*
D17*
X113150000Y-116375000D03*
X115650000Y-116375000D03*
X118150000Y-116375000D03*
%TD*%
%TO.C,J3*%
X110600000Y-110600000D03*
X113100000Y-110600000D03*
X115600000Y-110600000D03*
D18*
X118100000Y-110600000D03*
%TD*%
D19*
%TO.C,J5*%
X130314344Y-130500000D03*
D20*
X130350000Y-119750000D03*
%TD*%
D21*
%TO.C,SW1*%
X104140000Y-111200000D03*
X101600000Y-111200000D03*
X101600000Y-103580000D03*
D22*
X104140000Y-103580000D03*
%TD*%
D23*
%TO.C,H10*%
X97600000Y-106700000D03*
X96721320Y-108821320D03*
X96721320Y-104578680D03*
X94600000Y-109700000D03*
D24*
X94600000Y-106700000D03*
D23*
X94600000Y-103700000D03*
X92478680Y-108821320D03*
X92478680Y-104578680D03*
X91600000Y-106700000D03*
%TD*%
%TO.C,H9*%
X122600000Y-106700000D03*
X123478680Y-104578680D03*
X123478680Y-108821320D03*
X125600000Y-103700000D03*
D24*
X125600000Y-106700000D03*
D23*
X125600000Y-109700000D03*
X127721320Y-104578680D03*
X127721320Y-108821320D03*
X128600000Y-106700000D03*
%TD*%
M02*
