%TF.GenerationSoftware,KiCad,Pcbnew,9.0.4-9.0.4-0~ubuntu24.04.1*%
%TF.CreationDate,2025-09-30T02:10:00+02:00*%
%TF.ProjectId,ModuCard-vesc-to-mms-converter,4d6f6475-4361-4726-942d-766573632d74,rev?*%
%TF.SameCoordinates,Original*%
%TF.FileFunction,Copper,L2,Bot*%
%TF.FilePolarity,Positive*%
%FSLAX46Y46*%
G04 Gerber Fmt 4.6, Leading zero omitted, Abs format (unit mm)*
G04 Created by KiCad (PCBNEW 9.0.4-9.0.4-0~ubuntu24.04.1) date 2025-09-30 02:10:00*
%MOMM*%
%LPD*%
G01*
G04 APERTURE LIST*
G04 Aperture macros list*
%AMRoundRect*
0 Rectangle with rounded corners*
0 $1 Rounding radius*
0 $2 $3 $4 $5 $6 $7 $8 $9 X,Y pos of 4 corners*
0 Add a 4 corners polygon primitive as box body*
4,1,4,$2,$3,$4,$5,$6,$7,$8,$9,$2,$3,0*
0 Add four circle primitives for the rounded corners*
1,1,$1+$1,$2,$3*
1,1,$1+$1,$4,$5*
1,1,$1+$1,$6,$7*
1,1,$1+$1,$8,$9*
0 Add four rect primitives between the rounded corners*
20,1,$1+$1,$2,$3,$4,$5,0*
20,1,$1+$1,$4,$5,$6,$7,0*
20,1,$1+$1,$6,$7,$8,$9,0*
20,1,$1+$1,$8,$9,$2,$3,0*%
G04 Aperture macros list end*
%TA.AperFunction,ComponentPad*%
%ADD10RoundRect,0.250000X0.600000X0.725000X-0.600000X0.725000X-0.600000X-0.725000X0.600000X-0.725000X0*%
%TD*%
%TA.AperFunction,ComponentPad*%
%ADD11O,1.700000X1.950000*%
%TD*%
%TA.AperFunction,ComponentPad*%
%ADD12R,1.600000X1.600000*%
%TD*%
%TA.AperFunction,ComponentPad*%
%ADD13O,1.600000X1.600000*%
%TD*%
%TA.AperFunction,ComponentPad*%
%ADD14C,0.900000*%
%TD*%
%TA.AperFunction,ComponentPad*%
%ADD15C,8.000000*%
%TD*%
%TA.AperFunction,ComponentPad*%
%ADD16RoundRect,0.250000X-0.600000X-0.725000X0.600000X-0.725000X0.600000X0.725000X-0.600000X0.725000X0*%
%TD*%
%TA.AperFunction,ComponentPad*%
%ADD17RoundRect,0.495000X-1.155000X4.255000X-1.155000X-4.255000X1.155000X-4.255000X1.155000X4.255000X0*%
%TD*%
%TA.AperFunction,ComponentPad*%
%ADD18C,7.000000*%
%TD*%
%TA.AperFunction,ComponentPad*%
%ADD19RoundRect,0.505697X-1.179959X4.794303X-1.179959X-4.794303X1.179959X-4.794303X1.179959X4.794303X0*%
%TD*%
%TA.AperFunction,ComponentPad*%
%ADD20C,3.200000*%
%TD*%
%TA.AperFunction,ComponentPad*%
%ADD21C,1.500000*%
%TD*%
%TA.AperFunction,ComponentPad*%
%ADD22C,1.700000*%
%TD*%
%TA.AperFunction,ComponentPad*%
%ADD23C,2.400000*%
%TD*%
%TA.AperFunction,ViaPad*%
%ADD24C,0.600000*%
%TD*%
%TA.AperFunction,Conductor*%
%ADD25C,0.300000*%
%TD*%
G04 APERTURE END LIST*
D10*
%TO.P,J3,1,Pin_1*%
%TO.N,GND*%
X193268460Y-99690000D03*
D11*
%TO.P,J3,2,Pin_2*%
%TO.N,/CAN/CAN-*%
X190768460Y-99690000D03*
%TO.P,J3,3,Pin_3*%
%TO.N,/CAN/CAN+*%
X188268460Y-99690000D03*
%TO.P,J3,4,Pin_4*%
%TO.N,+5V*%
X185768460Y-99690000D03*
%TD*%
D12*
%TO.P,SW1,1*%
%TO.N,Net-(R7-Pad2)*%
X179308460Y-92670000D03*
D13*
%TO.P,SW1,2*%
%TO.N,Net-(R2-Pad2)*%
X176768460Y-92670000D03*
%TO.P,SW1,3*%
%TO.N,/CAN/CAN1-*%
X176768460Y-100290000D03*
%TO.P,SW1,4*%
%TO.N,/CAN/CAN2-*%
X179308460Y-100290000D03*
%TD*%
D14*
%TO.P,H9,1,1*%
%TO.N,VCC*%
X153838460Y-96140000D03*
X154717140Y-94018680D03*
X154717140Y-98261320D03*
X156838460Y-93140000D03*
D15*
X156838460Y-96140000D03*
D14*
X156838460Y-99140000D03*
X158959780Y-94018680D03*
X158959780Y-98261320D03*
X159838460Y-96140000D03*
%TD*%
D16*
%TO.P,J1,1,Pin_1*%
%TO.N,GND*%
X185818460Y-105465000D03*
D11*
%TO.P,J1,2,Pin_2*%
%TO.N,/USB/USB_VESC_D+*%
X188318460Y-105465000D03*
%TO.P,J1,3,Pin_3*%
%TO.N,/USB/USB_VESC_D-*%
X190818460Y-105465000D03*
%TO.P,J1,4,Pin_4*%
%TO.N,+5V*%
X193318460Y-105465000D03*
%TD*%
D17*
%TO.P,J5,1,Pin_1*%
%TO.N,VCC*%
X160250000Y-108490000D03*
D18*
X154800000Y-108540000D03*
D19*
%TO.P,J5,2,Pin_2*%
%TO.N,GND*%
X160214344Y-119240000D03*
%TD*%
D20*
%TO.P,U2,*%
%TO.N,*%
X173048460Y-122370000D03*
D21*
%TO.P,U2,1,1*%
%TO.N,/CAN/CAN1-*%
X168598460Y-109430000D03*
%TO.P,U2,2,2*%
%TO.N,/CAN/CAN1+*%
X169878460Y-106890000D03*
%TO.P,U2,3,3*%
%TO.N,GND*%
X171148460Y-109430000D03*
%TO.P,U2,4,4*%
%TO.N,/CAN/CAN2-*%
X172418460Y-106890000D03*
%TO.P,U2,5,5*%
%TO.N,/CAN/CAN2+*%
X173678460Y-109430000D03*
%TO.P,U2,6,6*%
%TO.N,+12V*%
X174948460Y-106890000D03*
%TO.P,U2,7,7*%
%TO.N,USB_UPSTREAM_D-*%
X176218460Y-109430000D03*
%TO.P,U2,8,8*%
%TO.N,USB_UPSTREAM_D+*%
X177498460Y-106890000D03*
%TO.P,U2,9,9*%
%TO.N,/CAN/CAN1-*%
X168598460Y-116020000D03*
%TO.P,U2,10,10*%
%TO.N,/CAN/CAN1+*%
X169878460Y-113480000D03*
%TO.P,U2,11,11*%
%TO.N,GND*%
X171148460Y-116020000D03*
%TO.P,U2,12,12*%
%TO.N,/CAN/CAN2-*%
X172418460Y-113480000D03*
%TO.P,U2,13,13*%
%TO.N,/CAN/CAN2+*%
X173678460Y-116020000D03*
%TO.P,U2,14,14*%
%TO.N,+12V*%
X174948460Y-113480000D03*
%TO.P,U2,15,15*%
%TO.N,USB_DOWNSTREAM_D-*%
X176218460Y-116020000D03*
%TO.P,U2,16,16*%
%TO.N,USB_DOWNSTREAM_D+*%
X177498460Y-113480000D03*
D22*
%TO.P,U2,17,-*%
%TO.N,GND*%
X179908460Y-124910000D03*
%TO.P,U2,18,+*%
%TO.N,Net-(R15-Pad1)*%
X177368460Y-124910000D03*
%TO.P,U2,19,-*%
%TO.N,GND*%
X168728460Y-124910000D03*
%TO.P,U2,20,+*%
%TO.N,Net-(R16-Pad1)*%
X166188460Y-124910000D03*
D21*
%TO.P,U2,21,-*%
%TO.N,Net-(R19-Pad1)*%
X179908460Y-103860000D03*
%TO.P,U2,22,+*%
%TO.N,+12V*%
X177368460Y-103860000D03*
%TO.P,U2,23,-*%
%TO.N,GND*%
X168728460Y-103860000D03*
%TO.P,U2,24,+*%
%TO.N,Net-(R20-Pad1)*%
X166188460Y-103860000D03*
D23*
%TO.P,U2,25,25*%
%TO.N,GND*%
X164608460Y-108400000D03*
%TO.P,U2,26,26*%
X181488460Y-108410000D03*
%TO.P,U2,27,27*%
X165288460Y-112730000D03*
%TO.P,U2,28,28*%
X180808460Y-112730000D03*
%TO.P,U2,29,29*%
X164608460Y-127080000D03*
%TO.P,U2,30,30*%
X181488460Y-127080000D03*
%TD*%
D14*
%TO.P,H10,1,1*%
%TO.N,GND*%
X165908460Y-96140000D03*
X166787140Y-94018680D03*
X166787140Y-98261320D03*
X168908460Y-93140000D03*
D15*
X168908460Y-96140000D03*
D14*
X168908460Y-99140000D03*
X171029780Y-94018680D03*
X171029780Y-98261320D03*
X171908460Y-96140000D03*
%TD*%
D24*
%TO.N,GND*%
X183538460Y-102270000D03*
X170838460Y-102270000D03*
X186078460Y-109890000D03*
X192668460Y-113090000D03*
X165758460Y-99730000D03*
X153058460Y-125130000D03*
X191158460Y-120050000D03*
X165758460Y-117510000D03*
X175918460Y-117510000D03*
X185068460Y-112172500D03*
X186078459Y-119412500D03*
X155598460Y-125130000D03*
X153058460Y-122590000D03*
X183168460Y-124890000D03*
X192768460Y-118190000D03*
X178458460Y-109890000D03*
X163218460Y-89570000D03*
X160678460Y-87030000D03*
X155598460Y-122590000D03*
X175918460Y-94650000D03*
X173378460Y-127670000D03*
X193698460Y-94650000D03*
X180168460Y-122640000D03*
X180998460Y-117510000D03*
X163218460Y-99730000D03*
X163218460Y-112430000D03*
X175918460Y-89570000D03*
X168298460Y-130210000D03*
X165758460Y-122590000D03*
X193698460Y-125130000D03*
X160678460Y-130210000D03*
X158138460Y-125130000D03*
X173378460Y-94650000D03*
X183538460Y-99730000D03*
X168298460Y-87030000D03*
X193698460Y-107350000D03*
X173378460Y-97190000D03*
X170838460Y-117510000D03*
X165758460Y-92110000D03*
X153058460Y-130210000D03*
X193698460Y-97190000D03*
X155598460Y-120050000D03*
X163218460Y-92110000D03*
X189968460Y-119590000D03*
X153058460Y-117510000D03*
X192068460Y-122290000D03*
X193698460Y-92110000D03*
X188618460Y-97190000D03*
X175918460Y-122590000D03*
X168298460Y-89570000D03*
X186800959Y-118040000D03*
X192768460Y-115790000D03*
X163218460Y-122590000D03*
X178458460Y-94650000D03*
X183538460Y-89570000D03*
X187268460Y-113872500D03*
X180998460Y-102270000D03*
X191158460Y-94650000D03*
X155598460Y-130210000D03*
X188618460Y-130210000D03*
X163218460Y-125130000D03*
X190668460Y-113090000D03*
X153058460Y-87030000D03*
X173378460Y-117510000D03*
X168298460Y-102270000D03*
X163218460Y-109890000D03*
X170838460Y-120050000D03*
X183538460Y-104810000D03*
X188618460Y-127670000D03*
X153058460Y-114970000D03*
X155598460Y-127670000D03*
X188618460Y-125130000D03*
X173378460Y-120050000D03*
X160678460Y-127670000D03*
X165758460Y-120050000D03*
X155598460Y-114970000D03*
X163218460Y-120050000D03*
X186078460Y-107350000D03*
X163218460Y-94650000D03*
X153058460Y-127670000D03*
X181178460Y-104130000D03*
X160678460Y-125130000D03*
X191158460Y-97190000D03*
X158138460Y-130210000D03*
X192868460Y-120390000D03*
X163218460Y-102270000D03*
X186078460Y-89570000D03*
X173378460Y-92110000D03*
X193698460Y-87030000D03*
X165758460Y-102270000D03*
X163218460Y-130210000D03*
X170838460Y-125130000D03*
X191158460Y-92110000D03*
X193698460Y-109890000D03*
X186078460Y-87030000D03*
X155598460Y-117510000D03*
X186078460Y-127670000D03*
X175918460Y-125130000D03*
X168298460Y-117510000D03*
X153058460Y-120050000D03*
X187678459Y-119312500D03*
X186078460Y-130210000D03*
X165758460Y-130210000D03*
X178458460Y-87030000D03*
X183538460Y-112430000D03*
X183538460Y-122590000D03*
X173378460Y-99730000D03*
X170838460Y-127670000D03*
X180998460Y-114970000D03*
X165758460Y-114970000D03*
X163218460Y-114970000D03*
X175918460Y-97190000D03*
X193698460Y-89570000D03*
X168298460Y-122590000D03*
X163218460Y-117510000D03*
X170838460Y-89570000D03*
X178458460Y-89570000D03*
X163218460Y-104810000D03*
X158138460Y-127670000D03*
X180998460Y-120050000D03*
X193698460Y-102270000D03*
X163218460Y-97190000D03*
%TO.N,/CAN/CAN2+*%
X182268460Y-97967000D03*
X182168460Y-93590000D03*
%TO.N,/CAN/CAN1+*%
X183068460Y-95390000D03*
X183068460Y-93590000D03*
%TO.N,/CAN/CAN-*%
X189968460Y-93890000D03*
X188468460Y-93890000D03*
%TD*%
D25*
%TO.N,/CAN/CAN2+*%
X182268460Y-93690000D02*
X182268460Y-97967000D01*
X182168460Y-93590000D02*
X182268460Y-93690000D01*
%TO.N,/CAN/CAN1+*%
X183068460Y-93590000D02*
X183068460Y-95390000D01*
%TO.N,/CAN/CAN-*%
X188468460Y-93890000D02*
X189968460Y-93890000D01*
%TD*%
%TA.AperFunction,Conductor*%
%TO.N,GND*%
G36*
X195660999Y-85060185D02*
G01*
X195706754Y-85112989D01*
X195717960Y-85164500D01*
X195717963Y-132615500D01*
X195698278Y-132682539D01*
X195645474Y-132728294D01*
X195593963Y-132739500D01*
X151392960Y-132739500D01*
X151325921Y-132719815D01*
X151280166Y-132667011D01*
X151268960Y-132615500D01*
X151268960Y-128749041D01*
X189617960Y-128749041D01*
X189617960Y-129030958D01*
X189654755Y-129310439D01*
X189727719Y-129582743D01*
X189835595Y-129843179D01*
X189835600Y-129843190D01*
X189976543Y-130087309D01*
X189976548Y-130087317D01*
X190148160Y-130310965D01*
X190148164Y-130310970D01*
X190347489Y-130510295D01*
X190347493Y-130510298D01*
X190347495Y-130510300D01*
X190571143Y-130681912D01*
X190571150Y-130681916D01*
X190815269Y-130822859D01*
X190815274Y-130822861D01*
X190815277Y-130822863D01*
X191075721Y-130930742D01*
X191348018Y-131003704D01*
X191627509Y-131040500D01*
X191627516Y-131040500D01*
X191909404Y-131040500D01*
X191909411Y-131040500D01*
X192188902Y-131003704D01*
X192461199Y-130930742D01*
X192721643Y-130822863D01*
X192965777Y-130681912D01*
X193189425Y-130510300D01*
X193388760Y-130310965D01*
X193560372Y-130087317D01*
X193701323Y-129843183D01*
X193809202Y-129582739D01*
X193882164Y-129310442D01*
X193918960Y-129030951D01*
X193918960Y-128749049D01*
X193882164Y-128469558D01*
X193809202Y-128197261D01*
X193701323Y-127936817D01*
X193701321Y-127936814D01*
X193701319Y-127936809D01*
X193560376Y-127692690D01*
X193560372Y-127692683D01*
X193388760Y-127469035D01*
X193388758Y-127469033D01*
X193388755Y-127469029D01*
X193189430Y-127269704D01*
X193189425Y-127269700D01*
X192965777Y-127098088D01*
X192965771Y-127098084D01*
X192965769Y-127098083D01*
X192721650Y-126957140D01*
X192721639Y-126957135D01*
X192461203Y-126849259D01*
X192188899Y-126776295D01*
X191909418Y-126739500D01*
X191909411Y-126739500D01*
X191627509Y-126739500D01*
X191627501Y-126739500D01*
X191348020Y-126776295D01*
X191075716Y-126849259D01*
X190815280Y-126957135D01*
X190815269Y-126957140D01*
X190571150Y-127098083D01*
X190571142Y-127098089D01*
X190347489Y-127269704D01*
X190148164Y-127469029D01*
X189976549Y-127692682D01*
X189976543Y-127692690D01*
X189835600Y-127936809D01*
X189835595Y-127936820D01*
X189727719Y-128197256D01*
X189654755Y-128469560D01*
X189617960Y-128749041D01*
X151268960Y-128749041D01*
X151268960Y-124806530D01*
X165137960Y-124806530D01*
X165137960Y-125013469D01*
X165178328Y-125216412D01*
X165178330Y-125216420D01*
X165257518Y-125407596D01*
X165372484Y-125579657D01*
X165518802Y-125725975D01*
X165518805Y-125725977D01*
X165690862Y-125840941D01*
X165882040Y-125920130D01*
X166084990Y-125960499D01*
X166084994Y-125960500D01*
X166084995Y-125960500D01*
X166291926Y-125960500D01*
X166291927Y-125960499D01*
X166494880Y-125920130D01*
X166686058Y-125840941D01*
X166858115Y-125725977D01*
X167004437Y-125579655D01*
X167119401Y-125407598D01*
X167198590Y-125216420D01*
X167238960Y-125013465D01*
X167238960Y-124806535D01*
X167238959Y-124806530D01*
X176317960Y-124806530D01*
X176317960Y-125013469D01*
X176358328Y-125216412D01*
X176358330Y-125216420D01*
X176437518Y-125407596D01*
X176552484Y-125579657D01*
X176698802Y-125725975D01*
X176698805Y-125725977D01*
X176870862Y-125840941D01*
X177062040Y-125920130D01*
X177264990Y-125960499D01*
X177264994Y-125960500D01*
X177264995Y-125960500D01*
X177471926Y-125960500D01*
X177471927Y-125960499D01*
X177674880Y-125920130D01*
X177866058Y-125840941D01*
X178038115Y-125725977D01*
X178184437Y-125579655D01*
X178299401Y-125407598D01*
X178378590Y-125216420D01*
X178418960Y-125013465D01*
X178418960Y-124806535D01*
X178378590Y-124603580D01*
X178299401Y-124412402D01*
X178184437Y-124240345D01*
X178184435Y-124240342D01*
X178038117Y-124094024D01*
X177952086Y-124036541D01*
X177866058Y-123979059D01*
X177674880Y-123899870D01*
X177674872Y-123899868D01*
X177471929Y-123859500D01*
X177471925Y-123859500D01*
X177264995Y-123859500D01*
X177264990Y-123859500D01*
X177062047Y-123899868D01*
X177062039Y-123899870D01*
X176870863Y-123979058D01*
X176698802Y-124094024D01*
X176552484Y-124240342D01*
X176437518Y-124412403D01*
X176358330Y-124603579D01*
X176358328Y-124603587D01*
X176317960Y-124806530D01*
X167238959Y-124806530D01*
X167198590Y-124603580D01*
X167119401Y-124412402D01*
X167004437Y-124240345D01*
X167004435Y-124240342D01*
X166858117Y-124094024D01*
X166772086Y-124036541D01*
X166686058Y-123979059D01*
X166494880Y-123899870D01*
X166494872Y-123899868D01*
X166291929Y-123859500D01*
X166291925Y-123859500D01*
X166084995Y-123859500D01*
X166084990Y-123859500D01*
X165882047Y-123899868D01*
X165882039Y-123899870D01*
X165690863Y-123979058D01*
X165518802Y-124094024D01*
X165372484Y-124240342D01*
X165257518Y-124412403D01*
X165178330Y-124603579D01*
X165178328Y-124603587D01*
X165137960Y-124806530D01*
X151268960Y-124806530D01*
X151268960Y-122248456D01*
X171193960Y-122248456D01*
X171193960Y-122491543D01*
X171193961Y-122491559D01*
X171225690Y-122732569D01*
X171288609Y-122967386D01*
X171381635Y-123191972D01*
X171381642Y-123191987D01*
X171503190Y-123402516D01*
X171651182Y-123595380D01*
X171651190Y-123595389D01*
X171823071Y-123767270D01*
X171823079Y-123767277D01*
X172015943Y-123915269D01*
X172226472Y-124036817D01*
X172226487Y-124036824D01*
X172342631Y-124084932D01*
X172451072Y-124129850D01*
X172685889Y-124192769D01*
X172926910Y-124224500D01*
X172926917Y-124224500D01*
X173170003Y-124224500D01*
X173170010Y-124224500D01*
X173411031Y-124192769D01*
X173645848Y-124129850D01*
X173870444Y-124036819D01*
X174080976Y-123915269D01*
X174273840Y-123767278D01*
X174273844Y-123767273D01*
X174273849Y-123767270D01*
X174445730Y-123595389D01*
X174445733Y-123595384D01*
X174445738Y-123595380D01*
X174593729Y-123402516D01*
X174715279Y-123191984D01*
X174808310Y-122967388D01*
X174871229Y-122732571D01*
X174902960Y-122491550D01*
X174902960Y-122248450D01*
X174871229Y-122007429D01*
X174808310Y-121772612D01*
X174715279Y-121548016D01*
X174715277Y-121548012D01*
X174593729Y-121337483D01*
X174445737Y-121144619D01*
X174445730Y-121144611D01*
X174273849Y-120972730D01*
X174273840Y-120972722D01*
X174080976Y-120824730D01*
X173870447Y-120703182D01*
X173870432Y-120703175D01*
X173645846Y-120610149D01*
X173411029Y-120547230D01*
X173170019Y-120515501D01*
X173170016Y-120515500D01*
X173170010Y-120515500D01*
X172926910Y-120515500D01*
X172926904Y-120515500D01*
X172926900Y-120515501D01*
X172685890Y-120547230D01*
X172451073Y-120610149D01*
X172226487Y-120703175D01*
X172226472Y-120703182D01*
X172015943Y-120824730D01*
X171823079Y-120972722D01*
X171651182Y-121144619D01*
X171503190Y-121337483D01*
X171381642Y-121548012D01*
X171381635Y-121548027D01*
X171288609Y-121772613D01*
X171225690Y-122007430D01*
X171193961Y-122248440D01*
X171193960Y-122248456D01*
X151268960Y-122248456D01*
X151268960Y-115926379D01*
X167647960Y-115926379D01*
X167647960Y-116113620D01*
X167684485Y-116297243D01*
X167684487Y-116297251D01*
X167756136Y-116470228D01*
X167756141Y-116470237D01*
X167860157Y-116625907D01*
X167860160Y-116625911D01*
X167992548Y-116758299D01*
X167992552Y-116758302D01*
X168148222Y-116862318D01*
X168148228Y-116862321D01*
X168148229Y-116862322D01*
X168321209Y-116933973D01*
X168504839Y-116970499D01*
X168504843Y-116970500D01*
X168504844Y-116970500D01*
X168692077Y-116970500D01*
X168692078Y-116970499D01*
X168875711Y-116933973D01*
X169048691Y-116862322D01*
X169204368Y-116758302D01*
X169336762Y-116625908D01*
X169440782Y-116470231D01*
X169512433Y-116297251D01*
X169548960Y-116113616D01*
X169548960Y-115926384D01*
X169548959Y-115926379D01*
X172727960Y-115926379D01*
X172727960Y-116113620D01*
X172764485Y-116297243D01*
X172764487Y-116297251D01*
X172836136Y-116470228D01*
X172836141Y-116470237D01*
X172940157Y-116625907D01*
X172940160Y-116625911D01*
X173072548Y-116758299D01*
X173072552Y-116758302D01*
X173228222Y-116862318D01*
X173228228Y-116862321D01*
X173228229Y-116862322D01*
X173401209Y-116933973D01*
X173584839Y-116970499D01*
X173584843Y-116970500D01*
X173584844Y-116970500D01*
X173772077Y-116970500D01*
X173772078Y-116970499D01*
X173955711Y-116933973D01*
X174128691Y-116862322D01*
X174284368Y-116758302D01*
X174416762Y-116625908D01*
X174520782Y-116470231D01*
X174592433Y-116297251D01*
X174628960Y-116113616D01*
X174628960Y-115926384D01*
X174628959Y-115926379D01*
X175267960Y-115926379D01*
X175267960Y-116113620D01*
X175304485Y-116297243D01*
X175304487Y-116297251D01*
X175376136Y-116470228D01*
X175376141Y-116470237D01*
X175480157Y-116625907D01*
X175480160Y-116625911D01*
X175612548Y-116758299D01*
X175612552Y-116758302D01*
X175768222Y-116862318D01*
X175768228Y-116862321D01*
X175768229Y-116862322D01*
X175941209Y-116933973D01*
X176124839Y-116970499D01*
X176124843Y-116970500D01*
X176124844Y-116970500D01*
X176312077Y-116970500D01*
X176312078Y-116970499D01*
X176495711Y-116933973D01*
X176668691Y-116862322D01*
X176824368Y-116758302D01*
X176956762Y-116625908D01*
X177060782Y-116470231D01*
X177132433Y-116297251D01*
X177168960Y-116113616D01*
X177168960Y-115926384D01*
X177132433Y-115742749D01*
X177060782Y-115569769D01*
X177060781Y-115569768D01*
X177060778Y-115569762D01*
X176956762Y-115414092D01*
X176956759Y-115414088D01*
X176824371Y-115281700D01*
X176824367Y-115281697D01*
X176668697Y-115177681D01*
X176668688Y-115177676D01*
X176495711Y-115106027D01*
X176495703Y-115106025D01*
X176312080Y-115069500D01*
X176312076Y-115069500D01*
X176124844Y-115069500D01*
X176124839Y-115069500D01*
X175941216Y-115106025D01*
X175941208Y-115106027D01*
X175768231Y-115177676D01*
X175768222Y-115177681D01*
X175612552Y-115281697D01*
X175612548Y-115281700D01*
X175480160Y-115414088D01*
X175480157Y-115414092D01*
X175376141Y-115569762D01*
X175376136Y-115569771D01*
X175304487Y-115742748D01*
X175304485Y-115742756D01*
X175267960Y-115926379D01*
X174628959Y-115926379D01*
X174592433Y-115742749D01*
X174520782Y-115569769D01*
X174520781Y-115569768D01*
X174520778Y-115569762D01*
X174416762Y-115414092D01*
X174416759Y-115414088D01*
X174284371Y-115281700D01*
X174284367Y-115281697D01*
X174128697Y-115177681D01*
X174128688Y-115177676D01*
X173955711Y-115106027D01*
X173955703Y-115106025D01*
X173772080Y-115069500D01*
X173772076Y-115069500D01*
X173584844Y-115069500D01*
X173584839Y-115069500D01*
X173401216Y-115106025D01*
X173401208Y-115106027D01*
X173228231Y-115177676D01*
X173228222Y-115177681D01*
X173072552Y-115281697D01*
X173072548Y-115281700D01*
X172940160Y-115414088D01*
X172940157Y-115414092D01*
X172836141Y-115569762D01*
X172836136Y-115569771D01*
X172764487Y-115742748D01*
X172764485Y-115742756D01*
X172727960Y-115926379D01*
X169548959Y-115926379D01*
X169512433Y-115742749D01*
X169440782Y-115569769D01*
X169440781Y-115569768D01*
X169440778Y-115569762D01*
X169336762Y-115414092D01*
X169336759Y-115414088D01*
X169204371Y-115281700D01*
X169204367Y-115281697D01*
X169048697Y-115177681D01*
X169048688Y-115177676D01*
X168875711Y-115106027D01*
X168875703Y-115106025D01*
X168692080Y-115069500D01*
X168692076Y-115069500D01*
X168504844Y-115069500D01*
X168504839Y-115069500D01*
X168321216Y-115106025D01*
X168321208Y-115106027D01*
X168148231Y-115177676D01*
X168148222Y-115177681D01*
X167992552Y-115281697D01*
X167992548Y-115281700D01*
X167860160Y-115414088D01*
X167860157Y-115414092D01*
X167756141Y-115569762D01*
X167756136Y-115569771D01*
X167684487Y-115742748D01*
X167684485Y-115742756D01*
X167647960Y-115926379D01*
X151268960Y-115926379D01*
X151268960Y-113652470D01*
X151288645Y-113585431D01*
X151341449Y-113539676D01*
X151393379Y-113528471D01*
X160771560Y-113560339D01*
X162412012Y-113565914D01*
X162412012Y-113565913D01*
X162412024Y-113565914D01*
X162456275Y-113561247D01*
X162479241Y-113556266D01*
X162508456Y-113549931D01*
X162519165Y-113547305D01*
X162519165Y-113547304D01*
X162519173Y-113547303D01*
X162599794Y-113504123D01*
X162652501Y-113458257D01*
X162670420Y-113440627D01*
X162700614Y-113386379D01*
X168927960Y-113386379D01*
X168927960Y-113573620D01*
X168964485Y-113757243D01*
X168964487Y-113757251D01*
X169036136Y-113930228D01*
X169036141Y-113930237D01*
X169140157Y-114085907D01*
X169140160Y-114085911D01*
X169272548Y-114218299D01*
X169272552Y-114218302D01*
X169428222Y-114322318D01*
X169428228Y-114322321D01*
X169428229Y-114322322D01*
X169601209Y-114393973D01*
X169784839Y-114430499D01*
X169784843Y-114430500D01*
X169784844Y-114430500D01*
X169972077Y-114430500D01*
X169972078Y-114430499D01*
X170155711Y-114393973D01*
X170328691Y-114322322D01*
X170484368Y-114218302D01*
X170616762Y-114085908D01*
X170720782Y-113930231D01*
X170792433Y-113757251D01*
X170828960Y-113573616D01*
X170828960Y-113386384D01*
X170828959Y-113386379D01*
X171467960Y-113386379D01*
X171467960Y-113573620D01*
X171504485Y-113757243D01*
X171504487Y-113757251D01*
X171576136Y-113930228D01*
X171576141Y-113930237D01*
X171680157Y-114085907D01*
X171680160Y-114085911D01*
X171812548Y-114218299D01*
X171812552Y-114218302D01*
X171968222Y-114322318D01*
X171968228Y-114322321D01*
X171968229Y-114322322D01*
X172141209Y-114393973D01*
X172324839Y-114430499D01*
X172324843Y-114430500D01*
X172324844Y-114430500D01*
X172512077Y-114430500D01*
X172512078Y-114430499D01*
X172695711Y-114393973D01*
X172868691Y-114322322D01*
X173024368Y-114218302D01*
X173156762Y-114085908D01*
X173260782Y-113930231D01*
X173332433Y-113757251D01*
X173368960Y-113573616D01*
X173368960Y-113386384D01*
X173332433Y-113202749D01*
X173260782Y-113029769D01*
X173260781Y-113029768D01*
X173260778Y-113029762D01*
X173156762Y-112874092D01*
X173156759Y-112874088D01*
X173024371Y-112741700D01*
X173024367Y-112741697D01*
X172868697Y-112637681D01*
X172868688Y-112637676D01*
X172695711Y-112566027D01*
X172695703Y-112566025D01*
X172512080Y-112529500D01*
X172512076Y-112529500D01*
X172324844Y-112529500D01*
X172324839Y-112529500D01*
X172141216Y-112566025D01*
X172141208Y-112566027D01*
X171968231Y-112637676D01*
X171968222Y-112637681D01*
X171812552Y-112741697D01*
X171812548Y-112741700D01*
X171680160Y-112874088D01*
X171680157Y-112874092D01*
X171576141Y-113029762D01*
X171576136Y-113029771D01*
X171504487Y-113202748D01*
X171504485Y-113202756D01*
X171467960Y-113386379D01*
X170828959Y-113386379D01*
X170792433Y-113202749D01*
X170720782Y-113029769D01*
X170720781Y-113029768D01*
X170720778Y-113029762D01*
X170616762Y-112874092D01*
X170616759Y-112874088D01*
X170484371Y-112741700D01*
X170484367Y-112741697D01*
X170328697Y-112637681D01*
X170328688Y-112637676D01*
X170155711Y-112566027D01*
X170155703Y-112566025D01*
X169972080Y-112529500D01*
X169972076Y-112529500D01*
X169784844Y-112529500D01*
X169784839Y-112529500D01*
X169601216Y-112566025D01*
X169601208Y-112566027D01*
X169428231Y-112637676D01*
X169428222Y-112637681D01*
X169272552Y-112741697D01*
X169272548Y-112741700D01*
X169140160Y-112874088D01*
X169140157Y-112874092D01*
X169036141Y-113029762D01*
X169036136Y-113029771D01*
X168964487Y-113202748D01*
X168964485Y-113202756D01*
X168927960Y-113386379D01*
X162700614Y-113386379D01*
X162714898Y-113360715D01*
X162714899Y-113360712D01*
X162719300Y-113345607D01*
X162734441Y-113293633D01*
X162742643Y-113235720D01*
X162734406Y-109336379D01*
X167647960Y-109336379D01*
X167647960Y-109523620D01*
X167684485Y-109707243D01*
X167684487Y-109707251D01*
X167756136Y-109880228D01*
X167756141Y-109880237D01*
X167860157Y-110035907D01*
X167860160Y-110035911D01*
X167992548Y-110168299D01*
X167992552Y-110168302D01*
X168148222Y-110272318D01*
X168148228Y-110272321D01*
X168148229Y-110272322D01*
X168321209Y-110343973D01*
X168504839Y-110380499D01*
X168504843Y-110380500D01*
X168504844Y-110380500D01*
X168692077Y-110380500D01*
X168692078Y-110380499D01*
X168875711Y-110343973D01*
X169048691Y-110272322D01*
X169204368Y-110168302D01*
X169336762Y-110035908D01*
X169440782Y-109880231D01*
X169512433Y-109707251D01*
X169548960Y-109523616D01*
X169548960Y-109336384D01*
X169548959Y-109336379D01*
X172727960Y-109336379D01*
X172727960Y-109523620D01*
X172764485Y-109707243D01*
X172764487Y-109707251D01*
X172836136Y-109880228D01*
X172836141Y-109880237D01*
X172940157Y-110035907D01*
X172940160Y-110035911D01*
X173072548Y-110168299D01*
X173072552Y-110168302D01*
X173228222Y-110272318D01*
X173228228Y-110272321D01*
X173228229Y-110272322D01*
X173401209Y-110343973D01*
X173584839Y-110380499D01*
X173584843Y-110380500D01*
X173584844Y-110380500D01*
X173772077Y-110380500D01*
X173772078Y-110380499D01*
X173955711Y-110343973D01*
X174023048Y-110316080D01*
X174092516Y-110308612D01*
X174154995Y-110339887D01*
X174190648Y-110399976D01*
X174194500Y-110430642D01*
X174194500Y-112859911D01*
X174174815Y-112926950D01*
X174173602Y-112928802D01*
X174106137Y-113029769D01*
X174034487Y-113202748D01*
X174034485Y-113202756D01*
X173997960Y-113386379D01*
X173997960Y-113573620D01*
X174034485Y-113757243D01*
X174034487Y-113757251D01*
X174106136Y-113930228D01*
X174106141Y-113930237D01*
X174210157Y-114085907D01*
X174210160Y-114085911D01*
X174342548Y-114218299D01*
X174342552Y-114218302D01*
X174498222Y-114322318D01*
X174498228Y-114322321D01*
X174498229Y-114322322D01*
X174671209Y-114393973D01*
X174854839Y-114430499D01*
X174854843Y-114430500D01*
X174854844Y-114430500D01*
X175042077Y-114430500D01*
X175042078Y-114430499D01*
X175225711Y-114393973D01*
X175398691Y-114322322D01*
X175554368Y-114218302D01*
X175642797Y-114129871D01*
X175660284Y-114115335D01*
X175662074Y-114114104D01*
X175662085Y-114114099D01*
X175714889Y-114068344D01*
X175732843Y-114050753D01*
X175777490Y-113970936D01*
X175784310Y-113947706D01*
X175788723Y-113935197D01*
X175790778Y-113930237D01*
X175790782Y-113930231D01*
X175862433Y-113757251D01*
X175898960Y-113573616D01*
X175898960Y-113386384D01*
X175898959Y-113386379D01*
X176547960Y-113386379D01*
X176547960Y-113573620D01*
X176584485Y-113757243D01*
X176584487Y-113757251D01*
X176656136Y-113930228D01*
X176656141Y-113930237D01*
X176760157Y-114085907D01*
X176760160Y-114085911D01*
X176892548Y-114218299D01*
X176892552Y-114218302D01*
X177048222Y-114322318D01*
X177048228Y-114322321D01*
X177048229Y-114322322D01*
X177221209Y-114393973D01*
X177404839Y-114430499D01*
X177404843Y-114430500D01*
X177404844Y-114430500D01*
X177592077Y-114430500D01*
X177592078Y-114430499D01*
X177775711Y-114393973D01*
X177948691Y-114322322D01*
X178104368Y-114218302D01*
X178236762Y-114085908D01*
X178340782Y-113930231D01*
X178412433Y-113757251D01*
X178448960Y-113573616D01*
X178448960Y-113386384D01*
X178412433Y-113202749D01*
X178340782Y-113029769D01*
X178340781Y-113029768D01*
X178340778Y-113029762D01*
X178236762Y-112874092D01*
X178236759Y-112874088D01*
X178104371Y-112741700D01*
X178104367Y-112741697D01*
X177948697Y-112637681D01*
X177948688Y-112637676D01*
X177775711Y-112566027D01*
X177775703Y-112566025D01*
X177592080Y-112529500D01*
X177592076Y-112529500D01*
X177404844Y-112529500D01*
X177404839Y-112529500D01*
X177221216Y-112566025D01*
X177221208Y-112566027D01*
X177048231Y-112637676D01*
X177048222Y-112637681D01*
X176892552Y-112741697D01*
X176892548Y-112741700D01*
X176760160Y-112874088D01*
X176760157Y-112874092D01*
X176656141Y-113029762D01*
X176656136Y-113029771D01*
X176584487Y-113202748D01*
X176584485Y-113202756D01*
X176547960Y-113386379D01*
X175898959Y-113386379D01*
X175862433Y-113202749D01*
X175862431Y-113202744D01*
X175814939Y-113088087D01*
X175805500Y-113040635D01*
X175805500Y-110468073D01*
X175825185Y-110401034D01*
X175877989Y-110355279D01*
X175947147Y-110345335D01*
X175953691Y-110346456D01*
X176037119Y-110363050D01*
X176124841Y-110380499D01*
X176124843Y-110380500D01*
X176124844Y-110380500D01*
X176312077Y-110380500D01*
X176312078Y-110380499D01*
X176495711Y-110343973D01*
X176668691Y-110272322D01*
X176824368Y-110168302D01*
X176956762Y-110035908D01*
X177060782Y-109880231D01*
X177132433Y-109707251D01*
X177168960Y-109523616D01*
X177168960Y-109336384D01*
X177132433Y-109152749D01*
X177060782Y-108979769D01*
X177060781Y-108979768D01*
X177060778Y-108979762D01*
X176956762Y-108824092D01*
X176956759Y-108824088D01*
X176824371Y-108691700D01*
X176824367Y-108691697D01*
X176668697Y-108587681D01*
X176668688Y-108587676D01*
X176495711Y-108516027D01*
X176495703Y-108516025D01*
X176312080Y-108479500D01*
X176312076Y-108479500D01*
X176124844Y-108479500D01*
X176124839Y-108479500D01*
X175953691Y-108513543D01*
X175884099Y-108507316D01*
X175828922Y-108464452D01*
X175805678Y-108398562D01*
X175805500Y-108391926D01*
X175805500Y-107329363D01*
X175814939Y-107281910D01*
X175862433Y-107167251D01*
X175898960Y-106983616D01*
X175898960Y-106796384D01*
X175898959Y-106796379D01*
X176547960Y-106796379D01*
X176547960Y-106983620D01*
X176584485Y-107167243D01*
X176584487Y-107167251D01*
X176656136Y-107340228D01*
X176656141Y-107340237D01*
X176760157Y-107495907D01*
X176760160Y-107495911D01*
X176892548Y-107628299D01*
X176892552Y-107628302D01*
X177048222Y-107732318D01*
X177048228Y-107732321D01*
X177048229Y-107732322D01*
X177221209Y-107803973D01*
X177404839Y-107840499D01*
X177404843Y-107840500D01*
X177404844Y-107840500D01*
X177592077Y-107840500D01*
X177592078Y-107840499D01*
X177775711Y-107803973D01*
X177948691Y-107732322D01*
X178104368Y-107628302D01*
X178236762Y-107495908D01*
X178340782Y-107340231D01*
X178412433Y-107167251D01*
X178448960Y-106983616D01*
X178448960Y-106796384D01*
X178412433Y-106612749D01*
X178340782Y-106439769D01*
X178340781Y-106439768D01*
X178340778Y-106439762D01*
X178236762Y-106284092D01*
X178236759Y-106284088D01*
X178104371Y-106151700D01*
X178104367Y-106151697D01*
X177948697Y-106047681D01*
X177948688Y-106047676D01*
X177775711Y-105976027D01*
X177775703Y-105976025D01*
X177592080Y-105939500D01*
X177592076Y-105939500D01*
X177404844Y-105939500D01*
X177404839Y-105939500D01*
X177221216Y-105976025D01*
X177221208Y-105976027D01*
X177048231Y-106047676D01*
X177048222Y-106047681D01*
X176892552Y-106151697D01*
X176892548Y-106151700D01*
X176760160Y-106284088D01*
X176760157Y-106284092D01*
X176656141Y-106439762D01*
X176656136Y-106439771D01*
X176584487Y-106612748D01*
X176584485Y-106612756D01*
X176547960Y-106796379D01*
X175898959Y-106796379D01*
X175862433Y-106612749D01*
X175862431Y-106612744D01*
X175814939Y-106498087D01*
X175805500Y-106450635D01*
X175805500Y-106294007D01*
X175805499Y-106293991D01*
X175801807Y-106259655D01*
X175800803Y-106250315D01*
X175796897Y-106232363D01*
X175789602Y-106198824D01*
X175789348Y-106197788D01*
X175787110Y-106188626D01*
X175744100Y-106107914D01*
X175698345Y-106055110D01*
X175698339Y-106055103D01*
X175680757Y-106037159D01*
X175680756Y-106037158D01*
X175680754Y-106037156D01*
X175680752Y-106037155D01*
X175680750Y-106037153D01*
X175600940Y-105992510D01*
X175600935Y-105992508D01*
X175533903Y-105972825D01*
X175533899Y-105972824D01*
X175533898Y-105972824D01*
X175476000Y-105964499D01*
X175475996Y-105964499D01*
X175179966Y-105964499D01*
X175155775Y-105962116D01*
X175105294Y-105952074D01*
X175042077Y-105939500D01*
X175042076Y-105939500D01*
X174854844Y-105939500D01*
X174854843Y-105939500D01*
X174791625Y-105952074D01*
X174741144Y-105962116D01*
X174716954Y-105964499D01*
X174523992Y-105964499D01*
X174480313Y-105969196D01*
X174428825Y-105980396D01*
X174418627Y-105982889D01*
X174418624Y-105982890D01*
X174337916Y-106025898D01*
X174337913Y-106025900D01*
X174285104Y-106071659D01*
X174267160Y-106089241D01*
X174267154Y-106089248D01*
X174222511Y-106169058D01*
X174222509Y-106169063D01*
X174202824Y-106236101D01*
X174196025Y-106283387D01*
X174176391Y-106334627D01*
X174106137Y-106439770D01*
X174034487Y-106612748D01*
X174034485Y-106612756D01*
X173997960Y-106796379D01*
X173997960Y-106983620D01*
X174034485Y-107167243D01*
X174034487Y-107167251D01*
X174106136Y-107340228D01*
X174106141Y-107340237D01*
X174173602Y-107441198D01*
X174194480Y-107507875D01*
X174194500Y-107510089D01*
X174194500Y-108429357D01*
X174174815Y-108496396D01*
X174122011Y-108542151D01*
X174052853Y-108552095D01*
X174023048Y-108543918D01*
X173955715Y-108516028D01*
X173955703Y-108516025D01*
X173772080Y-108479500D01*
X173772076Y-108479500D01*
X173584844Y-108479500D01*
X173584839Y-108479500D01*
X173401216Y-108516025D01*
X173401208Y-108516027D01*
X173228231Y-108587676D01*
X173228222Y-108587681D01*
X173072552Y-108691697D01*
X173072548Y-108691700D01*
X172940160Y-108824088D01*
X172940157Y-108824092D01*
X172836141Y-108979762D01*
X172836136Y-108979771D01*
X172764487Y-109152748D01*
X172764485Y-109152756D01*
X172727960Y-109336379D01*
X169548959Y-109336379D01*
X169512433Y-109152749D01*
X169440782Y-108979769D01*
X169440781Y-108979768D01*
X169440778Y-108979762D01*
X169336762Y-108824092D01*
X169336759Y-108824088D01*
X169204371Y-108691700D01*
X169204367Y-108691697D01*
X169048697Y-108587681D01*
X169048688Y-108587676D01*
X168875711Y-108516027D01*
X168875703Y-108516025D01*
X168692080Y-108479500D01*
X168692076Y-108479500D01*
X168504844Y-108479500D01*
X168504839Y-108479500D01*
X168321216Y-108516025D01*
X168321208Y-108516027D01*
X168148231Y-108587676D01*
X168148222Y-108587681D01*
X167992552Y-108691697D01*
X167992548Y-108691700D01*
X167860160Y-108824088D01*
X167860157Y-108824092D01*
X167756141Y-108979762D01*
X167756136Y-108979771D01*
X167684487Y-109152748D01*
X167684485Y-109152756D01*
X167647960Y-109336379D01*
X162734406Y-109336379D01*
X162733324Y-108824088D01*
X162729041Y-106796379D01*
X168927960Y-106796379D01*
X168927960Y-106983620D01*
X168964485Y-107167243D01*
X168964487Y-107167251D01*
X169036136Y-107340228D01*
X169036141Y-107340237D01*
X169140157Y-107495907D01*
X169140160Y-107495911D01*
X169272548Y-107628299D01*
X169272552Y-107628302D01*
X169428222Y-107732318D01*
X169428228Y-107732321D01*
X169428229Y-107732322D01*
X169601209Y-107803973D01*
X169784839Y-107840499D01*
X169784843Y-107840500D01*
X169784844Y-107840500D01*
X169972077Y-107840500D01*
X169972078Y-107840499D01*
X170155711Y-107803973D01*
X170328691Y-107732322D01*
X170484368Y-107628302D01*
X170616762Y-107495908D01*
X170720782Y-107340231D01*
X170792433Y-107167251D01*
X170828960Y-106983616D01*
X170828960Y-106796384D01*
X170828959Y-106796379D01*
X171467960Y-106796379D01*
X171467960Y-106983620D01*
X171504485Y-107167243D01*
X171504487Y-107167251D01*
X171576136Y-107340228D01*
X171576141Y-107340237D01*
X171680157Y-107495907D01*
X171680160Y-107495911D01*
X171812548Y-107628299D01*
X171812552Y-107628302D01*
X171968222Y-107732318D01*
X171968228Y-107732321D01*
X171968229Y-107732322D01*
X172141209Y-107803973D01*
X172324839Y-107840499D01*
X172324843Y-107840500D01*
X172324844Y-107840500D01*
X172512077Y-107840500D01*
X172512078Y-107840499D01*
X172695711Y-107803973D01*
X172868691Y-107732322D01*
X173024368Y-107628302D01*
X173156762Y-107495908D01*
X173260782Y-107340231D01*
X173332433Y-107167251D01*
X173368960Y-106983616D01*
X173368960Y-106796384D01*
X173332433Y-106612749D01*
X173260782Y-106439769D01*
X173260781Y-106439768D01*
X173260778Y-106439762D01*
X173156762Y-106284092D01*
X173156759Y-106284088D01*
X173024371Y-106151700D01*
X173024367Y-106151697D01*
X172868697Y-106047681D01*
X172868688Y-106047676D01*
X172695711Y-105976027D01*
X172695703Y-105976025D01*
X172512080Y-105939500D01*
X172512076Y-105939500D01*
X172324844Y-105939500D01*
X172324839Y-105939500D01*
X172141216Y-105976025D01*
X172141208Y-105976027D01*
X171968231Y-106047676D01*
X171968222Y-106047681D01*
X171812552Y-106151697D01*
X171812548Y-106151700D01*
X171680160Y-106284088D01*
X171680157Y-106284092D01*
X171576141Y-106439762D01*
X171576136Y-106439771D01*
X171504487Y-106612748D01*
X171504485Y-106612756D01*
X171467960Y-106796379D01*
X170828959Y-106796379D01*
X170792433Y-106612749D01*
X170720782Y-106439769D01*
X170720781Y-106439768D01*
X170720778Y-106439762D01*
X170616762Y-106284092D01*
X170616759Y-106284088D01*
X170484371Y-106151700D01*
X170484367Y-106151697D01*
X170328697Y-106047681D01*
X170328688Y-106047676D01*
X170155711Y-105976027D01*
X170155703Y-105976025D01*
X169972080Y-105939500D01*
X169972076Y-105939500D01*
X169784844Y-105939500D01*
X169784839Y-105939500D01*
X169601216Y-105976025D01*
X169601208Y-105976027D01*
X169428231Y-106047676D01*
X169428222Y-106047681D01*
X169272552Y-106151697D01*
X169272548Y-106151700D01*
X169140160Y-106284088D01*
X169140157Y-106284092D01*
X169036141Y-106439762D01*
X169036136Y-106439771D01*
X168964487Y-106612748D01*
X168964485Y-106612756D01*
X168927960Y-106796379D01*
X162729041Y-106796379D01*
X162729029Y-106790554D01*
X162725746Y-105236530D01*
X187267960Y-105236530D01*
X187267960Y-105693469D01*
X187308328Y-105896412D01*
X187308330Y-105896420D01*
X187387519Y-106087598D01*
X187430348Y-106151697D01*
X187502484Y-106259657D01*
X187648802Y-106405975D01*
X187648805Y-106405977D01*
X187820862Y-106520941D01*
X188012040Y-106600130D01*
X188214990Y-106640499D01*
X188214994Y-106640500D01*
X188214995Y-106640500D01*
X188421926Y-106640500D01*
X188421927Y-106640499D01*
X188624880Y-106600130D01*
X188816058Y-106520941D01*
X188988115Y-106405977D01*
X189134437Y-106259655D01*
X189249401Y-106087598D01*
X189328590Y-105896420D01*
X189368960Y-105693465D01*
X189368960Y-105236535D01*
X189368959Y-105236530D01*
X189767960Y-105236530D01*
X189767960Y-105693469D01*
X189808328Y-105896412D01*
X189808330Y-105896420D01*
X189887519Y-106087598D01*
X189930348Y-106151697D01*
X190002484Y-106259657D01*
X190148802Y-106405975D01*
X190148805Y-106405977D01*
X190320862Y-106520941D01*
X190512040Y-106600130D01*
X190714990Y-106640499D01*
X190714994Y-106640500D01*
X190714995Y-106640500D01*
X190921926Y-106640500D01*
X190921927Y-106640499D01*
X191124880Y-106600130D01*
X191316058Y-106520941D01*
X191488115Y-106405977D01*
X191634437Y-106259655D01*
X191749401Y-106087598D01*
X191828590Y-105896420D01*
X191868960Y-105693465D01*
X191868960Y-105236535D01*
X191868959Y-105236530D01*
X192267960Y-105236530D01*
X192267960Y-105693469D01*
X192308328Y-105896412D01*
X192308330Y-105896420D01*
X192387519Y-106087598D01*
X192430348Y-106151697D01*
X192502484Y-106259657D01*
X192648802Y-106405975D01*
X192648805Y-106405977D01*
X192820862Y-106520941D01*
X193012040Y-106600130D01*
X193214990Y-106640499D01*
X193214994Y-106640500D01*
X193214995Y-106640500D01*
X193421926Y-106640500D01*
X193421927Y-106640499D01*
X193624880Y-106600130D01*
X193816058Y-106520941D01*
X193988115Y-106405977D01*
X194134437Y-106259655D01*
X194249401Y-106087598D01*
X194328590Y-105896420D01*
X194368960Y-105693465D01*
X194368960Y-105236535D01*
X194328590Y-105033580D01*
X194249401Y-104842402D01*
X194134437Y-104670345D01*
X194134435Y-104670342D01*
X193988117Y-104524024D01*
X193901138Y-104465907D01*
X193816058Y-104409059D01*
X193624880Y-104329870D01*
X193624872Y-104329868D01*
X193421929Y-104289500D01*
X193421925Y-104289500D01*
X193214995Y-104289500D01*
X193214990Y-104289500D01*
X193012047Y-104329868D01*
X193012039Y-104329870D01*
X192820863Y-104409058D01*
X192648802Y-104524024D01*
X192502484Y-104670342D01*
X192387518Y-104842403D01*
X192308330Y-105033579D01*
X192308328Y-105033587D01*
X192267960Y-105236530D01*
X191868959Y-105236530D01*
X191828590Y-105033580D01*
X191749401Y-104842402D01*
X191634437Y-104670345D01*
X191634435Y-104670342D01*
X191488117Y-104524024D01*
X191401138Y-104465907D01*
X191316058Y-104409059D01*
X191124880Y-104329870D01*
X191124872Y-104329868D01*
X190921929Y-104289500D01*
X190921925Y-104289500D01*
X190714995Y-104289500D01*
X190714990Y-104289500D01*
X190512047Y-104329868D01*
X190512039Y-104329870D01*
X190320863Y-104409058D01*
X190148802Y-104524024D01*
X190002484Y-104670342D01*
X189887518Y-104842403D01*
X189808330Y-105033579D01*
X189808328Y-105033587D01*
X189767960Y-105236530D01*
X189368959Y-105236530D01*
X189328590Y-105033580D01*
X189249401Y-104842402D01*
X189134437Y-104670345D01*
X189134435Y-104670342D01*
X188988117Y-104524024D01*
X188901138Y-104465907D01*
X188816058Y-104409059D01*
X188624880Y-104329870D01*
X188624872Y-104329868D01*
X188421929Y-104289500D01*
X188421925Y-104289500D01*
X188214995Y-104289500D01*
X188214990Y-104289500D01*
X188012047Y-104329868D01*
X188012039Y-104329870D01*
X187820863Y-104409058D01*
X187648802Y-104524024D01*
X187502484Y-104670342D01*
X187387518Y-104842403D01*
X187308330Y-105033579D01*
X187308328Y-105033587D01*
X187267960Y-105236530D01*
X162725746Y-105236530D01*
X162725734Y-105230705D01*
X162723036Y-103953616D01*
X162722641Y-103766379D01*
X165237960Y-103766379D01*
X165237960Y-103953620D01*
X165274485Y-104137243D01*
X165274487Y-104137251D01*
X165346136Y-104310228D01*
X165346141Y-104310237D01*
X165450157Y-104465907D01*
X165450160Y-104465911D01*
X165582548Y-104598299D01*
X165582552Y-104598302D01*
X165738222Y-104702318D01*
X165738228Y-104702321D01*
X165738229Y-104702322D01*
X165911209Y-104773973D01*
X166094839Y-104810499D01*
X166094843Y-104810500D01*
X166094844Y-104810500D01*
X166282077Y-104810500D01*
X166282078Y-104810499D01*
X166465711Y-104773973D01*
X166638691Y-104702322D01*
X166794368Y-104598302D01*
X166926762Y-104465908D01*
X167030782Y-104310231D01*
X167102433Y-104137251D01*
X167138960Y-103953616D01*
X167138960Y-103766384D01*
X167138959Y-103766379D01*
X176417960Y-103766379D01*
X176417960Y-103953620D01*
X176454485Y-104137243D01*
X176454487Y-104137251D01*
X176526136Y-104310228D01*
X176526141Y-104310237D01*
X176630157Y-104465907D01*
X176630160Y-104465911D01*
X176762548Y-104598299D01*
X176762552Y-104598302D01*
X176918222Y-104702318D01*
X176918228Y-104702321D01*
X176918229Y-104702322D01*
X177091209Y-104773973D01*
X177274839Y-104810499D01*
X177274843Y-104810500D01*
X177274844Y-104810500D01*
X177462077Y-104810500D01*
X177462078Y-104810499D01*
X177645711Y-104773973D01*
X177818691Y-104702322D01*
X177974368Y-104598302D01*
X178106762Y-104465908D01*
X178210782Y-104310231D01*
X178282433Y-104137251D01*
X178318960Y-103953616D01*
X178318960Y-103766384D01*
X178318959Y-103766379D01*
X178957960Y-103766379D01*
X178957960Y-103953620D01*
X178994485Y-104137243D01*
X178994487Y-104137251D01*
X179066136Y-104310228D01*
X179066141Y-104310237D01*
X179170157Y-104465907D01*
X179170160Y-104465911D01*
X179302548Y-104598299D01*
X179302552Y-104598302D01*
X179458222Y-104702318D01*
X179458228Y-104702321D01*
X179458229Y-104702322D01*
X179631209Y-104773973D01*
X179814839Y-104810499D01*
X179814843Y-104810500D01*
X179814844Y-104810500D01*
X180002077Y-104810500D01*
X180002078Y-104810499D01*
X180185711Y-104773973D01*
X180358691Y-104702322D01*
X180514368Y-104598302D01*
X180646762Y-104465908D01*
X180750782Y-104310231D01*
X180822433Y-104137251D01*
X180858960Y-103953616D01*
X180858960Y-103766384D01*
X180822433Y-103582749D01*
X180750782Y-103409769D01*
X180750781Y-103409768D01*
X180750778Y-103409762D01*
X180646762Y-103254092D01*
X180646759Y-103254088D01*
X180514371Y-103121700D01*
X180514367Y-103121697D01*
X180358697Y-103017681D01*
X180358688Y-103017676D01*
X180185711Y-102946027D01*
X180185703Y-102946025D01*
X180002080Y-102909500D01*
X180002076Y-102909500D01*
X179814844Y-102909500D01*
X179814839Y-102909500D01*
X179631216Y-102946025D01*
X179631208Y-102946027D01*
X179458231Y-103017676D01*
X179458222Y-103017681D01*
X179302552Y-103121697D01*
X179302548Y-103121700D01*
X179170160Y-103254088D01*
X179170157Y-103254092D01*
X179066141Y-103409762D01*
X179066136Y-103409771D01*
X178994487Y-103582748D01*
X178994485Y-103582756D01*
X178957960Y-103766379D01*
X178318959Y-103766379D01*
X178282433Y-103582749D01*
X178210782Y-103409769D01*
X178210781Y-103409768D01*
X178210778Y-103409762D01*
X178106762Y-103254092D01*
X178106759Y-103254088D01*
X177974371Y-103121700D01*
X177974367Y-103121697D01*
X177818697Y-103017681D01*
X177818688Y-103017676D01*
X177645711Y-102946027D01*
X177645703Y-102946025D01*
X177462080Y-102909500D01*
X177462076Y-102909500D01*
X177274844Y-102909500D01*
X177274839Y-102909500D01*
X177091216Y-102946025D01*
X177091208Y-102946027D01*
X176918231Y-103017676D01*
X176918222Y-103017681D01*
X176762552Y-103121697D01*
X176762548Y-103121700D01*
X176630160Y-103254088D01*
X176630157Y-103254092D01*
X176526141Y-103409762D01*
X176526136Y-103409771D01*
X176454487Y-103582748D01*
X176454485Y-103582756D01*
X176417960Y-103766379D01*
X167138959Y-103766379D01*
X167102433Y-103582749D01*
X167030782Y-103409769D01*
X167030781Y-103409768D01*
X167030778Y-103409762D01*
X166926762Y-103254092D01*
X166926759Y-103254088D01*
X166794371Y-103121700D01*
X166794367Y-103121697D01*
X166638697Y-103017681D01*
X166638688Y-103017676D01*
X166465711Y-102946027D01*
X166465703Y-102946025D01*
X166282080Y-102909500D01*
X166282076Y-102909500D01*
X166094844Y-102909500D01*
X166094839Y-102909500D01*
X165911216Y-102946025D01*
X165911208Y-102946027D01*
X165738231Y-103017676D01*
X165738222Y-103017681D01*
X165582552Y-103121697D01*
X165582548Y-103121700D01*
X165450160Y-103254088D01*
X165450157Y-103254092D01*
X165346141Y-103409762D01*
X165346136Y-103409771D01*
X165274487Y-103582748D01*
X165274485Y-103582756D01*
X165237960Y-103766379D01*
X162722641Y-103766379D01*
X162717411Y-101290500D01*
X162715506Y-100388543D01*
X175767959Y-100388543D01*
X175806407Y-100581829D01*
X175806410Y-100581839D01*
X175881824Y-100763907D01*
X175881831Y-100763920D01*
X175991320Y-100927781D01*
X175991323Y-100927785D01*
X176130674Y-101067136D01*
X176130678Y-101067139D01*
X176294539Y-101176628D01*
X176294552Y-101176635D01*
X176476620Y-101252049D01*
X176476625Y-101252051D01*
X176476629Y-101252051D01*
X176476630Y-101252052D01*
X176669916Y-101290500D01*
X176669919Y-101290500D01*
X176867003Y-101290500D01*
X176997042Y-101264632D01*
X177060295Y-101252051D01*
X177242374Y-101176632D01*
X177406242Y-101067139D01*
X177545599Y-100927782D01*
X177655092Y-100763914D01*
X177730511Y-100581835D01*
X177768960Y-100388543D01*
X178307959Y-100388543D01*
X178346407Y-100581829D01*
X178346410Y-100581839D01*
X178421824Y-100763907D01*
X178421831Y-100763920D01*
X178531320Y-100927781D01*
X178531323Y-100927785D01*
X178670674Y-101067136D01*
X178670678Y-101067139D01*
X178834539Y-101176628D01*
X178834552Y-101176635D01*
X179016620Y-101252049D01*
X179016625Y-101252051D01*
X179016629Y-101252051D01*
X179016630Y-101252052D01*
X179209916Y-101290500D01*
X179209919Y-101290500D01*
X179407003Y-101290500D01*
X179537042Y-101264632D01*
X179600295Y-101252051D01*
X179782374Y-101176632D01*
X179946242Y-101067139D01*
X180085599Y-100927782D01*
X180195092Y-100763914D01*
X180270511Y-100581835D01*
X180308960Y-100388541D01*
X180308960Y-100191459D01*
X180308960Y-100191456D01*
X180270512Y-99998170D01*
X180270511Y-99998169D01*
X180270511Y-99998165D01*
X180237499Y-99918466D01*
X180195095Y-99816092D01*
X180195088Y-99816079D01*
X180085599Y-99652218D01*
X180085596Y-99652214D01*
X179946245Y-99512863D01*
X179946241Y-99512860D01*
X179869421Y-99461530D01*
X184717960Y-99461530D01*
X184717960Y-99918469D01*
X184733812Y-99998160D01*
X184758330Y-100121420D01*
X184837519Y-100312598D01*
X184895001Y-100398626D01*
X184952484Y-100484657D01*
X185098802Y-100630975D01*
X185098805Y-100630977D01*
X185270862Y-100745941D01*
X185462040Y-100825130D01*
X185664990Y-100865499D01*
X185664994Y-100865500D01*
X185664995Y-100865500D01*
X185871926Y-100865500D01*
X185871927Y-100865499D01*
X186074880Y-100825130D01*
X186266058Y-100745941D01*
X186438115Y-100630977D01*
X186584437Y-100484655D01*
X186699401Y-100312598D01*
X186778590Y-100121420D01*
X186818960Y-99918465D01*
X186818960Y-99461535D01*
X186818959Y-99461530D01*
X187217960Y-99461530D01*
X187217960Y-99918469D01*
X187233812Y-99998160D01*
X187258330Y-100121420D01*
X187337519Y-100312598D01*
X187395001Y-100398626D01*
X187452484Y-100484657D01*
X187598802Y-100630975D01*
X187598805Y-100630977D01*
X187770862Y-100745941D01*
X187962040Y-100825130D01*
X188164990Y-100865499D01*
X188164994Y-100865500D01*
X188164995Y-100865500D01*
X188371926Y-100865500D01*
X188371927Y-100865499D01*
X188574880Y-100825130D01*
X188766058Y-100745941D01*
X188938115Y-100630977D01*
X189084437Y-100484655D01*
X189199401Y-100312598D01*
X189278590Y-100121420D01*
X189318960Y-99918465D01*
X189318960Y-99461535D01*
X189318959Y-99461530D01*
X189717960Y-99461530D01*
X189717960Y-99918469D01*
X189733812Y-99998160D01*
X189758330Y-100121420D01*
X189837519Y-100312598D01*
X189895001Y-100398626D01*
X189952484Y-100484657D01*
X190098802Y-100630975D01*
X190098805Y-100630977D01*
X190270862Y-100745941D01*
X190462040Y-100825130D01*
X190664990Y-100865499D01*
X190664994Y-100865500D01*
X190664995Y-100865500D01*
X190871926Y-100865500D01*
X190871927Y-100865499D01*
X191074880Y-100825130D01*
X191266058Y-100745941D01*
X191438115Y-100630977D01*
X191584437Y-100484655D01*
X191699401Y-100312598D01*
X191778590Y-100121420D01*
X191818960Y-99918465D01*
X191818960Y-99461535D01*
X191778590Y-99258580D01*
X191699401Y-99067402D01*
X191584437Y-98895345D01*
X191584435Y-98895342D01*
X191438117Y-98749024D01*
X191352086Y-98691541D01*
X191266058Y-98634059D01*
X191074880Y-98554870D01*
X191074872Y-98554868D01*
X190871929Y-98514500D01*
X190871925Y-98514500D01*
X190664995Y-98514500D01*
X190664990Y-98514500D01*
X190462047Y-98554868D01*
X190462039Y-98554870D01*
X190270863Y-98634058D01*
X190098802Y-98749024D01*
X189952484Y-98895342D01*
X189837518Y-99067403D01*
X189758330Y-99258579D01*
X189758328Y-99258587D01*
X189717960Y-99461530D01*
X189318959Y-99461530D01*
X189278590Y-99258580D01*
X189199401Y-99067402D01*
X189084437Y-98895345D01*
X189084435Y-98895342D01*
X188938117Y-98749024D01*
X188852086Y-98691541D01*
X188766058Y-98634059D01*
X188574880Y-98554870D01*
X188574872Y-98554868D01*
X188371929Y-98514500D01*
X188371925Y-98514500D01*
X188164995Y-98514500D01*
X188164990Y-98514500D01*
X187962047Y-98554868D01*
X187962039Y-98554870D01*
X187770863Y-98634058D01*
X187598802Y-98749024D01*
X187452484Y-98895342D01*
X187337518Y-99067403D01*
X187258330Y-99258579D01*
X187258328Y-99258587D01*
X187217960Y-99461530D01*
X186818959Y-99461530D01*
X186778590Y-99258580D01*
X186699401Y-99067402D01*
X186584437Y-98895345D01*
X186584435Y-98895342D01*
X186438117Y-98749024D01*
X186352086Y-98691541D01*
X186266058Y-98634059D01*
X186074880Y-98554870D01*
X186074872Y-98554868D01*
X185871929Y-98514500D01*
X185871925Y-98514500D01*
X185664995Y-98514500D01*
X185664990Y-98514500D01*
X185462047Y-98554868D01*
X185462039Y-98554870D01*
X185270863Y-98634058D01*
X185098802Y-98749024D01*
X184952484Y-98895342D01*
X184837518Y-99067403D01*
X184758330Y-99258579D01*
X184758328Y-99258587D01*
X184717960Y-99461530D01*
X179869421Y-99461530D01*
X179782380Y-99403371D01*
X179782367Y-99403364D01*
X179600299Y-99327950D01*
X179600289Y-99327947D01*
X179407003Y-99289500D01*
X179407001Y-99289500D01*
X179209919Y-99289500D01*
X179209917Y-99289500D01*
X179016630Y-99327947D01*
X179016620Y-99327950D01*
X178834552Y-99403364D01*
X178834539Y-99403371D01*
X178670678Y-99512860D01*
X178670674Y-99512863D01*
X178531323Y-99652214D01*
X178531320Y-99652218D01*
X178421831Y-99816079D01*
X178421824Y-99816092D01*
X178346410Y-99998160D01*
X178346407Y-99998170D01*
X178307960Y-100191456D01*
X178307960Y-100191459D01*
X178307960Y-100388541D01*
X178307960Y-100388543D01*
X178307959Y-100388543D01*
X177768960Y-100388543D01*
X177768960Y-100388541D01*
X177768960Y-100191459D01*
X177768960Y-100191456D01*
X177730512Y-99998170D01*
X177730511Y-99998169D01*
X177730511Y-99998165D01*
X177697499Y-99918466D01*
X177655095Y-99816092D01*
X177655088Y-99816079D01*
X177545599Y-99652218D01*
X177545596Y-99652214D01*
X177406245Y-99512863D01*
X177406241Y-99512860D01*
X177242380Y-99403371D01*
X177242367Y-99403364D01*
X177060299Y-99327950D01*
X177060289Y-99327947D01*
X176867003Y-99289500D01*
X176867001Y-99289500D01*
X176669919Y-99289500D01*
X176669917Y-99289500D01*
X176476630Y-99327947D01*
X176476620Y-99327950D01*
X176294552Y-99403364D01*
X176294539Y-99403371D01*
X176130678Y-99512860D01*
X176130674Y-99512863D01*
X175991323Y-99652214D01*
X175991320Y-99652218D01*
X175881831Y-99816079D01*
X175881824Y-99816092D01*
X175806410Y-99998160D01*
X175806407Y-99998170D01*
X175767960Y-100191456D01*
X175767960Y-100191459D01*
X175767960Y-100388541D01*
X175767960Y-100388543D01*
X175767959Y-100388543D01*
X162715506Y-100388543D01*
X162715077Y-100185629D01*
X162699410Y-92768543D01*
X175767959Y-92768543D01*
X175806407Y-92961829D01*
X175806410Y-92961839D01*
X175881824Y-93143907D01*
X175881831Y-93143920D01*
X175991320Y-93307781D01*
X175991323Y-93307785D01*
X176130674Y-93447136D01*
X176130678Y-93447139D01*
X176294539Y-93556628D01*
X176294552Y-93556635D01*
X176357446Y-93582686D01*
X176476625Y-93632051D01*
X176476629Y-93632051D01*
X176476630Y-93632052D01*
X176669916Y-93670500D01*
X176669919Y-93670500D01*
X176867003Y-93670500D01*
X176997042Y-93644632D01*
X177060295Y-93632051D01*
X177242374Y-93556632D01*
X177406242Y-93447139D01*
X177545599Y-93307782D01*
X177655092Y-93143914D01*
X177730511Y-92961835D01*
X177768960Y-92768541D01*
X177768960Y-92571459D01*
X177768960Y-92571456D01*
X177730512Y-92378170D01*
X177730511Y-92378169D01*
X177730511Y-92378165D01*
X177730509Y-92378160D01*
X177655095Y-92196092D01*
X177655088Y-92196079D01*
X177545599Y-92032218D01*
X177545596Y-92032214D01*
X177406245Y-91892863D01*
X177406241Y-91892860D01*
X177342466Y-91850247D01*
X178307960Y-91850247D01*
X178307960Y-93489752D01*
X178319591Y-93548229D01*
X178319592Y-93548230D01*
X178363907Y-93614552D01*
X178430229Y-93658867D01*
X178430230Y-93658868D01*
X178488707Y-93670499D01*
X178488710Y-93670500D01*
X178488712Y-93670500D01*
X180128210Y-93670500D01*
X180128211Y-93670499D01*
X180143028Y-93667552D01*
X180186689Y-93658868D01*
X180186689Y-93658867D01*
X180186691Y-93658867D01*
X180253012Y-93614552D01*
X180297327Y-93548231D01*
X180302125Y-93524110D01*
X180302125Y-93524108D01*
X181667960Y-93524108D01*
X181667960Y-93655892D01*
X181671874Y-93670499D01*
X181702068Y-93783187D01*
X181735014Y-93840250D01*
X181767960Y-93897314D01*
X181861146Y-93990500D01*
X181861148Y-93990501D01*
X181867597Y-93995450D01*
X181865784Y-93997812D01*
X181904170Y-94038062D01*
X181917960Y-94094893D01*
X181917960Y-97558324D01*
X181898275Y-97625363D01*
X181881641Y-97646005D01*
X181867962Y-97659683D01*
X181867960Y-97659686D01*
X181802068Y-97773812D01*
X181767960Y-97901108D01*
X181767960Y-98032891D01*
X181802068Y-98160187D01*
X181835014Y-98217250D01*
X181867960Y-98274314D01*
X181961146Y-98367500D01*
X182075274Y-98433392D01*
X182202568Y-98467500D01*
X182202570Y-98467500D01*
X182334350Y-98467500D01*
X182334352Y-98467500D01*
X182461646Y-98433392D01*
X182575774Y-98367500D01*
X182668960Y-98274314D01*
X182734852Y-98160186D01*
X182768960Y-98032892D01*
X182768960Y-97901108D01*
X182734852Y-97773814D01*
X182668960Y-97659686D01*
X182655279Y-97646005D01*
X182621794Y-97584682D01*
X182618960Y-97558324D01*
X182618960Y-95923183D01*
X182638645Y-95856144D01*
X182691449Y-95810389D01*
X182760607Y-95800445D01*
X182804958Y-95815795D01*
X182875274Y-95856392D01*
X183002568Y-95890500D01*
X183002570Y-95890500D01*
X183134350Y-95890500D01*
X183134352Y-95890500D01*
X183261646Y-95856392D01*
X183375774Y-95790500D01*
X183468960Y-95697314D01*
X183534852Y-95583186D01*
X183568960Y-95455892D01*
X183568960Y-95324108D01*
X183534852Y-95196814D01*
X183468960Y-95082686D01*
X183455279Y-95069005D01*
X183421794Y-95007682D01*
X183418960Y-94981324D01*
X183418960Y-93998676D01*
X183437110Y-93934087D01*
X183444816Y-93921457D01*
X183468960Y-93897314D01*
X183511226Y-93824108D01*
X187967960Y-93824108D01*
X187967960Y-93955892D01*
X187979192Y-93997812D01*
X188002068Y-94083187D01*
X188008827Y-94094893D01*
X188067960Y-94197314D01*
X188161146Y-94290500D01*
X188275274Y-94356392D01*
X188402568Y-94390500D01*
X188402570Y-94390500D01*
X188534350Y-94390500D01*
X188534352Y-94390500D01*
X188661646Y-94356392D01*
X188775774Y-94290500D01*
X188789455Y-94276819D01*
X188850778Y-94243334D01*
X188877136Y-94240500D01*
X189559784Y-94240500D01*
X189626823Y-94260185D01*
X189647465Y-94276819D01*
X189661146Y-94290500D01*
X189775274Y-94356392D01*
X189902568Y-94390500D01*
X189902570Y-94390500D01*
X190034350Y-94390500D01*
X190034352Y-94390500D01*
X190161646Y-94356392D01*
X190275774Y-94290500D01*
X190368960Y-94197314D01*
X190434852Y-94083186D01*
X190468960Y-93955892D01*
X190468960Y-93824108D01*
X190434852Y-93696814D01*
X190368960Y-93582686D01*
X190275774Y-93489500D01*
X190202398Y-93447136D01*
X190161647Y-93423608D01*
X190061648Y-93396814D01*
X190034352Y-93389500D01*
X189902568Y-93389500D01*
X189775272Y-93423608D01*
X189661146Y-93489500D01*
X189661143Y-93489502D01*
X189647465Y-93503181D01*
X189586142Y-93536666D01*
X189559784Y-93539500D01*
X188877136Y-93539500D01*
X188810097Y-93519815D01*
X188789455Y-93503181D01*
X188775776Y-93489502D01*
X188775774Y-93489500D01*
X188702398Y-93447136D01*
X188661647Y-93423608D01*
X188561648Y-93396814D01*
X188534352Y-93389500D01*
X188402568Y-93389500D01*
X188275272Y-93423608D01*
X188161146Y-93489500D01*
X188161143Y-93489502D01*
X188067962Y-93582683D01*
X188067960Y-93582686D01*
X188002068Y-93696812D01*
X187971086Y-93812443D01*
X187967960Y-93824108D01*
X183511226Y-93824108D01*
X183534852Y-93783186D01*
X183568960Y-93655892D01*
X183568960Y-93524108D01*
X183534852Y-93396814D01*
X183468960Y-93282686D01*
X183375774Y-93189500D01*
X183318710Y-93156554D01*
X183261647Y-93123608D01*
X183197999Y-93106554D01*
X183134352Y-93089500D01*
X183002568Y-93089500D01*
X182875272Y-93123608D01*
X182761146Y-93189500D01*
X182761143Y-93189502D01*
X182706141Y-93244505D01*
X182644818Y-93277990D01*
X182575126Y-93273006D01*
X182530779Y-93244505D01*
X182475776Y-93189502D01*
X182475774Y-93189500D01*
X182418710Y-93156554D01*
X182361647Y-93123608D01*
X182297999Y-93106554D01*
X182234352Y-93089500D01*
X182102568Y-93089500D01*
X181975272Y-93123608D01*
X181861146Y-93189500D01*
X181861143Y-93189502D01*
X181767962Y-93282683D01*
X181767960Y-93282686D01*
X181702068Y-93396812D01*
X181676620Y-93491789D01*
X181667960Y-93524108D01*
X180302125Y-93524108D01*
X180308555Y-93491789D01*
X180308960Y-93489750D01*
X180308960Y-91850249D01*
X180308959Y-91850247D01*
X180297328Y-91791770D01*
X180297327Y-91791769D01*
X180253012Y-91725447D01*
X180186690Y-91681132D01*
X180186689Y-91681131D01*
X180128212Y-91669500D01*
X180128208Y-91669500D01*
X178488712Y-91669500D01*
X178488707Y-91669500D01*
X178430230Y-91681131D01*
X178430229Y-91681132D01*
X178363907Y-91725447D01*
X178319592Y-91791769D01*
X178319591Y-91791770D01*
X178307960Y-91850247D01*
X177342466Y-91850247D01*
X177242380Y-91783371D01*
X177242367Y-91783364D01*
X177060299Y-91707950D01*
X177060289Y-91707947D01*
X176867003Y-91669500D01*
X176867001Y-91669500D01*
X176669919Y-91669500D01*
X176669917Y-91669500D01*
X176476630Y-91707947D01*
X176476620Y-91707950D01*
X176294552Y-91783364D01*
X176294539Y-91783371D01*
X176130678Y-91892860D01*
X176130674Y-91892863D01*
X175991323Y-92032214D01*
X175991320Y-92032218D01*
X175881831Y-92196079D01*
X175881824Y-92196092D01*
X175806410Y-92378160D01*
X175806407Y-92378170D01*
X175767960Y-92571456D01*
X175767960Y-92571459D01*
X175767960Y-92768541D01*
X175767960Y-92768543D01*
X175767959Y-92768543D01*
X162699410Y-92768543D01*
X162698981Y-92565629D01*
X162697088Y-91669500D01*
X162691118Y-88843305D01*
X162686375Y-88799842D01*
X162675169Y-88748593D01*
X162672728Y-88738628D01*
X162629718Y-88657916D01*
X162583963Y-88605112D01*
X162583957Y-88605105D01*
X162566375Y-88587161D01*
X162566374Y-88587160D01*
X162566372Y-88587158D01*
X162566370Y-88587157D01*
X162566368Y-88587155D01*
X162486558Y-88542512D01*
X162486553Y-88542510D01*
X162419521Y-88522827D01*
X162419517Y-88522826D01*
X162419516Y-88522826D01*
X162361618Y-88514501D01*
X162361614Y-88514501D01*
X159407134Y-88514501D01*
X159340095Y-88494816D01*
X159294340Y-88442012D01*
X159284396Y-88372854D01*
X159292573Y-88343048D01*
X159316854Y-88284428D01*
X159316858Y-88284419D01*
X159384730Y-88031116D01*
X159418960Y-87771120D01*
X159418960Y-87508880D01*
X159418098Y-87502332D01*
X163317960Y-87502332D01*
X163317960Y-87777667D01*
X163317961Y-87777684D01*
X163353898Y-88050655D01*
X163353899Y-88050660D01*
X163353900Y-88050666D01*
X163353901Y-88050668D01*
X163425164Y-88316630D01*
X163530535Y-88571017D01*
X163530540Y-88571028D01*
X163610269Y-88709121D01*
X163668211Y-88809479D01*
X163668213Y-88809482D01*
X163668214Y-88809483D01*
X163835830Y-89027926D01*
X163835836Y-89027933D01*
X164030526Y-89222623D01*
X164030532Y-89222628D01*
X164248981Y-89390249D01*
X164402238Y-89478732D01*
X164487431Y-89527919D01*
X164487436Y-89527921D01*
X164487439Y-89527923D01*
X164741828Y-89633295D01*
X165007794Y-89704560D01*
X165280786Y-89740500D01*
X165280793Y-89740500D01*
X165556127Y-89740500D01*
X165556134Y-89740500D01*
X165829126Y-89704560D01*
X166095092Y-89633295D01*
X166349481Y-89527923D01*
X166587939Y-89390249D01*
X166806388Y-89222628D01*
X167001088Y-89027928D01*
X167168709Y-88809479D01*
X167306383Y-88571021D01*
X167411755Y-88316632D01*
X167483020Y-88050666D01*
X167518960Y-87777674D01*
X167518960Y-87502332D01*
X171317960Y-87502332D01*
X171317960Y-87777667D01*
X171317961Y-87777684D01*
X171353898Y-88050655D01*
X171353899Y-88050660D01*
X171353900Y-88050666D01*
X171353901Y-88050668D01*
X171425164Y-88316630D01*
X171530535Y-88571017D01*
X171530540Y-88571028D01*
X171610269Y-88709121D01*
X171668211Y-88809479D01*
X171668213Y-88809482D01*
X171668214Y-88809483D01*
X171835830Y-89027926D01*
X171835836Y-89027933D01*
X172030526Y-89222623D01*
X172030532Y-89222628D01*
X172248981Y-89390249D01*
X172402238Y-89478732D01*
X172487431Y-89527919D01*
X172487436Y-89527921D01*
X172487439Y-89527923D01*
X172741828Y-89633295D01*
X173007794Y-89704560D01*
X173280786Y-89740500D01*
X173280793Y-89740500D01*
X173556127Y-89740500D01*
X173556134Y-89740500D01*
X173829126Y-89704560D01*
X174095092Y-89633295D01*
X174349481Y-89527923D01*
X174587939Y-89390249D01*
X174806388Y-89222628D01*
X175001088Y-89027928D01*
X175168709Y-88809479D01*
X175306383Y-88571021D01*
X175411755Y-88316632D01*
X175483020Y-88050666D01*
X175518960Y-87777674D01*
X175518960Y-87502332D01*
X179317960Y-87502332D01*
X179317960Y-87777667D01*
X179317961Y-87777684D01*
X179353898Y-88050655D01*
X179353899Y-88050660D01*
X179353900Y-88050666D01*
X179353901Y-88050668D01*
X179425164Y-88316630D01*
X179530535Y-88571017D01*
X179530540Y-88571028D01*
X179610269Y-88709121D01*
X179668211Y-88809479D01*
X179668213Y-88809482D01*
X179668214Y-88809483D01*
X179835830Y-89027926D01*
X179835836Y-89027933D01*
X180030526Y-89222623D01*
X180030532Y-89222628D01*
X180248981Y-89390249D01*
X180402238Y-89478732D01*
X180487431Y-89527919D01*
X180487436Y-89527921D01*
X180487439Y-89527923D01*
X180741828Y-89633295D01*
X181007794Y-89704560D01*
X181280786Y-89740500D01*
X181280793Y-89740500D01*
X181556127Y-89740500D01*
X181556134Y-89740500D01*
X181829126Y-89704560D01*
X182095092Y-89633295D01*
X182349481Y-89527923D01*
X182587939Y-89390249D01*
X182806388Y-89222628D01*
X183001088Y-89027928D01*
X183168709Y-88809479D01*
X183306383Y-88571021D01*
X183411755Y-88316632D01*
X183483020Y-88050666D01*
X183518960Y-87777674D01*
X183518960Y-87502332D01*
X187317960Y-87502332D01*
X187317960Y-87777667D01*
X187317961Y-87777684D01*
X187353898Y-88050655D01*
X187353899Y-88050660D01*
X187353900Y-88050666D01*
X187353901Y-88050668D01*
X187425164Y-88316630D01*
X187530535Y-88571017D01*
X187530540Y-88571028D01*
X187610269Y-88709121D01*
X187668211Y-88809479D01*
X187668213Y-88809482D01*
X187668214Y-88809483D01*
X187835830Y-89027926D01*
X187835836Y-89027933D01*
X188030526Y-89222623D01*
X188030532Y-89222628D01*
X188248981Y-89390249D01*
X188402238Y-89478732D01*
X188487431Y-89527919D01*
X188487436Y-89527921D01*
X188487439Y-89527923D01*
X188741828Y-89633295D01*
X189007794Y-89704560D01*
X189280786Y-89740500D01*
X189280793Y-89740500D01*
X189556127Y-89740500D01*
X189556134Y-89740500D01*
X189829126Y-89704560D01*
X190095092Y-89633295D01*
X190349481Y-89527923D01*
X190587939Y-89390249D01*
X190806388Y-89222628D01*
X191001088Y-89027928D01*
X191168709Y-88809479D01*
X191306383Y-88571021D01*
X191411755Y-88316632D01*
X191483020Y-88050666D01*
X191518960Y-87777674D01*
X191518960Y-87502326D01*
X191483020Y-87229334D01*
X191411755Y-86963368D01*
X191306383Y-86708979D01*
X191306381Y-86708976D01*
X191306379Y-86708971D01*
X191257192Y-86623778D01*
X191168709Y-86470521D01*
X191099559Y-86380403D01*
X191001089Y-86252073D01*
X191001083Y-86252066D01*
X190806393Y-86057376D01*
X190806386Y-86057370D01*
X190587943Y-85889754D01*
X190587942Y-85889753D01*
X190587939Y-85889751D01*
X190492867Y-85834861D01*
X190349488Y-85752080D01*
X190349477Y-85752075D01*
X190095090Y-85646704D01*
X189962109Y-85611072D01*
X189829126Y-85575440D01*
X189829120Y-85575439D01*
X189829115Y-85575438D01*
X189556144Y-85539501D01*
X189556139Y-85539500D01*
X189556134Y-85539500D01*
X189280786Y-85539500D01*
X189280780Y-85539500D01*
X189280775Y-85539501D01*
X189007804Y-85575438D01*
X189007797Y-85575439D01*
X189007794Y-85575440D01*
X188951585Y-85590500D01*
X188741829Y-85646704D01*
X188487442Y-85752075D01*
X188487431Y-85752080D01*
X188248976Y-85889754D01*
X188030533Y-86057370D01*
X188030526Y-86057376D01*
X187835836Y-86252066D01*
X187835830Y-86252073D01*
X187668214Y-86470516D01*
X187530540Y-86708971D01*
X187530535Y-86708982D01*
X187425164Y-86963369D01*
X187353901Y-87229331D01*
X187353898Y-87229344D01*
X187317961Y-87502315D01*
X187317960Y-87502332D01*
X183518960Y-87502332D01*
X183518960Y-87502326D01*
X183483020Y-87229334D01*
X183411755Y-86963368D01*
X183306383Y-86708979D01*
X183306381Y-86708976D01*
X183306379Y-86708971D01*
X183257192Y-86623778D01*
X183168709Y-86470521D01*
X183099559Y-86380403D01*
X183001089Y-86252073D01*
X183001083Y-86252066D01*
X182806393Y-86057376D01*
X182806386Y-86057370D01*
X182587943Y-85889754D01*
X182587942Y-85889753D01*
X182587939Y-85889751D01*
X182492867Y-85834861D01*
X182349488Y-85752080D01*
X182349477Y-85752075D01*
X182095090Y-85646704D01*
X181962109Y-85611072D01*
X181829126Y-85575440D01*
X181829120Y-85575439D01*
X181829115Y-85575438D01*
X181556144Y-85539501D01*
X181556139Y-85539500D01*
X181556134Y-85539500D01*
X181280786Y-85539500D01*
X181280780Y-85539500D01*
X181280775Y-85539501D01*
X181007804Y-85575438D01*
X181007797Y-85575439D01*
X181007794Y-85575440D01*
X180951585Y-85590500D01*
X180741829Y-85646704D01*
X180487442Y-85752075D01*
X180487431Y-85752080D01*
X180248976Y-85889754D01*
X180030533Y-86057370D01*
X180030526Y-86057376D01*
X179835836Y-86252066D01*
X179835830Y-86252073D01*
X179668214Y-86470516D01*
X179530540Y-86708971D01*
X179530535Y-86708982D01*
X179425164Y-86963369D01*
X179353901Y-87229331D01*
X179353898Y-87229344D01*
X179317961Y-87502315D01*
X179317960Y-87502332D01*
X175518960Y-87502332D01*
X175518960Y-87502326D01*
X175483020Y-87229334D01*
X175411755Y-86963368D01*
X175306383Y-86708979D01*
X175306381Y-86708976D01*
X175306379Y-86708971D01*
X175257192Y-86623778D01*
X175168709Y-86470521D01*
X175099559Y-86380403D01*
X175001089Y-86252073D01*
X175001083Y-86252066D01*
X174806393Y-86057376D01*
X174806386Y-86057370D01*
X174587943Y-85889754D01*
X174587942Y-85889753D01*
X174587939Y-85889751D01*
X174492867Y-85834861D01*
X174349488Y-85752080D01*
X174349477Y-85752075D01*
X174095090Y-85646704D01*
X173962109Y-85611072D01*
X173829126Y-85575440D01*
X173829120Y-85575439D01*
X173829115Y-85575438D01*
X173556144Y-85539501D01*
X173556139Y-85539500D01*
X173556134Y-85539500D01*
X173280786Y-85539500D01*
X173280780Y-85539500D01*
X173280775Y-85539501D01*
X173007804Y-85575438D01*
X173007797Y-85575439D01*
X173007794Y-85575440D01*
X172951585Y-85590500D01*
X172741829Y-85646704D01*
X172487442Y-85752075D01*
X172487431Y-85752080D01*
X172248976Y-85889754D01*
X172030533Y-86057370D01*
X172030526Y-86057376D01*
X171835836Y-86252066D01*
X171835830Y-86252073D01*
X171668214Y-86470516D01*
X171530540Y-86708971D01*
X171530535Y-86708982D01*
X171425164Y-86963369D01*
X171353901Y-87229331D01*
X171353898Y-87229344D01*
X171317961Y-87502315D01*
X171317960Y-87502332D01*
X167518960Y-87502332D01*
X167518960Y-87502326D01*
X167483020Y-87229334D01*
X167411755Y-86963368D01*
X167306383Y-86708979D01*
X167306381Y-86708976D01*
X167306379Y-86708971D01*
X167257192Y-86623778D01*
X167168709Y-86470521D01*
X167099559Y-86380403D01*
X167001089Y-86252073D01*
X167001083Y-86252066D01*
X166806393Y-86057376D01*
X166806386Y-86057370D01*
X166587943Y-85889754D01*
X166587942Y-85889753D01*
X166587939Y-85889751D01*
X166492867Y-85834861D01*
X166349488Y-85752080D01*
X166349477Y-85752075D01*
X166095090Y-85646704D01*
X165962109Y-85611072D01*
X165829126Y-85575440D01*
X165829120Y-85575439D01*
X165829115Y-85575438D01*
X165556144Y-85539501D01*
X165556139Y-85539500D01*
X165556134Y-85539500D01*
X165280786Y-85539500D01*
X165280780Y-85539500D01*
X165280775Y-85539501D01*
X165007804Y-85575438D01*
X165007797Y-85575439D01*
X165007794Y-85575440D01*
X164951585Y-85590500D01*
X164741829Y-85646704D01*
X164487442Y-85752075D01*
X164487431Y-85752080D01*
X164248976Y-85889754D01*
X164030533Y-86057370D01*
X164030526Y-86057376D01*
X163835836Y-86252066D01*
X163835830Y-86252073D01*
X163668214Y-86470516D01*
X163530540Y-86708971D01*
X163530535Y-86708982D01*
X163425164Y-86963369D01*
X163353901Y-87229331D01*
X163353898Y-87229344D01*
X163317961Y-87502315D01*
X163317960Y-87502332D01*
X159418098Y-87502332D01*
X159384730Y-87248884D01*
X159316858Y-86995581D01*
X159316854Y-86995571D01*
X159216506Y-86753309D01*
X159216501Y-86753299D01*
X159085384Y-86526196D01*
X158925741Y-86318148D01*
X158925734Y-86318140D01*
X158740320Y-86132726D01*
X158740311Y-86132718D01*
X158532263Y-85973075D01*
X158305160Y-85841958D01*
X158305150Y-85841953D01*
X158062888Y-85741605D01*
X158062881Y-85741603D01*
X158062879Y-85741602D01*
X157809576Y-85673730D01*
X157751799Y-85666123D01*
X157549587Y-85639500D01*
X157549580Y-85639500D01*
X157287340Y-85639500D01*
X157287332Y-85639500D01*
X157056232Y-85669926D01*
X157027344Y-85673730D01*
X156774041Y-85741602D01*
X156774031Y-85741605D01*
X156531769Y-85841953D01*
X156531759Y-85841958D01*
X156304656Y-85973075D01*
X156096608Y-86132718D01*
X155911178Y-86318148D01*
X155751535Y-86526196D01*
X155620418Y-86753299D01*
X155620413Y-86753309D01*
X155520065Y-86995571D01*
X155520062Y-86995581D01*
X155457429Y-87229334D01*
X155452190Y-87248885D01*
X155417960Y-87508872D01*
X155417960Y-87771127D01*
X155438896Y-87930140D01*
X155452190Y-88031116D01*
X155473638Y-88111161D01*
X155520062Y-88284418D01*
X155520065Y-88284428D01*
X155544347Y-88343048D01*
X155551816Y-88412517D01*
X155520541Y-88474996D01*
X155460453Y-88510649D01*
X155429786Y-88514501D01*
X151392960Y-88514501D01*
X151325921Y-88494816D01*
X151280166Y-88442012D01*
X151268960Y-88390501D01*
X151268960Y-85164500D01*
X151288645Y-85097461D01*
X151341449Y-85051706D01*
X151392960Y-85040500D01*
X195593960Y-85040500D01*
X195660999Y-85060185D01*
G37*
%TD.AperFunction*%
%TD*%
%TA.AperFunction,Conductor*%
%TO.N,+12V*%
G36*
X175543039Y-106189684D02*
G01*
X175588794Y-106242488D01*
X175600000Y-106293999D01*
X175600000Y-108652887D01*
X175580315Y-108719926D01*
X175563681Y-108740568D01*
X175480160Y-108824088D01*
X175480157Y-108824092D01*
X175376141Y-108979762D01*
X175376136Y-108979771D01*
X175304487Y-109152748D01*
X175304485Y-109152756D01*
X175267960Y-109336379D01*
X175267960Y-109523620D01*
X175304485Y-109707243D01*
X175304487Y-109707251D01*
X175376136Y-109880228D01*
X175376141Y-109880237D01*
X175480156Y-110035906D01*
X175480157Y-110035907D01*
X175480158Y-110035908D01*
X175563682Y-110119432D01*
X175597166Y-110180753D01*
X175600000Y-110207112D01*
X175600000Y-113845999D01*
X175580315Y-113913038D01*
X175527511Y-113958793D01*
X175476000Y-113969999D01*
X174524000Y-113969999D01*
X174456961Y-113950314D01*
X174411206Y-113897510D01*
X174400000Y-113845999D01*
X174400000Y-110098609D01*
X174419685Y-110031570D01*
X174420898Y-110029718D01*
X174520778Y-109880237D01*
X174520778Y-109880236D01*
X174520782Y-109880231D01*
X174592433Y-109707251D01*
X174628960Y-109523616D01*
X174628960Y-109336384D01*
X174592433Y-109152749D01*
X174520782Y-108979769D01*
X174520781Y-108979768D01*
X174520778Y-108979762D01*
X174420898Y-108830281D01*
X174400020Y-108763603D01*
X174400000Y-108761390D01*
X174400000Y-106293999D01*
X174419685Y-106226960D01*
X174472489Y-106181205D01*
X174524000Y-106169999D01*
X175476000Y-106169999D01*
X175543039Y-106189684D01*
G37*
%TD.AperFunction*%
%TD*%
%TA.AperFunction,Conductor*%
%TO.N,VCC*%
G36*
X155731488Y-88739686D02*
G01*
X155762824Y-88768514D01*
X155911178Y-88961851D01*
X155911186Y-88961860D01*
X156096600Y-89147274D01*
X156096608Y-89147281D01*
X156304656Y-89306924D01*
X156531759Y-89438041D01*
X156531769Y-89438046D01*
X156774031Y-89538394D01*
X156774041Y-89538398D01*
X157027344Y-89606270D01*
X157287340Y-89640500D01*
X157287347Y-89640500D01*
X157549573Y-89640500D01*
X157549580Y-89640500D01*
X157809576Y-89606270D01*
X158062879Y-89538398D01*
X158305157Y-89438043D01*
X158532263Y-89306924D01*
X158740311Y-89147282D01*
X158740315Y-89147277D01*
X158740320Y-89147274D01*
X158925734Y-88961860D01*
X158925737Y-88961855D01*
X158925742Y-88961851D01*
X159055698Y-88792490D01*
X159074096Y-88768514D01*
X159130524Y-88727312D01*
X159172471Y-88720001D01*
X162361618Y-88720001D01*
X162428657Y-88739686D01*
X162474412Y-88792490D01*
X162485618Y-88843739D01*
X162537143Y-113236154D01*
X162517600Y-113303235D01*
X162464893Y-113349101D01*
X162412722Y-113360415D01*
X151392539Y-113322967D01*
X151325566Y-113303055D01*
X151279991Y-113250096D01*
X151268960Y-113198968D01*
X151268960Y-88844001D01*
X151288645Y-88776962D01*
X151341449Y-88731207D01*
X151392960Y-88720001D01*
X155664449Y-88720001D01*
X155731488Y-88739686D01*
G37*
%TD.AperFunction*%
%TD*%
M02*
