%TF.GenerationSoftware,KiCad,Pcbnew,9.0.4-9.0.4-0~ubuntu24.04.1*%
%TF.CreationDate,2025-09-29T23:59:47+02:00*%
%TF.ProjectId,ModuCard-vesc-to-mms-converter,4d6f6475-4361-4726-942d-766573632d74,rev?*%
%TF.SameCoordinates,Original*%
%TF.FileFunction,Copper,L2,Bot*%
%TF.FilePolarity,Positive*%
%FSLAX46Y46*%
G04 Gerber Fmt 4.6, Leading zero omitted, Abs format (unit mm)*
G04 Created by KiCad (PCBNEW 9.0.4-9.0.4-0~ubuntu24.04.1) date 2025-09-29 23:59:47*
%MOMM*%
%LPD*%
G01*
G04 APERTURE LIST*
G04 Aperture macros list*
%AMRoundRect*
0 Rectangle with rounded corners*
0 $1 Rounding radius*
0 $2 $3 $4 $5 $6 $7 $8 $9 X,Y pos of 4 corners*
0 Add a 4 corners polygon primitive as box body*
4,1,4,$2,$3,$4,$5,$6,$7,$8,$9,$2,$3,0*
0 Add four circle primitives for the rounded corners*
1,1,$1+$1,$2,$3*
1,1,$1+$1,$4,$5*
1,1,$1+$1,$6,$7*
1,1,$1+$1,$8,$9*
0 Add four rect primitives between the rounded corners*
20,1,$1+$1,$2,$3,$4,$5,0*
20,1,$1+$1,$4,$5,$6,$7,0*
20,1,$1+$1,$6,$7,$8,$9,0*
20,1,$1+$1,$8,$9,$2,$3,0*%
G04 Aperture macros list end*
%TA.AperFunction,ComponentPad*%
%ADD10C,3.200000*%
%TD*%
%TA.AperFunction,ComponentPad*%
%ADD11C,2.400000*%
%TD*%
%TA.AperFunction,ComponentPad*%
%ADD12C,1.500000*%
%TD*%
%TA.AperFunction,ComponentPad*%
%ADD13C,1.700000*%
%TD*%
%TA.AperFunction,ComponentPad*%
%ADD14RoundRect,0.250000X-0.600000X-0.725000X0.600000X-0.725000X0.600000X0.725000X-0.600000X0.725000X0*%
%TD*%
%TA.AperFunction,ComponentPad*%
%ADD15O,1.700000X1.950000*%
%TD*%
%TA.AperFunction,ComponentPad*%
%ADD16RoundRect,0.250000X0.600000X0.725000X-0.600000X0.725000X-0.600000X-0.725000X0.600000X-0.725000X0*%
%TD*%
%TA.AperFunction,ComponentPad*%
%ADD17RoundRect,0.505697X-1.179959X4.794303X-1.179959X-4.794303X1.179959X-4.794303X1.179959X4.794303X0*%
%TD*%
%TA.AperFunction,ComponentPad*%
%ADD18C,7.000000*%
%TD*%
%TA.AperFunction,ComponentPad*%
%ADD19RoundRect,0.495000X-1.155000X4.255000X-1.155000X-4.255000X1.155000X-4.255000X1.155000X4.255000X0*%
%TD*%
%TA.AperFunction,ComponentPad*%
%ADD20O,1.600000X1.600000*%
%TD*%
%TA.AperFunction,ComponentPad*%
%ADD21R,1.600000X1.600000*%
%TD*%
%TA.AperFunction,ComponentPad*%
%ADD22C,0.900000*%
%TD*%
%TA.AperFunction,ComponentPad*%
%ADD23C,8.000000*%
%TD*%
%TA.AperFunction,ViaPad*%
%ADD24C,0.600000*%
%TD*%
%TA.AperFunction,Conductor*%
%ADD25C,0.508000*%
%TD*%
%TA.AperFunction,Conductor*%
%ADD26C,0.200000*%
%TD*%
%TA.AperFunction,Conductor*%
%ADD27C,0.300000*%
%TD*%
G04 APERTURE END LIST*
D10*
%TO.P,U2,*%
%TO.N,*%
X97880000Y-133280000D03*
D11*
%TO.P,U2,30,30*%
%TO.N,GND*%
X106320000Y-137990000D03*
%TO.P,U2,29,29*%
X89440000Y-137990000D03*
%TO.P,U2,28,28*%
X105640000Y-123640000D03*
%TO.P,U2,27,27*%
X90120000Y-123640000D03*
%TO.P,U2,26,26*%
X106320000Y-119320000D03*
%TO.P,U2,25,25*%
X89440000Y-119310000D03*
D12*
%TO.P,U2,24,+*%
%TO.N,Net-(R20-Pad1)*%
X91020000Y-114770000D03*
%TO.P,U2,23,-*%
%TO.N,GND*%
X93560000Y-114770000D03*
%TO.P,U2,22,+*%
%TO.N,Net-(R19-Pad1)*%
X102200000Y-114770000D03*
%TO.P,U2,21,-*%
%TO.N,GND*%
X104740000Y-114770000D03*
D13*
%TO.P,U2,20,+*%
%TO.N,Net-(R16-Pad1)*%
X91020000Y-135820000D03*
%TO.P,U2,19,-*%
%TO.N,GND*%
X93560000Y-135820000D03*
%TO.P,U2,17,-*%
X104740000Y-135820000D03*
%TO.P,U2,18,+*%
%TO.N,Net-(R15-Pad1)*%
X102200000Y-135820000D03*
D12*
%TO.P,U2,16,16*%
%TO.N,USB_DOWNSTREAM_D+*%
X102330000Y-124390000D03*
%TO.P,U2,15,15*%
%TO.N,USB_DOWNSTREAM_D-*%
X101050000Y-126930000D03*
%TO.P,U2,14,14*%
%TO.N,+12V*%
X99780000Y-124390000D03*
%TO.P,U2,13,13*%
%TO.N,/CAN/CAN2+*%
X98510000Y-126930000D03*
%TO.P,U2,12,12*%
%TO.N,/CAN/CAN2-*%
X97250000Y-124390000D03*
%TO.P,U2,11,11*%
%TO.N,GND*%
X95980000Y-126930000D03*
%TO.P,U2,10,10*%
%TO.N,/CAN/CAN1+*%
X94710000Y-124390000D03*
%TO.P,U2,9,9*%
%TO.N,/CAN/CAN1-*%
X93430000Y-126930000D03*
%TO.P,U2,8,8*%
%TO.N,USB_UPSTREAM_D+*%
X102330000Y-117800000D03*
%TO.P,U2,7,7*%
%TO.N,USB_UPSTREAM_D-*%
X101050000Y-120340000D03*
%TO.P,U2,6,6*%
%TO.N,+12V*%
X99780000Y-117800000D03*
%TO.P,U2,5,5*%
%TO.N,/CAN/CAN2+*%
X98510000Y-120340000D03*
%TO.P,U2,4,4*%
%TO.N,/CAN/CAN2-*%
X97250000Y-117800000D03*
%TO.P,U2,3,3*%
%TO.N,GND*%
X95980000Y-120340000D03*
%TO.P,U2,2,2*%
%TO.N,/CAN/CAN1+*%
X94710000Y-117800000D03*
%TO.P,U2,1,1*%
%TO.N,/CAN/CAN1-*%
X93430000Y-120340000D03*
%TD*%
D14*
%TO.P,J1,1,Pin_1*%
%TO.N,GND*%
X110650000Y-116375000D03*
D15*
%TO.P,J1,2,Pin_2*%
%TO.N,/USB/USB_VESC_D+*%
X113150000Y-116375000D03*
%TO.P,J1,3,Pin_3*%
%TO.N,/USB/USB_VESC_D-*%
X115650000Y-116375000D03*
%TO.P,J1,4,Pin_4*%
%TO.N,+5V*%
X118150000Y-116375000D03*
%TD*%
%TO.P,J3,4,Pin_4*%
%TO.N,+5V*%
X110600000Y-110600000D03*
%TO.P,J3,3,Pin_3*%
%TO.N,/CAN/CAN+*%
X113100000Y-110600000D03*
%TO.P,J3,2,Pin_2*%
%TO.N,/CAN/CAN-*%
X115600000Y-110600000D03*
D16*
%TO.P,J3,1,Pin_1*%
%TO.N,GND*%
X118100000Y-110600000D03*
%TD*%
D17*
%TO.P,J5,2,Pin_2*%
%TO.N,GND*%
X130314344Y-130500000D03*
D18*
%TO.P,J5,1,Pin_1*%
%TO.N,VCC*%
X124900000Y-119800000D03*
D19*
X130350000Y-119750000D03*
%TD*%
D20*
%TO.P,SW1,4*%
%TO.N,/CAN/CAN2-*%
X104140000Y-111200000D03*
%TO.P,SW1,3*%
%TO.N,/CAN/CAN1-*%
X101600000Y-111200000D03*
%TO.P,SW1,2*%
%TO.N,Net-(R2-Pad2)*%
X101600000Y-103580000D03*
D21*
%TO.P,SW1,1*%
%TO.N,Net-(R7-Pad2)*%
X104140000Y-103580000D03*
%TD*%
D22*
%TO.P,H10,1,1*%
%TO.N,GND*%
X97600000Y-106700000D03*
X96721320Y-108821320D03*
X96721320Y-104578680D03*
X94600000Y-109700000D03*
D23*
X94600000Y-106700000D03*
D22*
X94600000Y-103700000D03*
X92478680Y-108821320D03*
X92478680Y-104578680D03*
X91600000Y-106700000D03*
%TD*%
%TO.P,H9,1,1*%
%TO.N,VCC*%
X122600000Y-106700000D03*
X123478680Y-104578680D03*
X123478680Y-108821320D03*
X125600000Y-103700000D03*
D23*
X125600000Y-106700000D03*
D22*
X125600000Y-109700000D03*
X127721320Y-104578680D03*
X127721320Y-108821320D03*
X128600000Y-106700000D03*
%TD*%
D24*
%TO.N,Net-(R19-Pad1)*%
X90500000Y-109300000D03*
%TO.N,/CAN/CAN-*%
X114800000Y-104800000D03*
X113300000Y-104800000D03*
%TO.N,/CAN/CAN2+*%
X107100000Y-108877000D03*
%TO.N,/CAN/CAN1+*%
X107900000Y-104500000D03*
X107900000Y-106300000D03*
%TO.N,/CAN/CAN2+*%
X107000000Y-104500000D03*
%TO.N,GND*%
X100810735Y-115310735D03*
X115500000Y-124000000D03*
X117700000Y-131300000D03*
X117600000Y-129100000D03*
X117600000Y-126700000D03*
X117500000Y-124000000D03*
X116900000Y-133200000D03*
X114800000Y-130500000D03*
X112100000Y-124782500D03*
X112509999Y-130222500D03*
X111632499Y-128950000D03*
X110909999Y-130322500D03*
X109900000Y-123082500D03*
%TO.N,+12V*%
X88500000Y-112950000D03*
%TD*%
D25*
%TO.N,GND*%
X95980000Y-120340000D02*
X95980000Y-126930000D01*
D26*
%TO.N,Net-(R19-Pad1)*%
X102200000Y-114770000D02*
X102200000Y-114850000D01*
X102200000Y-114850000D02*
X101050000Y-116000000D01*
X101050000Y-116000000D02*
X90400000Y-116000000D01*
X90400000Y-116000000D02*
X89300000Y-114900000D01*
X89300000Y-114900000D02*
X89300000Y-110500000D01*
X89300000Y-110500000D02*
X90500000Y-109300000D01*
D27*
%TO.N,/CAN/CAN-*%
X113300000Y-104800000D02*
X114800000Y-104800000D01*
%TO.N,/CAN/CAN2+*%
X107000000Y-104500000D02*
X107100000Y-104600000D01*
X107100000Y-104600000D02*
X107100000Y-108877000D01*
%TO.N,/CAN/CAN1+*%
X107900000Y-104500000D02*
X107900000Y-106300000D01*
D25*
%TO.N,+12V*%
X90750000Y-116555000D02*
X90170112Y-116555000D01*
X88500000Y-114884888D02*
X88500000Y-112950000D01*
X99595660Y-116555000D02*
X90750000Y-116555000D01*
X90170112Y-116555000D02*
X88500000Y-114884888D01*
X99780000Y-117800000D02*
X99780000Y-124390000D01*
X99780000Y-117800000D02*
X99780000Y-116739340D01*
X99780000Y-116739340D02*
X99595660Y-116555000D01*
%TD*%
%TA.AperFunction,Conductor*%
%TO.N,VCC*%
G36*
X126482703Y-100049686D02*
G01*
X126491143Y-100055619D01*
X126552226Y-100102490D01*
X126636201Y-100166927D01*
X126863299Y-100298041D01*
X126863309Y-100298046D01*
X127105571Y-100398394D01*
X127105581Y-100398398D01*
X127358884Y-100466270D01*
X127618880Y-100500500D01*
X127618887Y-100500500D01*
X127881113Y-100500500D01*
X127881120Y-100500500D01*
X128141116Y-100466270D01*
X128394419Y-100398398D01*
X128636697Y-100298043D01*
X128863803Y-100166924D01*
X129008850Y-100055624D01*
X129074018Y-100030431D01*
X129084336Y-100030001D01*
X132175500Y-100030001D01*
X132242539Y-100049686D01*
X132288294Y-100102490D01*
X132299500Y-100154001D01*
X132299500Y-124544991D01*
X132279815Y-124612030D01*
X132227011Y-124657785D01*
X132175079Y-124668990D01*
X121423579Y-124632456D01*
X121356606Y-124612544D01*
X121311031Y-124559585D01*
X121300000Y-124508457D01*
X121300000Y-100154001D01*
X121319685Y-100086962D01*
X121372489Y-100041207D01*
X121424000Y-100030001D01*
X126415664Y-100030001D01*
X126482703Y-100049686D01*
G37*
%TD.AperFunction*%
%TD*%
%TA.AperFunction,Conductor*%
%TO.N,GND*%
G36*
X132242539Y-95920185D02*
G01*
X132288294Y-95972989D01*
X132299500Y-96024500D01*
X132299500Y-99700501D01*
X132279815Y-99767540D01*
X132227011Y-99813295D01*
X132175500Y-99824501D01*
X129506697Y-99824501D01*
X129439658Y-99804816D01*
X129393903Y-99752012D01*
X129383959Y-99682854D01*
X129408321Y-99625015D01*
X129410921Y-99621625D01*
X129416924Y-99613803D01*
X129548043Y-99386697D01*
X129648398Y-99144419D01*
X129716270Y-98891116D01*
X129750500Y-98631120D01*
X129750500Y-98368880D01*
X129716270Y-98108884D01*
X129648398Y-97855581D01*
X129550204Y-97618520D01*
X129548046Y-97613309D01*
X129548041Y-97613299D01*
X129416924Y-97386196D01*
X129257281Y-97178148D01*
X129257274Y-97178140D01*
X129071860Y-96992726D01*
X129071851Y-96992718D01*
X128863803Y-96833075D01*
X128636700Y-96701958D01*
X128636690Y-96701953D01*
X128394428Y-96601605D01*
X128394421Y-96601603D01*
X128394419Y-96601602D01*
X128141116Y-96533730D01*
X128083339Y-96526123D01*
X127881127Y-96499500D01*
X127881120Y-96499500D01*
X127618880Y-96499500D01*
X127618872Y-96499500D01*
X127387772Y-96529926D01*
X127358884Y-96533730D01*
X127105581Y-96601602D01*
X127105571Y-96601605D01*
X126863309Y-96701953D01*
X126863299Y-96701958D01*
X126636196Y-96833075D01*
X126428148Y-96992718D01*
X126242718Y-97178148D01*
X126083075Y-97386196D01*
X125951958Y-97613299D01*
X125951953Y-97613309D01*
X125851605Y-97855571D01*
X125851602Y-97855581D01*
X125783730Y-98108885D01*
X125749500Y-98368872D01*
X125749500Y-98631127D01*
X125770436Y-98790140D01*
X125783730Y-98891116D01*
X125805178Y-98971161D01*
X125851602Y-99144418D01*
X125851605Y-99144428D01*
X125951953Y-99386690D01*
X125951958Y-99386700D01*
X126083075Y-99613802D01*
X126091679Y-99625015D01*
X126116873Y-99690184D01*
X126102834Y-99758629D01*
X126054020Y-99808618D01*
X125993303Y-99824501D01*
X121423992Y-99824501D01*
X121380313Y-99829198D01*
X121328825Y-99840398D01*
X121318627Y-99842891D01*
X121318624Y-99842892D01*
X121237916Y-99885900D01*
X121237913Y-99885902D01*
X121185104Y-99931661D01*
X121167160Y-99949243D01*
X121167154Y-99949250D01*
X121122511Y-100029060D01*
X121122509Y-100029065D01*
X121102826Y-100096097D01*
X121094500Y-100154004D01*
X121094500Y-124508453D01*
X121099123Y-124551802D01*
X121099123Y-124551805D01*
X121110154Y-124602933D01*
X121112532Y-124612772D01*
X121155270Y-124693633D01*
X121200830Y-124746575D01*
X121200838Y-124746584D01*
X121200843Y-124746589D01*
X121218376Y-124764605D01*
X121298042Y-124809522D01*
X121365015Y-124829434D01*
X121422881Y-124837955D01*
X132174381Y-124874489D01*
X132174383Y-124874488D01*
X132175922Y-124874494D01*
X132242895Y-124894406D01*
X132288470Y-124947365D01*
X132299501Y-124998493D01*
X132299502Y-138875913D01*
X132299503Y-143475500D01*
X132279818Y-143542539D01*
X132227014Y-143588294D01*
X132175503Y-143599500D01*
X87974500Y-143599500D01*
X87907461Y-143579815D01*
X87861706Y-143527011D01*
X87850500Y-143475500D01*
X87850500Y-139609041D01*
X111999500Y-139609041D01*
X111999500Y-139890958D01*
X112036295Y-140170439D01*
X112109259Y-140442743D01*
X112217135Y-140703179D01*
X112217140Y-140703190D01*
X112358083Y-140947309D01*
X112358088Y-140947317D01*
X112529700Y-141170965D01*
X112529704Y-141170970D01*
X112729029Y-141370295D01*
X112729033Y-141370298D01*
X112729035Y-141370300D01*
X112952683Y-141541912D01*
X112952690Y-141541916D01*
X113196809Y-141682859D01*
X113196814Y-141682861D01*
X113196817Y-141682863D01*
X113457261Y-141790742D01*
X113729558Y-141863704D01*
X114009049Y-141900500D01*
X114009056Y-141900500D01*
X114290944Y-141900500D01*
X114290951Y-141900500D01*
X114570442Y-141863704D01*
X114842739Y-141790742D01*
X115103183Y-141682863D01*
X115347317Y-141541912D01*
X115570965Y-141370300D01*
X115770300Y-141170965D01*
X115941912Y-140947317D01*
X116082863Y-140703183D01*
X116190742Y-140442739D01*
X116263704Y-140170442D01*
X116300500Y-139890951D01*
X116300500Y-139609049D01*
X116263704Y-139329558D01*
X116190742Y-139057261D01*
X116082863Y-138796817D01*
X116082861Y-138796814D01*
X116082859Y-138796809D01*
X115941916Y-138552690D01*
X115941912Y-138552683D01*
X115770300Y-138329035D01*
X115770298Y-138329033D01*
X115770295Y-138329029D01*
X115570970Y-138129704D01*
X115570965Y-138129700D01*
X115347317Y-137958088D01*
X115347311Y-137958084D01*
X115347309Y-137958083D01*
X115103190Y-137817140D01*
X115103179Y-137817135D01*
X114842743Y-137709259D01*
X114570439Y-137636295D01*
X114290958Y-137599500D01*
X114290951Y-137599500D01*
X114009049Y-137599500D01*
X114009041Y-137599500D01*
X113729560Y-137636295D01*
X113457256Y-137709259D01*
X113196820Y-137817135D01*
X113196809Y-137817140D01*
X112952690Y-137958083D01*
X112952682Y-137958089D01*
X112729029Y-138129704D01*
X112529704Y-138329029D01*
X112358089Y-138552682D01*
X112358083Y-138552690D01*
X112217140Y-138796809D01*
X112217135Y-138796820D01*
X112109259Y-139057256D01*
X112036295Y-139329560D01*
X111999500Y-139609041D01*
X87850500Y-139609041D01*
X87850500Y-135716530D01*
X89969500Y-135716530D01*
X89969500Y-135923469D01*
X90009868Y-136126412D01*
X90009870Y-136126420D01*
X90089058Y-136317596D01*
X90204024Y-136489657D01*
X90350342Y-136635975D01*
X90350345Y-136635977D01*
X90522402Y-136750941D01*
X90713580Y-136830130D01*
X90916530Y-136870499D01*
X90916534Y-136870500D01*
X90916535Y-136870500D01*
X91123466Y-136870500D01*
X91123467Y-136870499D01*
X91326420Y-136830130D01*
X91517598Y-136750941D01*
X91689655Y-136635977D01*
X91835977Y-136489655D01*
X91950941Y-136317598D01*
X92030130Y-136126420D01*
X92070500Y-135923465D01*
X92070500Y-135716535D01*
X92070499Y-135716530D01*
X101149500Y-135716530D01*
X101149500Y-135923469D01*
X101189868Y-136126412D01*
X101189870Y-136126420D01*
X101269058Y-136317596D01*
X101384024Y-136489657D01*
X101530342Y-136635975D01*
X101530345Y-136635977D01*
X101702402Y-136750941D01*
X101893580Y-136830130D01*
X102096530Y-136870499D01*
X102096534Y-136870500D01*
X102096535Y-136870500D01*
X102303466Y-136870500D01*
X102303467Y-136870499D01*
X102506420Y-136830130D01*
X102697598Y-136750941D01*
X102869655Y-136635977D01*
X103015977Y-136489655D01*
X103130941Y-136317598D01*
X103210130Y-136126420D01*
X103250500Y-135923465D01*
X103250500Y-135716535D01*
X103210130Y-135513580D01*
X103130941Y-135322402D01*
X103015977Y-135150345D01*
X103015975Y-135150342D01*
X102869657Y-135004024D01*
X102783626Y-134946541D01*
X102697598Y-134889059D01*
X102506420Y-134809870D01*
X102506412Y-134809868D01*
X102303469Y-134769500D01*
X102303465Y-134769500D01*
X102096535Y-134769500D01*
X102096530Y-134769500D01*
X101893587Y-134809868D01*
X101893579Y-134809870D01*
X101702403Y-134889058D01*
X101530342Y-135004024D01*
X101384024Y-135150342D01*
X101269058Y-135322403D01*
X101189870Y-135513579D01*
X101189868Y-135513587D01*
X101149500Y-135716530D01*
X92070499Y-135716530D01*
X92030130Y-135513580D01*
X91950941Y-135322402D01*
X91835977Y-135150345D01*
X91835975Y-135150342D01*
X91689657Y-135004024D01*
X91603626Y-134946541D01*
X91517598Y-134889059D01*
X91326420Y-134809870D01*
X91326412Y-134809868D01*
X91123469Y-134769500D01*
X91123465Y-134769500D01*
X90916535Y-134769500D01*
X90916530Y-134769500D01*
X90713587Y-134809868D01*
X90713579Y-134809870D01*
X90522403Y-134889058D01*
X90350342Y-135004024D01*
X90204024Y-135150342D01*
X90089058Y-135322403D01*
X90009870Y-135513579D01*
X90009868Y-135513587D01*
X89969500Y-135716530D01*
X87850500Y-135716530D01*
X87850500Y-133158456D01*
X96025500Y-133158456D01*
X96025500Y-133401543D01*
X96025501Y-133401559D01*
X96057230Y-133642569D01*
X96120149Y-133877386D01*
X96213175Y-134101972D01*
X96213182Y-134101987D01*
X96334730Y-134312516D01*
X96482722Y-134505380D01*
X96482730Y-134505389D01*
X96654611Y-134677270D01*
X96654619Y-134677277D01*
X96847483Y-134825269D01*
X97058012Y-134946817D01*
X97058027Y-134946824D01*
X97174171Y-134994932D01*
X97282612Y-135039850D01*
X97517429Y-135102769D01*
X97758450Y-135134500D01*
X97758457Y-135134500D01*
X98001543Y-135134500D01*
X98001550Y-135134500D01*
X98242571Y-135102769D01*
X98477388Y-135039850D01*
X98701984Y-134946819D01*
X98912516Y-134825269D01*
X99105380Y-134677278D01*
X99105384Y-134677273D01*
X99105389Y-134677270D01*
X99277270Y-134505389D01*
X99277273Y-134505384D01*
X99277278Y-134505380D01*
X99425269Y-134312516D01*
X99546819Y-134101984D01*
X99639850Y-133877388D01*
X99702769Y-133642571D01*
X99734500Y-133401550D01*
X99734500Y-133158450D01*
X99702769Y-132917429D01*
X99639850Y-132682612D01*
X99546819Y-132458016D01*
X99546817Y-132458012D01*
X99425269Y-132247483D01*
X99277277Y-132054619D01*
X99277270Y-132054611D01*
X99105389Y-131882730D01*
X99105380Y-131882722D01*
X98912516Y-131734730D01*
X98701987Y-131613182D01*
X98701972Y-131613175D01*
X98477386Y-131520149D01*
X98242569Y-131457230D01*
X98001559Y-131425501D01*
X98001556Y-131425500D01*
X98001550Y-131425500D01*
X97758450Y-131425500D01*
X97758444Y-131425500D01*
X97758440Y-131425501D01*
X97517430Y-131457230D01*
X97282613Y-131520149D01*
X97058027Y-131613175D01*
X97058012Y-131613182D01*
X96847483Y-131734730D01*
X96654619Y-131882722D01*
X96482722Y-132054619D01*
X96334730Y-132247483D01*
X96213182Y-132458012D01*
X96213175Y-132458027D01*
X96120149Y-132682613D01*
X96057230Y-132917430D01*
X96025501Y-133158440D01*
X96025500Y-133158456D01*
X87850500Y-133158456D01*
X87850500Y-115131696D01*
X87870185Y-115064657D01*
X87922989Y-115018902D01*
X87992147Y-115008958D01*
X88055703Y-115037983D01*
X88081886Y-115069695D01*
X88136309Y-115163958D01*
X88136311Y-115163960D01*
X88227995Y-115255644D01*
X88228001Y-115255649D01*
X89802080Y-116829728D01*
X89802090Y-116829739D01*
X89806420Y-116834069D01*
X89806421Y-116834070D01*
X89891042Y-116918691D01*
X89994681Y-116978527D01*
X90019105Y-116985071D01*
X90019107Y-116985072D01*
X90019108Y-116985072D01*
X90042206Y-116991261D01*
X90110276Y-117009501D01*
X90110278Y-117009501D01*
X90237544Y-117009501D01*
X90237560Y-117009500D01*
X90690164Y-117009500D01*
X93060739Y-117009500D01*
X93127778Y-117029185D01*
X93173533Y-117081989D01*
X93183477Y-117151147D01*
X93178671Y-117171812D01*
X93126427Y-117332601D01*
X93100140Y-117413506D01*
X93059500Y-117670097D01*
X93059500Y-117929902D01*
X93082837Y-118077243D01*
X93100140Y-118186493D01*
X93148874Y-118336482D01*
X93180423Y-118433578D01*
X93232538Y-118535857D01*
X93245435Y-118604527D01*
X93219159Y-118669267D01*
X93162053Y-118709525D01*
X93141453Y-118714626D01*
X93043505Y-118730140D01*
X92796423Y-118810422D01*
X92564945Y-118928368D01*
X92354774Y-119081066D01*
X92354768Y-119081071D01*
X92171071Y-119264768D01*
X92171066Y-119264774D01*
X92018368Y-119474945D01*
X91900422Y-119706423D01*
X91820140Y-119953506D01*
X91779500Y-120210097D01*
X91779500Y-120469902D01*
X91820140Y-120726493D01*
X91900422Y-120973576D01*
X91965366Y-121101034D01*
X92006785Y-121182323D01*
X92018368Y-121205054D01*
X92080448Y-121290500D01*
X92171069Y-121415229D01*
X92354771Y-121598931D01*
X92564949Y-121751634D01*
X92712445Y-121826787D01*
X92796423Y-121869577D01*
X92796425Y-121869577D01*
X92796428Y-121869579D01*
X93043507Y-121949860D01*
X93175706Y-121970797D01*
X93300098Y-121990500D01*
X93300103Y-121990500D01*
X93559902Y-121990500D01*
X93673298Y-121972539D01*
X93816493Y-121949860D01*
X94063572Y-121869579D01*
X94295051Y-121751634D01*
X94505229Y-121598931D01*
X94688931Y-121415229D01*
X94841634Y-121205051D01*
X94959579Y-120973572D01*
X95039860Y-120726493D01*
X95062539Y-120583298D01*
X95080500Y-120469902D01*
X95080500Y-120210097D01*
X95057162Y-120062748D01*
X95039860Y-119953507D01*
X94959579Y-119706428D01*
X94959576Y-119706424D01*
X94959576Y-119706421D01*
X94907461Y-119604142D01*
X94894564Y-119535473D01*
X94920840Y-119470732D01*
X94977946Y-119430475D01*
X94998547Y-119425373D01*
X95017064Y-119422440D01*
X95096493Y-119409860D01*
X95343572Y-119329579D01*
X95575051Y-119211634D01*
X95785229Y-119058931D01*
X95892319Y-118951841D01*
X95953642Y-118918356D01*
X96023334Y-118923340D01*
X96067681Y-118951841D01*
X96174771Y-119058931D01*
X96384949Y-119211634D01*
X96616428Y-119329579D01*
X96863507Y-119409860D01*
X96942949Y-119422441D01*
X97006080Y-119452369D01*
X97043012Y-119511680D01*
X97042015Y-119581543D01*
X97034033Y-119601209D01*
X96980422Y-119706423D01*
X96900140Y-119953506D01*
X96859500Y-120210097D01*
X96859500Y-120469902D01*
X96900140Y-120726493D01*
X96980422Y-120973576D01*
X97045366Y-121101034D01*
X97086785Y-121182323D01*
X97098368Y-121205054D01*
X97160448Y-121290500D01*
X97251069Y-121415229D01*
X97434771Y-121598931D01*
X97644949Y-121751634D01*
X97792445Y-121826787D01*
X97876423Y-121869577D01*
X97876425Y-121869577D01*
X97876428Y-121869579D01*
X98123507Y-121949860D01*
X98255706Y-121970797D01*
X98380098Y-121990500D01*
X98380103Y-121990500D01*
X98639902Y-121990500D01*
X98753298Y-121972539D01*
X98896493Y-121949860D01*
X99143572Y-121869579D01*
X99145205Y-121868746D01*
X99145891Y-121868617D01*
X99148071Y-121867715D01*
X99148260Y-121868172D01*
X99213873Y-121855850D01*
X99278614Y-121882125D01*
X99318871Y-121939231D01*
X99325500Y-121979231D01*
X99325500Y-123484250D01*
X99305815Y-123551289D01*
X99270391Y-123587352D01*
X99174092Y-123651697D01*
X99174088Y-123651700D01*
X99041700Y-123784088D01*
X99041697Y-123784092D01*
X99013418Y-123826415D01*
X98959805Y-123871220D01*
X98890480Y-123879927D01*
X98827453Y-123849772D01*
X98792385Y-123795842D01*
X98779579Y-123756428D01*
X98661634Y-123524949D01*
X98508931Y-123314771D01*
X98325229Y-123131069D01*
X98115051Y-122978366D01*
X98042764Y-122941534D01*
X97883576Y-122860422D01*
X97636493Y-122780140D01*
X97379902Y-122739500D01*
X97379897Y-122739500D01*
X97120103Y-122739500D01*
X97120098Y-122739500D01*
X96863506Y-122780140D01*
X96616423Y-122860422D01*
X96384945Y-122978368D01*
X96174774Y-123131066D01*
X96174768Y-123131071D01*
X96067681Y-123238159D01*
X96006358Y-123271644D01*
X95936666Y-123266660D01*
X95892319Y-123238159D01*
X95785231Y-123131071D01*
X95785225Y-123131066D01*
X95575054Y-122978368D01*
X95575053Y-122978367D01*
X95575051Y-122978366D01*
X95502764Y-122941534D01*
X95343576Y-122860422D01*
X95096493Y-122780140D01*
X94839902Y-122739500D01*
X94839897Y-122739500D01*
X94580103Y-122739500D01*
X94580098Y-122739500D01*
X94323506Y-122780140D01*
X94076423Y-122860422D01*
X93844945Y-122978368D01*
X93634774Y-123131066D01*
X93634768Y-123131071D01*
X93451071Y-123314768D01*
X93451066Y-123314774D01*
X93298368Y-123524945D01*
X93180422Y-123756423D01*
X93100140Y-124003506D01*
X93059500Y-124260097D01*
X93059500Y-124519902D01*
X93095403Y-124746584D01*
X93100140Y-124776493D01*
X93148874Y-124926482D01*
X93180423Y-125023578D01*
X93232538Y-125125857D01*
X93245435Y-125194527D01*
X93219159Y-125259267D01*
X93162053Y-125299525D01*
X93141453Y-125304626D01*
X93043505Y-125320140D01*
X92796423Y-125400422D01*
X92564945Y-125518368D01*
X92354774Y-125671066D01*
X92354768Y-125671071D01*
X92171071Y-125854768D01*
X92171066Y-125854774D01*
X92018368Y-126064945D01*
X91900422Y-126296423D01*
X91820140Y-126543506D01*
X91779500Y-126800097D01*
X91779500Y-127059902D01*
X91820140Y-127316493D01*
X91900422Y-127563576D01*
X91981534Y-127722764D01*
X92006785Y-127772323D01*
X92018368Y-127795054D01*
X92080448Y-127880500D01*
X92171069Y-128005229D01*
X92354771Y-128188931D01*
X92564949Y-128341634D01*
X92712445Y-128416787D01*
X92796423Y-128459577D01*
X92796425Y-128459577D01*
X92796428Y-128459579D01*
X93043507Y-128539860D01*
X93175706Y-128560797D01*
X93300098Y-128580500D01*
X93300103Y-128580500D01*
X93559902Y-128580500D01*
X93673298Y-128562539D01*
X93816493Y-128539860D01*
X94063572Y-128459579D01*
X94295051Y-128341634D01*
X94505229Y-128188931D01*
X94688931Y-128005229D01*
X94841634Y-127795051D01*
X94959579Y-127563572D01*
X95039860Y-127316493D01*
X95062539Y-127173298D01*
X95080500Y-127059902D01*
X95080500Y-126800097D01*
X95056848Y-126650767D01*
X95039860Y-126543507D01*
X94959579Y-126296428D01*
X94959576Y-126296424D01*
X94959576Y-126296421D01*
X94907461Y-126194142D01*
X94894564Y-126125473D01*
X94920840Y-126060732D01*
X94977946Y-126020475D01*
X94998547Y-126015373D01*
X95017064Y-126012440D01*
X95096493Y-125999860D01*
X95343572Y-125919579D01*
X95575051Y-125801634D01*
X95785229Y-125648931D01*
X95892319Y-125541841D01*
X95953642Y-125508356D01*
X96023334Y-125513340D01*
X96067681Y-125541841D01*
X96174771Y-125648931D01*
X96384949Y-125801634D01*
X96616428Y-125919579D01*
X96863507Y-125999860D01*
X96942949Y-126012441D01*
X97006080Y-126042369D01*
X97043012Y-126101680D01*
X97042015Y-126171543D01*
X97034033Y-126191209D01*
X96980422Y-126296423D01*
X96900140Y-126543506D01*
X96859500Y-126800097D01*
X96859500Y-127059902D01*
X96900140Y-127316493D01*
X96980422Y-127563576D01*
X97061534Y-127722764D01*
X97086785Y-127772323D01*
X97098368Y-127795054D01*
X97160448Y-127880500D01*
X97251069Y-128005229D01*
X97434771Y-128188931D01*
X97644949Y-128341634D01*
X97792445Y-128416787D01*
X97876423Y-128459577D01*
X97876425Y-128459577D01*
X97876428Y-128459579D01*
X98123507Y-128539860D01*
X98255706Y-128560797D01*
X98380098Y-128580500D01*
X98380103Y-128580500D01*
X98639902Y-128580500D01*
X98753298Y-128562539D01*
X98896493Y-128539860D01*
X99143572Y-128459579D01*
X99375051Y-128341634D01*
X99585229Y-128188931D01*
X99768931Y-128005229D01*
X99921634Y-127795051D01*
X100039579Y-127563572D01*
X100055657Y-127514086D01*
X100095094Y-127456412D01*
X100159453Y-127429214D01*
X100228299Y-127441129D01*
X100276690Y-127483516D01*
X100311694Y-127535903D01*
X100311700Y-127535911D01*
X100444088Y-127668299D01*
X100444092Y-127668302D01*
X100599762Y-127772318D01*
X100599768Y-127772321D01*
X100599769Y-127772322D01*
X100772749Y-127843973D01*
X100956379Y-127880499D01*
X100956383Y-127880500D01*
X100956384Y-127880500D01*
X101143617Y-127880500D01*
X101143618Y-127880499D01*
X101327251Y-127843973D01*
X101500231Y-127772322D01*
X101655908Y-127668302D01*
X101788302Y-127535908D01*
X101892322Y-127380231D01*
X101963973Y-127207251D01*
X102000500Y-127023616D01*
X102000500Y-126836384D01*
X101963973Y-126652749D01*
X101892322Y-126479769D01*
X101892321Y-126479768D01*
X101892318Y-126479762D01*
X101788302Y-126324092D01*
X101788299Y-126324088D01*
X101655911Y-126191700D01*
X101655907Y-126191697D01*
X101500237Y-126087681D01*
X101500228Y-126087676D01*
X101327251Y-126016027D01*
X101327243Y-126016025D01*
X101143620Y-125979500D01*
X101143616Y-125979500D01*
X100956384Y-125979500D01*
X100956379Y-125979500D01*
X100772756Y-126016025D01*
X100772748Y-126016027D01*
X100599771Y-126087676D01*
X100599762Y-126087681D01*
X100444092Y-126191697D01*
X100444088Y-126191700D01*
X100311700Y-126324088D01*
X100311697Y-126324092D01*
X100276690Y-126376484D01*
X100223077Y-126421289D01*
X100153752Y-126429996D01*
X100090725Y-126399841D01*
X100055657Y-126345912D01*
X100039579Y-126296428D01*
X100039577Y-126296425D01*
X100039577Y-126296423D01*
X99985967Y-126191209D01*
X99921634Y-126064949D01*
X99768931Y-125854771D01*
X99585229Y-125671069D01*
X99585225Y-125671066D01*
X99375053Y-125518366D01*
X99372498Y-125516801D01*
X99371731Y-125515953D01*
X99371110Y-125515502D01*
X99371204Y-125515371D01*
X99325624Y-125464988D01*
X99314203Y-125396059D01*
X99341861Y-125331896D01*
X99399817Y-125292873D01*
X99469671Y-125291378D01*
X99484738Y-125296512D01*
X99502749Y-125303973D01*
X99686379Y-125340499D01*
X99686383Y-125340500D01*
X99686384Y-125340500D01*
X99873617Y-125340500D01*
X99873618Y-125340499D01*
X100057251Y-125303973D01*
X100230231Y-125232322D01*
X100385908Y-125128302D01*
X100518302Y-124995908D01*
X100622322Y-124840231D01*
X100693973Y-124667251D01*
X100730500Y-124483616D01*
X100730500Y-124296384D01*
X100730499Y-124296379D01*
X101379500Y-124296379D01*
X101379500Y-124483620D01*
X101416025Y-124667243D01*
X101416027Y-124667251D01*
X101487676Y-124840228D01*
X101487681Y-124840237D01*
X101591697Y-124995907D01*
X101591700Y-124995911D01*
X101724088Y-125128299D01*
X101724092Y-125128302D01*
X101879762Y-125232318D01*
X101879771Y-125232323D01*
X101890640Y-125236825D01*
X102052749Y-125303973D01*
X102236379Y-125340499D01*
X102236383Y-125340500D01*
X102236384Y-125340500D01*
X102423617Y-125340500D01*
X102423618Y-125340499D01*
X102607251Y-125303973D01*
X102780231Y-125232322D01*
X102935908Y-125128302D01*
X103068302Y-124995908D01*
X103172322Y-124840231D01*
X103243973Y-124667251D01*
X103280500Y-124483616D01*
X103280500Y-124296384D01*
X103243973Y-124112749D01*
X103172322Y-123939769D01*
X103172321Y-123939768D01*
X103172318Y-123939762D01*
X103068302Y-123784092D01*
X103068299Y-123784088D01*
X102935911Y-123651700D01*
X102935907Y-123651697D01*
X102780237Y-123547681D01*
X102780228Y-123547676D01*
X102607251Y-123476027D01*
X102607243Y-123476025D01*
X102423620Y-123439500D01*
X102423616Y-123439500D01*
X102236384Y-123439500D01*
X102236379Y-123439500D01*
X102052756Y-123476025D01*
X102052748Y-123476027D01*
X101879771Y-123547676D01*
X101879762Y-123547681D01*
X101724092Y-123651697D01*
X101724088Y-123651700D01*
X101591700Y-123784088D01*
X101591697Y-123784092D01*
X101487681Y-123939762D01*
X101487676Y-123939771D01*
X101416027Y-124112748D01*
X101416025Y-124112756D01*
X101379500Y-124296379D01*
X100730499Y-124296379D01*
X100693973Y-124112749D01*
X100622322Y-123939769D01*
X100622321Y-123939768D01*
X100622318Y-123939762D01*
X100518302Y-123784092D01*
X100518299Y-123784088D01*
X100385911Y-123651700D01*
X100385907Y-123651697D01*
X100289609Y-123587352D01*
X100244804Y-123533739D01*
X100234500Y-123484250D01*
X100234500Y-121168073D01*
X100254185Y-121101034D01*
X100306989Y-121055279D01*
X100376147Y-121045335D01*
X100439703Y-121074360D01*
X100442784Y-121077229D01*
X100444092Y-121078302D01*
X100599762Y-121182318D01*
X100599768Y-121182321D01*
X100599769Y-121182322D01*
X100772749Y-121253973D01*
X100956379Y-121290499D01*
X100956383Y-121290500D01*
X100956384Y-121290500D01*
X101143617Y-121290500D01*
X101143618Y-121290499D01*
X101327251Y-121253973D01*
X101500231Y-121182322D01*
X101655908Y-121078302D01*
X101788302Y-120945908D01*
X101892322Y-120790231D01*
X101963973Y-120617251D01*
X102000500Y-120433616D01*
X102000500Y-120246384D01*
X101963973Y-120062749D01*
X101892322Y-119889769D01*
X101892321Y-119889768D01*
X101892318Y-119889762D01*
X101788302Y-119734092D01*
X101788299Y-119734088D01*
X101655911Y-119601700D01*
X101655907Y-119601697D01*
X101500237Y-119497681D01*
X101500228Y-119497676D01*
X101327251Y-119426027D01*
X101327243Y-119426025D01*
X101143620Y-119389500D01*
X101143616Y-119389500D01*
X100956384Y-119389500D01*
X100956379Y-119389500D01*
X100772756Y-119426025D01*
X100772748Y-119426027D01*
X100599771Y-119497676D01*
X100599762Y-119497681D01*
X100444092Y-119601697D01*
X100439382Y-119605563D01*
X100438111Y-119604014D01*
X100384858Y-119633093D01*
X100315166Y-119628109D01*
X100259233Y-119586237D01*
X100234816Y-119520773D01*
X100234500Y-119511927D01*
X100234500Y-118705748D01*
X100254185Y-118638709D01*
X100289607Y-118602647D01*
X100385908Y-118538302D01*
X100518302Y-118405908D01*
X100622322Y-118250231D01*
X100693973Y-118077251D01*
X100730500Y-117893616D01*
X100730500Y-117706384D01*
X100730499Y-117706379D01*
X101379500Y-117706379D01*
X101379500Y-117893620D01*
X101416025Y-118077243D01*
X101416027Y-118077251D01*
X101487676Y-118250228D01*
X101487681Y-118250237D01*
X101591697Y-118405907D01*
X101591700Y-118405911D01*
X101724088Y-118538299D01*
X101724092Y-118538302D01*
X101879762Y-118642318D01*
X101879771Y-118642323D01*
X101890640Y-118646825D01*
X102052749Y-118713973D01*
X102236379Y-118750499D01*
X102236383Y-118750500D01*
X102236384Y-118750500D01*
X102423617Y-118750500D01*
X102423618Y-118750499D01*
X102607251Y-118713973D01*
X102780231Y-118642322D01*
X102935908Y-118538302D01*
X103068302Y-118405908D01*
X103172322Y-118250231D01*
X103243973Y-118077251D01*
X103280500Y-117893616D01*
X103280500Y-117706384D01*
X103243973Y-117522749D01*
X103172322Y-117349769D01*
X103172321Y-117349768D01*
X103172318Y-117349762D01*
X103068302Y-117194092D01*
X103068299Y-117194088D01*
X102935911Y-117061700D01*
X102935907Y-117061697D01*
X102780237Y-116957681D01*
X102780228Y-116957676D01*
X102607251Y-116886027D01*
X102607243Y-116886025D01*
X102423620Y-116849500D01*
X102423616Y-116849500D01*
X102236384Y-116849500D01*
X102236379Y-116849500D01*
X102052756Y-116886025D01*
X102052748Y-116886027D01*
X101879771Y-116957676D01*
X101879762Y-116957681D01*
X101724092Y-117061697D01*
X101724088Y-117061700D01*
X101591700Y-117194088D01*
X101591697Y-117194092D01*
X101487681Y-117349762D01*
X101487676Y-117349771D01*
X101416027Y-117522748D01*
X101416025Y-117522756D01*
X101379500Y-117706379D01*
X100730499Y-117706379D01*
X100693973Y-117522749D01*
X100622322Y-117349769D01*
X100622321Y-117349768D01*
X100622318Y-117349762D01*
X100518302Y-117194092D01*
X100518299Y-117194088D01*
X100385911Y-117061700D01*
X100385907Y-117061697D01*
X100289609Y-116997352D01*
X100284518Y-116991261D01*
X100277297Y-116987963D01*
X100262431Y-116964832D01*
X100244804Y-116943739D01*
X100242852Y-116934365D01*
X100239523Y-116929185D01*
X100234500Y-116894250D01*
X100234500Y-116809178D01*
X100234501Y-116809165D01*
X100234501Y-116679505D01*
X100207185Y-116577562D01*
X100203527Y-116563910D01*
X100203527Y-116563909D01*
X100157759Y-116484637D01*
X100156745Y-116482730D01*
X100150112Y-116450544D01*
X100142362Y-116418600D01*
X100143093Y-116416487D01*
X100142642Y-116414298D01*
X100154462Y-116383639D01*
X100165214Y-116352573D01*
X100166971Y-116351190D01*
X100167776Y-116349105D01*
X100194298Y-116329700D01*
X100220136Y-116309382D01*
X100222763Y-116308875D01*
X100224165Y-116307850D01*
X100229879Y-116307504D01*
X100266222Y-116300500D01*
X101089560Y-116300500D01*
X101089562Y-116300500D01*
X101165989Y-116280021D01*
X101234511Y-116240460D01*
X101290460Y-116184511D01*
X101328441Y-116146530D01*
X112099500Y-116146530D01*
X112099500Y-116603469D01*
X112139868Y-116806412D01*
X112139870Y-116806420D01*
X112213870Y-116985072D01*
X112219059Y-116997598D01*
X112240165Y-117029185D01*
X112334024Y-117169657D01*
X112480342Y-117315975D01*
X112480345Y-117315977D01*
X112652402Y-117430941D01*
X112843580Y-117510130D01*
X113046530Y-117550499D01*
X113046534Y-117550500D01*
X113046535Y-117550500D01*
X113253466Y-117550500D01*
X113253467Y-117550499D01*
X113456420Y-117510130D01*
X113647598Y-117430941D01*
X113819655Y-117315977D01*
X113965977Y-117169655D01*
X114080941Y-116997598D01*
X114160130Y-116806420D01*
X114200500Y-116603465D01*
X114200500Y-116146535D01*
X114200499Y-116146530D01*
X114599500Y-116146530D01*
X114599500Y-116603469D01*
X114639868Y-116806412D01*
X114639870Y-116806420D01*
X114713870Y-116985072D01*
X114719059Y-116997598D01*
X114740165Y-117029185D01*
X114834024Y-117169657D01*
X114980342Y-117315975D01*
X114980345Y-117315977D01*
X115152402Y-117430941D01*
X115343580Y-117510130D01*
X115546530Y-117550499D01*
X115546534Y-117550500D01*
X115546535Y-117550500D01*
X115753466Y-117550500D01*
X115753467Y-117550499D01*
X115956420Y-117510130D01*
X116147598Y-117430941D01*
X116319655Y-117315977D01*
X116465977Y-117169655D01*
X116580941Y-116997598D01*
X116660130Y-116806420D01*
X116700500Y-116603465D01*
X116700500Y-116146535D01*
X116700499Y-116146530D01*
X117099500Y-116146530D01*
X117099500Y-116603469D01*
X117139868Y-116806412D01*
X117139870Y-116806420D01*
X117213870Y-116985072D01*
X117219059Y-116997598D01*
X117240165Y-117029185D01*
X117334024Y-117169657D01*
X117480342Y-117315975D01*
X117480345Y-117315977D01*
X117652402Y-117430941D01*
X117843580Y-117510130D01*
X118046530Y-117550499D01*
X118046534Y-117550500D01*
X118046535Y-117550500D01*
X118253466Y-117550500D01*
X118253467Y-117550499D01*
X118456420Y-117510130D01*
X118647598Y-117430941D01*
X118819655Y-117315977D01*
X118965977Y-117169655D01*
X119080941Y-116997598D01*
X119160130Y-116806420D01*
X119200500Y-116603465D01*
X119200500Y-116146535D01*
X119160130Y-115943580D01*
X119080941Y-115752402D01*
X118965977Y-115580345D01*
X118965975Y-115580342D01*
X118819657Y-115434024D01*
X118732678Y-115375907D01*
X118647598Y-115319059D01*
X118623195Y-115308951D01*
X118456420Y-115239870D01*
X118456412Y-115239868D01*
X118253469Y-115199500D01*
X118253465Y-115199500D01*
X118046535Y-115199500D01*
X118046530Y-115199500D01*
X117843587Y-115239868D01*
X117843579Y-115239870D01*
X117652403Y-115319058D01*
X117480342Y-115434024D01*
X117334024Y-115580342D01*
X117219058Y-115752403D01*
X117139870Y-115943579D01*
X117139868Y-115943587D01*
X117099500Y-116146530D01*
X116700499Y-116146530D01*
X116660130Y-115943580D01*
X116580941Y-115752402D01*
X116465977Y-115580345D01*
X116465975Y-115580342D01*
X116319657Y-115434024D01*
X116232678Y-115375907D01*
X116147598Y-115319059D01*
X116123195Y-115308951D01*
X115956420Y-115239870D01*
X115956412Y-115239868D01*
X115753469Y-115199500D01*
X115753465Y-115199500D01*
X115546535Y-115199500D01*
X115546530Y-115199500D01*
X115343587Y-115239868D01*
X115343579Y-115239870D01*
X115152403Y-115319058D01*
X114980342Y-115434024D01*
X114834024Y-115580342D01*
X114719058Y-115752403D01*
X114639870Y-115943579D01*
X114639868Y-115943587D01*
X114599500Y-116146530D01*
X114200499Y-116146530D01*
X114160130Y-115943580D01*
X114080941Y-115752402D01*
X113965977Y-115580345D01*
X113965975Y-115580342D01*
X113819657Y-115434024D01*
X113732678Y-115375907D01*
X113647598Y-115319059D01*
X113623195Y-115308951D01*
X113456420Y-115239870D01*
X113456412Y-115239868D01*
X113253469Y-115199500D01*
X113253465Y-115199500D01*
X113046535Y-115199500D01*
X113046530Y-115199500D01*
X112843587Y-115239868D01*
X112843579Y-115239870D01*
X112652403Y-115319058D01*
X112480342Y-115434024D01*
X112334024Y-115580342D01*
X112219058Y-115752403D01*
X112139870Y-115943579D01*
X112139868Y-115943587D01*
X112099500Y-116146530D01*
X101328441Y-116146530D01*
X101771001Y-115703968D01*
X101832322Y-115670485D01*
X101902013Y-115675469D01*
X101906112Y-115677081D01*
X101922749Y-115683973D01*
X102106379Y-115720499D01*
X102106383Y-115720500D01*
X102106384Y-115720500D01*
X102293617Y-115720500D01*
X102293618Y-115720499D01*
X102477251Y-115683973D01*
X102650231Y-115612322D01*
X102805908Y-115508302D01*
X102938302Y-115375908D01*
X103042322Y-115220231D01*
X103113973Y-115047251D01*
X103150500Y-114863616D01*
X103150500Y-114676384D01*
X103113973Y-114492749D01*
X103042322Y-114319769D01*
X103042321Y-114319768D01*
X103042318Y-114319762D01*
X102938302Y-114164092D01*
X102938299Y-114164088D01*
X102805911Y-114031700D01*
X102805907Y-114031697D01*
X102650237Y-113927681D01*
X102650228Y-113927676D01*
X102477251Y-113856027D01*
X102477243Y-113856025D01*
X102293620Y-113819500D01*
X102293616Y-113819500D01*
X102106384Y-113819500D01*
X102106379Y-113819500D01*
X101922756Y-113856025D01*
X101922748Y-113856027D01*
X101749771Y-113927676D01*
X101749762Y-113927681D01*
X101594092Y-114031697D01*
X101594088Y-114031700D01*
X101461700Y-114164088D01*
X101461697Y-114164092D01*
X101357681Y-114319762D01*
X101357676Y-114319771D01*
X101286027Y-114492748D01*
X101286025Y-114492756D01*
X101249500Y-114676379D01*
X101249500Y-114863620D01*
X101286025Y-115047243D01*
X101286028Y-115047255D01*
X101339771Y-115177003D01*
X101347240Y-115246472D01*
X101315964Y-115308951D01*
X101312891Y-115312136D01*
X100961848Y-115663181D01*
X100900525Y-115696666D01*
X100874167Y-115699500D01*
X91734073Y-115699500D01*
X91667034Y-115679815D01*
X91621279Y-115627011D01*
X91611335Y-115557853D01*
X91640360Y-115494297D01*
X91646392Y-115487819D01*
X91758299Y-115375911D01*
X91758302Y-115375908D01*
X91862322Y-115220231D01*
X91933973Y-115047251D01*
X91970500Y-114863616D01*
X91970500Y-114676384D01*
X91933973Y-114492749D01*
X91862322Y-114319769D01*
X91862321Y-114319768D01*
X91862318Y-114319762D01*
X91758302Y-114164092D01*
X91758299Y-114164088D01*
X91625911Y-114031700D01*
X91625907Y-114031697D01*
X91470237Y-113927681D01*
X91470228Y-113927676D01*
X91297251Y-113856027D01*
X91297243Y-113856025D01*
X91113620Y-113819500D01*
X91113616Y-113819500D01*
X90926384Y-113819500D01*
X90926379Y-113819500D01*
X90742756Y-113856025D01*
X90742748Y-113856027D01*
X90569771Y-113927676D01*
X90569762Y-113927681D01*
X90414092Y-114031697D01*
X90414088Y-114031700D01*
X90281700Y-114164088D01*
X90281697Y-114164092D01*
X90177681Y-114319762D01*
X90177676Y-114319771D01*
X90106027Y-114492748D01*
X90106025Y-114492756D01*
X90069500Y-114676379D01*
X90069500Y-114676383D01*
X90069500Y-114676384D01*
X90069500Y-114863616D01*
X90069501Y-114863620D01*
X90084334Y-114938193D01*
X90078105Y-115007784D01*
X90035242Y-115062961D01*
X89969352Y-115086205D01*
X89901355Y-115070137D01*
X89875035Y-115050064D01*
X89636819Y-114811848D01*
X89603334Y-114750525D01*
X89600500Y-114724167D01*
X89600500Y-111088549D01*
X99899500Y-111088549D01*
X99899500Y-111311450D01*
X99899501Y-111311466D01*
X99928594Y-111532452D01*
X99928595Y-111532457D01*
X99928596Y-111532463D01*
X99986290Y-111747780D01*
X99986293Y-111747790D01*
X100070292Y-111950580D01*
X100071595Y-111953726D01*
X100183052Y-112146774D01*
X100183057Y-112146780D01*
X100183058Y-112146782D01*
X100318751Y-112323622D01*
X100318757Y-112323629D01*
X100476370Y-112481242D01*
X100476377Y-112481248D01*
X100565328Y-112549502D01*
X100653226Y-112616948D01*
X100846274Y-112728405D01*
X101052219Y-112813710D01*
X101267537Y-112871404D01*
X101488543Y-112900500D01*
X101488550Y-112900500D01*
X101711450Y-112900500D01*
X101711457Y-112900500D01*
X101932463Y-112871404D01*
X102147781Y-112813710D01*
X102353726Y-112728405D01*
X102546774Y-112616948D01*
X102723624Y-112481247D01*
X102782320Y-112422550D01*
X102843641Y-112389067D01*
X102913333Y-112394051D01*
X102957679Y-112422550D01*
X103010628Y-112475499D01*
X103016378Y-112481249D01*
X103105328Y-112549502D01*
X103193226Y-112616948D01*
X103386274Y-112728405D01*
X103592219Y-112813710D01*
X103807537Y-112871404D01*
X104028543Y-112900500D01*
X104028550Y-112900500D01*
X104251450Y-112900500D01*
X104251457Y-112900500D01*
X104472463Y-112871404D01*
X104687781Y-112813710D01*
X104893726Y-112728405D01*
X105086774Y-112616948D01*
X105263624Y-112481247D01*
X105421247Y-112323624D01*
X105556948Y-112146774D01*
X105668405Y-111953726D01*
X105753710Y-111747781D01*
X105811404Y-111532463D01*
X105840500Y-111311457D01*
X105840500Y-111088543D01*
X105811404Y-110867537D01*
X105753710Y-110652219D01*
X105742216Y-110624471D01*
X105668406Y-110446277D01*
X105668405Y-110446274D01*
X105625251Y-110371530D01*
X109549500Y-110371530D01*
X109549500Y-110828469D01*
X109589868Y-111031412D01*
X109589870Y-111031420D01*
X109669058Y-111222596D01*
X109784024Y-111394657D01*
X109930342Y-111540975D01*
X109930345Y-111540977D01*
X110102402Y-111655941D01*
X110293580Y-111735130D01*
X110496530Y-111775499D01*
X110496534Y-111775500D01*
X110496535Y-111775500D01*
X110703466Y-111775500D01*
X110703467Y-111775499D01*
X110906420Y-111735130D01*
X111097598Y-111655941D01*
X111269655Y-111540977D01*
X111332993Y-111477638D01*
X111394314Y-111444155D01*
X111464006Y-111449139D01*
X111519940Y-111491010D01*
X111528060Y-111503321D01*
X111641392Y-111699617D01*
X111781081Y-111881661D01*
X111781089Y-111881670D01*
X111943330Y-112043911D01*
X111943338Y-112043918D01*
X112125382Y-112183607D01*
X112125385Y-112183608D01*
X112125388Y-112183611D01*
X112324112Y-112298344D01*
X112324117Y-112298346D01*
X112324123Y-112298349D01*
X112385138Y-112323622D01*
X112536113Y-112386158D01*
X112757762Y-112445548D01*
X112985266Y-112475500D01*
X112985273Y-112475500D01*
X113214727Y-112475500D01*
X113214734Y-112475500D01*
X113442238Y-112445548D01*
X113663887Y-112386158D01*
X113875888Y-112298344D01*
X114074612Y-112183611D01*
X114256661Y-112043919D01*
X114262314Y-112038266D01*
X114323635Y-112004777D01*
X114393327Y-112009758D01*
X114437686Y-112038266D01*
X114443332Y-112043913D01*
X114443338Y-112043918D01*
X114625382Y-112183607D01*
X114625385Y-112183608D01*
X114625388Y-112183611D01*
X114824112Y-112298344D01*
X114824117Y-112298346D01*
X114824123Y-112298349D01*
X114885138Y-112323622D01*
X115036113Y-112386158D01*
X115257762Y-112445548D01*
X115485266Y-112475500D01*
X115485273Y-112475500D01*
X115714727Y-112475500D01*
X115714734Y-112475500D01*
X115942238Y-112445548D01*
X116163887Y-112386158D01*
X116375888Y-112298344D01*
X116574612Y-112183611D01*
X116756661Y-112043919D01*
X116756667Y-112043913D01*
X116756670Y-112043911D01*
X116918911Y-111881670D01*
X116918914Y-111881665D01*
X116918919Y-111881661D01*
X117058611Y-111699612D01*
X117173344Y-111500888D01*
X117261158Y-111288887D01*
X117320548Y-111067238D01*
X117350500Y-110839734D01*
X117350500Y-110360266D01*
X117320548Y-110132762D01*
X117261158Y-109911113D01*
X117208113Y-109783052D01*
X117173349Y-109699123D01*
X117173346Y-109699117D01*
X117173344Y-109699112D01*
X117058611Y-109500388D01*
X117058608Y-109500385D01*
X117058607Y-109500382D01*
X116933880Y-109337836D01*
X116918919Y-109318339D01*
X116918918Y-109318338D01*
X116918911Y-109318330D01*
X116756670Y-109156089D01*
X116756661Y-109156081D01*
X116574617Y-109016392D01*
X116375890Y-108901657D01*
X116375876Y-108901650D01*
X116163887Y-108813842D01*
X116110361Y-108799500D01*
X115942238Y-108754452D01*
X115904215Y-108749446D01*
X115714741Y-108724500D01*
X115714734Y-108724500D01*
X115485266Y-108724500D01*
X115485258Y-108724500D01*
X115268715Y-108753009D01*
X115257762Y-108754452D01*
X115164076Y-108779554D01*
X115036112Y-108813842D01*
X114824123Y-108901650D01*
X114824109Y-108901657D01*
X114625382Y-109016392D01*
X114443338Y-109156081D01*
X114437681Y-109161738D01*
X114376358Y-109195223D01*
X114306666Y-109190239D01*
X114262319Y-109161738D01*
X114256670Y-109156089D01*
X114256661Y-109156081D01*
X114074617Y-109016392D01*
X113875890Y-108901657D01*
X113875876Y-108901650D01*
X113663887Y-108813842D01*
X113610361Y-108799500D01*
X113442238Y-108754452D01*
X113404215Y-108749446D01*
X113214741Y-108724500D01*
X113214734Y-108724500D01*
X112985266Y-108724500D01*
X112985258Y-108724500D01*
X112768715Y-108753009D01*
X112757762Y-108754452D01*
X112664076Y-108779554D01*
X112536112Y-108813842D01*
X112324123Y-108901650D01*
X112324109Y-108901657D01*
X112125382Y-109016392D01*
X111943338Y-109156081D01*
X111781081Y-109318338D01*
X111641394Y-109500379D01*
X111528060Y-109696679D01*
X111477492Y-109744894D01*
X111408885Y-109758116D01*
X111344021Y-109732148D01*
X111332992Y-109722359D01*
X111269657Y-109659024D01*
X111160806Y-109586293D01*
X111097598Y-109544059D01*
X111060267Y-109528596D01*
X110906420Y-109464870D01*
X110906412Y-109464868D01*
X110703469Y-109424500D01*
X110703465Y-109424500D01*
X110496535Y-109424500D01*
X110496530Y-109424500D01*
X110293587Y-109464868D01*
X110293579Y-109464870D01*
X110102403Y-109544058D01*
X109930342Y-109659024D01*
X109784024Y-109805342D01*
X109669058Y-109977403D01*
X109589870Y-110168579D01*
X109589868Y-110168587D01*
X109549500Y-110371530D01*
X105625251Y-110371530D01*
X105556948Y-110253226D01*
X105491997Y-110168580D01*
X105421248Y-110076377D01*
X105421242Y-110076370D01*
X105263629Y-109918757D01*
X105263622Y-109918751D01*
X105086782Y-109783058D01*
X105086780Y-109783057D01*
X105086774Y-109783052D01*
X104893726Y-109671595D01*
X104893722Y-109671593D01*
X104687790Y-109586293D01*
X104687783Y-109586291D01*
X104687781Y-109586290D01*
X104472463Y-109528596D01*
X104472457Y-109528595D01*
X104472452Y-109528594D01*
X104251466Y-109499501D01*
X104251463Y-109499500D01*
X104251457Y-109499500D01*
X104028543Y-109499500D01*
X104028537Y-109499500D01*
X104028533Y-109499501D01*
X103807547Y-109528594D01*
X103807540Y-109528595D01*
X103807537Y-109528596D01*
X103592219Y-109586290D01*
X103592209Y-109586293D01*
X103386277Y-109671593D01*
X103386273Y-109671595D01*
X103193226Y-109783052D01*
X103193217Y-109783058D01*
X103016377Y-109918751D01*
X103016370Y-109918757D01*
X102957681Y-109977447D01*
X102896358Y-110010932D01*
X102826666Y-110005948D01*
X102782319Y-109977447D01*
X102723629Y-109918757D01*
X102723622Y-109918751D01*
X102546782Y-109783058D01*
X102546780Y-109783057D01*
X102546774Y-109783052D01*
X102353726Y-109671595D01*
X102353722Y-109671593D01*
X102147790Y-109586293D01*
X102147783Y-109586291D01*
X102147781Y-109586290D01*
X101932463Y-109528596D01*
X101932457Y-109528595D01*
X101932452Y-109528594D01*
X101711466Y-109499501D01*
X101711463Y-109499500D01*
X101711457Y-109499500D01*
X101488543Y-109499500D01*
X101488537Y-109499500D01*
X101488533Y-109499501D01*
X101267547Y-109528594D01*
X101267540Y-109528595D01*
X101267537Y-109528596D01*
X101052219Y-109586290D01*
X101052209Y-109586293D01*
X100846277Y-109671593D01*
X100846273Y-109671595D01*
X100653226Y-109783052D01*
X100653217Y-109783058D01*
X100476377Y-109918751D01*
X100476370Y-109918757D01*
X100318757Y-110076370D01*
X100318751Y-110076377D01*
X100183058Y-110253217D01*
X100183052Y-110253226D01*
X100071595Y-110446273D01*
X100071593Y-110446277D01*
X99986293Y-110652209D01*
X99986290Y-110652219D01*
X99928597Y-110867534D01*
X99928594Y-110867547D01*
X99899501Y-111088533D01*
X99899500Y-111088549D01*
X89600500Y-111088549D01*
X89600500Y-110675832D01*
X89620185Y-110608793D01*
X89636815Y-110588155D01*
X90388151Y-109836818D01*
X90449474Y-109803334D01*
X90475832Y-109800500D01*
X90565890Y-109800500D01*
X90565892Y-109800500D01*
X90693186Y-109766392D01*
X90807314Y-109700500D01*
X90900500Y-109607314D01*
X90966392Y-109493186D01*
X91000500Y-109365892D01*
X91000500Y-109234108D01*
X90966392Y-109106814D01*
X90900500Y-108992686D01*
X90807314Y-108899500D01*
X90750250Y-108866554D01*
X90693187Y-108833608D01*
X90629539Y-108816554D01*
X90565892Y-108799500D01*
X90434108Y-108799500D01*
X90306812Y-108833608D01*
X90192686Y-108899500D01*
X90192683Y-108899502D01*
X90099502Y-108992683D01*
X90099500Y-108992686D01*
X90033608Y-109106812D01*
X89999500Y-109234108D01*
X89999500Y-109324166D01*
X89979815Y-109391205D01*
X89963181Y-109411847D01*
X89115489Y-110259540D01*
X89059541Y-110315487D01*
X89059535Y-110315495D01*
X89019982Y-110384004D01*
X89019979Y-110384009D01*
X88999500Y-110460439D01*
X88999500Y-112445684D01*
X88979815Y-112512723D01*
X88927011Y-112558478D01*
X88857853Y-112568422D01*
X88813500Y-112553071D01*
X88693189Y-112483609D01*
X88693186Y-112483608D01*
X88565892Y-112449500D01*
X88434108Y-112449500D01*
X88306812Y-112483608D01*
X88192686Y-112549500D01*
X88192683Y-112549502D01*
X88099502Y-112642683D01*
X88099500Y-112642686D01*
X88081887Y-112673193D01*
X88031319Y-112721408D01*
X87962712Y-112734630D01*
X87897848Y-112708662D01*
X87857320Y-112651748D01*
X87850500Y-112611192D01*
X87850500Y-103678543D01*
X100599499Y-103678543D01*
X100637947Y-103871829D01*
X100637950Y-103871839D01*
X100713364Y-104053907D01*
X100713371Y-104053920D01*
X100822860Y-104217781D01*
X100822863Y-104217785D01*
X100962214Y-104357136D01*
X100962218Y-104357139D01*
X101126079Y-104466628D01*
X101126092Y-104466635D01*
X101265918Y-104524552D01*
X101308165Y-104542051D01*
X101308169Y-104542051D01*
X101308170Y-104542052D01*
X101501456Y-104580500D01*
X101501459Y-104580500D01*
X101698543Y-104580500D01*
X101828582Y-104554632D01*
X101891835Y-104542051D01*
X102073914Y-104466632D01*
X102237782Y-104357139D01*
X102377139Y-104217782D01*
X102486632Y-104053914D01*
X102562051Y-103871835D01*
X102598727Y-103687454D01*
X102600500Y-103678543D01*
X102600500Y-103481456D01*
X102562052Y-103288170D01*
X102562051Y-103288169D01*
X102562051Y-103288165D01*
X102562049Y-103288160D01*
X102486635Y-103106092D01*
X102486628Y-103106079D01*
X102377139Y-102942218D01*
X102377136Y-102942214D01*
X102237785Y-102802863D01*
X102237781Y-102802860D01*
X102174006Y-102760247D01*
X103139500Y-102760247D01*
X103139500Y-104399752D01*
X103151131Y-104458229D01*
X103151132Y-104458230D01*
X103195447Y-104524552D01*
X103261769Y-104568867D01*
X103261770Y-104568868D01*
X103320247Y-104580499D01*
X103320250Y-104580500D01*
X103320252Y-104580500D01*
X104959750Y-104580500D01*
X104959751Y-104580499D01*
X104974568Y-104577552D01*
X105018229Y-104568868D01*
X105018229Y-104568867D01*
X105018231Y-104568867D01*
X105084552Y-104524552D01*
X105128867Y-104458231D01*
X105128867Y-104458229D01*
X105128868Y-104458229D01*
X105139353Y-104405513D01*
X105799500Y-104405513D01*
X105799500Y-104594486D01*
X105829059Y-104781118D01*
X105887454Y-104960836D01*
X105973242Y-105129203D01*
X106025817Y-105201565D01*
X106049298Y-105267371D01*
X106049500Y-105274451D01*
X106049500Y-108264623D01*
X106035985Y-108320918D01*
X105987454Y-108416163D01*
X105929059Y-108595881D01*
X105899500Y-108782513D01*
X105899500Y-108971486D01*
X105929059Y-109158118D01*
X105987454Y-109337836D01*
X106066610Y-109493187D01*
X106073240Y-109506199D01*
X106184310Y-109659073D01*
X106317927Y-109792690D01*
X106470801Y-109903760D01*
X106550347Y-109944290D01*
X106639163Y-109989545D01*
X106639165Y-109989545D01*
X106639168Y-109989547D01*
X106689645Y-110005948D01*
X106818881Y-110047940D01*
X107005514Y-110077500D01*
X107005519Y-110077500D01*
X107194486Y-110077500D01*
X107381118Y-110047940D01*
X107560832Y-109989547D01*
X107729199Y-109903760D01*
X107882073Y-109792690D01*
X108015690Y-109659073D01*
X108126760Y-109506199D01*
X108212547Y-109337832D01*
X108270940Y-109158118D01*
X108293387Y-109016392D01*
X108300500Y-108971486D01*
X108300500Y-108782513D01*
X108270940Y-108595881D01*
X108212545Y-108416163D01*
X108164015Y-108320918D01*
X108150500Y-108264623D01*
X108150500Y-107570979D01*
X108170185Y-107503940D01*
X108222989Y-107458185D01*
X108236174Y-107453051D01*
X108360832Y-107412547D01*
X108529199Y-107326760D01*
X108682073Y-107215690D01*
X108815690Y-107082073D01*
X108926760Y-106929199D01*
X109012547Y-106760832D01*
X109070940Y-106581118D01*
X109100500Y-106394486D01*
X109100500Y-106205513D01*
X109070940Y-106018881D01*
X109012545Y-105839163D01*
X108964015Y-105743918D01*
X108950500Y-105687623D01*
X108950500Y-105112376D01*
X108964015Y-105056081D01*
X109012545Y-104960836D01*
X109012545Y-104960835D01*
X109012547Y-104960832D01*
X109070940Y-104781118D01*
X109082914Y-104705519D01*
X109082915Y-104705513D01*
X112099500Y-104705513D01*
X112099500Y-104894486D01*
X112129059Y-105081118D01*
X112187454Y-105260836D01*
X112273240Y-105429199D01*
X112384310Y-105582073D01*
X112517927Y-105715690D01*
X112670801Y-105826760D01*
X112717394Y-105850500D01*
X112839163Y-105912545D01*
X112839165Y-105912545D01*
X112839168Y-105912547D01*
X112935497Y-105943846D01*
X113018881Y-105970940D01*
X113205514Y-106000500D01*
X113205519Y-106000500D01*
X113394486Y-106000500D01*
X113581118Y-105970940D01*
X113760832Y-105912547D01*
X113856081Y-105864014D01*
X113912376Y-105850500D01*
X114187624Y-105850500D01*
X114243919Y-105864015D01*
X114339163Y-105912545D01*
X114339165Y-105912545D01*
X114339168Y-105912547D01*
X114435497Y-105943846D01*
X114518881Y-105970940D01*
X114705514Y-106000500D01*
X114705519Y-106000500D01*
X114894486Y-106000500D01*
X115081118Y-105970940D01*
X115260832Y-105912547D01*
X115429199Y-105826760D01*
X115582073Y-105715690D01*
X115715690Y-105582073D01*
X115826760Y-105429199D01*
X115912547Y-105260832D01*
X115970940Y-105081118D01*
X116000500Y-104894486D01*
X116000500Y-104705513D01*
X115970940Y-104518881D01*
X115912545Y-104339163D01*
X115826759Y-104170800D01*
X115715690Y-104017927D01*
X115582073Y-103884310D01*
X115429199Y-103773240D01*
X115260836Y-103687454D01*
X115081118Y-103629059D01*
X114894486Y-103599500D01*
X114894481Y-103599500D01*
X114705519Y-103599500D01*
X114705514Y-103599500D01*
X114518881Y-103629059D01*
X114339163Y-103687454D01*
X114243919Y-103735985D01*
X114187624Y-103749500D01*
X113912376Y-103749500D01*
X113856081Y-103735985D01*
X113760836Y-103687454D01*
X113581118Y-103629059D01*
X113394486Y-103599500D01*
X113394481Y-103599500D01*
X113205519Y-103599500D01*
X113205514Y-103599500D01*
X113018881Y-103629059D01*
X112839163Y-103687454D01*
X112670800Y-103773240D01*
X112583579Y-103836610D01*
X112517927Y-103884310D01*
X112517925Y-103884312D01*
X112517924Y-103884312D01*
X112384312Y-104017924D01*
X112384312Y-104017925D01*
X112384310Y-104017927D01*
X112336610Y-104083579D01*
X112273240Y-104170800D01*
X112187454Y-104339163D01*
X112129059Y-104518881D01*
X112099500Y-104705513D01*
X109082915Y-104705513D01*
X109086758Y-104681249D01*
X109100500Y-104594486D01*
X109100500Y-104405513D01*
X109070940Y-104218881D01*
X109012545Y-104039163D01*
X108933643Y-103884310D01*
X108926760Y-103870801D01*
X108815690Y-103717927D01*
X108682073Y-103584310D01*
X108529199Y-103473240D01*
X108360836Y-103387454D01*
X108181118Y-103329059D01*
X107994486Y-103299500D01*
X107994481Y-103299500D01*
X107805519Y-103299500D01*
X107805514Y-103299500D01*
X107618880Y-103329060D01*
X107488318Y-103371482D01*
X107418477Y-103373477D01*
X107411682Y-103371482D01*
X107281119Y-103329060D01*
X107094486Y-103299500D01*
X107094481Y-103299500D01*
X106905519Y-103299500D01*
X106905514Y-103299500D01*
X106718881Y-103329059D01*
X106539163Y-103387454D01*
X106370800Y-103473240D01*
X106283579Y-103536610D01*
X106217927Y-103584310D01*
X106217925Y-103584312D01*
X106217924Y-103584312D01*
X106084312Y-103717924D01*
X106084312Y-103717925D01*
X106084310Y-103717927D01*
X106071190Y-103735985D01*
X105973240Y-103870800D01*
X105887454Y-104039163D01*
X105829059Y-104218881D01*
X105799500Y-104405513D01*
X105139353Y-104405513D01*
X105140499Y-104399752D01*
X105140500Y-104399750D01*
X105140500Y-102760249D01*
X105140499Y-102760247D01*
X105128868Y-102701770D01*
X105128867Y-102701769D01*
X105084552Y-102635447D01*
X105018230Y-102591132D01*
X105018229Y-102591131D01*
X104959752Y-102579500D01*
X104959748Y-102579500D01*
X103320252Y-102579500D01*
X103320247Y-102579500D01*
X103261770Y-102591131D01*
X103261769Y-102591132D01*
X103195447Y-102635447D01*
X103151132Y-102701769D01*
X103151131Y-102701770D01*
X103139500Y-102760247D01*
X102174006Y-102760247D01*
X102073920Y-102693371D01*
X102073907Y-102693364D01*
X101891839Y-102617950D01*
X101891829Y-102617947D01*
X101698543Y-102579500D01*
X101698541Y-102579500D01*
X101501459Y-102579500D01*
X101501457Y-102579500D01*
X101308170Y-102617947D01*
X101308160Y-102617950D01*
X101126092Y-102693364D01*
X101126079Y-102693371D01*
X100962218Y-102802860D01*
X100962214Y-102802863D01*
X100822863Y-102942214D01*
X100822860Y-102942218D01*
X100713371Y-103106079D01*
X100713364Y-103106092D01*
X100637950Y-103288160D01*
X100637947Y-103288170D01*
X100599500Y-103481456D01*
X100599500Y-103481459D01*
X100599500Y-103678541D01*
X100599500Y-103678543D01*
X100599499Y-103678543D01*
X87850500Y-103678543D01*
X87850500Y-98368872D01*
X90249500Y-98368872D01*
X90249500Y-98631127D01*
X90270436Y-98790140D01*
X90283730Y-98891116D01*
X90305178Y-98971161D01*
X90351602Y-99144418D01*
X90351605Y-99144428D01*
X90451953Y-99386690D01*
X90451958Y-99386700D01*
X90583075Y-99613803D01*
X90742718Y-99821851D01*
X90742726Y-99821860D01*
X90928140Y-100007274D01*
X90928148Y-100007281D01*
X90928149Y-100007282D01*
X90956536Y-100029064D01*
X91136196Y-100166924D01*
X91363299Y-100298041D01*
X91363309Y-100298046D01*
X91605571Y-100398394D01*
X91605581Y-100398398D01*
X91858884Y-100466270D01*
X92118880Y-100500500D01*
X92118887Y-100500500D01*
X92381113Y-100500500D01*
X92381120Y-100500500D01*
X92641116Y-100466270D01*
X92894419Y-100398398D01*
X93136697Y-100298043D01*
X93363803Y-100166924D01*
X93571851Y-100007282D01*
X93571855Y-100007277D01*
X93571860Y-100007274D01*
X93757274Y-99821860D01*
X93757277Y-99821855D01*
X93757282Y-99821851D01*
X93916924Y-99613803D01*
X94048043Y-99386697D01*
X94148398Y-99144419D01*
X94216270Y-98891116D01*
X94250500Y-98631120D01*
X94250500Y-98368880D01*
X94250499Y-98368872D01*
X99124500Y-98368872D01*
X99124500Y-98631127D01*
X99145436Y-98790140D01*
X99158730Y-98891116D01*
X99180178Y-98971161D01*
X99226602Y-99144418D01*
X99226605Y-99144428D01*
X99326953Y-99386690D01*
X99326958Y-99386700D01*
X99458075Y-99613803D01*
X99617718Y-99821851D01*
X99617726Y-99821860D01*
X99803140Y-100007274D01*
X99803148Y-100007281D01*
X99803149Y-100007282D01*
X99831536Y-100029064D01*
X100011196Y-100166924D01*
X100238299Y-100298041D01*
X100238309Y-100298046D01*
X100480571Y-100398394D01*
X100480581Y-100398398D01*
X100733884Y-100466270D01*
X100993880Y-100500500D01*
X100993887Y-100500500D01*
X101256113Y-100500500D01*
X101256120Y-100500500D01*
X101516116Y-100466270D01*
X101769419Y-100398398D01*
X102011697Y-100298043D01*
X102238803Y-100166924D01*
X102446851Y-100007282D01*
X102446855Y-100007277D01*
X102446860Y-100007274D01*
X102632274Y-99821860D01*
X102632277Y-99821855D01*
X102632282Y-99821851D01*
X102791924Y-99613803D01*
X102923043Y-99386697D01*
X103023398Y-99144419D01*
X103091270Y-98891116D01*
X103125500Y-98631120D01*
X103125500Y-98368880D01*
X103125499Y-98368872D01*
X107999500Y-98368872D01*
X107999500Y-98631127D01*
X108020436Y-98790140D01*
X108033730Y-98891116D01*
X108055178Y-98971161D01*
X108101602Y-99144418D01*
X108101605Y-99144428D01*
X108201953Y-99386690D01*
X108201958Y-99386700D01*
X108333075Y-99613803D01*
X108492718Y-99821851D01*
X108492726Y-99821860D01*
X108678140Y-100007274D01*
X108678148Y-100007281D01*
X108678149Y-100007282D01*
X108706536Y-100029064D01*
X108886196Y-100166924D01*
X109113299Y-100298041D01*
X109113309Y-100298046D01*
X109355571Y-100398394D01*
X109355581Y-100398398D01*
X109608884Y-100466270D01*
X109868880Y-100500500D01*
X109868887Y-100500500D01*
X110131113Y-100500500D01*
X110131120Y-100500500D01*
X110391116Y-100466270D01*
X110644419Y-100398398D01*
X110886697Y-100298043D01*
X111113803Y-100166924D01*
X111321851Y-100007282D01*
X111321855Y-100007277D01*
X111321860Y-100007274D01*
X111507274Y-99821860D01*
X111507277Y-99821855D01*
X111507282Y-99821851D01*
X111666924Y-99613803D01*
X111798043Y-99386697D01*
X111898398Y-99144419D01*
X111966270Y-98891116D01*
X112000500Y-98631120D01*
X112000500Y-98368880D01*
X112000499Y-98368872D01*
X116874500Y-98368872D01*
X116874500Y-98631127D01*
X116895436Y-98790140D01*
X116908730Y-98891116D01*
X116930178Y-98971161D01*
X116976602Y-99144418D01*
X116976605Y-99144428D01*
X117076953Y-99386690D01*
X117076958Y-99386700D01*
X117208075Y-99613803D01*
X117367718Y-99821851D01*
X117367726Y-99821860D01*
X117553140Y-100007274D01*
X117553148Y-100007281D01*
X117553149Y-100007282D01*
X117581536Y-100029064D01*
X117761196Y-100166924D01*
X117988299Y-100298041D01*
X117988309Y-100298046D01*
X118230571Y-100398394D01*
X118230581Y-100398398D01*
X118483884Y-100466270D01*
X118743880Y-100500500D01*
X118743887Y-100500500D01*
X119006113Y-100500500D01*
X119006120Y-100500500D01*
X119266116Y-100466270D01*
X119519419Y-100398398D01*
X119761697Y-100298043D01*
X119988803Y-100166924D01*
X120196851Y-100007282D01*
X120196855Y-100007277D01*
X120196860Y-100007274D01*
X120382274Y-99821860D01*
X120382277Y-99821855D01*
X120382282Y-99821851D01*
X120541924Y-99613803D01*
X120673043Y-99386697D01*
X120773398Y-99144419D01*
X120841270Y-98891116D01*
X120875500Y-98631120D01*
X120875500Y-98368880D01*
X120841270Y-98108884D01*
X120773398Y-97855581D01*
X120675204Y-97618520D01*
X120673046Y-97613309D01*
X120673041Y-97613299D01*
X120541924Y-97386196D01*
X120382281Y-97178148D01*
X120382274Y-97178140D01*
X120196860Y-96992726D01*
X120196851Y-96992718D01*
X119988803Y-96833075D01*
X119761700Y-96701958D01*
X119761690Y-96701953D01*
X119519428Y-96601605D01*
X119519421Y-96601603D01*
X119519419Y-96601602D01*
X119266116Y-96533730D01*
X119208339Y-96526123D01*
X119006127Y-96499500D01*
X119006120Y-96499500D01*
X118743880Y-96499500D01*
X118743872Y-96499500D01*
X118512772Y-96529926D01*
X118483884Y-96533730D01*
X118230581Y-96601602D01*
X118230571Y-96601605D01*
X117988309Y-96701953D01*
X117988299Y-96701958D01*
X117761196Y-96833075D01*
X117553148Y-96992718D01*
X117367718Y-97178148D01*
X117208075Y-97386196D01*
X117076958Y-97613299D01*
X117076953Y-97613309D01*
X116976605Y-97855571D01*
X116976602Y-97855581D01*
X116908730Y-98108885D01*
X116874500Y-98368872D01*
X112000499Y-98368872D01*
X111966270Y-98108884D01*
X111898398Y-97855581D01*
X111800204Y-97618520D01*
X111798046Y-97613309D01*
X111798041Y-97613299D01*
X111666924Y-97386196D01*
X111507281Y-97178148D01*
X111507274Y-97178140D01*
X111321860Y-96992726D01*
X111321851Y-96992718D01*
X111113803Y-96833075D01*
X110886700Y-96701958D01*
X110886690Y-96701953D01*
X110644428Y-96601605D01*
X110644421Y-96601603D01*
X110644419Y-96601602D01*
X110391116Y-96533730D01*
X110333339Y-96526123D01*
X110131127Y-96499500D01*
X110131120Y-96499500D01*
X109868880Y-96499500D01*
X109868872Y-96499500D01*
X109637772Y-96529926D01*
X109608884Y-96533730D01*
X109355581Y-96601602D01*
X109355571Y-96601605D01*
X109113309Y-96701953D01*
X109113299Y-96701958D01*
X108886196Y-96833075D01*
X108678148Y-96992718D01*
X108492718Y-97178148D01*
X108333075Y-97386196D01*
X108201958Y-97613299D01*
X108201953Y-97613309D01*
X108101605Y-97855571D01*
X108101602Y-97855581D01*
X108033730Y-98108885D01*
X107999500Y-98368872D01*
X103125499Y-98368872D01*
X103091270Y-98108884D01*
X103023398Y-97855581D01*
X102925204Y-97618520D01*
X102923046Y-97613309D01*
X102923041Y-97613299D01*
X102791924Y-97386196D01*
X102632281Y-97178148D01*
X102632274Y-97178140D01*
X102446860Y-96992726D01*
X102446851Y-96992718D01*
X102238803Y-96833075D01*
X102011700Y-96701958D01*
X102011690Y-96701953D01*
X101769428Y-96601605D01*
X101769421Y-96601603D01*
X101769419Y-96601602D01*
X101516116Y-96533730D01*
X101458339Y-96526123D01*
X101256127Y-96499500D01*
X101256120Y-96499500D01*
X100993880Y-96499500D01*
X100993872Y-96499500D01*
X100762772Y-96529926D01*
X100733884Y-96533730D01*
X100480581Y-96601602D01*
X100480571Y-96601605D01*
X100238309Y-96701953D01*
X100238299Y-96701958D01*
X100011196Y-96833075D01*
X99803148Y-96992718D01*
X99617718Y-97178148D01*
X99458075Y-97386196D01*
X99326958Y-97613299D01*
X99326953Y-97613309D01*
X99226605Y-97855571D01*
X99226602Y-97855581D01*
X99158730Y-98108885D01*
X99124500Y-98368872D01*
X94250499Y-98368872D01*
X94216270Y-98108884D01*
X94148398Y-97855581D01*
X94050204Y-97618520D01*
X94048046Y-97613309D01*
X94048041Y-97613299D01*
X93916924Y-97386196D01*
X93757281Y-97178148D01*
X93757274Y-97178140D01*
X93571860Y-96992726D01*
X93571851Y-96992718D01*
X93363803Y-96833075D01*
X93136700Y-96701958D01*
X93136690Y-96701953D01*
X92894428Y-96601605D01*
X92894421Y-96601603D01*
X92894419Y-96601602D01*
X92641116Y-96533730D01*
X92583339Y-96526123D01*
X92381127Y-96499500D01*
X92381120Y-96499500D01*
X92118880Y-96499500D01*
X92118872Y-96499500D01*
X91887772Y-96529926D01*
X91858884Y-96533730D01*
X91605581Y-96601602D01*
X91605571Y-96601605D01*
X91363309Y-96701953D01*
X91363299Y-96701958D01*
X91136196Y-96833075D01*
X90928148Y-96992718D01*
X90742718Y-97178148D01*
X90583075Y-97386196D01*
X90451958Y-97613299D01*
X90451953Y-97613309D01*
X90351605Y-97855571D01*
X90351602Y-97855581D01*
X90283730Y-98108885D01*
X90249500Y-98368872D01*
X87850500Y-98368872D01*
X87850500Y-96024500D01*
X87870185Y-95957461D01*
X87922989Y-95911706D01*
X87974500Y-95900500D01*
X132175500Y-95900500D01*
X132242539Y-95920185D01*
G37*
%TD.AperFunction*%
%TD*%
M02*
